<?xml version="1.0" standalone="no"?><!DOCTYPE svg PUBLIC "-//W3C//DTD SVG 1.1//EN" "http://www.w3.org/Graphics/SVG/1.1/DTD/svg11.dtd" ><svg version="1.1" xmlns="http://www.w3.org/2000/svg"><defs><font horiz-adv-x="0" id="font"><font-face ascent="650" bbox="-120 -201 908 894" cap-height="614" descent="-350" font-family="Copyright Klim Type Foundry" font-stretch="normal" font-style="normal" font-weight="400" units-per-em="1000" x-height="444" /><missing-glyph horiz-adv-x="221" /><glyph d="M335 614 575 0H495L424 185H171L101 0H21L260 614ZM197 255H397L297 516Z" glyph-name="A" horiz-adv-x="596" unicode="A" /><glyph d="M811 614V543H514V350H782V280H514V71H811V0H436V185H215L103 0H21L389 614ZM436 550 257 255H436Z" glyph-name="AE" horiz-adv-x="861" unicode="&#198;" /><glyph d="M811 614V543H514V350H782V280H514V71H811V0H436V185H215L103 0H21L389 614ZM436 550 257 255H436ZM544 668 624 785H711L620 668Z" glyph-name="AEacute" horiz-adv-x="861" unicode="&#508;" /><glyph d="M335 614 575 0H495L424 185H171L101 0H21L260 614ZM197 255H397L297 516ZM257 668 337 785H424L333 668Z" glyph-name="Aacute" horiz-adv-x="596" unicode="&#193;" /><glyph d="M335 614 575 0H495L424 185H171L101 0H21L260 614ZM197 255H397L297 516ZM298 666Q272 666 251 673.5Q230 681 215 696.5Q200 712 191.5 734.5Q183 757 183 786H240Q240 754 256.5 738Q273 722 298 722Q325 722 341 738Q357 754 357 786H414Q414 757 406 734.5Q398 712 382.5 696.5Q367 681 345.5 673.5Q324 666 298 666Z" glyph-name="Abreve" horiz-adv-x="596" unicode="&#258;" /><glyph d="M335 614 575 0H495L424 185H171L101 0H21L260 614ZM197 255H397L297 516ZM425 669H356L298 740L239 669H170L263 791H332Z" glyph-name="Acircumflex" horiz-adv-x="596" unicode="&#194;" /><glyph d="M335 614 575 0H495L424 185H171L101 0H21L260 614ZM197 255H397L297 516ZM182 722Q182 742 195.5 755Q209 768 229 768Q248 768 261.5 755Q275 742 275 722Q275 703 261.5 689.5Q248 676 229 676Q209 676 195.5 689.5Q182 703 182 722ZM322 722Q322 742 335.5 755Q349 768 368 768Q387 768 401 755Q415 742 415 722Q415 703 401 689.5Q387 676 368 676Q349 676 335.5 689.5Q322 703 322 722Z" glyph-name="Adieresis" horiz-adv-x="596" unicode="&#196;" /><glyph d="M335 614 575 0H495L424 185H171L101 0H21L260 614ZM197 255H397L297 516ZM262 668 170 785H258L337 668Z" glyph-name="Agrave" horiz-adv-x="596" unicode="&#192;" /><glyph d="M335 614 575 0H495L424 185H171L101 0H21L260 614ZM197 255H397L297 516ZM192 732H406V671H192Z" glyph-name="Amacron" horiz-adv-x="596" unicode="&#256;" /><glyph d="M335 614 575 0Q560 -25 550 -41Q540 -57 535 -69Q530 -81 527.5 -89Q525 -97 525 -106Q525 -119 531.5 -125.5Q538 -132 548 -132Q558 -132 566 -128Q574 -124 585 -117V-167Q574 -176 561 -181Q548 -186 533 -186Q516 -186 503.5 -181.5Q491 -177 483 -168.5Q475 -160 470.5 -147.5Q466 -135 466 -120Q466 -106 470 -92.5Q474 -79 481 -65Q488 -51 497.5 -35Q507 -19 519 0H495L424 185H171L101 0H21L260 614ZM197 255H397L297 516Z" glyph-name="Aogonek" horiz-adv-x="596" unicode="&#260;" /><glyph d="M335 614 575 0H495L424 185H171L101 0H21L260 614ZM197 255H397L297 516ZM386 735Q386 716 379.5 700.5Q373 685 360.5 673.5Q348 662 332 655Q316 648 299 648Q280 648 264.5 655Q249 662 236.5 673.5Q224 685 217.5 700.5Q211 716 211 735Q211 752 217.5 768Q224 784 236.5 795.5Q249 807 264.5 814Q280 821 299 821Q316 821 332 814Q348 807 360.5 795.5Q373 784 379.5 768Q386 752 386 735ZM344 735Q344 754 330.5 767Q317 780 299 780Q280 780 266.5 767Q253 754 253 735Q253 715 266.5 702Q280 689 299 689Q317 689 330.5 702Q344 715 344 735Z" glyph-name="Aring" horiz-adv-x="596" unicode="&#197;" /><glyph d="M335 614 575 0H495L424 185H171L101 0H21L260 614ZM198 255H397L297 516ZM386 711Q386 680 360 658.5Q334 637 297 637Q260 637 234.5 658.5Q209 680 209 711Q209 726 215.5 739.5Q222 753 234 763Q246 773 262 779Q278 785 297 785Q315 785 331.5 779Q348 773 360 763Q372 753 379 739.5Q386 726 386 711ZM264 808 320 894H406L339 808ZM344 711Q344 727 330 737Q316 747 297 747Q278 747 264.5 737Q251 727 251 711Q251 694 264.5 684.5Q278 675 297 675Q316 675 330 684.5Q344 694 344 711Z" glyph-name="Aringacute" horiz-adv-x="596" unicode="&#506;" /><glyph d="M335 614 575 0H495L424 185H171L101 0H21L260 614ZM197 255H397L297 516ZM433 784Q433 757 428.5 735Q424 713 414.5 697.5Q405 682 390.5 673.5Q376 665 357 665Q338 665 323.5 674Q309 683 296.5 693Q284 703 272 712Q260 721 246 721Q229 721 221 707.5Q213 694 212 668H164Q164 695 168.5 716.5Q173 738 183 754Q193 770 207 778.5Q221 787 240 787Q259 787 273.5 778.5Q288 770 300.5 759.5Q313 749 325 740Q337 731 351 731Q367 731 375.5 745Q384 759 385 784Z" glyph-name="Atilde" horiz-adv-x="596" unicode="&#195;" /><glyph d="M388 318Q413 312 433 298Q453 284 468 265Q483 246 491 222Q499 198 499 173Q499 88 445 44Q391 0 295 0H73V614H275Q371 614 424.5 572.5Q478 531 478 451Q478 423 470.5 401Q463 379 451 362.5Q439 346 422.5 335Q406 324 388 318ZM275 347Q337 347 369 371.5Q401 396 401 446Q401 497 369 521Q337 545 275 545H150V347ZM150 69H295Q357 69 389 97.5Q421 126 421 175Q421 224 389 252.5Q357 281 295 281H150Z" glyph-name="B" horiz-adv-x="538" unicode="B" /><glyph d="M37 307Q37 379 58.5 437.5Q80 496 117 537Q154 578 204 600.5Q254 623 312 623Q360 623 400.5 609.5Q441 596 471 571Q501 546 521.5 511Q542 476 551 433H474Q455 487 416 519Q377 551 312 551Q268 551 232 533.5Q196 516 170.5 483.5Q145 451 131 406.5Q117 362 117 307Q117 252 131 207Q145 162 170.5 130Q196 98 232 80.5Q268 63 312 63Q377 63 416 95Q455 127 474 181H551Q542 138 521.5 103Q501 68 470.5 43Q440 18 400 4.5Q360 -9 312 -9Q254 -9 204 13.5Q154 36 117 77Q80 118 58.5 176.5Q37 235 37 307Z" glyph-name="C" horiz-adv-x="586" unicode="C" /><glyph d="M37 307Q37 379 58.5 437.5Q80 496 117 537Q154 578 204 600.5Q254 623 312 623Q360 623 400.5 609.5Q441 596 471 571Q501 546 521.5 511Q542 476 551 433H474Q455 487 416 519Q377 551 312 551Q268 551 232 533.5Q196 516 170.5 483.5Q145 451 131 406.5Q117 362 117 307Q117 252 131 207Q145 162 170.5 130Q196 98 232 80.5Q268 63 312 63Q377 63 416 95Q455 127 474 181H551Q542 138 521.5 103Q501 68 470.5 43Q440 18 400 4.5Q360 -9 312 -9Q254 -9 204 13.5Q154 36 117 77Q80 118 58.5 176.5Q37 235 37 307ZM274 668 354 785H441L350 668Z" glyph-name="Cacute" horiz-adv-x="586" unicode="&#262;" /><glyph d="M37 307Q37 379 58.5 437.5Q80 496 117 537Q154 578 204 600.5Q254 623 312 623Q360 623 400.5 609.5Q441 596 471 571Q501 546 521.5 511Q542 476 551 433H474Q455 487 416 519Q377 551 312 551Q268 551 232 533.5Q196 516 170.5 483.5Q145 451 131 406.5Q117 362 117 307Q117 252 131 207Q145 162 170.5 130Q196 98 232 80.5Q268 63 312 63Q377 63 416 95Q455 127 474 181H551Q542 138 521.5 103Q501 68 470.5 43Q440 18 400 4.5Q360 -9 312 -9Q254 -9 204 13.5Q154 36 117 77Q80 118 58.5 176.5Q37 235 37 307ZM187 787H256L315 716L373 787H442L349 666H280Z" glyph-name="Ccaron" horiz-adv-x="586" unicode="&#268;" /><glyph d="M37 307Q37 379 58.5 437.5Q80 496 117 537Q154 578 204 600.5Q254 623 312 623Q360 623 400.5 609.5Q441 596 471 571Q501 546 521.5 511Q542 476 551 433H474Q455 487 416 519Q377 551 312 551Q268 551 232 533.5Q196 516 170.5 483.5Q145 451 131 406.5Q117 362 117 307Q117 252 131 207Q145 162 170.5 130Q196 98 232 80.5Q268 63 312 63Q377 63 416 95Q455 127 474 181H551Q542 138 521.5 103Q501 68 470.5 43Q440 18 400 4.5Q360 -9 312 -9Q254 -9 204 13.5Q154 36 117 77Q80 118 58.5 176.5Q37 235 37 307ZM216 -183 282 -51H357L287 -183Z" glyph-name="Ccedilla" horiz-adv-x="586" unicode="&#199;" /><glyph d="M37 307Q37 379 58.5 437.5Q80 496 117 537Q154 578 204 600.5Q254 623 312 623Q360 623 400.5 609.5Q441 596 471 571Q501 546 521.5 511Q542 476 551 433H474Q455 487 416 519Q377 551 312 551Q268 551 232 533.5Q196 516 170.5 483.5Q145 451 131 406.5Q117 362 117 307Q117 252 131 207Q145 162 170.5 130Q196 98 232 80.5Q268 63 312 63Q377 63 416 95Q455 127 474 181H551Q542 138 521.5 103Q501 68 470.5 43Q440 18 400 4.5Q360 -9 312 -9Q254 -9 204 13.5Q154 36 117 77Q80 118 58.5 176.5Q37 235 37 307ZM446 669H377L319 740L260 669H191L284 791H353Z" glyph-name="Ccircumflex" horiz-adv-x="586" unicode="&#264;" /><glyph d="M37 307Q37 379 58.5 437.5Q80 496 117 537Q154 578 204 600.5Q254 623 312 623Q360 623 400.5 609.5Q441 596 471 571Q501 546 521.5 511Q542 476 551 433H474Q455 487 416 519Q377 551 312 551Q268 551 232 533.5Q196 516 170.5 483.5Q145 451 131 406.5Q117 362 117 307Q117 252 131 207Q145 162 170.5 130Q196 98 232 80.5Q268 63 312 63Q377 63 416 95Q455 127 474 181H551Q542 138 521.5 103Q501 68 470.5 43Q440 18 400 4.5Q360 -9 312 -9Q254 -9 204 13.5Q154 36 117 77Q80 118 58.5 176.5Q37 235 37 307ZM363 721Q363 701 349 687Q335 673 315 673Q294 673 280 687Q266 701 266 721Q266 742 280 756Q294 770 315 770Q335 770 349 756Q363 742 363 721Z" glyph-name="Cdotaccent" horiz-adv-x="586" unicode="&#266;" /><glyph d="M268 71Q321 71 361.5 88Q402 105 430.5 135.5Q459 166 474 209.5Q489 253 489 307Q489 361 474 404.5Q459 448 430.5 479Q402 510 361.5 526.5Q321 543 268 543H152V71ZM73 614H270Q338 614 393 592.5Q448 571 487 531Q526 491 547 434Q568 377 568 307Q568 237 547 180Q526 123 487 83Q448 43 393 21.5Q338 0 270 0H73Z" glyph-name="D" horiz-adv-x="605" unicode="D" /><glyph d="M268 71Q321 71 361.5 88Q402 105 430.5 135.5Q459 166 474 209.5Q489 253 489 307Q489 361 474 404.5Q459 448 430.5 479Q402 510 361.5 526.5Q321 543 268 543H152V71ZM73 614H270Q338 614 393 592.5Q448 571 487 531Q526 491 547 434Q568 377 568 307Q568 237 547 180Q526 123 487 83Q448 43 393 21.5Q338 0 270 0H73ZM152 787H221L280 716L338 787H407L314 666H245Z" glyph-name="Dcaron" horiz-adv-x="605" unicode="&#270;" /><glyph d="M32 351H89V614H286Q353 614 408 592.5Q463 571 502.5 531Q542 491 563 434Q584 377 584 307Q584 237 563 180Q542 123 502.5 83Q463 43 408 21.5Q353 0 286 0H89V284H32ZM284 71Q336 71 377 88Q418 105 446.5 135.5Q475 166 490 209.5Q505 253 505 307Q505 361 490 404.5Q475 448 446.5 479Q418 510 377 526.5Q336 543 284 543H168V351H290V284H168V71Z" glyph-name="Dcroat" horiz-adv-x="621" unicode="&#272;" /><glyph d="M464 614V543H151V350H435V280H151V71H464V0H73V614Z" glyph-name="E" horiz-adv-x="514" unicode="E" /><glyph d="M464 614V543H151V350H435V280H151V71H464V0H73V614ZM229 668 309 785H396L305 668Z" glyph-name="Eacute" horiz-adv-x="514" unicode="&#201;" /><glyph d="M464 614V543H151V350H435V280H151V71H464V0H73V614ZM273 666Q247 666 226 673.5Q205 681 190 696.5Q175 712 166.5 734.5Q158 757 158 786H215Q215 754 231.5 738Q248 722 273 722Q300 722 316 738Q332 754 332 786H389Q389 757 381 734.5Q373 712 357.5 696.5Q342 681 320.5 673.5Q299 666 273 666Z" glyph-name="Ebreve" horiz-adv-x="514" unicode="&#276;" /><glyph d="M464 614V543H151V350H435V280H151V71H464V0H73V614ZM149 787H218L277 716L335 787H404L311 666H242Z" glyph-name="Ecaron" horiz-adv-x="514" unicode="&#282;" /><glyph d="M464 614V543H151V350H435V280H151V71H464V0H73V614ZM400 669H331L273 740L214 669H145L238 791H307Z" glyph-name="Ecircumflex" horiz-adv-x="514" unicode="&#202;" /><glyph d="M464 614V543H151V350H435V280H151V71H464V0H73V614ZM157 722Q157 742 170.5 755Q184 768 204 768Q223 768 236.5 755Q250 742 250 722Q250 703 236.5 689.5Q223 676 204 676Q184 676 170.5 689.5Q157 703 157 722ZM297 722Q297 742 310.5 755Q324 768 343 768Q362 768 376 755Q390 742 390 722Q390 703 376 689.5Q362 676 343 676Q324 676 310.5 689.5Q297 703 297 722Z" glyph-name="Edieresis" horiz-adv-x="514" unicode="&#203;" /><glyph d="M464 614V543H151V350H435V280H151V71H464V0H73V614ZM321 721Q321 701 307 687Q293 673 273 673Q252 673 238 687Q224 701 224 721Q224 742 238 756Q252 770 273 770Q293 770 307 756Q321 742 321 721Z" glyph-name="Edotaccent" horiz-adv-x="514" unicode="&#278;" /><glyph d="M464 614V543H151V350H435V280H151V71H464V0H73V614ZM239 668 147 785H235L314 668Z" glyph-name="Egrave" horiz-adv-x="514" unicode="&#200;" /><glyph d="M464 614V543H151V350H435V280H151V71H464V0H73V614ZM167 732H381V671H167Z" glyph-name="Emacron" horiz-adv-x="514" unicode="&#274;" /><glyph d="M266 -81Q291 -97 315 -105.5Q339 -114 368 -114Q421 -114 447.5 -82Q474 -50 474 25L149 487V0H73V614H148L474 148V614H550V27Q550 -29 538.5 -69Q527 -109 504.5 -135.5Q482 -162 448.5 -174.5Q415 -187 372 -187Q339 -187 312.5 -178.5Q286 -170 266 -159Z" glyph-name="Eng" horiz-adv-x="623" unicode="&#330;" /><glyph d="M464 614V543H151V350H435V280H151V71H464V0H73V614ZM433 4Q418 -21 408 -37.5Q398 -54 392.5 -66.5Q387 -79 384 -88Q381 -97 381 -106Q381 -119 387.5 -125.5Q394 -132 404 -132Q414 -132 422 -128Q430 -124 441 -117V-167Q430 -176 417 -181Q404 -186 389 -186Q372 -186 359.5 -181.5Q347 -177 339 -168.5Q331 -160 326.5 -147.5Q322 -135 322 -120Q322 -106 326 -92Q330 -78 337.5 -63.5Q345 -49 355 -32.5Q365 -16 377 4Z" glyph-name="Eogonek" horiz-adv-x="514" unicode="&#280;" /><glyph d="M32 351H89V614H286Q353 614 408 592.5Q463 571 502.5 531Q542 491 563 434Q584 377 584 307Q584 237 563 180Q542 123 502.5 83Q463 43 408 21.5Q353 0 286 0H89V284H32ZM284 71Q336 71 377 88Q418 105 446.5 135.5Q475 166 490 209.5Q505 253 505 307Q505 361 490 404.5Q475 448 446.5 479Q418 510 377 526.5Q336 543 284 543H168V351H290V284H168V71Z" glyph-name="Eth" horiz-adv-x="621" unicode="&#208;" /><glyph d="M29 270H82Q81 288 81 307Q81 323 82 339H29V399H89Q93 419 99 437Q117 496 149.5 537Q182 578 225.5 600.5Q269 623 320 623Q359 623 391 612Q423 601 448 579.5Q473 558 491 526.5Q509 495 517 455H445Q431 501 399.5 527.5Q368 554 320 554Q283 554 252.5 536Q222 518 201 485.5Q180 453 169 407Q168 403 167 399H372L360 339H159Q158 323 158 307Q158 288 159 270H350L337 210H168Q168 208 169 206Q180 161 201 128.5Q222 96 252.5 78Q283 60 320 60Q368 60 399.5 86.5Q431 113 445 159H517Q509 119 491 87.5Q473 56 448 34.5Q423 13 391 2Q359 -9 320 -9Q269 -9 225.5 13.5Q182 36 149.5 77Q117 118 99 176Q94 193 90 210H29Z" glyph-name="Euro" horiz-adv-x="543" unicode="&#8364;" /><glyph d="M24 270H81Q80 288 80 307Q80 323 81 339H24V399H88Q92 419 97 437Q115 496 145.5 537Q176 578 218 600.5Q260 623 309 623Q346 623 376.5 612Q407 601 431.5 579.5Q456 558 472.5 526.5Q489 495 498 455H424Q412 501 382.5 527.5Q353 554 308 554Q273 554 245 536Q217 518 197 485.5Q177 453 166 407Q165 403 164 399H356L345 339H157Q156 323 156 307Q156 288 157 270H335L323 210H165Q166 208 166 206Q177 161 197 128.5Q217 96 245 78Q273 60 308 60Q353 60 382.5 86.5Q412 113 424 159H498Q489 119 472.5 87.5Q456 56 431.5 34.5Q407 13 376.5 2Q346 -9 309 -9Q260 -9 218 13.5Q176 36 145.5 77Q115 118 97 176Q92 193 89 210H24Z" glyph-name="Euro.lt" horiz-adv-x="520" /><glyph d="M73 0V614H448V543H152V337H430V267H152V0Z" glyph-name="F" horiz-adv-x="485" unicode="F" /><glyph d="M352 235V303H573V261Q573 200 554.5 150Q536 100 502.5 64.5Q469 29 422 10Q375 -9 319 -9Q260 -9 208 13.5Q156 36 118 77Q80 118 58.5 176.5Q37 235 37 307Q37 379 58.5 437.5Q80 496 118 537Q156 578 207.5 600.5Q259 623 317 623Q366 623 406.5 609.5Q447 596 478 571Q509 546 529.5 511.5Q550 477 559 434H480Q461 488 422 519.5Q383 551 317 551Q273 551 236.5 533.5Q200 516 173 484Q146 452 131.5 407Q117 362 117 307Q117 252 131.5 207Q146 162 172.5 129.5Q199 97 236.5 79Q274 61 319 61Q400 61 445.5 108Q491 155 498 235Z" glyph-name="G" horiz-adv-x="610" unicode="G" /><glyph d="M352 235V303H573V261Q573 200 554.5 150Q536 100 502.5 64.5Q469 29 422 10Q375 -9 319 -9Q260 -9 208 13.5Q156 36 118 77Q80 118 58.5 176.5Q37 235 37 307Q37 379 58.5 437.5Q80 496 118 537Q156 578 207.5 600.5Q259 623 317 623Q366 623 406.5 609.5Q447 596 478 571Q509 546 529.5 511.5Q550 477 559 434H480Q461 488 422 519.5Q383 551 317 551Q273 551 236.5 533.5Q200 516 173 484Q146 452 131.5 407Q117 362 117 307Q117 252 131.5 207Q146 162 172.5 129.5Q199 97 236.5 79Q274 61 319 61Q400 61 445.5 108Q491 155 498 235ZM319 666Q293 666 272 673.5Q251 681 236 696.5Q221 712 212.5 734.5Q204 757 204 786H261Q261 754 277.5 738Q294 722 319 722Q346 722 362 738Q378 754 378 786H435Q435 757 427 734.5Q419 712 403.5 696.5Q388 681 366.5 673.5Q345 666 319 666Z" glyph-name="Gbreve" horiz-adv-x="610" unicode="&#286;" /><glyph d="M352 235V303H573V261Q573 200 554.5 150Q536 100 502.5 64.5Q469 29 422 10Q375 -9 319 -9Q260 -9 208 13.5Q156 36 118 77Q80 118 58.5 176.5Q37 235 37 307Q37 379 58.5 437.5Q80 496 118 537Q156 578 207.5 600.5Q259 623 317 623Q366 623 406.5 609.5Q447 596 478 571Q509 546 529.5 511.5Q550 477 559 434H480Q461 488 422 519.5Q383 551 317 551Q273 551 236.5 533.5Q200 516 173 484Q146 452 131.5 407Q117 362 117 307Q117 252 131.5 207Q146 162 172.5 129.5Q199 97 236.5 79Q274 61 319 61Q400 61 445.5 108Q491 155 498 235ZM445 669H376L318 740L259 669H190L283 791H352Z" glyph-name="Gcircumflex" horiz-adv-x="610" unicode="&#284;" /><glyph d="M352 235V303H573V261Q573 200 554.5 150Q536 100 502.5 64.5Q469 29 422 10Q375 -9 319 -9Q260 -9 208 13.5Q156 36 118 77Q80 118 58.5 176.5Q37 235 37 307Q37 379 58.5 437.5Q80 496 118 537Q156 578 207.5 600.5Q259 623 317 623Q366 623 406.5 609.5Q447 596 478 571Q509 546 529.5 511.5Q550 477 559 434H480Q461 488 422 519.5Q383 551 317 551Q273 551 236.5 533.5Q200 516 173 484Q146 452 131.5 407Q117 362 117 307Q117 252 131.5 207Q146 162 172.5 129.5Q199 97 236.5 79Q274 61 319 61Q400 61 445.5 108Q491 155 498 235ZM311 -137Q294 -135 282 -123.5Q270 -112 270 -93Q270 -72 284.5 -58.5Q299 -45 320 -45Q341 -45 355 -59Q369 -73 369 -95Q369 -112 362.5 -125.5Q356 -139 348 -152L319 -201H271Z" glyph-name="Gcommaaccent" horiz-adv-x="610" unicode="&#290;" /><glyph d="M352 235V303H573V261Q573 200 554.5 150Q536 100 502.5 64.5Q469 29 422 10Q375 -9 319 -9Q260 -9 208 13.5Q156 36 118 77Q80 118 58.5 176.5Q37 235 37 307Q37 379 58.5 437.5Q80 496 118 537Q156 578 207.5 600.5Q259 623 317 623Q366 623 406.5 609.5Q447 596 478 571Q509 546 529.5 511.5Q550 477 559 434H480Q461 488 422 519.5Q383 551 317 551Q273 551 236.5 533.5Q200 516 173 484Q146 452 131.5 407Q117 362 117 307Q117 252 131.5 207Q146 162 172.5 129.5Q199 97 236.5 79Q274 61 319 61Q400 61 445.5 108Q491 155 498 235ZM368 721Q368 701 354 687Q340 673 320 673Q299 673 285 687Q271 701 271 721Q271 742 285 756Q299 770 320 770Q340 770 354 756Q368 742 368 721Z" glyph-name="Gdotaccent" horiz-adv-x="610" unicode="&#288;" /><glyph d="M578 614V0H499V280H152V0H73V614H152V351H499V614Z" glyph-name="H" horiz-adv-x="651" unicode="H" /><glyph d="M32 496H87V614H166V496H513V614H592V496H648V430H592V0H513V244H166V0H87V430H32ZM513 310V430H166V310Z" glyph-name="Hbar" horiz-adv-x="680" unicode="&#294;" /><glyph d="M578 614V0H499V280H152V0H73V614H152V351H499V614ZM453 669H384L326 740L267 669H198L291 791H360Z" glyph-name="Hcircumflex" horiz-adv-x="651" unicode="&#292;" /><glyph d="M152 0H73V614H152Z" glyph-name="I" horiz-adv-x="225" unicode="I" /><glyph d="M152 0H73V614H152ZM69 668 149 785H236L145 668Z" glyph-name="Iacute" horiz-adv-x="225" unicode="&#205;" /><glyph d="M152 0H73V614H152ZM113 666Q87 666 66 673.5Q45 681 30 696.5Q15 712 6.5 734.5Q-2 757 -2 786H55Q55 754 71.5 738Q88 722 113 722Q140 722 156 738Q172 754 172 786H229Q229 757 221 734.5Q213 712 197.5 696.5Q182 681 160.5 673.5Q139 666 113 666Z" glyph-name="Ibreve" horiz-adv-x="225" unicode="&#300;" /><glyph d="M152 0H73V614H152ZM241 669H172L114 740L55 669H-14L79 791H148Z" glyph-name="Icircumflex" horiz-adv-x="225" unicode="&#206;" /><glyph d="M152 0H73V614H152ZM-3 722Q-3 742 10.5 755Q24 768 44 768Q63 768 76.5 755Q90 742 90 722Q90 703 76.5 689.5Q63 676 44 676Q24 676 10.5 689.5Q-3 703 -3 722ZM137 722Q137 742 150.5 755Q164 768 183 768Q202 768 216 755Q230 742 230 722Q230 703 216 689.5Q202 676 183 676Q164 676 150.5 689.5Q137 703 137 722Z" glyph-name="Idieresis" horiz-adv-x="225" unicode="&#207;" /><glyph d="M152 0H73V614H152ZM162 721Q162 701 148 687Q134 673 114 673Q93 673 79 687Q65 701 65 721Q65 742 79 756Q93 770 114 770Q134 770 148 756Q162 742 162 721Z" glyph-name="Idotaccent" horiz-adv-x="225" unicode="&#304;" /><glyph d="M152 0H73V614H152ZM79 668 -13 785H75L154 668Z" glyph-name="Igrave" horiz-adv-x="225" unicode="&#204;" /><glyph d="M152 0H73V614H152ZM7 732H221V671H7Z" glyph-name="Imacron" horiz-adv-x="225" unicode="&#298;" /><glyph d="M153 0Q138 -25 128.5 -41Q119 -57 113.5 -68.5Q108 -80 105.5 -88.5Q103 -97 103 -106Q103 -119 109.5 -125.5Q116 -132 126 -132Q136 -132 144 -128Q152 -124 163 -117V-167Q152 -176 139 -181Q126 -186 111 -186Q94 -186 81.5 -181.5Q69 -177 61 -168.5Q53 -160 48.5 -147.5Q44 -135 44 -120Q44 -106 48 -92.5Q52 -79 58.5 -65Q65 -51 74.5 -35Q84 -19 96 0H74V614H153Z" glyph-name="Iogonek" horiz-adv-x="226" unicode="&#302;" /><glyph d="M152 0H73V614H152ZM248 784Q248 757 243.5 735Q239 713 229.5 697.5Q220 682 205.5 673.5Q191 665 172 665Q153 665 138.5 674Q124 683 111.5 693Q99 703 87 712Q75 721 61 721Q44 721 36 707.5Q28 694 27 668H-21Q-21 695 -16.5 716.5Q-12 738 -2 754Q8 770 22 778.5Q36 787 55 787Q74 787 88.5 778.5Q103 770 115.5 759.5Q128 749 140 740Q152 731 166 731Q182 731 190.5 745Q199 759 200 784Z" glyph-name="Itilde" horiz-adv-x="225" unicode="&#296;" /><glyph d="M99 175Q105 122 135 92.5Q165 63 217 63Q245 63 267.5 71Q290 79 306 96.5Q322 114 330.5 140.5Q339 167 339 204V614H418V204Q418 150 403.5 110.5Q389 71 362.5 44Q336 17 299 4Q262 -9 218 -9Q173 -9 137 4Q101 17 75.5 41.5Q50 66 35 100Q20 134 17 175Z" glyph-name="J" horiz-adv-x="479" unicode="J" /><glyph d="M99 175Q105 122 135 92.5Q165 63 217 63Q245 63 267.5 71Q290 79 306 96.5Q322 114 330.5 140.5Q339 167 339 204V614H418V204Q418 150 403.5 110.5Q389 71 362.5 44Q336 17 299 4Q262 -9 218 -9Q173 -9 137 4Q101 17 75.5 41.5Q50 66 35 100Q20 134 17 175ZM507 669H438L380 740L321 669H252L345 791H414Z" glyph-name="Jcircumflex" horiz-adv-x="479" unicode="&#308;" /><glyph d="M152 307 438 614H538L275 334L547 0H449L218 280L152 209V0H73V614H152Z" glyph-name="K" horiz-adv-x="564" unicode="K" /><glyph d="M152 307 438 614H538L275 334L547 0H449L218 280L152 209V0H73V614H152ZM256 -137Q239 -135 227 -123.5Q215 -112 215 -93Q215 -72 229.5 -58.5Q244 -45 265 -45Q286 -45 300 -59Q314 -73 314 -95Q314 -112 307.5 -125.5Q301 -139 293 -152L264 -201H216Z" glyph-name="Kcommaaccent" horiz-adv-x="564" unicode="&#310;" /><glyph d="M73 614H152V71H465V0H73Z" glyph-name="L" horiz-adv-x="504" unicode="L" /><glyph d="M73 614H152V71H465V0H73ZM81 668 161 785H248L157 668Z" glyph-name="Lacute" horiz-adv-x="504" unicode="&#313;" /><glyph d="M73 614H152V71H465V0H73ZM261 451 294 615H354L321 451Z" glyph-name="Lcaron" horiz-adv-x="504" unicode="&#317;" /><glyph d="M73 614H152V71H465V0H73ZM270 -137Q253 -135 241 -123.5Q229 -112 229 -93Q229 -72 243.5 -58.5Q258 -45 279 -45Q300 -45 314 -59Q328 -73 328 -95Q328 -112 321.5 -125.5Q315 -139 307 -152L278 -201H230Z" glyph-name="Lcommaaccent" horiz-adv-x="504" unicode="&#315;" /><glyph d="M73 614H152V71H465V0H73ZM412 308Q412 288 398 274Q384 260 364 260Q343 260 329 274Q315 288 315 308Q315 329 329 343Q343 357 364 357Q384 357 398 343Q412 329 412 308Z" glyph-name="Ldot" horiz-adv-x="504" unicode="&#319;" /><glyph d="M30 299 93 325V614H172V354L325 417V344L172 282V71H485V0H93V251L30 226Z" glyph-name="Lslash" horiz-adv-x="524" unicode="&#321;" /><glyph d="M342 0 148 467V0H73V614H162L370 110L577 614H663V0H587V467L396 0Z" glyph-name="M" horiz-adv-x="736" unicode="M" /><glyph d="M550 0H492L149 487V0H73V614H148L474 148V614H550Z" glyph-name="N" horiz-adv-x="623" unicode="N" /><glyph glyph-name="NULL" horiz-adv-x="0" /><glyph d="M550 0H492L149 487V0H73V614H148L474 148V614H550ZM268 668 348 785H435L344 668Z" glyph-name="Nacute" horiz-adv-x="623" unicode="&#323;" /><glyph d="M550 0H492L149 487V0H73V614H148L474 148V614H550ZM184 787H253L312 716L370 787H439L346 666H277Z" glyph-name="Ncaron" horiz-adv-x="623" unicode="&#327;" /><glyph d="M550 0H492L149 487V0H73V614H148L474 148V614H550ZM305 -137Q288 -135 276 -123.5Q264 -112 264 -93Q264 -72 278.5 -58.5Q293 -45 314 -45Q335 -45 349 -59Q363 -73 363 -95Q363 -112 356.5 -125.5Q350 -139 342 -152L313 -201H265Z" glyph-name="Ncommaaccent" horiz-adv-x="623" unicode="&#325;" /><glyph d="M550 0H492L149 487V0H73V614H148L474 148V614H550ZM446 784Q446 757 441.5 735Q437 713 427.5 697.5Q418 682 403.5 673.5Q389 665 370 665Q351 665 336.5 674Q322 683 309.5 693Q297 703 285 712Q273 721 259 721Q242 721 234 707.5Q226 694 225 668H177Q177 695 181.5 716.5Q186 738 196 754Q206 770 220 778.5Q234 787 253 787Q272 787 286.5 778.5Q301 770 313.5 759.5Q326 749 338 740Q350 731 364 731Q380 731 388.5 745Q397 759 398 784Z" glyph-name="Ntilde" horiz-adv-x="623" unicode="&#209;" /><glyph d="M593 307Q593 237 572 179Q551 121 514 79.5Q477 38 426 14.5Q375 -9 315 -9Q254 -9 203 14.5Q152 38 115.5 79.5Q79 121 58 179Q37 237 37 307Q37 377 58 435Q79 493 115.5 535Q152 577 203 600Q254 623 315 623Q375 623 426 600Q477 577 514 535Q551 493 572 435Q593 377 593 307ZM513 307Q513 361 498.5 406Q484 451 458 483.5Q432 516 395.5 534Q359 552 315 552Q270 552 234 534Q198 516 171.5 483.5Q145 451 131 406Q117 361 117 307Q117 253 131 208Q145 163 171.5 130.5Q198 98 234 80Q270 62 315 62Q359 62 395.5 80Q432 98 458 130.5Q484 163 498.5 208Q513 253 513 307Z" glyph-name="O" horiz-adv-x="630" unicode="O" /><glyph d="M780 543H483V350H751V280H483V71H780V0H335Q268 0 213 21.5Q158 43 118.5 83Q79 123 58 180Q37 237 37 307Q37 377 58 434Q79 491 118.5 531Q158 571 213 592.5Q268 614 335 614H780ZM405 71V543H337Q285 543 244 526.5Q203 510 174.5 479Q146 448 131 404.5Q116 361 116 307Q116 253 131 209.5Q146 166 174.5 135.5Q203 105 244 88Q285 71 337 71Z" glyph-name="OE" horiz-adv-x="830" unicode="&#338;" /><glyph d="M593 307Q593 237 572 179Q551 121 514 79.5Q477 38 426 14.5Q375 -9 315 -9Q254 -9 203 14.5Q152 38 115.5 79.5Q79 121 58 179Q37 237 37 307Q37 377 58 435Q79 493 115.5 535Q152 577 203 600Q254 623 315 623Q375 623 426 600Q477 577 514 535Q551 493 572 435Q593 377 593 307ZM513 307Q513 361 498.5 406Q484 451 458 483.5Q432 516 395.5 534Q359 552 315 552Q270 552 234 534Q198 516 171.5 483.5Q145 451 131 406Q117 361 117 307Q117 253 131 208Q145 163 171.5 130.5Q198 98 234 80Q270 62 315 62Q359 62 395.5 80Q432 98 458 130.5Q484 163 498.5 208Q513 253 513 307ZM270 668 350 785H437L346 668Z" glyph-name="Oacute" horiz-adv-x="630" unicode="&#211;" /><glyph d="M593 307Q593 237 572 179Q551 121 514 79.5Q477 38 426 14.5Q375 -9 315 -9Q254 -9 203 14.5Q152 38 115.5 79.5Q79 121 58 179Q37 237 37 307Q37 377 58 435Q79 493 115.5 535Q152 577 203 600Q254 623 315 623Q375 623 426 600Q477 577 514 535Q551 493 572 435Q593 377 593 307ZM513 307Q513 361 498.5 406Q484 451 458 483.5Q432 516 395.5 534Q359 552 315 552Q270 552 234 534Q198 516 171.5 483.5Q145 451 131 406Q117 361 117 307Q117 253 131 208Q145 163 171.5 130.5Q198 98 234 80Q270 62 315 62Q359 62 395.5 80Q432 98 458 130.5Q484 163 498.5 208Q513 253 513 307ZM314 666Q288 666 267 673.5Q246 681 231 696.5Q216 712 207.5 734.5Q199 757 199 786H256Q256 754 272.5 738Q289 722 314 722Q341 722 357 738Q373 754 373 786H430Q430 757 422 734.5Q414 712 398.5 696.5Q383 681 361.5 673.5Q340 666 314 666Z" glyph-name="Obreve" horiz-adv-x="630" unicode="&#334;" /><glyph d="M593 307Q593 237 572 179Q551 121 514 79.5Q477 38 426 14.5Q375 -9 315 -9Q254 -9 203 14.5Q152 38 115.5 79.5Q79 121 58 179Q37 237 37 307Q37 377 58 435Q79 493 115.5 535Q152 577 203 600Q254 623 315 623Q375 623 426 600Q477 577 514 535Q551 493 572 435Q593 377 593 307ZM513 307Q513 361 498.5 406Q484 451 458 483.5Q432 516 395.5 534Q359 552 315 552Q270 552 234 534Q198 516 171.5 483.5Q145 451 131 406Q117 361 117 307Q117 253 131 208Q145 163 171.5 130.5Q198 98 234 80Q270 62 315 62Q359 62 395.5 80Q432 98 458 130.5Q484 163 498.5 208Q513 253 513 307ZM442 669H373L315 740L256 669H187L280 791H349Z" glyph-name="Ocircumflex" horiz-adv-x="630" unicode="&#212;" /><glyph d="M593 307Q593 237 572 179Q551 121 514 79.5Q477 38 426 14.5Q375 -9 315 -9Q254 -9 203 14.5Q152 38 115.5 79.5Q79 121 58 179Q37 237 37 307Q37 377 58 435Q79 493 115.5 535Q152 577 203 600Q254 623 315 623Q375 623 426 600Q477 577 514 535Q551 493 572 435Q593 377 593 307ZM513 307Q513 361 498.5 406Q484 451 458 483.5Q432 516 395.5 534Q359 552 315 552Q270 552 234 534Q198 516 171.5 483.5Q145 451 131 406Q117 361 117 307Q117 253 131 208Q145 163 171.5 130.5Q198 98 234 80Q270 62 315 62Q359 62 395.5 80Q432 98 458 130.5Q484 163 498.5 208Q513 253 513 307ZM198 722Q198 742 211.5 755Q225 768 245 768Q264 768 277.5 755Q291 742 291 722Q291 703 277.5 689.5Q264 676 245 676Q225 676 211.5 689.5Q198 703 198 722ZM338 722Q338 742 351.5 755Q365 768 384 768Q403 768 417 755Q431 742 431 722Q431 703 417 689.5Q403 676 384 676Q365 676 351.5 689.5Q338 703 338 722Z" glyph-name="Odieresis" horiz-adv-x="630" unicode="&#214;" /><glyph d="M593 307Q593 237 572 179Q551 121 514 79.5Q477 38 426 14.5Q375 -9 315 -9Q254 -9 203 14.5Q152 38 115.5 79.5Q79 121 58 179Q37 237 37 307Q37 377 58 435Q79 493 115.5 535Q152 577 203 600Q254 623 315 623Q375 623 426 600Q477 577 514 535Q551 493 572 435Q593 377 593 307ZM513 307Q513 361 498.5 406Q484 451 458 483.5Q432 516 395.5 534Q359 552 315 552Q270 552 234 534Q198 516 171.5 483.5Q145 451 131 406Q117 361 117 307Q117 253 131 208Q145 163 171.5 130.5Q198 98 234 80Q270 62 315 62Q359 62 395.5 80Q432 98 458 130.5Q484 163 498.5 208Q513 253 513 307ZM280 668 188 785H276L355 668Z" glyph-name="Ograve" horiz-adv-x="630" unicode="&#210;" /><glyph d="M593 307Q593 237 572 179Q551 121 514 79.5Q477 38 426 14.5Q375 -9 315 -9Q254 -9 203 14.5Q152 38 115.5 79.5Q79 121 58 179Q37 237 37 307Q37 377 58 435Q79 493 115.5 535Q152 577 203 600Q254 623 315 623Q375 623 426 600Q477 577 514 535Q551 493 572 435Q593 377 593 307ZM513 307Q513 361 498.5 406Q484 451 458 483.5Q432 516 395.5 534Q359 552 315 552Q270 552 234 534Q198 516 171.5 483.5Q145 451 131 406Q117 361 117 307Q117 253 131 208Q145 163 171.5 130.5Q198 98 234 80Q270 62 315 62Q359 62 395.5 80Q432 98 458 130.5Q484 163 498.5 208Q513 253 513 307ZM225 668 292 785H358L290 668ZM348 668 414 785H481L413 668Z" glyph-name="Ohungarumlaut" horiz-adv-x="630" unicode="&#336;" /><glyph d="M593 307Q593 237 572 179Q551 121 514 79.5Q477 38 426 14.5Q375 -9 315 -9Q254 -9 203 14.5Q152 38 115.5 79.5Q79 121 58 179Q37 237 37 307Q37 377 58 435Q79 493 115.5 535Q152 577 203 600Q254 623 315 623Q375 623 426 600Q477 577 514 535Q551 493 572 435Q593 377 593 307ZM513 307Q513 361 498.5 406Q484 451 458 483.5Q432 516 395.5 534Q359 552 315 552Q270 552 234 534Q198 516 171.5 483.5Q145 451 131 406Q117 361 117 307Q117 253 131 208Q145 163 171.5 130.5Q198 98 234 80Q270 62 315 62Q359 62 395.5 80Q432 98 458 130.5Q484 163 498.5 208Q513 253 513 307ZM208 732H422V671H208Z" glyph-name="Omacron" horiz-adv-x="630" unicode="&#332;" /><glyph d="M536 623 583 590 529 522Q559 484 577 435Q598 377 598 307Q598 237 577 179Q556 121 519 79.5Q482 38 431 14.5Q380 -9 320 -9Q259 -9 208 14Q178 28 153 48L103 -15L56 18L112 89Q81 127 63 179Q42 237 42 307Q42 377 63 435Q84 493 120.5 535Q157 577 208 600Q259 623 320 623Q380 623 431 600Q463 585 489 564ZM403 534Q367 552 320 552Q275 552 239 534Q203 516 176.5 483.5Q150 451 136 406Q122 361 122 307Q122 253 135 208Q144 175 160 149L443 506Q426 523 403 534ZM518 307Q518 361 504 406Q495 436 481 461L198 104Q215 90 235 80Q272 62 320 62Q364 62 400.5 80Q437 98 463 130.5Q489 163 503.5 208Q518 253 518 307Z" glyph-name="Oslash" horiz-adv-x="640" unicode="&#216;" /><glyph d="M536 623 583 590 529 522Q559 484 577 435Q598 377 598 307Q598 237 577 179Q556 121 519 79.5Q482 38 431 14.5Q380 -9 320 -9Q259 -9 208 14Q178 28 153 48L103 -15L56 18L112 89Q81 127 63 179Q42 237 42 307Q42 377 63 435Q84 493 120.5 535Q157 577 208 600Q259 623 320 623Q380 623 431 600Q463 585 489 564ZM403 534Q367 552 320 552Q275 552 239 534Q203 516 176.5 483.5Q150 451 136 406Q122 361 122 307Q122 253 135 208Q144 175 160 149L443 506Q426 523 403 534ZM518 307Q518 361 504 406Q495 436 481 461L198 104Q215 90 235 80Q272 62 320 62Q364 62 400.5 80Q437 98 463 130.5Q489 163 503.5 208Q518 253 518 307ZM275 668 355 785H442L351 668Z" glyph-name="Oslashacute" horiz-adv-x="640" unicode="&#510;" /><glyph d="M593 307Q593 237 572 179Q551 121 514 79.5Q477 38 426 14.5Q375 -9 315 -9Q254 -9 203 14.5Q152 38 115.5 79.5Q79 121 58 179Q37 237 37 307Q37 377 58 435Q79 493 115.5 535Q152 577 203 600Q254 623 315 623Q375 623 426 600Q477 577 514 535Q551 493 572 435Q593 377 593 307ZM513 307Q513 361 498.5 406Q484 451 458 483.5Q432 516 395.5 534Q359 552 315 552Q270 552 234 534Q198 516 171.5 483.5Q145 451 131 406Q117 361 117 307Q117 253 131 208Q145 163 171.5 130.5Q198 98 234 80Q270 62 315 62Q359 62 395.5 80Q432 98 458 130.5Q484 163 498.5 208Q513 253 513 307ZM449 784Q449 757 444.5 735Q440 713 430.5 697.5Q421 682 406.5 673.5Q392 665 373 665Q354 665 339.5 674Q325 683 312.5 693Q300 703 288 712Q276 721 262 721Q245 721 237 707.5Q229 694 228 668H180Q180 695 184.5 716.5Q189 738 199 754Q209 770 223 778.5Q237 787 256 787Q275 787 289.5 778.5Q304 770 316.5 759.5Q329 749 341 740Q353 731 367 731Q383 731 391.5 745Q400 759 401 784Z" glyph-name="Otilde" horiz-adv-x="630" unicode="&#213;" /><glyph d="M152 246V0H73V614H303Q349 614 386.5 602Q424 590 450.5 567Q477 544 491 510Q505 476 505 430Q505 385 491 350.5Q477 316 450.5 293Q424 270 386.5 258Q349 246 303 246ZM427 430Q427 483 395 514Q363 545 301 545H152V316H301Q363 316 395 346.5Q427 377 427 430Z" glyph-name="P" horiz-adv-x="537" unicode="P" /><glyph d="M593 307Q593 237 572 179Q551 121 513 79Q508 74 503 69L554 5L500 -37L449 27Q437 20 425 14Q374 -9 315 -9Q254 -9 203 14.5Q152 38 115.5 79.5Q79 121 58 179Q37 237 37 307Q37 377 58 435Q79 493 115.5 535Q152 577 203 600Q254 623 315 623Q375 623 426 600Q477 577 514 535Q551 493 572 435Q593 377 593 307ZM354 149 408 189 458 125 459 126Q485 157 499 203Q513 249 513 307Q513 361 498.5 406Q484 451 458 483.5Q432 516 395.5 534Q359 552 315 552Q270 552 234 534Q198 516 171.5 483.5Q145 451 131 406Q117 361 117 307Q117 253 131 208Q145 163 171.5 130.5Q198 98 234 80Q270 62 315 62Q360 62 397 78Q401 80 406 83Z" glyph-name="Q" horiz-adv-x="629" unicode="Q" /><glyph d="M152 260V0H73V614H301Q347 614 384.5 602.5Q422 591 448 568.5Q474 546 488 512.5Q502 479 502 436Q502 392 488 359Q474 326 448 304Q422 282 384 271Q366 265 345 262L527 0H437L261 260ZM152 327H299Q360 327 392 356Q424 385 424 436Q424 487 392 516Q360 545 299 545H152Z" glyph-name="R" horiz-adv-x="552" unicode="R" /><glyph d="M152 260V0H73V614H301Q347 614 384.5 602.5Q422 591 448 568.5Q474 546 488 512.5Q502 479 502 436Q502 392 488 359Q474 326 448 304Q422 282 384 271Q366 265 345 262L527 0H437L261 260ZM152 327H299Q360 327 392 356Q424 385 424 436Q424 487 392 516Q360 545 299 545H152ZM227 668 307 785H394L303 668Z" glyph-name="Racute" horiz-adv-x="552" unicode="&#340;" /><glyph d="M152 260V0H73V614H301Q347 614 384.5 602.5Q422 591 448 568.5Q474 546 488 512.5Q502 479 502 436Q502 392 488 359Q474 326 448 304Q422 282 384 271Q366 265 345 262L527 0H437L261 260ZM152 327H299Q360 327 392 356Q424 385 424 436Q424 487 392 516Q360 545 299 545H152ZM143 787H212L271 716L329 787H398L305 666H236Z" glyph-name="Rcaron" horiz-adv-x="552" unicode="&#344;" /><glyph d="M152 260V0H73V614H301Q347 614 384.5 602.5Q422 591 448 568.5Q474 546 488 512.5Q502 479 502 436Q502 392 488 359Q474 326 448 304Q422 282 384 271Q366 265 345 262L527 0H437L261 260ZM152 327H299Q360 327 392 356Q424 385 424 436Q424 487 392 516Q360 545 299 545H152ZM265 -137Q248 -135 236 -123.5Q224 -112 224 -93Q224 -72 238.5 -58.5Q253 -45 274 -45Q295 -45 309 -59Q323 -73 323 -95Q323 -112 316.5 -125.5Q310 -139 302 -152L273 -201H225Z" glyph-name="Rcommaaccent" horiz-adv-x="552" unicode="&#342;" /><glyph d="M104 160Q121 109 162 83.5Q203 58 259 58Q290 58 314.5 65.5Q339 73 357 86.5Q375 100 385 120Q395 140 395 165Q395 201 373 225Q351 249 298 262L187 291Q155 299 128 311.5Q101 324 81.5 343Q62 362 51 388Q40 414 40 449Q40 488 55.5 520Q71 552 98 575Q125 598 161.5 610.5Q198 623 242 623Q290 623 327.5 611.5Q365 600 393.5 578.5Q422 557 440.5 527Q459 497 467 461H388Q374 503 339 529.5Q304 556 243 556Q215 556 192 549Q169 542 152 528.5Q135 515 125.5 496.5Q116 478 116 455Q116 436 122 421Q128 406 140.5 395Q153 384 171 376Q189 368 213 361L319 334Q392 315 431.5 274.5Q471 234 471 169Q471 128 455 94.5Q439 61 411 38Q383 15 344 3Q305 -9 259 -9Q168 -9 104.5 35Q41 79 23 160Z" glyph-name="S" horiz-adv-x="509" unicode="S" /><glyph d="M104 160Q121 109 162 83.5Q203 58 259 58Q290 58 314.5 65.5Q339 73 357 86.5Q375 100 385 120Q395 140 395 165Q395 201 373 225Q351 249 298 262L187 291Q155 299 128 311.5Q101 324 81.5 343Q62 362 51 388Q40 414 40 449Q40 488 55.5 520Q71 552 98 575Q125 598 161.5 610.5Q198 623 242 623Q290 623 327.5 611.5Q365 600 393.5 578.5Q422 557 440.5 527Q459 497 467 461H388Q374 503 339 529.5Q304 556 243 556Q215 556 192 549Q169 542 152 528.5Q135 515 125.5 496.5Q116 478 116 455Q116 436 122 421Q128 406 140.5 395Q153 384 171 376Q189 368 213 361L319 334Q392 315 431.5 274.5Q471 234 471 169Q471 128 455 94.5Q439 61 411 38Q383 15 344 3Q305 -9 259 -9Q168 -9 104.5 35Q41 79 23 160ZM203 668 283 785H370L279 668Z" glyph-name="Sacute" horiz-adv-x="509" unicode="&#346;" /><glyph d="M104 160Q121 109 162 83.5Q203 58 259 58Q290 58 314.5 65.5Q339 73 357 86.5Q375 100 385 120Q395 140 395 165Q395 201 373 225Q351 249 298 262L187 291Q155 299 128 311.5Q101 324 81.5 343Q62 362 51 388Q40 414 40 449Q40 488 55.5 520Q71 552 98 575Q125 598 161.5 610.5Q198 623 242 623Q290 623 327.5 611.5Q365 600 393.5 578.5Q422 557 440.5 527Q459 497 467 461H388Q374 503 339 529.5Q304 556 243 556Q215 556 192 549Q169 542 152 528.5Q135 515 125.5 496.5Q116 478 116 455Q116 436 122 421Q128 406 140.5 395Q153 384 171 376Q189 368 213 361L319 334Q392 315 431.5 274.5Q471 234 471 169Q471 128 455 94.5Q439 61 411 38Q383 15 344 3Q305 -9 259 -9Q168 -9 104.5 35Q41 79 23 160ZM122 787H191L250 716L308 787H377L284 666H215Z" glyph-name="Scaron" horiz-adv-x="508" unicode="&#352;" /><glyph d="M104 160Q121 109 162 83.5Q203 58 259 58Q290 58 314.5 65.5Q339 73 357 86.5Q375 100 385 120Q395 140 395 165Q395 201 373 225Q351 249 298 262L187 291Q155 299 128 311.5Q101 324 81.5 343Q62 362 51 388Q40 414 40 449Q40 488 55.5 520Q71 552 98 575Q125 598 161.5 610.5Q198 623 242 623Q290 623 327.5 611.5Q365 600 393.5 578.5Q422 557 440.5 527Q459 497 467 461H388Q374 503 339 529.5Q304 556 243 556Q215 556 192 549Q169 542 152 528.5Q135 515 125.5 496.5Q116 478 116 455Q116 436 122 421Q128 406 140.5 395Q153 384 171 376Q189 368 213 361L319 334Q392 315 431.5 274.5Q471 234 471 169Q471 128 455 94.5Q439 61 411 38Q383 15 344 3Q305 -9 259 -9Q168 -9 104.5 35Q41 79 23 160ZM149 -183 215 -51H290L220 -183Z" glyph-name="Scedilla" horiz-adv-x="509" unicode="&#350;" /><glyph d="M104 160Q121 109 162 83.5Q203 58 259 58Q290 58 314.5 65.5Q339 73 357 86.5Q375 100 385 120Q395 140 395 165Q395 201 373 225Q351 249 298 262L187 291Q155 299 128 311.5Q101 324 81.5 343Q62 362 51 388Q40 414 40 449Q40 488 55.5 520Q71 552 98 575Q125 598 161.5 610.5Q198 623 242 623Q290 623 327.5 611.5Q365 600 393.5 578.5Q422 557 440.5 527Q459 497 467 461H388Q374 503 339 529.5Q304 556 243 556Q215 556 192 549Q169 542 152 528.5Q135 515 125.5 496.5Q116 478 116 455Q116 436 122 421Q128 406 140.5 395Q153 384 171 376Q189 368 213 361L319 334Q392 315 431.5 274.5Q471 234 471 169Q471 128 455 94.5Q439 61 411 38Q383 15 344 3Q305 -9 259 -9Q168 -9 104.5 35Q41 79 23 160ZM377 669H308L250 740L191 669H122L215 791H284Z" glyph-name="Scircumflex" horiz-adv-x="508" unicode="&#348;" /><glyph d="M104 160Q121 109 162 83.5Q203 58 259 58Q290 58 314.5 65.5Q339 73 357 86.5Q375 100 385 120Q395 140 395 165Q395 201 373 225Q351 249 298 262L187 291Q155 299 128 311.5Q101 324 81.5 343Q62 362 51 388Q40 414 40 449Q40 488 55.5 520Q71 552 98 575Q125 598 161.5 610.5Q198 623 242 623Q290 623 327.5 611.5Q365 600 393.5 578.5Q422 557 440.5 527Q459 497 467 461H388Q374 503 339 529.5Q304 556 243 556Q215 556 192 549Q169 542 152 528.5Q135 515 125.5 496.5Q116 478 116 455Q116 436 122 421Q128 406 140.5 395Q153 384 171 376Q189 368 213 361L319 334Q392 315 431.5 274.5Q471 234 471 169Q471 128 455 94.5Q439 61 411 38Q383 15 344 3Q305 -9 259 -9Q168 -9 104.5 35Q41 79 23 160ZM243 -137Q226 -135 214 -123.5Q202 -112 202 -93Q202 -72 216.5 -58.5Q231 -45 252 -45Q273 -45 287 -59Q301 -73 301 -95Q301 -112 294.5 -125.5Q288 -139 280 -152L251 -201H203Z" glyph-name="Scommaaccent" horiz-adv-x="508" unicode="&#536;" /><glyph d="M30 614H537V543H323V0H244V543H30Z" glyph-name="T" horiz-adv-x="567" unicode="T" /><glyph d="M130 351H244V543H30V614H537V543H323V351H436V284H323V0H244V284H130Z" glyph-name="Tbar" horiz-adv-x="567" unicode="&#358;" /><glyph d="M30 614H537V543H323V0H244V543H30ZM156 787H225L284 716L342 787H411L318 666H249Z" glyph-name="Tcaron" horiz-adv-x="567" unicode="&#356;" /><glyph d="M30 614H537V543H323V0H244V543H30ZM277 -137Q260 -135 248 -123.5Q236 -112 236 -93Q236 -72 250.5 -58.5Q265 -45 286 -45Q307 -45 321 -59Q335 -73 335 -95Q335 -112 328.5 -125.5Q322 -139 314 -152L285 -201H237Z" glyph-name="Tcommaaccent" horiz-adv-x="567" unicode="&#354;" /><glyph d="M152 131V0H73V614H152V499H303Q349 499 386.5 487Q424 475 450.5 452Q477 429 491 395Q505 361 505 315Q505 270 491 235.5Q477 201 450.5 178Q424 155 386.5 143Q349 131 303 131ZM427 315Q427 368 395 399Q363 430 301 430H152V201H301Q363 201 395 231.5Q427 262 427 315Z" glyph-name="Thorn" horiz-adv-x="537" unicode="&#222;" /><glyph d="M303 -9Q250 -9 206 6.5Q162 22 130 53.5Q98 85 80 133Q62 181 62 244V614H141V253Q141 204 152 168Q163 132 184.5 108.5Q206 85 235.5 73.5Q265 62 303 62Q339 62 369 73.5Q399 85 420 108.5Q441 132 453 168Q465 204 465 253V614H544V243Q544 180 525.5 132.5Q507 85 475.5 53.5Q444 22 399.5 6.5Q355 -9 303 -9Z" glyph-name="U" horiz-adv-x="606" unicode="U" /><glyph d="M303 -9Q250 -9 206 6.5Q162 22 130 53.5Q98 85 80 133Q62 181 62 244V614H141V253Q141 204 152 168Q163 132 184.5 108.5Q206 85 235.5 73.5Q265 62 303 62Q339 62 369 73.5Q399 85 420 108.5Q441 132 453 168Q465 204 465 253V614H544V243Q544 180 525.5 132.5Q507 85 475.5 53.5Q444 22 399.5 6.5Q355 -9 303 -9ZM259 668 339 785H426L335 668Z" glyph-name="Uacute" horiz-adv-x="606" unicode="&#218;" /><glyph d="M303 -9Q250 -9 206 6.5Q162 22 130 53.5Q98 85 80 133Q62 181 62 244V614H141V253Q141 204 152 168Q163 132 184.5 108.5Q206 85 235.5 73.5Q265 62 303 62Q339 62 369 73.5Q399 85 420 108.5Q441 132 453 168Q465 204 465 253V614H544V243Q544 180 525.5 132.5Q507 85 475.5 53.5Q444 22 399.5 6.5Q355 -9 303 -9ZM303 666Q277 666 256 673.5Q235 681 220 696.5Q205 712 196.5 734.5Q188 757 188 786H245Q245 754 261.5 738Q278 722 303 722Q330 722 346 738Q362 754 362 786H419Q419 757 411 734.5Q403 712 387.5 696.5Q372 681 350.5 673.5Q329 666 303 666Z" glyph-name="Ubreve" horiz-adv-x="606" unicode="&#364;" /><glyph d="M303 -9Q250 -9 206 6.5Q162 22 130 53.5Q98 85 80 133Q62 181 62 244V614H141V253Q141 204 152 168Q163 132 184.5 108.5Q206 85 235.5 73.5Q265 62 303 62Q339 62 369 73.5Q399 85 420 108.5Q441 132 453 168Q465 204 465 253V614H544V243Q544 180 525.5 132.5Q507 85 475.5 53.5Q444 22 399.5 6.5Q355 -9 303 -9ZM431 669H362L304 740L245 669H176L269 791H338Z" glyph-name="Ucircumflex" horiz-adv-x="606" unicode="&#219;" /><glyph d="M303 -9Q250 -9 206 6.5Q162 22 130 53.5Q98 85 80 133Q62 181 62 244V614H141V253Q141 204 152 168Q163 132 184.5 108.5Q206 85 235.5 73.5Q265 62 303 62Q339 62 369 73.5Q399 85 420 108.5Q441 132 453 168Q465 204 465 253V614H544V243Q544 180 525.5 132.5Q507 85 475.5 53.5Q444 22 399.5 6.5Q355 -9 303 -9ZM187 722Q187 742 200.5 755Q214 768 234 768Q253 768 266.5 755Q280 742 280 722Q280 703 266.5 689.5Q253 676 234 676Q214 676 200.5 689.5Q187 703 187 722ZM327 722Q327 742 340.5 755Q354 768 373 768Q392 768 406 755Q420 742 420 722Q420 703 406 689.5Q392 676 373 676Q354 676 340.5 689.5Q327 703 327 722Z" glyph-name="Udieresis" horiz-adv-x="606" unicode="&#220;" /><glyph d="M303 -9Q250 -9 206 6.5Q162 22 130 53.5Q98 85 80 133Q62 181 62 244V614H141V253Q141 204 152 168Q163 132 184.5 108.5Q206 85 235.5 73.5Q265 62 303 62Q339 62 369 73.5Q399 85 420 108.5Q441 132 453 168Q465 204 465 253V614H544V243Q544 180 525.5 132.5Q507 85 475.5 53.5Q444 22 399.5 6.5Q355 -9 303 -9ZM269 668 177 785H265L344 668Z" glyph-name="Ugrave" horiz-adv-x="606" unicode="&#217;" /><glyph d="M303 -9Q250 -9 206 6.5Q162 22 130 53.5Q98 85 80 133Q62 181 62 244V614H141V253Q141 204 152 168Q163 132 184.5 108.5Q206 85 235.5 73.5Q265 62 303 62Q339 62 369 73.5Q399 85 420 108.5Q441 132 453 168Q465 204 465 253V614H544V243Q544 180 525.5 132.5Q507 85 475.5 53.5Q444 22 399.5 6.5Q355 -9 303 -9ZM214 668 281 785H347L279 668ZM337 668 403 785H470L402 668Z" glyph-name="Uhungarumlaut" horiz-adv-x="606" unicode="&#368;" /><glyph d="M303 -9Q250 -9 206 6.5Q162 22 130 53.5Q98 85 80 133Q62 181 62 244V614H141V253Q141 204 152 168Q163 132 184.5 108.5Q206 85 235.5 73.5Q265 62 303 62Q339 62 369 73.5Q399 85 420 108.5Q441 132 453 168Q465 204 465 253V614H544V243Q544 180 525.5 132.5Q507 85 475.5 53.5Q444 22 399.5 6.5Q355 -9 303 -9ZM197 732H411V671H197Z" glyph-name="Umacron" horiz-adv-x="606" unicode="&#362;" /><glyph d="M303 -9Q250 -9 206 6.5Q162 22 130 53.5Q98 85 80 133Q62 181 62 244V614H141V253Q141 204 152 168Q163 132 184.5 108.5Q206 85 235.5 73.5Q265 62 303 62Q339 62 369 73.5Q399 85 420 108.5Q441 132 453 168Q465 204 465 253V614H544V243Q544 202 536.5 168.5Q529 135 515 109Q501 83 480.5 61Q460 39 434 21Q381 -17 362 -48.5Q343 -80 343 -106Q343 -118 349 -125Q355 -132 365 -132Q375 -132 383 -128Q391 -124 402 -117V-167Q391 -176 378.5 -181Q366 -186 350 -186Q334 -186 321.5 -181.5Q309 -177 300.5 -168Q292 -159 288 -146.5Q284 -134 284 -119Q284 -110 285.5 -100.5Q287 -91 290.5 -81.5Q294 -72 298.5 -62Q303 -52 309 -42.5Q315 -33 323 -24Q331 -15 340 -6Q331 -8 321.5 -8.5Q312 -9 303 -9Z" glyph-name="Uogonek" horiz-adv-x="606" unicode="&#370;" /><glyph d="M303 -9Q250 -9 206 6.5Q162 22 130 53.5Q98 85 80 133Q62 181 62 244V614H141V253Q141 204 152 168Q163 132 184.5 108.5Q206 85 235.5 73.5Q265 62 303 62Q339 62 369 73.5Q399 85 420 108.5Q441 132 453 168Q465 204 465 253V614H544V243Q544 180 525.5 132.5Q507 85 475.5 53.5Q444 22 399.5 6.5Q355 -9 303 -9ZM391 735Q391 716 384.5 700.5Q378 685 365.5 673.5Q353 662 337 655Q321 648 304 648Q285 648 269.5 655Q254 662 241.5 673.5Q229 685 222.5 700.5Q216 716 216 735Q216 752 222.5 768Q229 784 241.5 795.5Q254 807 269.5 814Q285 821 304 821Q321 821 337 814Q353 807 365.5 795.5Q378 784 384.5 768Q391 752 391 735ZM349 735Q349 754 335.5 767Q322 780 304 780Q285 780 271.5 767Q258 754 258 735Q258 715 271.5 702Q285 689 304 689Q322 689 335.5 702Q349 715 349 735Z" glyph-name="Uring" horiz-adv-x="606" unicode="&#366;" /><glyph d="M303 -9Q250 -9 206 6.5Q162 22 130 53.5Q98 85 80 133Q62 181 62 244V614H141V253Q141 204 152 168Q163 132 184.5 108.5Q206 85 235.5 73.5Q265 62 303 62Q339 62 369 73.5Q399 85 420 108.5Q441 132 453 168Q465 204 465 253V614H544V243Q544 180 525.5 132.5Q507 85 475.5 53.5Q444 22 399.5 6.5Q355 -9 303 -9ZM438 784Q438 757 433.5 735Q429 713 419.5 697.5Q410 682 395.5 673.5Q381 665 362 665Q343 665 328.5 674Q314 683 301.5 693Q289 703 277 712Q265 721 251 721Q234 721 226 707.5Q218 694 217 668H169Q169 695 173.5 716.5Q178 738 188 754Q198 770 212 778.5Q226 787 245 787Q264 787 278.5 778.5Q293 770 305.5 759.5Q318 749 330 740Q342 731 356 731Q372 731 380.5 745Q389 759 390 784Z" glyph-name="Utilde" horiz-adv-x="606" unicode="&#360;" /><glyph d="M258 0 21 614H104L296 104L488 614H569L332 0Z" glyph-name="V" horiz-adv-x="590" unicode="V" /><glyph d="M416 614 546 126 671 614H748L585 0H513L383 479L253 0H181L19 614H97L222 126L352 614Z" glyph-name="W" horiz-adv-x="767" unicode="W" /><glyph d="M416 614 546 126 671 614H748L585 0H513L383 479L253 0H181L19 614H97L222 126L352 614ZM344 668 424 785H511L420 668Z" glyph-name="Wacute" horiz-adv-x="767" unicode="&#7810;" /><glyph d="M416 614 546 126 671 614H748L585 0H513L383 479L253 0H181L19 614H97L222 126L352 614ZM511 669H442L384 740L325 669H256L349 791H418Z" glyph-name="Wcircumflex" horiz-adv-x="767" unicode="&#372;" /><glyph d="M416 614 546 126 671 614H748L585 0H513L383 479L253 0H181L19 614H97L222 126L352 614ZM267 722Q267 742 280.5 755Q294 768 314 768Q333 768 346.5 755Q360 742 360 722Q360 703 346.5 689.5Q333 676 314 676Q294 676 280.5 689.5Q267 703 267 722ZM407 722Q407 742 420.5 755Q434 768 453 768Q472 768 486 755Q500 742 500 722Q500 703 486 689.5Q472 676 453 676Q434 676 420.5 689.5Q407 703 407 722Z" glyph-name="Wdieresis" horiz-adv-x="767" unicode="&#7812;" /><glyph d="M416 614 546 126 671 614H748L585 0H513L383 479L253 0H181L19 614H97L222 126L352 614ZM346 668 254 785H342L421 668Z" glyph-name="Wgrave" horiz-adv-x="767" unicode="&#7808;" /><glyph d="M324 314 542 0H451L278 250L105 0H17L234 312L25 614H115L280 376L446 614H533Z" glyph-name="X" horiz-adv-x="559" unicode="X" /><glyph d="M457 614H541L318 253V0H240V253L17 614H103L281 325Z" glyph-name="Y" horiz-adv-x="558" unicode="Y" /><glyph d="M457 614H541L318 253V0H240V253L17 614H103L281 325ZM235 668 315 785H402L311 668Z" glyph-name="Yacute" horiz-adv-x="558" unicode="&#221;" /><glyph d="M457 614H541L318 253V0H240V253L17 614H103L281 325ZM406 669H337L279 740L220 669H151L244 791H313Z" glyph-name="Ycircumflex" horiz-adv-x="558" unicode="&#374;" /><glyph d="M457 614H541L318 253V0H240V253L17 614H103L281 325ZM163 722Q163 742 176.5 755Q190 768 210 768Q229 768 242.5 755Q256 742 256 722Q256 703 242.5 689.5Q229 676 210 676Q190 676 176.5 689.5Q163 703 163 722ZM303 722Q303 742 316.5 755Q330 768 349 768Q368 768 382 755Q396 742 396 722Q396 703 382 689.5Q368 676 349 676Q330 676 316.5 689.5Q303 703 303 722Z" glyph-name="Ydieresis" horiz-adv-x="558" unicode="&#376;" /><glyph d="M457 614H541L318 253V0H240V253L17 614H103L281 325ZM245 668 153 785H241L320 668Z" glyph-name="Ygrave" horiz-adv-x="558" unicode="&#7922;" /><glyph d="M492 0H41V57L389 543H46V614H487V558L140 71H492Z" glyph-name="Z" horiz-adv-x="534" unicode="Z" /><glyph d="M492 0H41V57L389 543H46V614H487V558L140 71H492ZM243 668 323 785H410L319 668Z" glyph-name="Zacute" horiz-adv-x="534" unicode="&#377;" /><glyph d="M492 0H41V57L389 543H46V614H487V558L140 71H492ZM159 787H228L287 716L345 787H414L321 666H252Z" glyph-name="Zcaron" horiz-adv-x="534" unicode="&#381;" /><glyph d="M492 0H41V57L389 543H46V614H487V558L140 71H492ZM335 721Q335 701 321 687Q307 673 287 673Q266 673 252 687Q238 701 238 721Q238 742 252 756Q266 770 287 770Q307 770 321 756Q335 742 335 721Z" glyph-name="Zdotaccent" horiz-adv-x="534" unicode="&#379;" /><glyph d="M316 550Q316 519 290 497.5Q264 476 227 476Q190 476 164 497.5Q138 519 138 550Q138 566 145 579.5Q152 593 164 603Q176 613 192 618.5Q208 624 227 624Q245 624 261 618.5Q277 613 289.5 603Q302 593 309 579.5Q316 566 316 550ZM273 550Q273 567 259.5 576.5Q246 586 227 586Q208 586 194.5 576.5Q181 567 181 550Q181 534 194.5 524Q208 514 227 514Q246 514 259.5 524Q273 534 273 550ZM194 647 249 733H336L268 647Z" glyph-name="_442" horiz-adv-x="450" /><glyph d="M316 0V33Q303 19 271.5 5.5Q240 -8 200 -8Q166 -8 136 2Q106 12 83.5 30Q61 48 48 74.5Q35 101 35 134Q35 165 48 190.5Q61 216 84 234.5Q107 253 138 263Q169 273 205 273Q239 273 270 261.5Q301 250 316 237V293Q316 335 291.5 361.5Q267 388 219 388Q184 388 161 372.5Q138 357 128 326H54Q60 354 74.5 377.5Q89 401 111 418Q133 435 160.5 444Q188 453 220 453Q300 453 344.5 411Q389 369 389 295V0ZM316 156Q311 168 301 178.5Q291 189 277 196.5Q263 204 246.5 207.5Q230 211 212 211Q192 211 173 206.5Q154 202 139 192Q124 182 115 167.5Q106 153 106 134Q106 113 115 98.5Q124 84 139 74Q154 64 173 59.5Q192 55 212 55Q230 55 246.5 59Q263 63 277 70.5Q291 78 301 87.5Q311 97 316 110Z" glyph-name="a" horiz-adv-x="450" unicode="a" /><glyph d="M316 0V33Q303 19 271.5 5.5Q240 -8 200 -8Q166 -8 136 2Q106 12 83.5 30Q61 48 48 74.5Q35 101 35 134Q35 165 48 190.5Q61 216 84 234.5Q107 253 138 263Q169 273 205 273Q239 273 270 261.5Q301 250 316 237V293Q316 335 291.5 361.5Q267 388 219 388Q184 388 161 372.5Q138 357 128 326H54Q60 354 74.5 377.5Q89 401 111 418Q133 435 160.5 444Q188 453 220 453Q300 453 344.5 411Q389 369 389 295V0ZM316 156Q311 168 301 178.5Q291 189 277 196.5Q263 204 246.5 207.5Q230 211 212 211Q192 211 173 206.5Q154 202 139 192Q124 182 115 167.5Q106 153 106 134Q106 113 115 98.5Q124 84 139 74Q154 64 173 59.5Q192 55 212 55Q230 55 246.5 59Q263 63 277 70.5Q291 78 301 87.5Q311 97 316 110ZM190 516 270 650H349L260 516Z" glyph-name="aacute" horiz-adv-x="450" unicode="&#225;" /><glyph d="M316 0V33Q303 19 271.5 5.5Q240 -8 200 -8Q166 -8 136 2Q106 12 83.5 30Q61 48 48 74.5Q35 101 35 134Q35 165 48 190.5Q61 216 84 234.5Q107 253 138 263Q169 273 205 273Q239 273 270 261.5Q301 250 316 237V293Q316 335 291.5 361.5Q267 388 219 388Q184 388 161 372.5Q138 357 128 326H54Q60 354 74.5 377.5Q89 401 111 418Q133 435 160.5 444Q188 453 220 453Q300 453 344.5 411Q389 369 389 295V0ZM316 156Q311 168 301 178.5Q291 189 277 196.5Q263 204 246.5 207.5Q230 211 212 211Q192 211 173 206.5Q154 202 139 192Q124 182 115 167.5Q106 153 106 134Q106 113 115 98.5Q124 84 139 74Q154 64 173 59.5Q192 55 212 55Q230 55 246.5 59Q263 63 277 70.5Q291 78 301 87.5Q311 97 316 110ZM228 500Q203 500 182 508.5Q161 517 146 533Q131 549 122.5 573Q114 597 114 628H171Q171 594 185.5 574.5Q200 555 228 555Q256 555 270.5 574.5Q285 594 285 628H342Q342 597 333.5 573Q325 549 310 533Q295 517 274 508.5Q253 500 228 500Z" glyph-name="abreve" horiz-adv-x="450" unicode="&#259;" /><glyph d="M316 0V33Q303 19 271.5 5.5Q240 -8 200 -8Q166 -8 136 2Q106 12 83.5 30Q61 48 48 74.5Q35 101 35 134Q35 165 48 190.5Q61 216 84 234.5Q107 253 138 263Q169 273 205 273Q239 273 270 261.5Q301 250 316 237V293Q316 335 291.5 361.5Q267 388 219 388Q184 388 161 372.5Q138 357 128 326H54Q60 354 74.5 377.5Q89 401 111 418Q133 435 160.5 444Q188 453 220 453Q300 453 344.5 411Q389 369 389 295V0ZM316 156Q311 168 301 178.5Q291 189 277 196.5Q263 204 246.5 207.5Q230 211 212 211Q192 211 173 206.5Q154 202 139 192Q124 182 115 167.5Q106 153 106 134Q106 113 115 98.5Q124 84 139 74Q154 64 173 59.5Q192 55 212 55Q230 55 246.5 59Q263 63 277 70.5Q291 78 301 87.5Q311 97 316 110ZM358 509H292L231 597L169 509H103L196 645H265Z" glyph-name="acircumflex" horiz-adv-x="450" unicode="&#226;" /><glyph d="M171 516 251 650H330L241 516Z" glyph-name="acute" horiz-adv-x="500" unicode="&#180;" /><glyph d="M166 668 246 785H333L242 668Z" glyph-name="acute.cap" horiz-adv-x="500" /><glyph d="M316 0V33Q303 19 271.5 5.5Q240 -8 200 -8Q166 -8 136 2Q106 12 83.5 30Q61 48 48 74.5Q35 101 35 134Q35 165 48 190.5Q61 216 84 234.5Q107 253 138 263Q169 273 205 273Q239 273 270 261.5Q301 250 316 237V293Q316 335 291.5 361.5Q267 388 219 388Q184 388 161 372.5Q138 357 128 326H54Q60 354 74.5 377.5Q89 401 111 418Q133 435 160.5 444Q188 453 220 453Q300 453 344.5 411Q389 369 389 295V0ZM316 156Q311 168 301 178.5Q291 189 277 196.5Q263 204 246.5 207.5Q230 211 212 211Q192 211 173 206.5Q154 202 139 192Q124 182 115 167.5Q106 153 106 134Q106 113 115 98.5Q124 84 139 74Q154 64 173 59.5Q192 55 212 55Q230 55 246.5 59Q263 63 277 70.5Q291 78 301 87.5Q311 97 316 110ZM115 571Q115 592 128.5 605Q142 618 162 618Q171 618 179.5 614.5Q188 611 194 604.5Q200 598 204 590Q208 582 208 571Q208 552 194.5 538.5Q181 525 162 525Q142 525 128.5 538.5Q115 552 115 571ZM255 571Q255 592 268.5 605Q282 618 301 618Q311 618 319 614.5Q327 611 334 604.5Q341 598 344.5 590Q348 582 348 571Q348 552 334 538.5Q320 525 301 525Q282 525 268.5 538.5Q255 552 255 571Z" glyph-name="adieresis" horiz-adv-x="450" unicode="&#228;" /><glyph d="M199 55Q221 55 239.5 61Q258 67 272.5 78Q287 89 297.5 104Q308 119 315 136V207H210Q190 207 171.5 202.5Q153 198 138 188.5Q123 179 114 165Q105 151 105 132Q105 93 133 74Q161 55 199 55ZM692 134Q680 70 634 30.5Q588 -9 512 -9Q460 -9 419 13.5Q378 36 352 75Q339 58 323 43Q307 28 287.5 16.5Q268 5 244 -1.5Q220 -8 193 -8Q160 -8 131 2Q102 12 80.5 29.5Q59 47 46.5 72Q34 97 34 128Q34 161 47.5 186.5Q61 212 84 229.5Q107 247 138 256.5Q169 266 205 266H315V293Q315 335 290.5 361.5Q266 388 218 388Q183 388 159.5 372.5Q136 357 126 326H53Q59 354 73.5 377.5Q88 401 110 418Q132 435 160 444Q188 453 219 453Q274 453 310.5 431.5Q347 410 364 372Q389 408 426 430.5Q463 453 511 453Q556 453 591 437Q626 421 650 392Q674 363 686 323.5Q698 284 698 235V208H384Q384 172 394 143.5Q404 115 421 95.5Q438 76 461.5 65.5Q485 55 512 55Q554 55 583 75.5Q612 96 621 134ZM511 389Q460 389 427 356Q394 323 386 265H622Q622 290 614.5 312.5Q607 335 593.5 352Q580 369 559.5 379Q539 389 511 389Z" glyph-name="ae" horiz-adv-x="731" unicode="&#230;" /><glyph d="M199 55Q221 55 239.5 61Q258 67 272.5 78Q287 89 297.5 104Q308 119 315 136V207H210Q190 207 171.5 202.5Q153 198 138 188.5Q123 179 114 165Q105 151 105 132Q105 93 133 74Q161 55 199 55ZM692 134Q680 70 634 30.5Q588 -9 512 -9Q460 -9 419 13.5Q378 36 352 75Q339 58 323 43Q307 28 287.5 16.5Q268 5 244 -1.5Q220 -8 193 -8Q160 -8 131 2Q102 12 80.5 29.5Q59 47 46.5 72Q34 97 34 128Q34 161 47.5 186.5Q61 212 84 229.5Q107 247 138 256.5Q169 266 205 266H315V293Q315 335 290.5 361.5Q266 388 218 388Q183 388 159.5 372.5Q136 357 126 326H53Q59 354 73.5 377.5Q88 401 110 418Q132 435 160 444Q188 453 219 453Q274 453 310.5 431.5Q347 410 364 372Q389 408 426 430.5Q463 453 511 453Q556 453 591 437Q626 421 650 392Q674 363 686 323.5Q698 284 698 235V208H384Q384 172 394 143.5Q404 115 421 95.5Q438 76 461.5 65.5Q485 55 512 55Q554 55 583 75.5Q612 96 621 134ZM511 389Q460 389 427 356Q394 323 386 265H622Q622 290 614.5 312.5Q607 335 593.5 352Q580 369 559.5 379Q539 389 511 389ZM345 516 425 650H504L415 516Z" glyph-name="aeacute" horiz-adv-x="731" unicode="&#509;" /><glyph d="M316 0V33Q303 19 271.5 5.5Q240 -8 200 -8Q166 -8 136 2Q106 12 83.5 30Q61 48 48 74.5Q35 101 35 134Q35 165 48 190.5Q61 216 84 234.5Q107 253 138 263Q169 273 205 273Q239 273 270 261.5Q301 250 316 237V293Q316 335 291.5 361.5Q267 388 219 388Q184 388 161 372.5Q138 357 128 326H54Q60 354 74.5 377.5Q89 401 111 418Q133 435 160.5 444Q188 453 220 453Q300 453 344.5 411Q389 369 389 295V0ZM316 156Q311 168 301 178.5Q291 189 277 196.5Q263 204 246.5 207.5Q230 211 212 211Q192 211 173 206.5Q154 202 139 192Q124 182 115 167.5Q106 153 106 134Q106 113 115 98.5Q124 84 139 74Q154 64 173 59.5Q192 55 212 55Q230 55 246.5 59Q263 63 277 70.5Q291 78 301 87.5Q311 97 316 110ZM202 516 113 650H192L272 516Z" glyph-name="agrave" horiz-adv-x="450" unicode="&#224;" /><glyph d="M316 0V33Q303 19 271.5 5.5Q240 -8 200 -8Q166 -8 136 2Q106 12 83.5 30Q61 48 48 74.5Q35 101 35 134Q35 165 48 190.5Q61 216 84 234.5Q107 253 138 263Q169 273 205 273Q239 273 270 261.5Q301 250 316 237V293Q316 335 291.5 361.5Q267 388 219 388Q184 388 161 372.5Q138 357 128 326H54Q60 354 74.5 377.5Q89 401 111 418Q133 435 160.5 444Q188 453 220 453Q300 453 344.5 411Q389 369 389 295V0ZM316 156Q311 168 301 178.5Q291 189 277 196.5Q263 204 246.5 207.5Q230 211 212 211Q192 211 173 206.5Q154 202 139 192Q124 182 115 167.5Q106 153 106 134Q106 113 115 98.5Q124 84 139 74Q154 64 173 59.5Q192 55 212 55Q230 55 246.5 59Q263 63 277 70.5Q291 78 301 87.5Q311 97 316 110ZM124 591H338V530H124Z" glyph-name="amacron" horiz-adv-x="450" unicode="&#257;" /><glyph d="M359 474Q357 512 334 537Q311 562 270 562Q230 562 202.5 538Q175 514 175 470Q175 436 194.5 409.5Q214 383 241 355L412 172Q420 189 426 208Q440 255 442 308H512Q510 248 491 191Q478 154 459 122L574 0H475L415 64Q387 36 351 17Q301 -9 238 -9Q194 -9 157.5 5Q121 19 95 44Q69 69 54 103.5Q39 138 39 179Q39 214 52 245Q65 276 87.5 300Q110 324 140 340Q145 343 151 346Q136 365 125 383.5Q114 402 108 422.5Q102 443 102 468Q102 504 115 532.5Q128 561 150.5 581.5Q173 602 203.5 612.5Q234 623 270 623Q309 623 339 611.5Q369 600 389.5 580Q410 560 421.5 532.5Q433 505 434 474ZM182 294Q161 284 145 266.5Q129 249 120 226.5Q111 204 111 179Q111 152 120.5 129Q130 106 146.5 89.5Q163 73 186.5 64Q210 55 238 55Q286 55 323 74Q351 88 372 110L194 299Q188 297 182 294Z" glyph-name="ampersand" horiz-adv-x="585" unicode="&amp;" /><glyph d="M315 156Q311 168 301 178.5Q291 189 277 196.5Q263 204 246.5 207.5Q230 211 212 211Q192 211 173 206.5Q154 202 139 192Q124 182 115 167.5Q106 153 106 134Q106 113 115 98.5Q124 84 139 74Q154 64 173 59.5Q192 55 212 55Q230 55 246.5 59Q263 63 277 70.5Q291 78 301 87.5Q311 97 315 110ZM315 0V33Q303 19 271.5 5.5Q240 -8 200 -8Q166 -8 136 2Q106 12 83.5 30Q61 48 48 74.5Q35 101 35 134Q35 165 48 190.5Q61 216 84 234.5Q107 253 138 263Q169 273 205 273Q239 273 270 261.5Q301 250 315 237V293Q315 335 291 361.5Q267 388 219 388Q184 388 160 372.5Q136 357 126 326H54Q60 354 74.5 377.5Q89 401 111 418Q133 435 160.5 444Q188 453 220 453Q300 453 344.5 411Q389 369 389 295V0Q374 -25 364.5 -41Q355 -57 349.5 -68.5Q344 -80 342 -88.5Q340 -97 340 -106Q340 -119 346 -125.5Q352 -132 362 -132Q372 -132 380 -128Q388 -124 399 -117V-167Q388 -176 375.5 -181Q363 -186 347 -186Q331 -186 318.5 -181.5Q306 -177 297.5 -168.5Q289 -160 284.5 -147.5Q280 -135 280 -120Q280 -106 284 -92.5Q288 -79 295 -65Q302 -51 311.5 -35Q321 -19 333 0Z" glyph-name="aogonek" horiz-adv-x="449" unicode="&#261;" /><glyph d="M79 245Q108 267 134.5 276.5Q161 286 185 286Q210 286 232 279.5Q254 273 275 265.5Q296 258 318 251.5Q340 245 365 245Q389 245 416.5 254.5Q444 264 474 287V226Q444 203 416.5 194Q389 185 365 185Q340 185 318 191.5Q296 198 274.5 205.5Q253 213 231.5 219.5Q210 226 185 226Q161 226 134.5 216Q108 206 79 184ZM79 370Q108 392 134.5 401.5Q161 411 185 411Q210 411 232 404.5Q254 398 275 390Q296 382 318 375.5Q340 369 365 369Q389 369 416.5 379.5Q444 390 474 412V351Q444 328 416.5 318.5Q389 309 365 309Q340 309 318 316Q296 323 274.5 330.5Q253 338 231.5 344.5Q210 351 185 351Q161 351 134.5 340.5Q108 330 79 308Z" glyph-name="approxequal" horiz-adv-x="552" unicode="&#8776;" /><glyph d="M62 245Q91 267 117.5 276.5Q144 286 168 286Q193 286 215 279.5Q237 273 258 265.5Q279 258 301 251.5Q323 245 348 245Q372 245 399.5 254.5Q427 264 457 287V226Q427 203 399.5 194Q372 185 348 185Q323 185 301 191.5Q279 198 257.5 205.5Q236 213 214.5 219.5Q193 226 168 226Q144 226 117.5 216Q91 206 62 184ZM62 370Q91 392 117.5 401.5Q144 411 168 411Q193 411 215 404.5Q237 398 258 390Q279 382 301 375.5Q323 369 348 369Q372 369 399.5 379.5Q427 390 457 412V351Q427 328 399.5 318.5Q372 309 348 309Q323 309 301 316Q279 323 257.5 330.5Q236 338 214.5 344.5Q193 351 168 351Q144 351 117.5 340.5Q91 330 62 308Z" glyph-name="approxequal.lt" horiz-adv-x="520" /><glyph d="M316 0V33Q303 19 271.5 5.5Q240 -8 200 -8Q166 -8 136 2Q106 12 83.5 30Q61 48 48 74.5Q35 101 35 134Q35 165 48 190.5Q61 216 84 234.5Q107 253 138 263Q169 273 205 273Q239 273 270 261.5Q301 250 316 237V293Q316 335 291.5 361.5Q267 388 219 388Q184 388 161 372.5Q138 357 128 326H54Q60 354 74.5 377.5Q89 401 111 418Q133 435 160.5 444Q188 453 220 453Q300 453 344.5 411Q389 369 389 295V0ZM316 156Q311 168 301 178.5Q291 189 277 196.5Q263 204 246.5 207.5Q230 211 212 211Q192 211 173 206.5Q154 202 139 192Q124 182 115 167.5Q106 153 106 134Q106 113 115 98.5Q124 84 139 74Q154 64 173 59.5Q192 55 212 55Q230 55 246.5 59Q263 63 277 70.5Q291 78 301 87.5Q311 97 316 110ZM316 580Q316 561 309.5 545.5Q303 530 290.5 518.5Q278 507 262 500.5Q246 494 229 494Q210 494 194.5 500.5Q179 507 166.5 518.5Q154 530 147.5 545.5Q141 561 141 580Q141 598 147.5 614Q154 630 166.5 641.5Q179 653 194.5 659.5Q210 666 229 666Q246 666 262 659.5Q278 653 290.5 641.5Q303 630 309.5 614Q316 598 316 580ZM274 580Q274 599 260.5 612Q247 625 229 625Q210 625 196.5 612Q183 599 183 580Q183 561 196.5 548Q210 535 229 535Q247 535 260.5 548Q274 561 274 580Z" glyph-name="aring" horiz-adv-x="450" unicode="&#229;" /><glyph d="M316 550Q316 519 290 497.5Q264 476 227 476Q190 476 164 497.5Q138 519 138 550Q138 566 145 579.5Q152 593 164 603Q176 613 192 618.5Q208 624 227 624Q245 624 261 618.5Q277 613 289.5 603Q302 593 309 579.5Q316 566 316 550ZM273 550Q273 567 259.5 576.5Q246 586 227 586Q208 586 194.5 576.5Q181 567 181 550Q181 534 194.5 524Q208 514 227 514Q246 514 259.5 524Q273 534 273 550ZM194 647 249 733H336L268 647ZM316 0V33Q303 19 271.5 5.5Q240 -8 200 -8Q166 -8 136 2Q106 12 83.5 30Q61 48 48 74.5Q35 101 35 134Q35 165 48 190.5Q61 216 84 234.5Q107 253 138 263Q169 273 205 273Q239 273 270 261.5Q301 250 316 237V293Q316 335 291.5 361.5Q267 388 219 388Q184 388 161 372.5Q138 357 128 326H54Q60 354 74.5 377.5Q89 401 111 418Q133 435 160.5 444Q188 453 220 453Q300 453 344.5 411Q389 369 389 295V0ZM316 156Q311 168 301 178.5Q291 189 277 196.5Q263 204 246.5 207.5Q230 211 212 211Q192 211 173 206.5Q154 202 139 192Q124 182 115 167.5Q106 153 106 134Q106 113 115 98.5Q124 84 139 74Q154 64 173 59.5Q192 55 212 55Q230 55 246.5 59Q263 63 277 70.5Q291 78 301 87.5Q311 97 316 110Z" glyph-name="aringacute" horiz-adv-x="450" unicode="&#507;" /><glyph d="M216 614 341 420H263L179 547L96 420H17L142 614Z" glyph-name="asciicircum" horiz-adv-x="358" unicode="^" /><glyph d="M378 335Q378 274 352.5 240Q327 206 282 206Q258 206 239.5 216Q221 226 205.5 239Q190 252 176 262Q162 272 146 272Q126 272 115 256Q104 240 104 210H40Q40 270 65.5 304.5Q91 339 137 339Q160 339 178 328.5Q196 318 211.5 305.5Q227 293 241.5 282.5Q256 272 272 272Q292 272 303 288.5Q314 305 314 335Z" glyph-name="asciitilde" horiz-adv-x="418" unicode="~" /><glyph d="M31 559 54 597 144 545V649H189V545L279 597L302 559L210 506L302 454L279 415L189 468V363H144V468L54 415L31 454L122 506Z" glyph-name="asterisk" horiz-adv-x="333" unicode="*" /><glyph d="M517 139Q512 108 522.5 96Q533 84 557 84Q583 84 606 96.5Q629 109 645.5 133Q662 157 671.5 192Q681 227 681 271Q681 326 661 369.5Q641 413 605 444.5Q569 476 519 493Q469 510 411 510Q340 510 281.5 485.5Q223 461 181.5 418Q140 375 117.5 316.5Q95 258 95 188Q95 108 123.5 53.5Q152 -1 197 -35Q242 -69 298.5 -83.5Q355 -98 412 -98Q479 -98 532 -84.5Q585 -71 629 -51V-109Q591 -127 534.5 -140.5Q478 -154 412 -154Q339 -154 270.5 -134Q202 -114 149 -72.5Q96 -31 64 33.5Q32 98 32 188Q32 266 59 335Q86 404 136 455.5Q186 507 256 537Q326 567 411 567Q485 567 545.5 544.5Q606 522 649.5 482Q693 442 717.5 388Q742 334 742 271Q742 210 725.5 165Q709 120 681.5 89.5Q654 59 619 44.5Q584 30 547 30Q512 30 484.5 45Q457 60 447 88Q431 63 402.5 47Q374 31 345 31Q313 31 288.5 42.5Q264 54 247 74Q230 94 221 120.5Q212 147 212 179Q212 220 225.5 258Q239 296 263 325.5Q287 355 320.5 372.5Q354 390 395 390Q428 390 451.5 375.5Q475 361 485 344L493 381H560ZM473 275Q465 297 445.5 312.5Q426 328 399 328Q372 328 350.5 315.5Q329 303 314 282Q299 261 290.5 235Q282 209 282 182Q282 142 302.5 117.5Q323 93 359 93Q389 93 411.5 110Q434 127 450 151Z" glyph-name="at" horiz-adv-x="774" unicode="@" /><glyph d="M517 231Q512 200 522.5 188Q533 176 557 176Q583 176 606 188.5Q629 201 645.5 225Q662 249 671.5 284Q681 319 681 363Q681 418 661 461.5Q641 505 605 536.5Q569 568 519 585Q469 602 411 602Q340 602 281.5 577.5Q223 553 181.5 510Q140 467 117.5 408.5Q95 350 95 280Q95 200 123.5 145.5Q152 91 197 57Q242 23 298.5 8.5Q355 -6 412 -6Q479 -6 532 7.5Q585 21 629 41V-17Q591 -35 534.5 -48.5Q478 -62 412 -62Q339 -62 270.5 -42Q202 -22 149 19.5Q96 61 64 125.5Q32 190 32 280Q32 358 59 427Q86 496 136 547.5Q186 599 256 629Q326 659 411 659Q485 659 545.5 636.5Q606 614 649.5 574Q693 534 717.5 480Q742 426 742 363Q742 302 725.5 257Q709 212 681.5 181.5Q654 151 619 136.5Q584 122 547 122Q512 122 484.5 137Q457 152 447 180Q431 155 402.5 139Q374 123 345 123Q313 123 288.5 134.5Q264 146 247 166Q230 186 221 212.5Q212 239 212 271Q212 312 225.5 350Q239 388 263 417.5Q287 447 320.5 464.5Q354 482 395 482Q428 482 451.5 467.5Q475 453 485 436L493 473H560ZM473 367Q465 389 445.5 404.5Q426 420 399 420Q372 420 350.5 407.5Q329 395 314 374Q299 353 290.5 327Q282 301 282 274Q282 234 302.5 209.5Q323 185 359 185Q389 185 411.5 202Q434 219 450 243Z" glyph-name="at.cap" horiz-adv-x="774" /><glyph d="M316 0V33Q303 19 271.5 5.5Q240 -8 200 -8Q166 -8 136 2Q106 12 83.5 30Q61 48 48 74.5Q35 101 35 134Q35 165 48 190.5Q61 216 84 234.5Q107 253 138 263Q169 273 205 273Q239 273 270 261.5Q301 250 316 237V293Q316 335 291.5 361.5Q267 388 219 388Q184 388 161 372.5Q138 357 128 326H54Q60 354 74.5 377.5Q89 401 111 418Q133 435 160.5 444Q188 453 220 453Q300 453 344.5 411Q389 369 389 295V0ZM316 156Q311 168 301 178.5Q291 189 277 196.5Q263 204 246.5 207.5Q230 211 212 211Q192 211 173 206.5Q154 202 139 192Q124 182 115 167.5Q106 153 106 134Q106 113 115 98.5Q124 84 139 74Q154 64 173 59.5Q192 55 212 55Q230 55 246.5 59Q263 63 277 70.5Q291 78 301 87.5Q311 97 316 110ZM362 633Q362 607 357 585Q352 563 342.5 547.5Q333 532 318.5 523.5Q304 515 285 515Q268 515 254 524Q240 533 228 544Q216 555 204.5 564Q193 573 181 573Q164 573 156 558Q148 543 147 518H99Q99 544 103.5 566Q108 588 118 603.5Q128 619 142 627.5Q156 636 175 636Q193 636 207 627Q221 618 233.5 607Q246 596 256.5 587Q267 578 279 578Q296 578 304.5 593Q313 608 313 633Z" glyph-name="atilde" horiz-adv-x="450" unicode="&#227;" /><glyph d="M142 0H66V650H142V393Q150 404 163 415Q176 426 192 434.5Q208 443 227.5 448Q247 453 267 453Q316 453 353 434.5Q390 416 415.5 384.5Q441 353 454 311Q467 269 467 222Q467 175 454 132.5Q441 90 415.5 58.5Q390 27 353 9Q316 -9 267 -9Q247 -9 227.5 -4Q208 1 192 9.5Q176 18 163 29Q150 40 142 51ZM142 132Q159 98 189.5 78.5Q220 59 256 59Q288 59 313 71.5Q338 84 355 105.5Q372 127 381.5 157Q391 187 391 222Q391 257 381.5 287Q372 317 355 338.5Q338 360 313 372.5Q288 385 256 385Q220 385 189.5 365.5Q159 346 142 312Z" glyph-name="b" horiz-adv-x="502" unicode="b" /><glyph d="M328 -84H253L5 650H80Z" glyph-name="backslash" horiz-adv-x="333" unicode="\" /><glyph d="M328 -64H253L5 670H80Z" glyph-name="backslash.cap" horiz-adv-x="333" /><glyph d="M73 650H146V-84H73Z" glyph-name="bar" horiz-adv-x="219" unicode="|" /><glyph d="M73 670H146V-64H73Z" glyph-name="bar.cap" horiz-adv-x="219" /><glyph d="M176 21Q176 -15 211 -15H316V-84H212Q163 -84 132 -53Q101 -22 101 29V211Q101 248 66 248H20V318H66Q101 318 101 355V537Q101 588 132 619Q163 650 212 650H316V581H211Q176 581 176 545V360Q176 331 163.5 312.5Q151 294 132 283Q151 271 163.5 252.5Q176 234 176 206Z" glyph-name="braceleft" horiz-adv-x="339" unicode="{" /><glyph d="M176 40Q176 3 211 3H316V-66H212Q163 -66 132 -34.5Q101 -3 101 47V230Q101 266 66 266H20V336H66Q101 336 101 373V556Q101 606 132 637Q163 668 212 668H316V600H211Q176 600 176 563V378Q176 350 163.5 331.5Q151 313 132 301Q151 290 163.5 271.5Q176 253 176 224Z" glyph-name="braceleft.cap" horiz-adv-x="339" /><glyph d="M163 206Q163 234 175.5 252.5Q188 271 207 283Q188 294 175.5 312.5Q163 331 163 360V545Q163 581 128 581H23V650H127Q175 650 206 619Q237 588 237 537V355Q237 318 273 318H319V248H273Q237 248 237 211V29Q237 -22 206 -53Q175 -84 127 -84H23V-15H128Q163 -15 163 21Z" glyph-name="braceright" horiz-adv-x="339" unicode="}" /><glyph d="M163 224Q163 253 175.5 271.5Q188 290 207 301Q188 313 175.5 331.5Q163 350 163 378V563Q163 600 128 600H23V668H127Q175 668 206 637Q237 606 237 556V373Q237 336 273 336H319V266H273Q237 266 237 230V47Q237 -3 206 -34.5Q175 -66 127 -66H23V3H128Q163 3 163 40Z" glyph-name="braceright.cap" horiz-adv-x="339" /><glyph d="M145 -15H290V-84H73V650H290V581H145Z" glyph-name="bracketleft" horiz-adv-x="313" unicode="[" /><glyph d="M145 3H290V-66H73V668H290V600H145Z" glyph-name="bracketleft.cap" horiz-adv-x="313" /><glyph d="M168 581H23V650H240V-84H23V-15H168Z" glyph-name="bracketright" horiz-adv-x="313" unicode="]" /><glyph d="M168 600H23V668H240V-66H23V3H168Z" glyph-name="bracketright.cap" horiz-adv-x="313" /><glyph d="M250 500Q225 500 204 508.5Q183 517 168 533Q153 549 144.5 573Q136 597 136 628H193Q193 594 207.5 574.5Q222 555 250 555Q278 555 292.5 574.5Q307 594 307 628H364Q364 597 355.5 573Q347 549 332 533Q317 517 296 508.5Q275 500 250 500Z" glyph-name="breve" horiz-adv-x="500" unicode="&#728;" /><glyph d="M249 666Q223 666 202 673.5Q181 681 166 696.5Q151 712 142.5 734.5Q134 757 134 786H191Q191 754 207.5 738Q224 722 249 722Q276 722 292 738Q308 754 308 786H365Q365 757 357 734.5Q349 712 333.5 696.5Q318 681 296.5 673.5Q275 666 249 666Z" glyph-name="breve.cap" horiz-adv-x="500" /><glyph d="M308 261Q308 231 297.5 206Q287 181 268.5 163Q250 145 225 135Q200 125 171 125Q143 125 118 135Q93 145 74.5 163Q56 181 45.5 206Q35 231 35 261Q35 291 45.5 316Q56 341 74.5 359Q93 377 118 387Q143 397 171 397Q200 397 225 387Q250 377 268.5 359Q287 341 297.5 316Q308 291 308 261Z" glyph-name="bullet" horiz-adv-x="343" unicode="&#8226;" /><glyph d="M308 301Q308 271 297.5 246Q287 221 268.5 203Q250 185 225 175Q200 165 171 165Q143 165 118 175Q93 185 74.5 203Q56 221 45.5 246Q35 271 35 301Q35 331 45.5 356Q56 381 74.5 399Q93 417 118 427Q143 437 171 437Q200 437 225 427Q250 417 268.5 399Q287 381 297.5 356Q308 331 308 301Z" glyph-name="bullet.cap" horiz-adv-x="343" /><glyph d="M35 222Q35 274 50 316.5Q65 359 91.5 389.5Q118 420 155 436.5Q192 453 237 453Q274 453 304.5 442.5Q335 432 358 413.5Q381 395 395.5 368.5Q410 342 415 310H338Q331 346 304 366.5Q277 387 238 387Q209 387 185.5 374.5Q162 362 145.5 340.5Q129 319 120 288.5Q111 258 111 222Q111 185 120 155Q129 125 145.5 103.5Q162 82 185.5 69.5Q209 57 238 57Q277 57 304 77.5Q331 98 338 134H415Q410 102 395.5 75.5Q381 49 358 30.5Q335 12 304.5 1.5Q274 -9 237 -9Q192 -9 155 7.5Q118 24 91.5 54.5Q65 85 50 127.5Q35 170 35 222Z" glyph-name="c" horiz-adv-x="446" unicode="c" /><glyph d="M35 222Q35 274 50 316.5Q65 359 91.5 389.5Q118 420 155 436.5Q192 453 237 453Q274 453 304.5 442.5Q335 432 358 413.5Q381 395 395.5 368.5Q410 342 415 310H338Q331 346 304 366.5Q277 387 238 387Q209 387 185.5 374.5Q162 362 145.5 340.5Q129 319 120 288.5Q111 258 111 222Q111 185 120 155Q129 125 145.5 103.5Q162 82 185.5 69.5Q209 57 238 57Q277 57 304 77.5Q331 98 338 134H415Q410 102 395.5 75.5Q381 49 358 30.5Q335 12 304.5 1.5Q274 -9 237 -9Q192 -9 155 7.5Q118 24 91.5 54.5Q65 85 50 127.5Q35 170 35 222ZM201 516 281 650H360L271 516Z" glyph-name="cacute" horiz-adv-x="446" unicode="&#263;" /><glyph d="M284 510H215L122 646H188L250 559L311 646H377Z" glyph-name="caron" horiz-adv-x="500" unicode="&#711;" /><glyph d="M198 486 231 650H291L258 486Z" glyph-name="caron.Slovak" horiz-adv-x="500" /><glyph d="M122 787H191L250 716L308 787H377L284 666H215Z" glyph-name="caron.cap" horiz-adv-x="500" /><glyph d="M35 222Q35 274 50 316.5Q65 359 91.5 389.5Q118 420 155 436.5Q192 453 237 453Q274 453 304.5 442.5Q335 432 358 413.5Q381 395 395.5 368.5Q410 342 415 310H338Q331 346 304 366.5Q277 387 238 387Q209 387 185.5 374.5Q162 362 145.5 340.5Q129 319 120 288.5Q111 258 111 222Q111 185 120 155Q129 125 145.5 103.5Q162 82 185.5 69.5Q209 57 238 57Q277 57 304 77.5Q331 98 338 134H415Q410 102 395.5 75.5Q381 49 358 30.5Q335 12 304.5 1.5Q274 -9 237 -9Q192 -9 155 7.5Q118 24 91.5 54.5Q65 85 50 127.5Q35 170 35 222ZM276 510H207L114 646H180L242 559L303 646H369Z" glyph-name="ccaron" horiz-adv-x="446" unicode="&#269;" /><glyph d="M35 222Q35 274 50 316.5Q65 359 91.5 389.5Q118 420 155 436.5Q192 453 237 453Q274 453 304.5 442.5Q335 432 358 413.5Q381 395 395.5 368.5Q410 342 415 310H338Q331 346 304 366.5Q277 387 238 387Q209 387 185.5 374.5Q162 362 145.5 340.5Q129 319 120 288.5Q111 258 111 222Q111 185 120 155Q129 125 145.5 103.5Q162 82 185.5 69.5Q209 57 238 57Q277 57 304 77.5Q331 98 338 134H415Q410 102 395.5 75.5Q381 49 358 30.5Q335 12 304.5 1.5Q274 -9 237 -9Q192 -9 155 7.5Q118 24 91.5 54.5Q65 85 50 127.5Q35 170 35 222ZM142 -183 208 -51H283L213 -183Z" glyph-name="ccedilla" horiz-adv-x="446" unicode="&#231;" /><glyph d="M35 222Q35 274 50 316.5Q65 359 91.5 389.5Q118 420 155 436.5Q192 453 237 453Q274 453 304.5 442.5Q335 432 358 413.5Q381 395 395.5 368.5Q410 342 415 310H338Q331 346 304 366.5Q277 387 238 387Q209 387 185.5 374.5Q162 362 145.5 340.5Q129 319 120 288.5Q111 258 111 222Q111 185 120 155Q129 125 145.5 103.5Q162 82 185.5 69.5Q209 57 238 57Q277 57 304 77.5Q331 98 338 134H415Q410 102 395.5 75.5Q381 49 358 30.5Q335 12 304.5 1.5Q274 -9 237 -9Q192 -9 155 7.5Q118 24 91.5 54.5Q65 85 50 127.5Q35 170 35 222ZM369 509H303L242 597L180 509H114L207 645H276Z" glyph-name="ccircumflex" horiz-adv-x="446" unicode="&#265;" /><glyph d="M35 222Q35 274 50 316.5Q65 359 91.5 389.5Q118 420 155 436.5Q192 453 237 453Q274 453 304.5 442.5Q335 432 358 413.5Q381 395 395.5 368.5Q410 342 415 310H338Q331 346 304 366.5Q277 387 238 387Q209 387 185.5 374.5Q162 362 145.5 340.5Q129 319 120 288.5Q111 258 111 222Q111 185 120 155Q129 125 145.5 103.5Q162 82 185.5 69.5Q209 57 238 57Q277 57 304 77.5Q331 98 338 134H415Q410 102 395.5 75.5Q381 49 358 30.5Q335 12 304.5 1.5Q274 -9 237 -9Q192 -9 155 7.5Q118 24 91.5 54.5Q65 85 50 127.5Q35 170 35 222ZM290 578Q290 558 276 544Q262 530 242 530Q221 530 207 544Q193 558 193 578Q193 599 207 613Q221 627 242 627Q262 627 276 613Q290 599 290 578Z" glyph-name="cdotaccent" horiz-adv-x="446" unicode="&#267;" /><glyph d="M179 -183 245 -51H320L250 -183Z" glyph-name="cedilla" horiz-adv-x="500" unicode="&#184;" /><glyph d="M179 -183 245 -51H320L250 -183Z" glyph-name="cedilla.alt" horiz-adv-x="500" /><glyph d="M35 232Q35 284 50 326.5Q65 369 91.5 399.5Q118 430 155 446Q179 457 207 461V548H276V460Q292 457 306 452Q337 442 359.5 422.5Q382 403 396 375.5Q410 348 415 315H339Q332 353 305 375Q278 397 237 397Q208 397 185 384.5Q162 372 145.5 350.5Q129 329 120 298.5Q111 268 111 232Q111 195 120 165Q129 135 145.5 113.5Q162 92 185 79.5Q208 67 237 67Q278 67 305 89Q332 111 339 149H415Q410 116 396 88.5Q382 61 359.5 41.5Q337 22 306 11Q292 6 276 4V-87H207V2Q179 6 155 17Q118 34 91.5 64.5Q65 95 50 137.5Q35 180 35 232Z" glyph-name="cent" horiz-adv-x="447" unicode="&#162;" /><glyph d="M69 232Q69 284 84 326.5Q99 369 125.5 399.5Q152 430 189 446Q213 457 241 461V548H310V460Q326 457 340 452Q371 442 393.5 422.5Q416 403 430 375.5Q444 348 449 315H373Q366 353 339 375Q312 397 271 397Q242 397 219 384.5Q196 372 179.5 350.5Q163 329 154 298.5Q145 268 145 232Q145 195 154 165Q163 135 179.5 113.5Q196 92 219 79.5Q242 67 271 67Q312 67 339 89Q366 111 373 149H449Q444 116 430 88.5Q416 61 393.5 41.5Q371 22 340 11Q326 6 310 4V-87H241V2Q213 6 189 17Q152 34 125.5 64.5Q99 95 84 137.5Q69 180 69 232Z" glyph-name="cent.lt" horiz-adv-x="520" /><glyph d="M377 509H311L250 597L188 509H122L215 645H284Z" glyph-name="circumflex" horiz-adv-x="500" unicode="&#710;" /><glyph d="M377 669H308L250 740L191 669H122L215 791H284Z" glyph-name="circumflex.cap" horiz-adv-x="500" /><glyph d="M32 363Q32 386 47.5 402Q63 418 86 418Q97 418 106.5 413.5Q116 409 123.5 401.5Q131 394 135 384.5Q139 375 139 363Q139 351 135 341.5Q131 332 123.5 324.5Q116 317 106.5 312.5Q97 308 86 308Q75 308 65 312.5Q55 317 48 324.5Q41 332 36.5 341.5Q32 351 32 363ZM32 49Q32 72 47.5 88Q63 104 86 104Q97 104 106.5 99.5Q116 95 123.5 88Q131 81 135 71Q139 61 139 49Q139 37 135 27.5Q131 18 123.5 10.5Q116 3 106.5 -1Q97 -5 86 -5Q75 -5 65 -1Q55 3 48 10.5Q41 18 36.5 27.5Q32 37 32 49Z" glyph-name="colon" horiz-adv-x="171" unicode=":" /><glyph d="M76 363Q76 386 91.5 402Q107 418 130 418Q141 418 150.5 413.5Q160 409 167.5 401.5Q175 394 179 384.5Q183 375 183 363Q183 351 179 341.5Q175 332 167.5 324.5Q160 317 150.5 312.5Q141 308 130 308Q119 308 109 312.5Q99 317 92 324.5Q85 332 80.5 341.5Q76 351 76 363ZM76 49Q76 72 91.5 88Q107 104 130 104Q141 104 150.5 99.5Q160 95 167.5 88Q175 81 179 71Q183 61 183 49Q183 37 179 27.5Q175 18 167.5 10.5Q160 3 150.5 -1Q141 -5 130 -5Q119 -5 109 -1Q99 3 92 10.5Q85 18 80.5 27.5Q76 37 76 49Z" glyph-name="colon.tab" horiz-adv-x="260" /><glyph d="M76 -1Q58 2 45 15Q32 28 32 49Q32 72 47.5 87.5Q63 103 86 103Q109 103 124.5 87.5Q140 72 140 44Q140 28 133.5 12Q127 -4 117 -19L64 -108H13Z" glyph-name="comma" horiz-adv-x="172" unicode="," /><glyph d="M120 -1Q102 2 89 15Q76 28 76 49Q76 72 91.5 87.5Q107 103 130 103Q153 103 168.5 87.5Q184 72 184 44Q184 28 177.5 12Q171 -4 161 -19L108 -108H57Z" glyph-name="comma.tab" horiz-adv-x="260" /><glyph d="M243 -137Q226 -135 214 -123.5Q202 -112 202 -93Q202 -72 216.5 -58.5Q231 -45 252 -45Q273 -45 287 -59Q301 -73 301 -95Q301 -112 294.5 -125.5Q288 -139 280 -152L251 -201H203Z" glyph-name="commaaccent" horiz-adv-x="500" /><glyph d="M258 615Q275 613 287 600.5Q299 588 299 569Q299 549 284 535Q269 521 247 521Q226 521 211.5 535Q197 549 197 572Q197 589 204 603Q211 617 219 631L249 680H297Z" glyph-name="commaturn" horiz-adv-x="500" /><glyph d="M670 307Q670 238 645 180Q620 122 577 80Q534 38 476 14.5Q418 -9 353 -9Q288 -9 230.5 14.5Q173 38 130 80Q87 122 62 180Q37 238 37 307Q37 376 62 434Q87 492 130 534Q173 576 230.5 599.5Q288 623 353 623Q418 623 476 599.5Q534 576 577 534Q620 492 645 434Q670 376 670 307ZM630 307Q630 367 608 418Q586 469 548.5 505.5Q511 542 460.5 563Q410 584 353 584Q296 584 246 563Q196 542 158.5 505.5Q121 469 99 418Q77 367 77 307Q77 247 99 196Q121 145 158.5 108.5Q196 72 246 51Q296 30 353 30Q410 30 460.5 51Q511 72 548.5 108.5Q586 145 608 196Q630 247 630 307ZM176 309Q176 354 189.5 390.5Q203 427 227 453Q251 479 284.5 493.5Q318 508 357 508Q390 508 417 498.5Q444 489 464 472.5Q484 456 497 432.5Q510 409 516 381H441Q431 409 410 424.5Q389 440 357 440Q308 440 279.5 404Q251 368 251 309Q251 250 279.5 214Q308 178 357 178Q389 178 410 193.5Q431 209 441 237H516Q510 209 497 185.5Q484 162 464 145.5Q444 129 417 119.5Q390 110 357 110Q318 110 284.5 124.5Q251 139 227 165Q203 191 189.5 227.5Q176 264 176 309Z" glyph-name="copyright" horiz-adv-x="707" unicode="&#169;" /><glyph d="M360 51Q351 40 338.5 29Q326 18 310 9.5Q294 1 275 -4Q256 -9 235 -9Q186 -9 149 9Q112 27 86.5 58.5Q61 90 48 132.5Q35 175 35 222Q35 269 48 311Q61 353 86.5 384.5Q112 416 149 434.5Q186 453 235 453Q256 453 275 448Q294 443 310 434.5Q326 426 338.5 415Q351 404 360 393V650H436V0H360ZM360 312Q343 346 312.5 365.5Q282 385 246 385Q214 385 189 372.5Q164 360 147 338.5Q130 317 120.5 287Q111 257 111 222Q111 187 120.5 157Q130 127 147 105.5Q164 84 189 71.5Q214 59 246 59Q282 59 312.5 78.5Q343 98 360 132Z" glyph-name="d" horiz-adv-x="502" unicode="d" /><glyph d="M30 558H129V650H187V558H286V502H187V295H129V502H30Z" glyph-name="dagger" horiz-adv-x="316" unicode="&#8224;" /><glyph d="M34 432H134V512H34V565H134V650H192V565H292V512H192V432H292V379H192V295H134V379H34Z" glyph-name="daggerdbl" horiz-adv-x="326" unicode="&#8225;" /><glyph d="M360 51Q351 40 338.5 29Q326 18 310 9.5Q294 1 275 -4Q256 -9 235 -9Q186 -9 149 9Q112 27 86.5 58.5Q61 90 48 132.5Q35 175 35 222Q35 269 48 311Q61 353 86.5 384.5Q112 416 149 434.5Q186 453 235 453Q256 453 275 448Q294 443 310 434.5Q326 426 338.5 415Q351 404 360 393V650H436V0H360ZM360 312Q343 346 312.5 365.5Q282 385 246 385Q214 385 189 372.5Q164 360 147 338.5Q130 317 120.5 287Q111 257 111 222Q111 187 120.5 157Q130 127 147 105.5Q164 84 189 71.5Q214 59 246 59Q282 59 312.5 78.5Q343 98 360 132ZM489 486 522 650H582L549 486Z" glyph-name="dcaron" horiz-adv-x="502" unicode="&#271;" /><glyph d="M360 51Q351 40 338.5 29Q326 18 310 9.5Q294 1 275 -4Q256 -9 235 -9Q186 -9 149 9Q112 27 86.5 58.5Q61 90 48 132.5Q35 175 35 222Q35 269 48 311Q61 353 86.5 384.5Q112 416 149 434.5Q186 453 235 453Q256 453 275 448Q294 443 310 434.5Q326 426 338.5 415Q351 404 360 393V511H252V565H360V650H436V565H493V511H436V0H360ZM360 312Q343 346 312.5 365.5Q282 385 246 385Q214 385 189 372.5Q164 360 147 338.5Q130 317 120.5 287Q111 257 111 222Q111 187 120.5 157Q130 127 147 105.5Q164 84 189 71.5Q214 59 246 59Q282 59 312.5 78.5Q343 98 360 132Z" glyph-name="dcroat" horiz-adv-x="503" unicode="&#273;" /><glyph d="M101 499Q101 471 120.5 451Q140 431 168 431Q196 431 216 451Q236 471 236 499Q236 528 216 548Q196 568 168 568Q140 568 120.5 548Q101 528 101 499ZM291 499Q291 473 281.5 450.5Q272 428 255 411.5Q238 395 215.5 385Q193 375 168 375Q143 375 120.5 385Q98 395 81.5 411.5Q65 428 55 450.5Q45 473 45 499Q45 525 55 547.5Q65 570 81.5 587Q98 604 120.5 613.5Q143 623 168 623Q193 623 215.5 613.5Q238 604 255 587Q272 570 281.5 547.5Q291 525 291 499Z" glyph-name="degree" horiz-adv-x="336" unicode="&#176;" /><glyph d="M133 571Q133 592 146.5 605Q160 618 180 618Q189 618 197.5 614.5Q206 611 212 604.5Q218 598 222 590Q226 582 226 571Q226 552 212.5 538.5Q199 525 180 525Q160 525 146.5 538.5Q133 552 133 571ZM273 571Q273 592 286.5 605Q300 618 319 618Q329 618 337 614.5Q345 611 352 604.5Q359 598 362.5 590Q366 582 366 571Q366 552 352 538.5Q338 525 319 525Q300 525 286.5 538.5Q273 552 273 571Z" glyph-name="dieresis" horiz-adv-x="500" unicode="&#168;" /><glyph d="M133 722Q133 742 146.5 755Q160 768 180 768Q199 768 212.5 755Q226 742 226 722Q226 703 212.5 689.5Q199 676 180 676Q160 676 146.5 689.5Q133 703 133 722ZM273 722Q273 742 286.5 755Q300 768 319 768Q338 768 352 755Q366 742 366 722Q366 703 352 689.5Q338 676 319 676Q300 676 286.5 689.5Q273 703 273 722Z" glyph-name="dieresis.cap" horiz-adv-x="500" /><glyph d="M73 328H468V266H73ZM220 458Q220 479 235 494Q250 509 270 509Q291 509 306 494Q321 479 321 458Q321 437 306 422Q291 407 270 407Q250 407 235 422Q220 437 220 458ZM220 136Q220 157 235 172Q250 187 270 187Q291 187 306 172Q321 157 321 136Q321 115 306 100Q291 85 270 85Q250 85 235 100Q220 115 220 136Z" glyph-name="divide" horiz-adv-x="541" unicode="&#247;" /><glyph d="M62 328H457V266H62ZM209 458Q209 479 224 494Q239 509 259 509Q280 509 295 494Q310 479 310 458Q310 437 295 422Q280 407 259 407Q239 407 224 422Q209 437 209 458ZM209 136Q209 157 224 172Q239 187 259 187Q280 187 295 172Q310 157 310 136Q310 115 295 100Q280 85 259 85Q239 85 224 100Q209 115 209 136Z" glyph-name="divide.lt" horiz-adv-x="520" /><glyph d="M366 453Q352 491 319.5 516Q287 541 230 541Q204 541 182.5 534.5Q161 528 145.5 516Q130 504 121.5 486.5Q113 469 113 447Q113 428 119 414.5Q125 401 137 390Q149 379 166 371.5Q183 364 205 358L302 333Q371 315 408 276.5Q445 238 445 176Q445 137 430 105.5Q415 74 388.5 52.5Q362 31 325 19Q303 12 279 9V-89H211V10Q149 16 103 48Q44 89 27 166H104Q120 119 157 96.5Q194 74 246 74Q274 74 297.5 80.5Q321 87 337.5 99.5Q354 112 363.5 130.5Q373 149 373 173Q373 207 352.5 229Q332 251 283 264L181 291Q151 298 125.5 310.5Q100 323 81.5 341Q63 359 52.5 384Q42 409 42 442Q42 479 56 509.5Q70 540 95 561Q120 582 154 594Q180 603 211 605V695H279V602Q294 599 308 595Q344 584 370.5 564Q397 544 414.5 516Q432 488 440 453Z" glyph-name="dollar" horiz-adv-x="478" unicode="$" /><glyph d="M390 453Q376 491 343.5 516Q311 541 254 541Q228 541 206.5 534.5Q185 528 169.5 516Q154 504 145.5 486.5Q137 469 137 447Q137 428 143 414.5Q149 401 161 390Q173 379 190 371.5Q207 364 229 358L326 333Q395 315 432 276.5Q469 238 469 176Q469 137 454 105.5Q439 74 412.5 52.5Q386 31 349 19Q327 12 303 9V-89H235V10Q173 16 127 48Q68 89 51 166H128Q144 119 181 96.5Q218 74 270 74Q298 74 321.5 80.5Q345 87 361.5 99.5Q378 112 387.5 130.5Q397 149 397 173Q397 207 376.5 229Q356 251 307 264L205 291Q175 298 149.5 310.5Q124 323 105.5 341Q87 359 76.5 384Q66 409 66 442Q66 479 80 509.5Q94 540 119 561Q144 582 178 594Q204 603 235 605V695H303V602Q318 599 332 595Q368 584 394.5 564Q421 544 438.5 516Q456 488 464 453Z" glyph-name="dollar.lt" horiz-adv-x="520" /><glyph d="M298 578Q298 558 284 544Q270 530 250 530Q229 530 215 544Q201 558 201 578Q201 599 215 613Q229 627 250 627Q270 627 284 613Q298 599 298 578Z" glyph-name="dotaccent" horiz-adv-x="500" unicode="&#729;" /><glyph d="M298 721Q298 701 284 687Q270 673 250 673Q229 673 215 687Q201 701 201 721Q201 742 215 756Q229 770 250 770Q270 770 284 756Q298 742 298 721Z" glyph-name="dotaccent.cap" horiz-adv-x="500" /><glyph d="M298 -108Q298 -129 284 -142.5Q270 -156 250 -156Q229 -156 215 -142.5Q201 -129 201 -108Q201 -88 215 -74Q229 -60 250 -60Q270 -60 284 -74Q298 -88 298 -108Z" glyph-name="dotbelow" horiz-adv-x="500" /><glyph d="M142 0H66V444H142Z" glyph-name="dotlessi" horiz-adv-x="208" unicode="&#305;" /><glyph d="M142 -51Q142 -113 109 -146Q76 -179 13 -179Q6 -179 -3.5 -178.5Q-13 -178 -19 -175V-111Q-15 -112 -7.5 -113Q0 -114 7 -114Q21 -114 32.5 -110Q44 -106 51 -98Q58 -90 62 -77Q66 -64 66 -45V444H142Z" glyph-name="dotlessj" horiz-adv-x="207" unicode="&#567;" /><glyph d="M419 134Q407 70 361 30.5Q315 -9 239 -9Q193 -9 156 7.5Q119 24 92 54.5Q65 85 50 127.5Q35 170 35 221Q35 271 49.5 313.5Q64 356 90.5 387Q117 418 154.5 435.5Q192 453 237 453Q283 453 318 437Q353 421 376.5 392Q400 363 412 323.5Q424 284 424 235V208H110Q111 173 120.5 144.5Q130 116 147.5 96.5Q165 77 188 66Q211 55 239 55Q280 55 309.5 75.5Q339 96 348 134ZM238 389Q213 389 192 380Q171 371 154.5 355.5Q138 340 127 317Q116 294 112 265H348Q348 290 341 312.5Q334 335 320 352Q306 369 286 379Q266 389 238 389Z" glyph-name="e" horiz-adv-x="457" unicode="e" /><glyph d="M419 134Q407 70 361 30.5Q315 -9 239 -9Q193 -9 156 7.5Q119 24 92 54.5Q65 85 50 127.5Q35 170 35 221Q35 271 49.5 313.5Q64 356 90.5 387Q117 418 154.5 435.5Q192 453 237 453Q283 453 318 437Q353 421 376.5 392Q400 363 412 323.5Q424 284 424 235V208H110Q111 173 120.5 144.5Q130 116 147.5 96.5Q165 77 188 66Q211 55 239 55Q280 55 309.5 75.5Q339 96 348 134ZM238 389Q213 389 192 380Q171 371 154.5 355.5Q138 340 127 317Q116 294 112 265H348Q348 290 341 312.5Q334 335 320 352Q306 369 286 379Q266 389 238 389ZM201 516 281 650H360L271 516Z" glyph-name="eacute" horiz-adv-x="457" unicode="&#233;" /><glyph d="M419 134Q407 70 361 30.5Q315 -9 239 -9Q193 -9 156 7.5Q119 24 92 54.5Q65 85 50 127.5Q35 170 35 221Q35 271 49.5 313.5Q64 356 90.5 387Q117 418 154.5 435.5Q192 453 237 453Q283 453 318 437Q353 421 376.5 392Q400 363 412 323.5Q424 284 424 235V208H110Q111 173 120.5 144.5Q130 116 147.5 96.5Q165 77 188 66Q211 55 239 55Q280 55 309.5 75.5Q339 96 348 134ZM238 389Q213 389 192 380Q171 371 154.5 355.5Q138 340 127 317Q116 294 112 265H348Q348 290 341 312.5Q334 335 320 352Q306 369 286 379Q266 389 238 389ZM242 500Q217 500 196 508.5Q175 517 160 533Q145 549 136.5 573Q128 597 128 628H185Q185 594 199.5 574.5Q214 555 242 555Q270 555 284.5 574.5Q299 594 299 628H356Q356 597 347.5 573Q339 549 324 533Q309 517 288 508.5Q267 500 242 500Z" glyph-name="ebreve" horiz-adv-x="457" unicode="&#277;" /><glyph d="M419 134Q407 70 361 30.5Q315 -9 239 -9Q193 -9 156 7.5Q119 24 92 54.5Q65 85 50 127.5Q35 170 35 221Q35 271 49.5 313.5Q64 356 90.5 387Q117 418 154.5 435.5Q192 453 237 453Q283 453 318 437Q353 421 376.5 392Q400 363 412 323.5Q424 284 424 235V208H110Q111 173 120.5 144.5Q130 116 147.5 96.5Q165 77 188 66Q211 55 239 55Q280 55 309.5 75.5Q339 96 348 134ZM238 389Q213 389 192 380Q171 371 154.5 355.5Q138 340 127 317Q116 294 112 265H348Q348 290 341 312.5Q334 335 320 352Q306 369 286 379Q266 389 238 389ZM276 510H207L114 646H180L242 559L303 646H369Z" glyph-name="ecaron" horiz-adv-x="457" unicode="&#283;" /><glyph d="M419 134Q407 70 361 30.5Q315 -9 239 -9Q193 -9 156 7.5Q119 24 92 54.5Q65 85 50 127.5Q35 170 35 221Q35 271 49.5 313.5Q64 356 90.5 387Q117 418 154.5 435.5Q192 453 237 453Q283 453 318 437Q353 421 376.5 392Q400 363 412 323.5Q424 284 424 235V208H110Q111 173 120.5 144.5Q130 116 147.5 96.5Q165 77 188 66Q211 55 239 55Q280 55 309.5 75.5Q339 96 348 134ZM238 389Q213 389 192 380Q171 371 154.5 355.5Q138 340 127 317Q116 294 112 265H348Q348 290 341 312.5Q334 335 320 352Q306 369 286 379Q266 389 238 389ZM369 509H303L242 597L180 509H114L207 645H276Z" glyph-name="ecircumflex" horiz-adv-x="457" unicode="&#234;" /><glyph d="M419 134Q407 70 361 30.5Q315 -9 239 -9Q193 -9 156 7.5Q119 24 92 54.5Q65 85 50 127.5Q35 170 35 221Q35 271 49.5 313.5Q64 356 90.5 387Q117 418 154.5 435.5Q192 453 237 453Q283 453 318 437Q353 421 376.5 392Q400 363 412 323.5Q424 284 424 235V208H110Q111 173 120.5 144.5Q130 116 147.5 96.5Q165 77 188 66Q211 55 239 55Q280 55 309.5 75.5Q339 96 348 134ZM238 389Q213 389 192 380Q171 371 154.5 355.5Q138 340 127 317Q116 294 112 265H348Q348 290 341 312.5Q334 335 320 352Q306 369 286 379Q266 389 238 389ZM126 571Q126 592 139.5 605Q153 618 173 618Q182 618 190.5 614.5Q199 611 205 604.5Q211 598 215 590Q219 582 219 571Q219 552 205.5 538.5Q192 525 173 525Q153 525 139.5 538.5Q126 552 126 571ZM266 571Q266 592 279.5 605Q293 618 312 618Q322 618 330 614.5Q338 611 345 604.5Q352 598 355.5 590Q359 582 359 571Q359 552 345 538.5Q331 525 312 525Q293 525 279.5 538.5Q266 552 266 571Z" glyph-name="edieresis" horiz-adv-x="457" unicode="&#235;" /><glyph d="M419 134Q407 70 361 30.5Q315 -9 239 -9Q193 -9 156 7.5Q119 24 92 54.5Q65 85 50 127.5Q35 170 35 221Q35 271 49.5 313.5Q64 356 90.5 387Q117 418 154.5 435.5Q192 453 237 453Q283 453 318 437Q353 421 376.5 392Q400 363 412 323.5Q424 284 424 235V208H110Q111 173 120.5 144.5Q130 116 147.5 96.5Q165 77 188 66Q211 55 239 55Q280 55 309.5 75.5Q339 96 348 134ZM238 389Q213 389 192 380Q171 371 154.5 355.5Q138 340 127 317Q116 294 112 265H348Q348 290 341 312.5Q334 335 320 352Q306 369 286 379Q266 389 238 389ZM290 578Q290 558 276 544Q262 530 242 530Q221 530 207 544Q193 558 193 578Q193 599 207 613Q221 627 242 627Q262 627 276 613Q290 599 290 578Z" glyph-name="edotaccent" horiz-adv-x="457" unicode="&#279;" /><glyph d="M419 134Q407 70 361 30.5Q315 -9 239 -9Q193 -9 156 7.5Q119 24 92 54.5Q65 85 50 127.5Q35 170 35 221Q35 271 49.5 313.5Q64 356 90.5 387Q117 418 154.5 435.5Q192 453 237 453Q283 453 318 437Q353 421 376.5 392Q400 363 412 323.5Q424 284 424 235V208H110Q111 173 120.5 144.5Q130 116 147.5 96.5Q165 77 188 66Q211 55 239 55Q280 55 309.5 75.5Q339 96 348 134ZM238 389Q213 389 192 380Q171 371 154.5 355.5Q138 340 127 317Q116 294 112 265H348Q348 290 341 312.5Q334 335 320 352Q306 369 286 379Q266 389 238 389ZM211 516 122 650H201L281 516Z" glyph-name="egrave" horiz-adv-x="457" unicode="&#232;" /><glyph d="M243 55Q272 55 296.5 64Q321 73 339 88.5Q357 104 367 125.5Q377 147 377 173Q377 199 367 220.5Q357 242 339 257.5Q321 273 296.5 281.5Q272 290 243 290Q214 290 189.5 281.5Q165 273 147.5 257.5Q130 242 120 220.5Q110 199 110 173Q110 147 120 125.5Q130 104 147.5 88.5Q165 73 189.5 64Q214 55 243 55ZM243 356Q267 356 287.5 363.5Q308 371 323 384.5Q338 398 346.5 416.5Q355 435 355 457Q355 480 346.5 498.5Q338 517 323 530.5Q308 544 287.5 551.5Q267 559 243 559Q219 559 198.5 551.5Q178 544 163 530.5Q148 517 139.5 498.5Q131 480 131 457Q131 435 139.5 416.5Q148 398 163 384.5Q178 371 198.5 363.5Q219 356 243 356ZM243 -9Q199 -9 160.5 3.5Q122 16 94 39Q66 62 50 94.5Q34 127 34 167Q34 197 43 222.5Q52 248 68.5 268Q85 288 106.5 301.5Q128 315 154 322Q111 338 83.5 374.5Q56 411 56 460Q56 497 70.5 527.5Q85 558 110.5 579.5Q136 601 170 612Q204 623 243 623Q283 623 317 612Q351 601 376.5 579.5Q402 558 416.5 527.5Q431 497 431 460Q431 411 403 374.5Q375 338 333 322Q358 315 380 301.5Q402 288 418.5 268Q435 248 444 222.5Q453 197 453 167Q453 127 437 94.5Q421 62 393 39Q365 16 326.5 3.5Q288 -9 243 -9Z" glyph-name="eight" horiz-adv-x="487" unicode="8" /><glyph d="M261 55Q290 55 315.5 64Q341 73 359.5 88.5Q378 104 388.5 125.5Q399 147 399 173Q399 199 388.5 220.5Q378 242 359.5 257.5Q341 273 315.5 281.5Q290 290 261 290Q232 290 207 281.5Q182 273 163.5 257.5Q145 242 134.5 220.5Q124 199 124 173Q124 147 134.5 125.5Q145 104 163.5 88.5Q182 73 207 64Q232 55 261 55ZM261 356Q285 356 306.5 363.5Q328 371 343.5 384.5Q359 398 368 416.5Q377 435 377 457Q377 480 368 498.5Q359 517 343.5 530.5Q328 544 306.5 551.5Q285 559 261 559Q237 559 216 551.5Q195 544 179.5 530.5Q164 517 155 498.5Q146 480 146 457Q146 435 155 416.5Q164 398 179.5 384.5Q195 371 216 363.5Q237 356 261 356ZM261 -9Q216 -9 177 3.5Q138 16 109.5 39Q81 62 65 94.5Q49 127 49 167Q49 197 58.5 222.5Q68 248 84 268Q100 288 122 301.5Q144 315 170 322Q127 338 99 374.5Q71 411 71 460Q71 497 86 527.5Q101 558 126.5 579.5Q152 601 186.5 612Q221 623 261 623Q301 623 335.5 612Q370 601 396 579.5Q422 558 437 527.5Q452 497 452 460Q452 411 424 374.5Q396 338 353 322Q378 315 400.5 301.5Q423 288 439 268Q455 248 464.5 222.5Q474 197 474 167Q474 127 458 94.5Q442 62 413 39Q384 16 345 3.5Q306 -9 261 -9Z" glyph-name="eight.lt" horiz-adv-x="520" /><glyph d="M32 49Q32 72 47.5 88Q63 104 86 104Q97 104 106.5 99.5Q116 95 123.5 88Q131 81 135 71Q139 61 139 49Q139 37 135 27.5Q131 18 123.5 10.5Q116 3 106.5 -1Q97 -5 86 -5Q75 -5 65 -1Q55 3 48 10.5Q41 18 36.5 27.5Q32 37 32 49ZM224 49Q224 72 239.5 88Q255 104 277 104Q288 104 298 99.5Q308 95 315 88Q322 81 326.5 71Q331 61 331 49Q331 37 326.5 27.5Q322 18 315 10.5Q308 3 298 -1Q288 -5 277 -5Q267 -5 257 -1Q247 3 239.5 10.5Q232 18 228 27.5Q224 37 224 49ZM416 49Q416 72 431.5 88Q447 104 469 104Q480 104 490 99.5Q500 95 507 88Q514 81 518.5 71Q523 61 523 49Q523 37 518.5 27.5Q514 18 507 10.5Q500 3 490 -1Q480 -5 469 -5Q458 -5 448.5 -1Q439 3 431.5 10.5Q424 18 420 27.5Q416 37 416 49Z" glyph-name="ellipsis" horiz-adv-x="555" unicode="&#8230;" /><glyph d="M419 134Q407 70 361 30.5Q315 -9 239 -9Q193 -9 156 7.5Q119 24 92 54.5Q65 85 50 127.5Q35 170 35 221Q35 271 49.5 313.5Q64 356 90.5 387Q117 418 154.5 435.5Q192 453 237 453Q283 453 318 437Q353 421 376.5 392Q400 363 412 323.5Q424 284 424 235V208H110Q111 173 120.5 144.5Q130 116 147.5 96.5Q165 77 188 66Q211 55 239 55Q280 55 309.5 75.5Q339 96 348 134ZM238 389Q213 389 192 380Q171 371 154.5 355.5Q138 340 127 317Q116 294 112 265H348Q348 290 341 312.5Q334 335 320 352Q306 369 286 379Q266 389 238 389ZM135 591H349V530H135Z" glyph-name="emacron" horiz-adv-x="457" unicode="&#275;" /><glyph d="M40 292H806V231H40Z" glyph-name="emdash" horiz-adv-x="846" unicode="&#8212;" /><glyph d="M40 332H806V271H40Z" glyph-name="emdash.cap" horiz-adv-x="846" /><glyph d="M40 292H435V231H40Z" glyph-name="endash" horiz-adv-x="475" unicode="&#8211;" /><glyph d="M40 332H435V271H40Z" glyph-name="endash.cap" horiz-adv-x="475" /><glyph d="M352 279Q352 325 328.5 354.5Q305 384 254 384Q235 384 217.5 377.5Q200 371 185 360Q170 349 159 334Q148 319 142 301V0H66V444H142V388Q161 414 195.5 433.5Q230 453 273 453Q349 453 388.5 408.5Q428 364 428 291V-51Q428 -113 395 -146Q362 -179 299 -179Q292 -179 282.5 -178.5Q273 -178 267 -175V-111Q271 -112 278 -113Q285 -114 292 -114Q307 -114 318.5 -110Q330 -106 337 -98Q344 -90 348 -77Q352 -64 352 -45Z" glyph-name="eng" horiz-adv-x="489" unicode="&#331;" /><glyph d="M280 -3Q270 -6 260 -7.5Q250 -9 239 -9Q193 -9 156 7.5Q119 24 92 54.5Q65 85 50 127.5Q35 170 35 221Q35 271 49.5 313.5Q64 356 90.5 387Q117 418 154.5 435.5Q192 453 237 453Q283 453 318 437Q353 421 376.5 392Q400 363 412 323.5Q424 284 424 235V208H110Q111 173 120.5 144.5Q130 116 147.5 96.5Q165 77 188 66Q211 55 239 55Q280 55 309.5 75.5Q339 96 348 134H419Q413 102 398 76.5Q383 51 358 25Q323 -11 303 -43Q283 -75 283 -103Q283 -117 290 -124.5Q297 -132 308 -132Q317 -132 325.5 -128Q334 -124 345 -117V-167Q334 -176 321 -181Q308 -186 292 -186Q276 -186 263.5 -181Q251 -176 242 -167Q233 -158 228.5 -145.5Q224 -133 224 -118Q224 -88 239 -61Q254 -34 280 -3ZM238 389Q213 389 192 380Q171 371 154.5 355.5Q138 340 127 317Q116 294 112 265H348Q348 290 341 312.5Q334 335 320 352Q306 369 286 379Q266 389 238 389Z" glyph-name="eogonek" horiz-adv-x="457" unicode="&#281;" /><glyph d="M79 257H474V199H79ZM79 397H474V337H79Z" glyph-name="equal" horiz-adv-x="552" unicode="=" /><glyph d="M62 257H457V199H62ZM62 397H457V337H62Z" glyph-name="equal.lt" horiz-adv-x="520" /><glyph d="M121 541 201 567Q191 576 181 585Q143 617 101 646V650H199Q239 623 273 591L358 620L375 573L312 552Q347 512 374 468Q407 414 425 352.5Q443 291 443 226Q443 173 428.5 130Q414 87 387 55.5Q360 24 322.5 7.5Q285 -9 239 -9Q194 -9 156 7.5Q118 24 91.5 54.5Q65 85 50 127.5Q35 170 35 220Q35 271 49.5 313Q64 355 90.5 385.5Q117 416 153 433Q189 450 231 450Q266 450 291 437.5Q316 425 334 406H337Q327 430 304 459.5Q281 489 250 521L242 528L139 494ZM367 220Q367 256 358.5 286Q350 316 333 338Q316 360 292.5 372Q269 384 239 384Q209 384 185.5 372Q162 360 145 338Q128 316 119.5 286Q111 256 111 220Q111 184 119.5 154Q128 124 145 102.5Q162 81 185.5 69Q209 57 239 57Q269 57 292.5 69Q316 81 333 102.5Q350 124 358.5 154Q367 184 367 220Z" glyph-name="eth" horiz-adv-x="478" unicode="&#240;" /><glyph d="M48 49Q48 61 52.5 71Q57 81 64 88Q71 95 81 99.5Q91 104 102 104Q113 104 122.5 99.5Q132 95 139.5 88Q147 81 151 71Q155 61 155 49Q155 37 151 27.5Q147 18 139.5 10.5Q132 3 122.5 -1Q113 -5 102 -5Q91 -5 81 -1Q71 3 64 10.5Q57 18 52.5 27.5Q48 37 48 49ZM57 614H147L129 193H74Z" glyph-name="exclam" horiz-adv-x="203" unicode="!" /><glyph d="M74 325H129L147 -96H57ZM48 469Q48 481 52.5 490.5Q57 500 64 507.5Q71 515 81 519Q91 523 102 523Q113 523 122.5 519Q132 515 139.5 507.5Q147 500 151 490.5Q155 481 155 469Q155 457 151 447Q147 437 139.5 430Q132 423 122.5 418.5Q113 414 102 414Q91 414 81 418.5Q71 423 64 430Q57 437 52.5 447Q48 457 48 469Z" glyph-name="exclamdown" horiz-adv-x="209" unicode="&#161;" /><glyph d="M74 421H129L147 0H57ZM48 565Q48 577 52.5 586.5Q57 596 64 603.5Q71 611 81 615Q91 619 102 619Q113 619 122.5 615Q132 611 139.5 603.5Q147 596 151 586.5Q155 577 155 565Q155 553 151 543Q147 533 139.5 526Q132 519 122.5 514.5Q113 510 102 510Q91 510 81 514.5Q71 519 64 526Q57 533 52.5 543Q48 553 48 565Z" glyph-name="exclamdown.cap" horiz-adv-x="203" /><glyph d="M289 581Q278 588 266 590.5Q254 593 242 593Q209 593 189 572.5Q169 552 169 512V444H270V380H169V0H95V380H20V444H95V518Q95 551 105 577Q115 603 133 621.5Q151 640 176 649.5Q201 659 231 659Q249 659 262.5 656.5Q276 654 289 649Z" glyph-name="f" horiz-adv-x="289" unicode="f" /><glyph d="M550 581Q539 588 527 590.5Q515 593 503 593Q470 593 450 572.5Q430 552 430 512V444H531V380H430V0H356V380H169V0H95V380H20V444H95V512Q95 545 105 571Q115 597 133 615.5Q151 634 176 643.5Q201 653 231 653Q249 653 262.5 650.5Q276 648 289 643V575Q278 582 266 584.5Q254 587 242 587Q209 587 189 566.5Q169 546 169 506V444H356V518Q356 551 366 577Q376 603 394.5 621.5Q413 640 437.5 649.5Q462 659 492 659Q510 659 523.5 656.5Q537 654 550 649Z" glyph-name="f_f" horiz-adv-x="550" unicode="&#64256;" /><glyph d="M237 329Q200 329 172.5 314Q145 299 128 277H66V614H402V543H132V359Q148 373 177 385.5Q206 398 244 398Q286 398 322 382.5Q358 367 383.5 340Q409 313 423 275.5Q437 238 437 194Q437 150 422 113Q407 76 380.5 49Q354 22 318 6.5Q282 -9 238 -9Q194 -9 157.5 3.5Q121 16 94 40Q67 64 49.5 98Q32 132 27 175H104Q114 121 147 90.5Q180 60 238 60Q265 60 288.5 70Q312 80 328 98Q344 116 353 140.5Q362 165 362 194Q362 223 353 247.5Q344 272 327.5 290.5Q311 309 288 319Q265 329 237 329Z" glyph-name="five" horiz-adv-x="468" unicode="5" /><glyph d="M263 329Q224 329 193.5 314Q163 299 145 277H84V614H431V543H149V358Q165 372 197 385Q229 398 268 398Q311 398 348 382.5Q385 367 411.5 340Q438 313 452.5 275.5Q467 238 467 194Q467 150 452 112.5Q437 75 410 48Q383 21 345 6Q307 -9 262 -9Q216 -9 178.5 3.5Q141 16 112.5 40Q84 64 67 98Q50 132 44 175H122Q132 121 168 90.5Q204 60 263 60Q291 60 315 70Q339 80 356 98Q373 116 382.5 140.5Q392 165 392 194Q392 223 382.5 247.5Q373 272 356 290.5Q339 309 315 319Q291 329 263 329Z" glyph-name="five.lt" horiz-adv-x="520" /><glyph d="M68 344H151L176 482Q187 549 227 586Q267 623 330 623Q348 623 363.5 620Q379 617 392 611V543Q379 550 364 553.5Q349 557 332 557Q299 557 278 536Q257 515 250 476L226 344H322V280H215L158 -38Q153 -71 142.5 -96Q132 -121 115.5 -139.5Q99 -158 75 -167.5Q51 -177 19 -177Q-1 -177 -15 -174Q-29 -171 -42 -165V-96Q-29 -103 -12.5 -106.5Q4 -110 18 -110Q51 -110 64.5 -89.5Q78 -69 84 -33L140 280H68Z" glyph-name="florin" horiz-adv-x="405" unicode="&#402;" /><glyph d="M153 344H236L261 482Q272 549 312 586Q352 623 415 623Q433 623 448.5 620Q464 617 477 611V543Q464 550 449 553.5Q434 557 417 557Q384 557 363 536Q342 515 335 476L311 344H407V280H300L243 -38Q238 -71 227.5 -96Q217 -121 200.5 -139.5Q184 -158 160 -167.5Q136 -177 104 -177Q84 -177 70 -174Q56 -171 43 -165V-96Q56 -103 72.5 -106.5Q89 -110 103 -110Q136 -110 149.5 -89.5Q163 -69 169 -33L225 280H153Z" glyph-name="florin.lt" horiz-adv-x="520" /><glyph d="M109 205H304V353H378V205H486V139H378V0H304V139H22V195L258 614H338Z" glyph-name="four" horiz-adv-x="509" unicode="4" /><glyph d="M115 205H310V353H384V205H492V139H384V0H310V139H28V195L264 614H344Z" glyph-name="four.lt" horiz-adv-x="520" /><glyph d="M-53 0H-120L263 614H330Z" glyph-name="fraction" horiz-adv-x="210" unicode="&#8260;" /><glyph d="M358 62Q350 51 337 40Q324 29 308 21Q292 13 273.5 8Q255 3 234 3Q185 3 148 21.5Q111 40 86 71.5Q61 103 48 143.5Q35 184 35 228Q35 273 48 313.5Q61 354 86 385Q111 416 148 434.5Q185 453 234 453Q255 453 273.5 448Q292 443 308 435Q324 427 337 416.5Q350 406 358 394V444H434V35Q434 -20 419.5 -60Q405 -100 378.5 -126.5Q352 -153 315.5 -166.5Q279 -180 236 -180Q196 -180 163 -170Q130 -160 106 -140.5Q82 -121 66.5 -94Q51 -67 46 -33H121Q131 -75 160.5 -95.5Q190 -116 236 -116Q297 -116 327.5 -79Q358 -42 358 30ZM358 317Q341 348 311 367Q281 386 245 386Q214 386 189 374Q164 362 147 341Q130 320 121.5 291.5Q113 263 113 228Q113 194 121.5 165Q130 136 147 115.5Q164 95 189 83Q214 71 245 71Q281 71 311 89.5Q341 108 358 140Z" glyph-name="g" horiz-adv-x="500" unicode="g" /><glyph d="M358 62Q350 51 337 40Q324 29 308 21Q292 13 273.5 8Q255 3 234 3Q185 3 148 21.5Q111 40 86 71.5Q61 103 48 143.5Q35 184 35 228Q35 273 48 313.5Q61 354 86 385Q111 416 148 434.5Q185 453 234 453Q255 453 273.5 448Q292 443 308 435Q324 427 337 416.5Q350 406 358 394V444H434V35Q434 -20 419.5 -60Q405 -100 378.5 -126.5Q352 -153 315.5 -166.5Q279 -180 236 -180Q196 -180 163 -170Q130 -160 106 -140.5Q82 -121 66.5 -94Q51 -67 46 -33H121Q131 -75 160.5 -95.5Q190 -116 236 -116Q297 -116 327.5 -79Q358 -42 358 30ZM358 317Q341 348 311 367Q281 386 245 386Q214 386 189 374Q164 362 147 341Q130 320 121.5 291.5Q113 263 113 228Q113 194 121.5 165Q130 136 147 115.5Q164 95 189 83Q214 71 245 71Q281 71 311 89.5Q341 108 358 140ZM259 500Q234 500 213 508.5Q192 517 177 533Q162 549 153.5 573Q145 597 145 628H202Q202 594 216.5 574.5Q231 555 259 555Q287 555 301.5 574.5Q316 594 316 628H373Q373 597 364.5 573Q356 549 341 533Q326 517 305 508.5Q284 500 259 500Z" glyph-name="gbreve" horiz-adv-x="500" unicode="&#287;" /><glyph d="M358 62Q350 51 337 40Q324 29 308 21Q292 13 273.5 8Q255 3 234 3Q185 3 148 21.5Q111 40 86 71.5Q61 103 48 143.5Q35 184 35 228Q35 273 48 313.5Q61 354 86 385Q111 416 148 434.5Q185 453 234 453Q255 453 273.5 448Q292 443 308 435Q324 427 337 416.5Q350 406 358 394V444H434V35Q434 -20 419.5 -60Q405 -100 378.5 -126.5Q352 -153 315.5 -166.5Q279 -180 236 -180Q196 -180 163 -170Q130 -160 106 -140.5Q82 -121 66.5 -94Q51 -67 46 -33H121Q131 -75 160.5 -95.5Q190 -116 236 -116Q297 -116 327.5 -79Q358 -42 358 30ZM358 317Q341 348 311 367Q281 386 245 386Q214 386 189 374Q164 362 147 341Q130 320 121.5 291.5Q113 263 113 228Q113 194 121.5 165Q130 136 147 115.5Q164 95 189 83Q214 71 245 71Q281 71 311 89.5Q341 108 358 140ZM387 509H321L260 597L198 509H132L225 645H294Z" glyph-name="gcircumflex" horiz-adv-x="500" unicode="&#285;" /><glyph d="M358 62Q350 51 337 40Q324 29 308 21Q292 13 273.5 8Q255 3 234 3Q185 3 148 21.5Q111 40 86 71.5Q61 103 48 143.5Q35 184 35 228Q35 273 48 313.5Q61 354 86 385Q111 416 148 434.5Q185 453 234 453Q255 453 273.5 448Q292 443 308 435Q324 427 337 416.5Q350 406 358 394V444H434V35Q434 -20 419.5 -60Q405 -100 378.5 -126.5Q352 -153 315.5 -166.5Q279 -180 236 -180Q196 -180 163 -170Q130 -160 106 -140.5Q82 -121 66.5 -94Q51 -67 46 -33H121Q131 -75 160.5 -95.5Q190 -116 236 -116Q297 -116 327.5 -79Q358 -42 358 30ZM358 317Q341 348 311 367Q281 386 245 386Q214 386 189 374Q164 362 147 341Q130 320 121.5 291.5Q113 263 113 228Q113 194 121.5 165Q130 136 147 115.5Q164 95 189 83Q214 71 245 71Q281 71 311 89.5Q341 108 358 140ZM267 615Q284 613 296 600.5Q308 588 308 569Q308 549 293 535Q278 521 256 521Q235 521 220.5 535Q206 549 206 572Q206 589 213 603Q220 617 228 631L258 680H306Z" glyph-name="gcommaaccent" horiz-adv-x="500" unicode="&#291;" /><glyph d="M358 62Q350 51 337 40Q324 29 308 21Q292 13 273.5 8Q255 3 234 3Q185 3 148 21.5Q111 40 86 71.5Q61 103 48 143.5Q35 184 35 228Q35 273 48 313.5Q61 354 86 385Q111 416 148 434.5Q185 453 234 453Q255 453 273.5 448Q292 443 308 435Q324 427 337 416.5Q350 406 358 394V444H434V35Q434 -20 419.5 -60Q405 -100 378.5 -126.5Q352 -153 315.5 -166.5Q279 -180 236 -180Q196 -180 163 -170Q130 -160 106 -140.5Q82 -121 66.5 -94Q51 -67 46 -33H121Q131 -75 160.5 -95.5Q190 -116 236 -116Q297 -116 327.5 -79Q358 -42 358 30ZM358 317Q341 348 311 367Q281 386 245 386Q214 386 189 374Q164 362 147 341Q130 320 121.5 291.5Q113 263 113 228Q113 194 121.5 165Q130 136 147 115.5Q164 95 189 83Q214 71 245 71Q281 71 311 89.5Q341 108 358 140ZM308 578Q308 558 294 544Q280 530 260 530Q239 530 225 544Q211 558 211 578Q211 599 225 613Q239 627 260 627Q280 627 294 613Q308 599 308 578Z" glyph-name="gdotaccent" horiz-adv-x="500" unicode="&#289;" /><glyph d="M342 367Q368 361 392 346Q416 331 434 308.5Q452 286 463 255.5Q474 225 474 188Q474 142 459.5 106Q445 70 420 45Q395 20 359.5 7Q324 -6 282 -6Q257 -6 236 -2Q215 2 195 11V80Q212 70 232 66Q252 62 275 62Q334 62 367.5 97Q401 132 401 195Q401 226 390.5 251.5Q380 277 360 294.5Q340 312 311.5 321Q283 330 247 330H206V396H247Q271 396 290.5 403Q310 410 324 423Q338 436 345.5 455Q353 474 353 497Q353 539 326.5 566.5Q300 594 252 594Q195 594 168 556.5Q141 519 141 463V0H66V463Q66 506 79 542Q92 578 116 604Q140 630 174 644.5Q208 659 252 659Q293 659 326 647Q359 635 380.5 613.5Q402 592 413.5 563Q425 534 425 501Q425 474 418.5 452.5Q412 431 400.5 414.5Q389 398 374 386Q359 374 342 367Z" glyph-name="germandbls" horiz-adv-x="509" unicode="&#223;" /><glyph d="M260 516 171 650H250L330 516Z" glyph-name="grave" horiz-adv-x="500" unicode="`" /><glyph d="M258 668 166 785H254L333 668Z" glyph-name="grave.cap" horiz-adv-x="500" /><glyph d="M362 256 65 104V176L303 295L65 414V486L362 335Z" glyph-name="greater" horiz-adv-x="423" unicode="&gt;" /><glyph d="M408 256 111 104V176L349 295L111 414V486L408 335Z" glyph-name="greater.lt" horiz-adv-x="520" /><glyph d="M364 308 67 187V255L296 345L67 435V503L364 382ZM364 91H67V153H364Z" glyph-name="greaterequal" horiz-adv-x="427" unicode="&#8805;" /><glyph d="M408 308 111 187V255L340 345L111 435V503L408 382ZM408 91H111V153H408Z" glyph-name="greaterequal.lt" horiz-adv-x="520" /><glyph d="M262 74 170 222 262 370H333L241 222L333 74ZM117 74 25 222 117 370H187L95 222L187 74Z" glyph-name="guillemotleft" horiz-adv-x="358" unicode="&#171;" /><glyph d="M262 158 170 305 262 453H333L241 305L333 158ZM117 158 25 305 117 453H187L95 305L187 158Z" glyph-name="guillemotleft.cap" horiz-adv-x="358" /><glyph d="M25 74 117 222 25 370H95L187 222L95 74ZM170 74 262 222 170 370H241L333 222L241 74Z" glyph-name="guillemotright" horiz-adv-x="358" unicode="&#187;" /><glyph d="M25 158 117 305 25 453H95L187 305L95 158ZM170 158 262 305 170 453H241L333 305L241 158Z" glyph-name="guillemotright.cap" horiz-adv-x="358" /><glyph d="M117 74 25 222 117 370H190L98 222L190 74Z" glyph-name="guilsinglleft" horiz-adv-x="215" unicode="&#8249;" /><glyph d="M117 158 25 305 117 453H190L98 305L190 158Z" glyph-name="guilsinglleft.cap" horiz-adv-x="215" /><glyph d="M25 74 117 222 25 370H98L190 222L98 74Z" glyph-name="guilsinglright" horiz-adv-x="215" unicode="&#8250;" /><glyph d="M25 158 117 305 25 453H98L190 305L98 158Z" glyph-name="guilsinglright.cap" horiz-adv-x="215" /><glyph d="M66 650H142V388Q161 414 195.5 433.5Q230 453 273 453Q349 453 388.5 408.5Q428 364 428 291V0H352V279Q352 325 328.5 354.5Q305 384 254 384Q235 384 217.5 377.5Q200 371 185 360Q170 349 159 334Q148 319 142 301V0H66Z" glyph-name="h" horiz-adv-x="489" unicode="h" /><glyph d="M10 565H67V650H143V565H250V511H143V388Q162 414 196 433.5Q230 453 273 453Q349 453 389 408.5Q429 364 429 291V0H353V279Q353 325 329 354.5Q305 384 255 384Q235 384 217.5 377.5Q200 371 185.5 360Q171 349 160 334Q149 319 143 301V0H67V511H10Z" glyph-name="hbar" horiz-adv-x="490" unicode="&#295;" /><glyph d="M66 650H142V388Q161 414 195.5 433.5Q230 453 273 453Q349 453 388.5 408.5Q428 364 428 291V0H352V279Q352 325 328.5 354.5Q305 384 254 384Q235 384 217.5 377.5Q200 371 185 360Q170 349 159 334Q148 319 142 301V0H66ZM377 682H308L250 753L191 682H122L215 804H284Z" glyph-name="hcircumflex" horiz-adv-x="490" unicode="&#293;" /><glyph d="M125 516 192 650H256L188 516ZM244 516 311 650H375L308 516Z" glyph-name="hungarumlaut" horiz-adv-x="500" unicode="&#733;" /><glyph d="M122 668 189 785H255L187 668ZM245 668 311 785H378L310 668Z" glyph-name="hungarumlaut.cap" horiz-adv-x="500" /><glyph d="M40 296H281V226H40Z" glyph-name="hyphen" horiz-adv-x="321" unicode="-" /><glyph d="M40 336H281V266H40Z" glyph-name="hyphen.cap" horiz-adv-x="321" /><glyph d="M143 0H67V444H143ZM153 578Q153 558 139 544Q125 530 105 530Q84 530 70 544Q56 558 56 578Q56 599 70 613Q84 627 105 627Q125 627 139 613Q153 599 153 578Z" glyph-name="i" horiz-adv-x="209" unicode="i" /><glyph d="M65 516 145 650H224L135 516ZM142 0H66V444H142Z" glyph-name="iacute" horiz-adv-x="208" unicode="&#237;" /><glyph d="M105 500Q59 500 31 532.5Q3 565 3 628H59Q59 594 69.5 574.5Q80 555 105 555Q129 555 140 574.5Q151 594 151 628H206Q206 566 178 533Q150 500 105 500ZM142 0H66V444H142Z" glyph-name="ibreve" horiz-adv-x="208" unicode="&#301;" /><glyph d="M213 509H149L104 594L59 509H-5L69 645H139ZM142 0H66V444H142Z" glyph-name="icircumflex" horiz-adv-x="208" unicode="&#238;" /><glyph d="M-4 571Q-4 592 9.5 605Q23 618 43 618Q52 618 60.5 614.5Q69 611 75 604.5Q81 598 85 590Q89 582 89 571Q89 552 75.5 538.5Q62 525 43 525Q23 525 9.5 538.5Q-4 552 -4 571ZM120 571Q120 592 133.5 605Q147 618 166 618Q176 618 184 614.5Q192 611 199 604.5Q206 598 209.5 590Q213 582 213 571Q213 552 199 538.5Q185 525 166 525Q147 525 133.5 538.5Q120 552 120 571ZM142 0H66V444H142Z" glyph-name="idieresis" horiz-adv-x="209" unicode="&#239;" /><glyph d="M142 0H66V444H142ZM154 578Q154 558 140 544Q126 530 106 530Q85 530 71 544Q57 558 57 578Q57 599 71 613Q85 627 106 627Q126 627 140 613Q154 599 154 578Z" glyph-name="idotaccent" horiz-adv-x="208" /><glyph d="M74 516 -15 650H64L144 516ZM142 0H66V444H142Z" glyph-name="igrave" horiz-adv-x="208" unicode="&#236;" /><glyph d="M-1 591H213V530H-1ZM142 0H66V444H142Z" glyph-name="imacron" horiz-adv-x="208" unicode="&#299;" /><glyph d="M143 0Q128 -25 118.5 -41Q109 -57 103.5 -68.5Q98 -80 95.5 -88.5Q93 -97 93 -106Q93 -119 99.5 -125.5Q106 -132 116 -132Q126 -132 134 -128Q142 -124 153 -117V-167Q142 -176 129 -181Q116 -186 101 -186Q84 -186 71.5 -181.5Q59 -177 51 -168.5Q43 -160 38.5 -147.5Q34 -135 34 -120Q34 -106 38 -92.5Q42 -79 48.5 -65Q55 -51 64.5 -35Q74 -19 86 0H67V444H143ZM153 578Q153 558 139 544Q125 530 105 530Q84 530 70 544Q56 558 56 578Q56 599 70 613Q84 627 105 627Q125 627 139 613Q153 599 153 578Z" glyph-name="iogonek" horiz-adv-x="209" unicode="&#303;" /><glyph d="M214 633Q214 607 209.5 585Q205 563 197 547.5Q189 532 177 523.5Q165 515 150 515Q135 515 123.5 523.5Q112 532 102 543Q92 554 83.5 562.5Q75 571 65 571Q51 571 45.5 557Q40 543 39 518H-7Q-7 544 -2.5 566Q2 588 10 603.5Q18 619 29.5 627.5Q41 636 57 636Q71 636 83 627.5Q95 619 105 608.5Q115 598 124 589Q133 580 141 580Q155 580 161 594Q167 608 168 633ZM142 0H66V444H142Z" glyph-name="itilde" horiz-adv-x="209" unicode="&#297;" /><glyph d="M142 -51Q142 -113 109 -146Q76 -179 13 -179Q6 -179 -3.5 -178.5Q-13 -178 -19 -175V-111Q-15 -112 -7.5 -113Q0 -114 7 -114Q21 -114 32.5 -110Q44 -106 51 -98Q58 -90 62 -77Q66 -64 66 -45V444H142ZM153 578Q153 558 139 544Q125 530 104 530Q84 530 70 544Q56 558 56 578Q56 599 70 613Q84 627 104 627Q125 627 139 613Q153 599 153 578Z" glyph-name="j" horiz-adv-x="208" unicode="j" /><glyph d="M213 509H149L104 594L60 509H-5L70 645H139ZM142 -51Q142 -113 109 -146Q76 -179 13 -179Q6 -179 -3.5 -178.5Q-13 -178 -19 -175V-111Q-15 -112 -7.5 -113Q0 -114 7 -114Q21 -114 32.5 -110Q44 -106 51 -98Q58 -90 62 -77Q66 -64 66 -45V444H142Z" glyph-name="jcircumflex" horiz-adv-x="207" unicode="&#309;" /><glyph d="M190 204 142 159V0H66V650H142V247L345 444H444L244 252L451 0H358Z" glyph-name="k" horiz-adv-x="464" unicode="k" /><glyph d="M190 204 142 159V0H66V650H142V247L345 444H444L244 252L451 0H358ZM220 -137Q203 -135 191 -123.5Q179 -112 179 -93Q179 -72 193.5 -58.5Q208 -45 229 -45Q250 -45 264 -59Q278 -73 278 -95Q278 -112 271.5 -125.5Q265 -139 257 -152L228 -201H180Z" glyph-name="kcommaaccent" horiz-adv-x="464" unicode="&#311;" /><glyph d="M190 204 142 159V0H66V444H142V247L345 444H444L244 252L451 0H358Z" glyph-name="kgreenlandic" horiz-adv-x="464" unicode="&#312;" /><glyph d="M142 0H66V650H142Z" glyph-name="l" horiz-adv-x="208" unicode="l" /><glyph d="M142 0H66V650H142ZM67 695 147 812H234L143 695Z" glyph-name="lacute" horiz-adv-x="208" unicode="&#314;" /><glyph d="M142 0H66V650H142ZM198 486 231 650H291L258 486Z" glyph-name="lcaron" horiz-adv-x="208" unicode="&#318;" /><glyph d="M142 0H66V650H142ZM97 -137Q80 -135 68 -123.5Q56 -112 56 -93Q56 -72 70.5 -58.5Q85 -45 106 -45Q127 -45 141 -59Q155 -73 155 -95Q155 -112 148.5 -125.5Q142 -139 134 -152L105 -201H57Z" glyph-name="lcommaaccent" horiz-adv-x="208" unicode="&#316;" /><glyph d="M142 0H66V650H142ZM318 326Q318 306 304 292Q290 278 270 278Q249 278 235 292Q221 306 221 326Q221 347 235 361Q249 375 270 375Q290 375 304 361Q318 347 318 326Z" glyph-name="ldot" horiz-adv-x="332" unicode="&#320;" /><glyph d="M62 335 358 486V414L121 295L358 176V104L62 256Z" glyph-name="less" horiz-adv-x="423" unicode="&lt;" /><glyph d="M112 335 408 486V414L171 295L408 176V104L112 256Z" glyph-name="less.lt" horiz-adv-x="520" /><glyph d="M63 382 360 503V435L130 345L360 255V187L63 308ZM63 153H360V91H63Z" glyph-name="lessequal" horiz-adv-x="427" unicode="&#8804;" /><glyph d="M111 382 408 503V435L178 345L408 255V187L111 308ZM111 153H408V91H111Z" glyph-name="lessequal.lt" horiz-adv-x="520" /><glyph d="M161 0H85V309L30 274V343L85 377V650H161V414L221 453V385L161 346Z" glyph-name="lslash" horiz-adv-x="246" unicode="&#322;" /><glyph d="M381 382Q392 397 406 410Q420 423 436.5 433Q453 443 473 448Q493 453 516 453Q585 453 620.5 409.5Q656 366 656 294V0H580V282Q580 329 559.5 356.5Q539 384 497 384Q463 384 436.5 363Q410 342 399 306V0H323V282Q323 329 302.5 356.5Q282 384 240 384Q206 384 179 363Q152 342 142 306V0H66V444H142V392Q158 418 189 435.5Q220 453 261 453Q304 453 335 433.5Q366 414 381 382Z" glyph-name="m" horiz-adv-x="717" unicode="m" /><glyph d="M142 591H356V530H142Z" glyph-name="macron" horiz-adv-x="500" unicode="&#175;" /><glyph d="M142 732H356V671H142Z" glyph-name="macron.cap" horiz-adv-x="500" /><glyph d="M73 328H468V266H73Z" glyph-name="minus" horiz-adv-x="541" unicode="&#8722;" /><glyph d="M62 328H457V266H62Z" glyph-name="minus.lt" horiz-adv-x="520" /><glyph d="M71 416 114 459 235 337 356 459 399 416 278 295 399 173 356 130 235 252 114 130 71 173 193 295Z" glyph-name="multiply" horiz-adv-x="471" unicode="&#215;" /><glyph d="M96 416 139 459 260 337 381 459 424 416 303 295 424 173 381 130 260 252 139 130 96 173 218 295Z" glyph-name="multiply.lt" horiz-adv-x="520" /><glyph d="M66 444H142V388Q161 414 195.5 433.5Q230 453 273 453Q349 453 388.5 408.5Q428 364 428 291V0H352V279Q352 325 328.5 354.5Q305 384 254 384Q235 384 217.5 377.5Q200 371 185 360Q170 349 159 334Q148 319 142 301V0H66Z" glyph-name="n" horiz-adv-x="489" unicode="n" /><glyph d="M66 444H142V388Q161 414 195.5 433.5Q230 453 273 453Q349 453 388.5 408.5Q428 364 428 291V0H352V279Q352 325 328.5 354.5Q305 384 254 384Q235 384 217.5 377.5Q200 371 185 360Q170 349 159 334Q148 319 142 301V0H66ZM211 516 291 650H370L281 516Z" glyph-name="nacute" horiz-adv-x="489" unicode="&#324;" /><glyph d="M66 444H142V388Q161 414 195.5 433.5Q230 453 273 453Q349 453 388.5 408.5Q428 364 428 291V0H352V279Q352 325 328.5 354.5Q305 384 254 384Q235 384 217.5 377.5Q200 371 185 360Q170 349 159 334Q148 319 142 301V0H66ZM284 510H215L122 646H188L250 559L311 646H377Z" glyph-name="ncaron" horiz-adv-x="490" unicode="&#328;" /><glyph d="M66 444H142V388Q161 414 195.5 433.5Q230 453 273 453Q349 453 388.5 408.5Q428 364 428 291V0H352V279Q352 325 328.5 354.5Q305 384 254 384Q235 384 217.5 377.5Q200 371 185 360Q170 349 159 334Q148 319 142 301V0H66ZM243 -137Q226 -135 214 -123.5Q202 -112 202 -93Q202 -72 216.5 -58.5Q231 -45 252 -45Q273 -45 287 -59Q301 -73 301 -95Q301 -112 294.5 -125.5Q288 -139 280 -152L251 -201H203Z" glyph-name="ncommaaccent" horiz-adv-x="489" unicode="&#326;" /><glyph d="M122 143Q135 104 161.5 80Q188 56 235 56Q269 56 297 74.5Q325 93 346 124.5Q367 156 378 198.5Q389 241 389 291V304Q389 311 388 318Q381 295 366 275.5Q351 256 330.5 242.5Q310 229 285 221Q260 213 233 213Q188 213 152 229Q116 245 89.5 273Q63 301 49 338Q35 375 35 417Q35 459 49.5 496.5Q64 534 91 562Q118 590 156 606.5Q194 623 241 623Q301 623 348 593.5Q395 564 423 506Q443 464 451.5 418Q460 372 460 318Q460 243 443.5 182.5Q427 122 397.5 79.5Q368 37 326.5 14Q285 -9 235 -9Q153 -9 107.5 31.5Q62 72 43 143ZM373 418Q373 448 363 473.5Q353 499 335.5 517.5Q318 536 293.5 546Q269 556 240 556Q211 556 187 546Q163 536 145 517.5Q127 499 117.5 473.5Q108 448 108 418Q108 388 117.5 362Q127 336 145 317.5Q163 299 187 288.5Q211 278 240 278Q269 278 293.5 288.5Q318 299 335.5 317Q353 335 363 361Q373 387 373 418Z" glyph-name="nine" horiz-adv-x="500" unicode="9" /><glyph d="M127 143Q140 104 167 80Q194 56 241 56Q275 56 304 74.5Q333 93 354 124.5Q375 156 386.5 198.5Q398 241 398 291V304Q398 311 397 318Q390 295 374.5 275.5Q359 256 338.5 242Q318 228 292.5 220.5Q267 213 240 213Q194 213 157.5 229Q121 245 94.5 273Q68 301 53.5 338Q39 375 39 417Q39 459 53.5 496.5Q68 534 95.5 562Q123 590 161.5 606.5Q200 623 247 623Q308 623 355.5 593.5Q403 564 432 506Q452 464 460.5 418Q469 372 469 318Q469 243 452 182.5Q435 122 405.5 79.5Q376 37 334 14Q292 -9 241 -9Q159 -9 112.5 31.5Q66 72 48 143ZM382 418Q382 448 371.5 473.5Q361 499 343.5 517.5Q326 536 301 546Q276 556 246 556Q217 556 192.5 546Q168 536 149.5 517.5Q131 499 121.5 473.5Q112 448 112 418Q112 388 121.5 362Q131 336 149.5 317.5Q168 299 192.5 288.5Q217 278 246 278Q276 278 301 288.5Q326 299 343.5 317Q361 335 371.5 361Q382 387 382 418Z" glyph-name="nine.lt" horiz-adv-x="520" /><glyph glyph-name="nonmarkingreturn" horiz-adv-x="221" unicode="" /><glyph d="M79 257H217L276 338H79V395H317L385 488H444L376 395H474V338H335L276 257H474V199H234L167 106H108L175 199H79Z" glyph-name="notequal" horiz-adv-x="552" unicode="&#8800;" /><glyph d="M62 257H200L259 338H62V395H300L368 488H427L359 395H457V338H318L259 257H457V199H217L150 106H91L158 199H62Z" glyph-name="notequal.lt" horiz-adv-x="520" /><glyph d="M66 444H142V388Q161 414 195.5 433.5Q230 453 273 453Q349 453 388.5 408.5Q428 364 428 291V0H352V279Q352 325 328.5 354.5Q305 384 254 384Q235 384 217.5 377.5Q200 371 185 360Q170 349 159 334Q148 319 142 301V0H66ZM382 633Q382 607 377 585Q372 563 362.5 547.5Q353 532 338.5 523.5Q324 515 305 515Q288 515 274 524Q260 533 248 544Q236 555 224.5 564Q213 573 201 573Q184 573 176 558Q168 543 167 518H119Q119 544 123.5 566Q128 588 138 603.5Q148 619 162 627.5Q176 636 195 636Q213 636 227 627Q241 618 253.5 607Q266 596 276.5 587Q287 578 299 578Q316 578 324.5 593Q333 608 333 633Z" glyph-name="ntilde" horiz-adv-x="490" unicode="&#241;" /><glyph d="M499 176H395L353 0H285L327 176H185L143 0H77L119 176H23L36 235H133L167 379H65L76 438H181L223 614H290L247 438H389L432 614H499L457 438H552L540 379H443L409 235H511ZM199 235H341L375 379H233Z" glyph-name="numbersign" horiz-adv-x="575" unicode="#" /><glyph d="M443 222Q443 171 428.5 128.5Q414 86 387 55Q360 24 322.5 7.5Q285 -9 239 -9Q194 -9 156 7.5Q118 24 91.5 55Q65 86 50 128.5Q35 171 35 222Q35 273 50 315.5Q65 358 91.5 389Q118 420 156 436.5Q194 453 239 453Q285 453 322.5 436.5Q360 420 387 389Q414 358 428.5 315.5Q443 273 443 222ZM367 222Q367 258 358.5 288.5Q350 319 333 341Q316 363 292.5 375Q269 387 239 387Q209 387 185.5 375Q162 363 145 341Q128 319 119.5 288.5Q111 258 111 222Q111 185 119.5 155Q128 125 145 103Q162 81 185.5 69Q209 57 239 57Q269 57 292.5 69Q316 81 333 103Q350 125 358.5 155Q367 185 367 222Z" glyph-name="o" horiz-adv-x="478" unicode="o" /><glyph d="M443 222Q443 171 428.5 128.5Q414 86 387 55Q360 24 322.5 7.5Q285 -9 239 -9Q194 -9 156 7.5Q118 24 91.5 55Q65 86 50 128.5Q35 171 35 222Q35 273 50 315.5Q65 358 91.5 389Q118 420 156 436.5Q194 453 239 453Q285 453 322.5 436.5Q360 420 387 389Q414 358 428.5 315.5Q443 273 443 222ZM367 222Q367 258 358.5 288.5Q350 319 333 341Q316 363 292.5 375Q269 387 239 387Q209 387 185.5 375Q162 363 145 341Q128 319 119.5 288.5Q111 258 111 222Q111 185 119.5 155Q128 125 145 103Q162 81 185.5 69Q209 57 239 57Q269 57 292.5 69Q316 81 333 103Q350 125 358.5 155Q367 185 367 222ZM199 516 279 650H358L269 516Z" glyph-name="oacute" horiz-adv-x="478" unicode="&#243;" /><glyph d="M443 222Q443 171 428.5 128.5Q414 86 387 55Q360 24 322.5 7.5Q285 -9 239 -9Q194 -9 156 7.5Q118 24 91.5 55Q65 86 50 128.5Q35 171 35 222Q35 273 50 315.5Q65 358 91.5 389Q118 420 156 436.5Q194 453 239 453Q285 453 322.5 436.5Q360 420 387 389Q414 358 428.5 315.5Q443 273 443 222ZM367 222Q367 258 358.5 288.5Q350 319 333 341Q316 363 292.5 375Q269 387 239 387Q209 387 185.5 375Q162 363 145 341Q128 319 119.5 288.5Q111 258 111 222Q111 185 119.5 155Q128 125 145 103Q162 81 185.5 69Q209 57 239 57Q269 57 292.5 69Q316 81 333 103Q350 125 358.5 155Q367 185 367 222ZM240 500Q215 500 194 508.5Q173 517 158 533Q143 549 134.5 573Q126 597 126 628H183Q183 594 197.5 574.5Q212 555 240 555Q268 555 282.5 574.5Q297 594 297 628H354Q354 597 345.5 573Q337 549 322 533Q307 517 286 508.5Q265 500 240 500Z" glyph-name="obreve" horiz-adv-x="478" unicode="&#335;" /><glyph d="M443 222Q443 171 428.5 128.5Q414 86 387 55Q360 24 322.5 7.5Q285 -9 239 -9Q194 -9 156 7.5Q118 24 91.5 55Q65 86 50 128.5Q35 171 35 222Q35 273 50 315.5Q65 358 91.5 389Q118 420 156 436.5Q194 453 239 453Q285 453 322.5 436.5Q360 420 387 389Q414 358 428.5 315.5Q443 273 443 222ZM367 222Q367 258 358.5 288.5Q350 319 333 341Q316 363 292.5 375Q269 387 239 387Q209 387 185.5 375Q162 363 145 341Q128 319 119.5 288.5Q111 258 111 222Q111 185 119.5 155Q128 125 145 103Q162 81 185.5 69Q209 57 239 57Q269 57 292.5 69Q316 81 333 103Q350 125 358.5 155Q367 185 367 222ZM367 509H301L240 597L178 509H112L205 645H274Z" glyph-name="ocircumflex" horiz-adv-x="478" unicode="&#244;" /><glyph d="M443 222Q443 171 428.5 128.5Q414 86 387 55Q360 24 322.5 7.5Q285 -9 239 -9Q194 -9 156 7.5Q118 24 91.5 55Q65 86 50 128.5Q35 171 35 222Q35 273 50 315.5Q65 358 91.5 389Q118 420 156 436.5Q194 453 239 453Q285 453 322.5 436.5Q360 420 387 389Q414 358 428.5 315.5Q443 273 443 222ZM367 222Q367 258 358.5 288.5Q350 319 333 341Q316 363 292.5 375Q269 387 239 387Q209 387 185.5 375Q162 363 145 341Q128 319 119.5 288.5Q111 258 111 222Q111 185 119.5 155Q128 125 145 103Q162 81 185.5 69Q209 57 239 57Q269 57 292.5 69Q316 81 333 103Q350 125 358.5 155Q367 185 367 222ZM124 571Q124 592 137.5 605Q151 618 171 618Q180 618 188.5 614.5Q197 611 203 604.5Q209 598 213 590Q217 582 217 571Q217 552 203.5 538.5Q190 525 171 525Q151 525 137.5 538.5Q124 552 124 571ZM264 571Q264 592 277.5 605Q291 618 310 618Q320 618 328 614.5Q336 611 343 604.5Q350 598 353.5 590Q357 582 357 571Q357 552 343 538.5Q329 525 310 525Q291 525 277.5 538.5Q264 552 264 571Z" glyph-name="odieresis" horiz-adv-x="478" unicode="&#246;" /><glyph d="M568 -9Q513 -9 471 15Q429 39 403 82Q377 39 335 15Q293 -9 239 -9Q194 -9 156 7.5Q118 24 91.5 55Q65 86 50 128.5Q35 171 35 222Q35 273 50 315.5Q65 358 91.5 389Q118 420 156 436.5Q194 453 239 453Q294 453 335.5 428Q377 403 403 360Q429 403 470 428Q511 453 567 453Q612 453 647 437Q682 421 706 392Q730 363 742 323.5Q754 284 754 235V208H440Q440 173 450 144.5Q460 116 477 96.5Q494 77 517.5 66Q541 55 568 55Q610 55 639 75.5Q668 96 677 134H748Q736 70 690 30.5Q644 -9 568 -9ZM367 222Q367 258 358.5 288.5Q350 319 333 341Q316 363 292.5 375Q269 387 239 387Q209 387 185.5 375Q162 363 145 341Q128 319 119.5 288.5Q111 258 111 222Q111 185 119.5 155Q128 125 145 103Q162 81 185.5 69Q209 57 239 57Q269 57 292.5 69Q316 81 333 103Q350 125 358.5 155Q367 185 367 222ZM567 389Q517 389 483.5 356Q450 323 442 265H678Q678 290 671 312.5Q664 335 650 352Q636 369 615.5 379Q595 389 567 389Z" glyph-name="oe" horiz-adv-x="787" unicode="&#339;" /><glyph d="M304 4Q289 -21 279 -37.5Q269 -54 263.5 -66.5Q258 -79 255 -88Q252 -97 252 -106Q252 -119 258.5 -125.5Q265 -132 275 -132Q285 -132 293 -128Q301 -124 312 -117V-167Q301 -176 288 -181Q275 -186 260 -186Q243 -186 230.5 -181.5Q218 -177 210 -168.5Q202 -160 197.5 -147.5Q193 -135 193 -120Q193 -106 197 -92Q201 -78 208.5 -63.5Q216 -49 226 -32.5Q236 -16 248 4Z" glyph-name="ogonek" horiz-adv-x="500" unicode="&#731;" /><glyph d="M443 222Q443 171 428.5 128.5Q414 86 387 55Q360 24 322.5 7.5Q285 -9 239 -9Q194 -9 156 7.5Q118 24 91.5 55Q65 86 50 128.5Q35 171 35 222Q35 273 50 315.5Q65 358 91.5 389Q118 420 156 436.5Q194 453 239 453Q285 453 322.5 436.5Q360 420 387 389Q414 358 428.5 315.5Q443 273 443 222ZM367 222Q367 258 358.5 288.5Q350 319 333 341Q316 363 292.5 375Q269 387 239 387Q209 387 185.5 375Q162 363 145 341Q128 319 119.5 288.5Q111 258 111 222Q111 185 119.5 155Q128 125 145 103Q162 81 185.5 69Q209 57 239 57Q269 57 292.5 69Q316 81 333 103Q350 125 358.5 155Q367 185 367 222ZM209 516 120 650H199L279 516Z" glyph-name="ograve" horiz-adv-x="478" unicode="&#242;" /><glyph d="M443 222Q443 171 428.5 128.5Q414 86 387 55Q360 24 322.5 7.5Q285 -9 239 -9Q194 -9 156 7.5Q118 24 91.5 55Q65 86 50 128.5Q35 171 35 222Q35 273 50 315.5Q65 358 91.5 389Q118 420 156 436.5Q194 453 239 453Q285 453 322.5 436.5Q360 420 387 389Q414 358 428.5 315.5Q443 273 443 222ZM367 222Q367 258 358.5 288.5Q350 319 333 341Q316 363 292.5 375Q269 387 239 387Q209 387 185.5 375Q162 363 145 341Q128 319 119.5 288.5Q111 258 111 222Q111 185 119.5 155Q128 125 145 103Q162 81 185.5 69Q209 57 239 57Q269 57 292.5 69Q316 81 333 103Q350 125 358.5 155Q367 185 367 222ZM144 516 211 650H275L207 516ZM263 516 330 650H394L327 516Z" glyph-name="ohungarumlaut" horiz-adv-x="478" unicode="&#337;" /><glyph d="M443 222Q443 171 428.5 128.5Q414 86 387 55Q360 24 322.5 7.5Q285 -9 239 -9Q194 -9 156 7.5Q118 24 91.5 55Q65 86 50 128.5Q35 171 35 222Q35 273 50 315.5Q65 358 91.5 389Q118 420 156 436.5Q194 453 239 453Q285 453 322.5 436.5Q360 420 387 389Q414 358 428.5 315.5Q443 273 443 222ZM367 222Q367 258 358.5 288.5Q350 319 333 341Q316 363 292.5 375Q269 387 239 387Q209 387 185.5 375Q162 363 145 341Q128 319 119.5 288.5Q111 258 111 222Q111 185 119.5 155Q128 125 145 103Q162 81 185.5 69Q209 57 239 57Q269 57 292.5 69Q316 81 333 103Q350 125 358.5 155Q367 185 367 222ZM133 591H347V530H133Z" glyph-name="omacron" horiz-adv-x="478" unicode="&#333;" /><glyph d="M254 0H177V520L25 442V522L207 615H254Z" glyph-name="one" horiz-adv-x="330" unicode="1" /><glyph d="M77 70H252V520L80 431V512L282 615H329V70H483V0H77Z" glyph-name="one.lt" horiz-adv-x="520" /><glyph d="M141 0H73L502 614H569ZM192 282H129V541L41 497V561L149 615H192ZM560 237Q560 257 547.5 269Q535 281 515 281Q492 281 479 266Q466 251 465 229H399Q402 253 411 272.5Q420 292 435 306.5Q450 321 470 329.5Q490 338 515 338Q565 338 594 311Q623 284 623 239Q623 207 603.5 182Q584 157 559 130L485 55H626V0H400V43L512 160Q535 184 547.5 201.5Q560 219 560 237Z" glyph-name="onehalf" horiz-adv-x="683" unicode="&#189;" /><glyph d="M141 0H73L502 614H569ZM192 282H129V541L41 497V561L149 615H192ZM430 122H510V189H566V122H619V68H566V0H510V68H361V116L474 333H537Z" glyph-name="onequarter" horiz-adv-x="668" unicode="&#188;" /><glyph d="M170 282H107V541L19 497V561L127 615H170Z" glyph-name="onesuperior" horiz-adv-x="221" unicode="&#185;" /><glyph d="M198 321V341Q189 332 168.5 324Q148 316 122 316Q99 316 79.5 322.5Q60 329 45 341Q30 353 21.5 370.5Q13 388 13 410Q13 453 45.5 478.5Q78 504 126 504Q148 504 168 496.5Q188 489 198 481V514Q198 537 184 552.5Q170 568 142 568Q101 568 89 532H26Q33 573 65 598.5Q97 624 145 624Q201 624 232.5 594.5Q264 565 264 513V321ZM198 424Q192 438 175 446.5Q158 455 138 455Q115 455 96.5 444Q78 433 78 411Q78 388 96.5 377Q115 366 138 366Q158 366 175 374.5Q192 383 198 398Z" glyph-name="ordfeminine" horiz-adv-x="292" unicode="&#170;" /><glyph d="M296 469Q296 435 286 406.5Q276 378 257 357.5Q238 337 212 325.5Q186 314 155 314Q123 314 97 325.5Q71 337 52.5 357.5Q34 378 23.5 406.5Q13 435 13 469Q13 503 23.5 531.5Q34 560 52.5 580.5Q71 601 97 612.5Q123 624 155 624Q186 624 212 612.5Q238 601 257 580.5Q276 560 286 531.5Q296 503 296 469ZM228 469Q228 512 208.5 538.5Q189 565 155 565Q121 565 101.5 538.5Q82 512 82 469Q82 427 101.5 400.5Q121 374 155 374Q189 374 208.5 400.5Q228 427 228 469Z" glyph-name="ordmasculine" horiz-adv-x="310" unicode="&#186;" /><glyph d="M404 469 444 440 398 381Q421 353 433 315Q448 273 448 222Q448 171 433.5 128.5Q419 86 392 55Q365 24 327.5 7.5Q290 -9 244 -9Q199 -9 161 7Q141 16 124 28L81 -28L40 1L89 64Q68 92 55 128Q40 171 40 222Q40 273 55 315.5Q70 358 96.5 389Q123 420 161 436.5Q199 453 244 453Q290 453 327 436Q346 428 363 416ZM373 222Q373 258 364 288Q359 306 352 321L167 83Q177 75 189 69Q213 57 244 57Q274 57 298 69Q322 81 339 103Q356 125 364.5 155Q373 185 373 222ZM299 375Q275 387 244 387Q214 387 190 375Q166 363 149.5 341Q133 319 124 288.5Q115 258 115 222Q115 185 123 155Q128 138 135 124L320 361Q310 369 299 375Z" glyph-name="oslash" horiz-adv-x="488" unicode="&#248;" /><glyph d="M203 516 283 650H362L273 516ZM404 469 444 440 398 381Q421 353 433 315Q448 273 448 222Q448 171 433.5 128.5Q419 86 392 55Q365 24 327.5 7.5Q290 -9 244 -9Q199 -9 161 7Q141 16 124 28L81 -28L40 1L89 64Q68 92 55 128Q40 171 40 222Q40 273 55 315.5Q70 358 96.5 389Q123 420 161 436.5Q199 453 244 453Q290 453 327 436Q346 428 363 416ZM373 222Q373 258 364 288Q359 306 352 321L167 83Q177 75 189 69Q213 57 244 57Q274 57 298 69Q322 81 339 103Q356 125 364.5 155Q373 185 373 222ZM299 375Q275 387 244 387Q214 387 190 375Q166 363 149.5 341Q133 319 124 288.5Q115 258 115 222Q115 185 123 155Q128 138 135 124L320 361Q310 369 299 375Z" glyph-name="oslashacute" horiz-adv-x="488" unicode="&#511;" /><glyph d="M443 222Q443 171 428.5 128.5Q414 86 387 55Q360 24 322.5 7.5Q285 -9 239 -9Q194 -9 156 7.5Q118 24 91.5 55Q65 86 50 128.5Q35 171 35 222Q35 273 50 315.5Q65 358 91.5 389Q118 420 156 436.5Q194 453 239 453Q285 453 322.5 436.5Q360 420 387 389Q414 358 428.5 315.5Q443 273 443 222ZM367 222Q367 258 358.5 288.5Q350 319 333 341Q316 363 292.5 375Q269 387 239 387Q209 387 185.5 375Q162 363 145 341Q128 319 119.5 288.5Q111 258 111 222Q111 185 119.5 155Q128 125 145 103Q162 81 185.5 69Q209 57 239 57Q269 57 292.5 69Q316 81 333 103Q350 125 358.5 155Q367 185 367 222ZM372 633Q372 607 367 585Q362 563 352.5 547.5Q343 532 328.5 523.5Q314 515 295 515Q278 515 264 524Q250 533 238 544Q226 555 214.5 564Q203 573 191 573Q174 573 166 558Q158 543 157 518H109Q109 544 113.5 566Q118 588 128 603.5Q138 619 152 627.5Q166 636 185 636Q203 636 217 627Q231 618 243.5 607Q256 596 266.5 587Q277 578 289 578Q306 578 314.5 593Q323 608 323 633Z" glyph-name="otilde" horiz-adv-x="478" unicode="&#245;" /><glyph d="M142 -170H66V444H142V393Q150 404 163 415Q176 426 192 434.5Q208 443 227.5 448Q247 453 267 453Q316 453 353 434Q390 415 415.5 383.5Q441 352 454 310Q467 268 467 222Q467 176 454 134Q441 92 415.5 60.5Q390 29 353 10Q316 -9 267 -9Q247 -9 227.5 -4Q208 1 192 9.5Q176 18 163 29Q150 40 142 51ZM142 132Q159 98 189.5 78.5Q220 59 256 59Q288 59 313 71.5Q338 84 355 105.5Q372 127 381.5 157Q391 187 391 222Q391 257 381.5 287Q372 317 355 338.5Q338 360 313 372.5Q288 385 256 385Q220 385 189.5 365.5Q159 346 142 312Z" glyph-name="p" horiz-adv-x="502" unicode="p" /><glyph d="M353 614H416V-90H353ZM221 301Q184 301 147.5 310Q111 319 81.5 338Q52 357 33.5 386.5Q15 416 15 458Q15 499 33.5 528.5Q52 558 81.5 577Q111 596 147.5 605Q184 614 221 614H284V-90H221Z" glyph-name="paragraph" horiz-adv-x="489" unicode="&#182;" /><glyph d="M30 283Q30 352 49 411.5Q68 471 102.5 519Q137 567 186.5 600.5Q236 634 298 650V569Q258 559 223 535Q188 511 162 474Q136 437 120.5 389Q105 341 105 283Q105 225 120.5 177Q136 129 162 92Q188 55 223 31Q258 7 298 -3V-84Q236 -68 186.5 -34.5Q137 -1 102.5 47Q68 95 49 154.5Q30 214 30 283Z" glyph-name="parenleft" horiz-adv-x="321" unicode="(" /><glyph d="M30 301Q30 370 49 429.5Q68 489 102.5 537Q137 585 186.5 618.5Q236 652 298 668V588Q258 578 223 553.5Q188 529 162 492Q136 455 120.5 407Q105 359 105 301Q105 243 120.5 195Q136 147 162 110Q188 73 223 49Q258 25 298 15V-66Q236 -50 186.5 -16.5Q137 17 102.5 65Q68 113 49 172.5Q30 232 30 301Z" glyph-name="parenleft.cap" horiz-adv-x="321" /><glyph d="M291 283Q291 214 272 154.5Q253 95 218.5 47Q184 -1 134 -34.5Q84 -68 23 -84V-3Q63 7 98 31Q133 55 159 92Q185 129 200.5 177Q216 225 216 283Q216 341 200.5 389Q185 437 159 474Q133 511 98 535Q63 559 23 569V650Q84 634 134 600.5Q184 567 218.5 519Q253 471 272 411.5Q291 352 291 283Z" glyph-name="parenright" horiz-adv-x="321" unicode=")" /><glyph d="M291 301Q291 232 272 172.5Q253 113 218.5 65Q184 17 134 -16.5Q84 -50 23 -66V15Q63 25 98 49Q133 73 159 110Q185 147 200.5 195Q216 243 216 301Q216 359 200.5 407Q185 455 159 492Q133 529 98 553.5Q63 578 23 588V668Q84 652 134 618.5Q184 585 218.5 537Q253 489 272 429.5Q291 370 291 301Z" glyph-name="parenright.cap" horiz-adv-x="321" /><glyph d="M481 614H543L161 0H98ZM92 490Q92 474 98 461Q104 448 113.5 438Q123 428 136.5 422Q150 416 166 416Q181 416 194.5 422Q208 428 218 438Q228 448 234 461Q240 474 240 490Q240 521 218 542.5Q196 564 166 564Q150 564 136.5 558.5Q123 553 113.5 542.5Q104 532 98 518.5Q92 505 92 490ZM609 124Q609 96 598.5 72Q588 48 570 30Q552 12 528 1.5Q504 -9 476 -9Q448 -9 424 1.5Q400 12 382 30Q364 48 353.5 72Q343 96 343 124Q343 152 353.5 176Q364 200 382 218Q400 236 424 246.5Q448 257 476 257Q504 257 528 246.5Q552 236 570 218Q588 200 598.5 176Q609 152 609 124ZM299 490Q299 462 288.5 438Q278 414 260 396Q242 378 217.5 367.5Q193 357 166 357Q138 357 114 367.5Q90 378 71.5 396Q53 414 43 438Q33 462 33 490Q33 517 43 541.5Q53 566 71.5 584Q90 602 114 612.5Q138 623 166 623Q193 623 217.5 612.5Q242 602 260 584Q278 566 288.5 541.5Q299 517 299 490ZM550 124Q550 139 544 152.5Q538 166 528 176Q518 186 504.5 192Q491 198 476 198Q461 198 447.5 192Q434 186 423.5 176Q413 166 407 152.5Q401 139 401 124Q401 93 423 71.5Q445 50 476 50Q491 50 504.5 55.5Q518 61 528 71.5Q538 82 544 95.5Q550 109 550 124Z" glyph-name="percent" horiz-adv-x="642" unicode="%" /><glyph d="M19 501Q19 526 28.5 548.5Q38 571 54.5 587.5Q71 604 93 613.5Q115 623 140 623Q165 623 187.5 613.5Q210 604 227 587.5Q244 571 253.5 548.5Q263 526 263 501Q263 476 253.5 454Q244 432 227 415.5Q210 399 187.5 389.5Q165 380 140 380Q115 380 93 389.5Q71 399 54.5 415.5Q38 432 28.5 454Q19 476 19 501ZM72 501Q72 486 77 473.5Q82 461 91.5 452Q101 443 113.5 438Q126 433 140 433Q155 433 167.5 438Q180 443 189.5 452Q199 461 204.5 473.5Q210 486 210 501Q210 530 189.5 550Q169 570 140 570Q126 570 113.5 564.5Q101 559 91.5 550Q82 541 77 528.5Q72 516 72 501ZM501 113Q501 87 491.5 65Q482 43 465.5 26.5Q449 10 426.5 0.5Q404 -9 379 -9Q353 -9 331 0.5Q309 10 292.5 26.5Q276 43 266.5 65Q257 87 257 113Q257 138 266.5 160Q276 182 292.5 198.5Q309 215 331 224.5Q353 234 379 234Q404 234 426.5 224.5Q449 215 465.5 198.5Q482 182 491.5 160Q501 138 501 113ZM448 113Q448 127 442.5 140Q437 153 428 162Q419 171 406.5 176Q394 181 379 181Q365 181 352 176Q339 171 330 162Q321 153 315.5 140Q310 127 310 113Q310 84 330.5 64Q351 44 379 44Q394 44 406.5 49.5Q419 55 428 64Q437 73 442.5 85.5Q448 98 448 113ZM420 614H482L100 0H37Z" glyph-name="percent.lt" horiz-adv-x="520" /><glyph d="M32 49Q32 72 47.5 88Q63 104 86 104Q97 104 106.5 99.5Q116 95 123.5 88Q131 81 135 71Q139 61 139 49Q139 37 135 27.5Q131 18 123.5 10.5Q116 3 106.5 -1Q97 -5 86 -5Q75 -5 65 -1Q55 3 48 10.5Q41 18 36.5 27.5Q32 37 32 49Z" glyph-name="period" horiz-adv-x="171" unicode="." /><glyph d="M76 49Q76 72 91.5 88Q107 104 130 104Q141 104 150.5 99.5Q160 95 167.5 88Q175 81 179 71Q183 61 183 49Q183 37 179 27.5Q175 18 167.5 10.5Q160 3 150.5 -1Q141 -5 130 -5Q119 -5 109 -1Q99 3 92 10.5Q85 18 80.5 27.5Q76 37 76 49Z" glyph-name="period.tab" horiz-adv-x="260" /><glyph d="M35 262Q35 285 50.5 301Q66 317 89 317Q100 317 109.5 312.5Q119 308 126.5 300.5Q134 293 138 283.5Q142 274 142 262Q142 250 138 240.5Q134 231 126.5 223.5Q119 216 109.5 211.5Q100 207 89 207Q78 207 68 211.5Q58 216 51 223.5Q44 231 39.5 240.5Q35 250 35 262Z" glyph-name="periodcentered" horiz-adv-x="177" unicode="&#183;" /><glyph d="M35 302Q35 325 50.5 341Q66 357 89 357Q100 357 109.5 352.5Q119 348 126.5 340.5Q134 333 138 323.5Q142 314 142 302Q142 290 138 280.5Q134 271 126.5 263.5Q119 256 109.5 251.5Q100 247 89 247Q78 247 68 251.5Q58 256 51 263.5Q44 271 39.5 280.5Q35 290 35 302Z" glyph-name="periodcentered.cap" horiz-adv-x="177" /><glyph d="M33 490Q33 517 43 541.5Q53 566 71.5 584Q90 602 114 612.5Q138 623 166 623Q193 623 217.5 612.5Q242 602 260 584Q278 566 288.5 541.5Q299 517 299 490Q299 462 288.5 438Q278 414 260 396Q242 378 217.5 367.5Q193 357 166 357Q138 357 114 367.5Q90 378 71.5 396Q53 414 43 438Q33 462 33 490ZM908 124Q908 96 897.5 72Q887 48 869 30Q851 12 827 1.5Q803 -9 775 -9Q747 -9 723 1.5Q699 12 681 30Q663 48 652.5 72Q642 96 642 124Q642 152 652.5 176Q663 200 681 218Q699 236 723 246.5Q747 257 775 257Q803 257 827 246.5Q851 236 869 218Q887 200 897.5 176Q908 152 908 124ZM609 124Q609 96 598.5 72Q588 48 570 30Q552 12 528 1.5Q504 -9 476 -9Q448 -9 424 1.5Q400 12 382 30Q364 48 353.5 72Q343 96 343 124Q343 152 353.5 176Q364 200 382 218Q400 236 424 246.5Q448 257 476 257Q504 257 528 246.5Q552 236 570 218Q588 200 598.5 176Q609 152 609 124ZM481 614H543L161 0H98ZM550 124Q550 139 544 152.5Q538 166 528 176Q518 186 504.5 192Q491 198 476 198Q461 198 447.5 192Q434 186 423.5 176Q413 166 407 152.5Q401 139 401 124Q401 93 423 71.5Q445 50 476 50Q491 50 504.5 55.5Q518 61 528 71.5Q538 82 544 95.5Q550 109 550 124ZM849 124Q849 139 843 152.5Q837 166 827 176Q817 186 803.5 192Q790 198 775 198Q760 198 746.5 192Q733 186 722.5 176Q712 166 706 152.5Q700 139 700 124Q700 93 722 71.5Q744 50 775 50Q790 50 803.5 55.5Q817 61 827 71.5Q837 82 843 95.5Q849 109 849 124ZM92 490Q92 474 98 461Q104 448 113.5 438Q123 428 136.5 422Q150 416 166 416Q181 416 194.5 422Q208 428 218 438Q228 448 234 461Q240 474 240 490Q240 521 218 542.5Q196 564 166 564Q150 564 136.5 558.5Q123 553 113.5 542.5Q104 532 98 518.5Q92 505 92 490Z" glyph-name="perthousand" horiz-adv-x="941" unicode="&#8240;" /><glyph d="M424 614H486L104 0H41ZM76 501Q76 486 81 473.5Q86 461 95.5 452Q105 443 117.5 438Q130 433 144 433Q159 433 171.5 438Q184 443 193.5 452Q203 461 208.5 473.5Q214 486 214 501Q214 530 193.5 550Q173 570 144 570Q130 570 117.5 564.5Q105 559 95.5 550Q86 541 81 528.5Q76 516 76 501ZM505 113Q505 87 495.5 65Q486 43 469.5 26.5Q453 10 430.5 0.5Q408 -9 383 -9Q357 -9 335 0.5Q313 10 296.5 26.5Q280 43 270.5 65Q261 87 261 113Q261 138 270.5 160Q280 182 296.5 198.5Q313 215 335 224.5Q357 234 383 234Q408 234 430.5 224.5Q453 215 469.5 198.5Q486 182 495.5 160Q505 138 505 113ZM452 113Q452 127 446.5 140Q441 153 432 162Q423 171 410.5 176Q398 181 383 181Q369 181 356 176Q343 171 334 162Q325 153 319.5 140Q314 127 314 113Q314 84 334.5 64Q355 44 383 44Q398 44 410.5 49.5Q423 55 432 64Q441 73 446.5 85.5Q452 98 452 113ZM23 501Q23 526 32.5 548.5Q42 571 58.5 587.5Q75 604 97 613.5Q119 623 144 623Q169 623 191.5 613.5Q214 604 231 587.5Q248 571 257.5 548.5Q267 526 267 501Q267 476 257.5 454Q248 432 231 415.5Q214 399 191.5 389.5Q169 380 144 380Q119 380 97 389.5Q75 399 58.5 415.5Q42 432 32.5 454Q23 476 23 501ZM776 113Q776 87 766.5 65Q757 43 740.5 26.5Q724 10 702 0.5Q680 -9 655 -9Q629 -9 607 0.5Q585 10 568 26.5Q551 43 541.5 65Q532 87 532 113Q532 138 541.5 160Q551 182 568 198.5Q585 215 607 224.5Q629 234 655 234Q680 234 702 224.5Q724 215 740.5 198.5Q757 182 766.5 160Q776 138 776 113ZM723 113Q723 127 718 140Q713 153 703.5 162Q694 171 681.5 176Q669 181 655 181Q640 181 627.5 176Q615 171 606 162Q597 153 591 140Q585 127 585 113Q585 84 605.5 64Q626 44 655 44Q669 44 681.5 49.5Q694 55 703.5 64Q713 73 718 85.5Q723 98 723 113Z" glyph-name="perthousand.lt" horiz-adv-x="800" /><glyph d="M73 328H239V494H302V328H468V266H302V100H239V266H73Z" glyph-name="plus" horiz-adv-x="541" unicode="+" /><glyph d="M62 328H228V494H291V328H457V266H291V100H228V266H62Z" glyph-name="plus.lt" horiz-adv-x="520" /><glyph d="M78 389H242V518H304V389H467V327H304V198H242V327H78ZM78 150H467V88H78Z" glyph-name="plusminus" horiz-adv-x="544" unicode="&#177;" /><glyph d="M65 389H229V518H291V389H454V327H291V198H229V327H65ZM65 150H454V88H65Z" glyph-name="plusminus.lt" horiz-adv-x="520" /><glyph d="M670 307Q670 238 645 180Q620 122 577 80Q534 38 476 14.5Q418 -9 353 -9Q288 -9 230.5 14.5Q173 38 130 80Q87 122 62 180Q37 238 37 307Q37 376 62 434Q87 492 130 534Q173 576 230.5 599.5Q288 623 353 623Q418 623 476 599.5Q534 576 577 534Q620 492 645 434Q670 376 670 307ZM630 307Q630 367 608 418Q586 469 548.5 505.5Q511 542 460.5 563Q410 584 353 584Q296 584 246 563Q196 542 158.5 505.5Q121 469 99 418Q77 367 77 307Q77 247 99 196Q121 145 158.5 108.5Q196 72 246 51Q296 30 353 30Q410 30 460.5 51Q511 72 548.5 108.5Q586 145 608 196Q630 247 630 307ZM306 254V124H237V493H389Q447 493 482 462.5Q517 432 517 374Q517 315 482 284.5Q447 254 389 254ZM449 374Q449 400 433 415.5Q417 431 385 431H306V316H385Q417 316 433 331.5Q449 347 449 374Z" glyph-name="published" horiz-adv-x="707" /><glyph d="M360 51Q351 40 338.5 29Q326 18 310 9.5Q294 1 275 -4Q256 -9 235 -9Q186 -9 149 10Q112 29 86.5 60.5Q61 92 48 134Q35 176 35 222Q35 268 48 310Q61 352 86.5 383.5Q112 415 149 434Q186 453 235 453Q256 453 275 448Q294 443 310 434.5Q326 426 338.5 415Q351 404 360 393V444H436V-170H360ZM360 312Q343 346 312.5 365.5Q282 385 246 385Q214 385 189 372.5Q164 360 147 338.5Q130 317 120.5 287Q111 257 111 222Q111 187 120.5 157Q130 127 147 105.5Q164 84 189 71.5Q214 59 246 59Q282 59 312.5 78.5Q343 98 360 132Z" glyph-name="q" horiz-adv-x="502" unicode="q" /><glyph d="M170 49Q170 61 174 71Q178 81 185.5 88Q193 95 202.5 99.5Q212 104 223 104Q246 104 261.5 88Q277 72 277 49Q277 26 261.5 10.5Q246 -5 223 -5Q212 -5 202.5 -1Q193 3 185.5 10.5Q178 18 174 27.5Q170 37 170 49ZM409 451Q409 423 399.5 399Q390 375 375 353.5Q360 332 342 312.5Q324 293 306 275Q281 248 272.5 229.5Q264 211 263 193H189Q190 212 193.5 227Q197 242 204 256Q211 270 221 283.5Q231 297 247 313Q260 328 275 343Q290 358 302.5 374.5Q315 391 323 409.5Q331 428 331 450Q331 497 301.5 525Q272 553 222 553Q166 553 136 518.5Q106 484 102 430H20Q24 473 40.5 508.5Q57 544 83 569.5Q109 595 144 609Q179 623 222 623Q265 623 300 611Q335 599 359 576.5Q383 554 396 522Q409 490 409 451Z" glyph-name="question" horiz-adv-x="432" unicode="?" /><glyph d="M262 469Q262 457 258 447Q254 437 246.5 430Q239 423 229.5 418.5Q220 414 209 414Q186 414 170.5 430Q155 446 155 469Q155 492 170.5 507.5Q186 523 209 523Q220 523 229.5 519Q239 515 246.5 507.5Q254 500 258 490.5Q262 481 262 469ZM23 67Q23 95 32.5 119Q42 143 57 164.5Q72 186 90 205.5Q108 225 126 243Q151 270 159.5 288.5Q168 307 169 325H243Q242 306 238.5 291Q235 276 228 262Q221 248 211 234.5Q201 221 185 205Q172 190 157 175Q142 160 129.5 143.5Q117 127 109 108.5Q101 90 101 68Q101 21 130.5 -7Q160 -35 210 -35Q266 -35 296 -0.5Q326 34 330 88H412Q408 45 391.5 9.5Q375 -26 349 -51.5Q323 -77 288 -91Q253 -105 210 -105Q167 -105 132 -93Q97 -81 73 -58.5Q49 -36 36 -4Q23 28 23 67Z" glyph-name="questiondown" horiz-adv-x="432" unicode="&#191;" /><glyph d="M262 564Q262 552 257.5 542.5Q253 533 246 525.5Q239 518 229 513.5Q219 509 208 509Q186 509 170.5 525Q155 541 155 564Q155 587 170.5 603Q186 619 208 619Q219 619 229 614.5Q239 610 246 602.5Q253 595 257.5 585.5Q262 576 262 564ZM23 163Q23 190 32.5 214Q42 238 56.5 259.5Q71 281 89.5 300.5Q108 320 126 339Q151 365 159.5 383.5Q168 402 168 420H242Q241 401 237.5 386Q234 371 227.5 357.5Q221 344 210.5 330Q200 316 185 300Q172 285 157 270Q142 255 129.5 238.5Q117 222 108.5 203.5Q100 185 100 163Q100 116 130 88Q160 60 210 60Q266 60 295.5 94.5Q325 129 330 183H412Q407 140 391 104.5Q375 69 348.5 44Q322 19 287.5 4.5Q253 -10 210 -10Q167 -10 132 2Q97 14 72.5 36.5Q48 59 35.5 91Q23 123 23 163Z" glyph-name="questiondown.cap" horiz-adv-x="432" /><glyph d="M40 614H106V395H40ZM159 614H225V395H159Z" glyph-name="quotedbl" horiz-adv-x="265" unicode="&quot;" /><glyph d="M80 0Q61 3 48.5 16Q36 29 36 50Q36 73 51.5 88.5Q67 104 89 104Q112 104 127.5 88.5Q143 73 143 45Q143 29 136.5 13Q130 -3 121 -18L70 -103H19ZM233 0Q215 3 202 16Q189 29 189 50Q189 73 204.5 88.5Q220 104 243 104Q266 104 281.5 88.5Q297 73 297 45Q297 29 290.5 13Q284 -3 274 -18L224 -103H173Z" glyph-name="quotedblbase" horiz-adv-x="322" unicode="&#8222;" /><glyph d="M88 511Q107 508 119.5 495Q132 482 132 461Q132 438 116.5 422.5Q101 407 79 407Q56 407 40.5 422.5Q25 438 25 466Q25 482 31.5 498Q38 514 47 529L98 614H149ZM242 511Q260 508 273 495Q286 482 286 461Q286 438 270.5 422.5Q255 407 232 407Q209 407 194 422.5Q179 438 179 466Q179 482 185 498Q191 514 201 529L252 614H303Z" glyph-name="quotedblleft" horiz-adv-x="322" unicode="&#8220;" /><glyph d="M233 519Q215 523 202 536Q189 549 189 570Q189 593 204.5 608Q220 623 243 623Q266 623 281.5 608Q297 593 297 565Q297 549 290.5 532.5Q284 516 274 502L224 417H173ZM80 519Q61 523 48.5 536Q36 549 36 570Q36 593 51.5 608Q67 623 89 623Q112 623 127.5 608Q143 593 143 565Q143 549 136.5 532.5Q130 516 121 502L70 417H19Z" glyph-name="quotedblright" horiz-adv-x="322" unicode="&#8221;" /><glyph d="M88 511Q107 508 119.5 495Q132 482 132 461Q132 438 116.5 422.5Q101 407 79 407Q56 407 40.5 422.5Q25 438 25 466Q25 482 31.5 498Q38 514 47 529L98 614H149Z" glyph-name="quoteleft" horiz-adv-x="168" unicode="&#8216;" /><glyph d="M80 519Q61 523 48.5 536Q36 549 36 570Q36 593 51.5 608Q67 623 89 623Q112 623 127.5 608Q143 593 143 565Q143 549 136.5 532.5Q130 516 121 502L70 417H19Z" glyph-name="quoteright" horiz-adv-x="168" unicode="&#8217;" /><glyph d="M80 0Q61 3 48.5 16Q36 29 36 50Q36 73 51.5 88.5Q67 104 89 104Q112 104 127.5 88.5Q143 73 143 45Q143 29 136.5 13Q130 -3 121 -18L70 -103H19Z" glyph-name="quotesinglbase" horiz-adv-x="161" unicode="&#8218;" /><glyph d="M40 614H109V395H40Z" glyph-name="quotesingle" horiz-adv-x="149" unicode="&apos;" /><glyph d="M295 369Q285 375 272 378Q259 381 245 381Q209 381 181.5 359Q154 337 142 298V0H66V444H142V386Q156 415 185.5 434Q215 453 251 453Q266 453 277.5 451Q289 449 295 446Z" glyph-name="r" horiz-adv-x="321" unicode="r" /><glyph d="M295 369Q285 375 272 378Q259 381 245 381Q209 381 181.5 359Q154 337 142 298V0H66V444H142V386Q156 415 185.5 434Q215 453 251 453Q266 453 277.5 451Q289 449 295 446ZM142 516 222 650H301L212 516Z" glyph-name="racute" horiz-adv-x="321" unicode="&#341;" /><glyph d="M295 369Q285 375 272 378Q259 381 245 381Q209 381 181.5 359Q154 337 142 298V0H66V444H142V386Q156 415 185.5 434Q215 453 251 453Q266 453 277.5 451Q289 449 295 446ZM216 510H147L54 646H120L182 559L243 646H309Z" glyph-name="rcaron" horiz-adv-x="321" unicode="&#345;" /><glyph d="M295 369Q285 375 272 378Q259 381 245 381Q209 381 181.5 359Q154 337 142 298V0H66V444H142V386Q156 415 185.5 434Q215 453 251 453Q266 453 277.5 451Q289 449 295 446ZM95 -137Q78 -135 66 -123.5Q54 -112 54 -93Q54 -72 68.5 -58.5Q83 -45 104 -45Q125 -45 139 -59Q153 -73 153 -95Q153 -112 146.5 -125.5Q140 -139 132 -152L103 -201H55Z" glyph-name="rcommaaccent" horiz-adv-x="321" unicode="&#343;" /><glyph d="M387 440Q387 400 372.5 366.5Q358 333 333.5 308.5Q309 284 276 270.5Q243 257 206 257Q169 257 136 270.5Q103 284 78.5 308.5Q54 333 39.5 366.5Q25 400 25 440Q25 480 39.5 513.5Q54 547 78.5 571.5Q103 596 136 609.5Q169 623 206 623Q243 623 276 609.5Q309 596 333.5 571.5Q358 547 372.5 513.5Q387 480 387 440ZM356 440Q356 474 344.5 502Q333 530 312.5 551Q292 572 264.5 583Q237 594 206 594Q175 594 147.5 583Q120 572 99.5 551Q79 530 67.5 502Q56 474 56 440Q56 407 67.5 378.5Q79 350 99.5 329.5Q120 309 147.5 298Q175 287 206 287Q237 287 264.5 298Q292 309 312.5 329.5Q333 350 344.5 378.5Q356 407 356 440ZM178 414V346H135V538H219Q250 538 269 521.5Q288 505 288 475Q288 452 276.5 437.5Q265 423 246 418L295 346H247L203 414ZM247 475Q247 487 239.5 494Q232 501 218 501H178V449H218Q232 449 239.5 456.5Q247 464 247 475Z" glyph-name="registered" horiz-adv-x="412" unicode="&#174;" /><glyph d="M337 580Q337 561 330.5 545.5Q324 530 311.5 518.5Q299 507 283 500.5Q267 494 250 494Q231 494 215.5 500.5Q200 507 187.5 518.5Q175 530 168.5 545.5Q162 561 162 580Q162 598 168.5 614Q175 630 187.5 641.5Q200 653 215.5 659.5Q231 666 250 666Q267 666 283 659.5Q299 653 311.5 641.5Q324 630 330.5 614Q337 598 337 580ZM295 580Q295 599 281.5 612Q268 625 250 625Q231 625 217.5 612Q204 599 204 580Q204 561 217.5 548Q231 535 250 535Q268 535 281.5 548Q295 561 295 580Z" glyph-name="ring" horiz-adv-x="500" unicode="&#730;" /><glyph d="M337 735Q337 716 330.5 700.5Q324 685 311.5 673.5Q299 662 283 655Q267 648 250 648Q231 648 215.5 655Q200 662 187.5 673.5Q175 685 168.5 700.5Q162 716 162 735Q162 752 168.5 768Q175 784 187.5 795.5Q200 807 215.5 814Q231 821 250 821Q267 821 283 814Q299 807 311.5 795.5Q324 784 330.5 768Q337 752 337 735ZM295 735Q295 754 281.5 767Q268 780 250 780Q231 780 217.5 767Q204 754 204 735Q204 715 217.5 702Q231 689 250 689Q268 689 281.5 702Q295 715 295 735Z" glyph-name="ring.cap" horiz-adv-x="500" /><glyph d="M108 122Q118 88 145.5 71Q173 54 212 54Q232 54 248.5 58.5Q265 63 277.5 71Q290 79 297 91.5Q304 104 304 121Q304 144 288 158.5Q272 173 237 182L150 205Q103 216 72.5 243Q42 270 42 322Q42 352 54.5 376Q67 400 88.5 417Q110 434 139 443.5Q168 453 202 453Q276 453 319 419.5Q362 386 374 327H299Q289 357 265.5 373.5Q242 390 201 390Q168 390 142 374Q116 358 116 326Q116 303 131 291Q146 279 178 270L264 249Q321 234 349 203Q377 172 377 125Q377 94 364.5 68.5Q352 43 330 26Q308 9 277.5 0Q247 -9 212 -9Q175 -9 144 0Q113 9 89.5 26Q66 43 50.5 67Q35 91 30 122Z" glyph-name="s" horiz-adv-x="414" unicode="s" /><glyph d="M108 122Q118 88 145.5 71Q173 54 212 54Q232 54 248.5 58.5Q265 63 277.5 71Q290 79 297 91.5Q304 104 304 121Q304 144 288 158.5Q272 173 237 182L150 205Q103 216 72.5 243Q42 270 42 322Q42 352 54.5 376Q67 400 88.5 417Q110 434 139 443.5Q168 453 202 453Q276 453 319 419.5Q362 386 374 327H299Q289 357 265.5 373.5Q242 390 201 390Q168 390 142 374Q116 358 116 326Q116 303 131 291Q146 279 178 270L264 249Q321 234 349 203Q377 172 377 125Q377 94 364.5 68.5Q352 43 330 26Q308 9 277.5 0Q247 -9 212 -9Q175 -9 144 0Q113 9 89.5 26Q66 43 50.5 67Q35 91 30 122ZM168 516 248 650H327L238 516Z" glyph-name="sacute" horiz-adv-x="414" unicode="&#347;" /><glyph d="M108 122Q118 88 145.5 71Q173 54 212 54Q232 54 248.5 58.5Q265 63 277.5 71Q290 79 297 91.5Q304 104 304 121Q304 144 288 158.5Q272 173 237 182L150 205Q103 216 72.5 243Q42 270 42 322Q42 352 54.5 376Q67 400 88.5 417Q110 434 139 443.5Q168 453 202 453Q276 453 319 419.5Q362 386 374 327H299Q289 357 265.5 373.5Q242 390 201 390Q168 390 142 374Q116 358 116 326Q116 303 131 291Q146 279 178 270L264 249Q321 234 349 203Q377 172 377 125Q377 94 364.5 68.5Q352 43 330 26Q308 9 277.5 0Q247 -9 212 -9Q175 -9 144 0Q113 9 89.5 26Q66 43 50.5 67Q35 91 30 122ZM242 510H173L80 646H146L208 559L269 646H335Z" glyph-name="scaron" horiz-adv-x="414" unicode="&#353;" /><glyph d="M108 122Q118 88 145.5 71Q173 54 212 54Q232 54 248.5 58.5Q265 63 277.5 71Q290 79 297 91.5Q304 104 304 121Q304 144 288 158.5Q272 173 237 182L150 205Q103 216 72.5 243Q42 270 42 322Q42 352 54.5 376Q67 400 88.5 417Q110 434 139 443.5Q168 453 202 453Q276 453 319 419.5Q362 386 374 327H299Q289 357 265.5 373.5Q242 390 201 390Q168 390 142 374Q116 358 116 326Q116 303 131 291Q146 279 178 270L264 249Q321 234 349 203Q377 172 377 125Q377 94 364.5 68.5Q352 43 330 26Q308 9 277.5 0Q247 -9 212 -9Q175 -9 144 0Q113 9 89.5 26Q66 43 50.5 67Q35 91 30 122ZM109 -183 175 -51H250L180 -183Z" glyph-name="scedilla" horiz-adv-x="414" unicode="&#351;" /><glyph d="M108 122Q118 88 145.5 71Q173 54 212 54Q232 54 248.5 58.5Q265 63 277.5 71Q290 79 297 91.5Q304 104 304 121Q304 144 288 158.5Q272 173 237 182L150 205Q103 216 72.5 243Q42 270 42 322Q42 352 54.5 376Q67 400 88.5 417Q110 434 139 443.5Q168 453 202 453Q276 453 319 419.5Q362 386 374 327H299Q289 357 265.5 373.5Q242 390 201 390Q168 390 142 374Q116 358 116 326Q116 303 131 291Q146 279 178 270L264 249Q321 234 349 203Q377 172 377 125Q377 94 364.5 68.5Q352 43 330 26Q308 9 277.5 0Q247 -9 212 -9Q175 -9 144 0Q113 9 89.5 26Q66 43 50.5 67Q35 91 30 122ZM335 509H269L208 597L146 509H80L173 645H242Z" glyph-name="scircumflex" horiz-adv-x="414" unicode="&#349;" /><glyph d="M108 122Q118 88 145.5 71Q173 54 212 54Q232 54 248.5 58.5Q265 63 277.5 71Q290 79 297 91.5Q304 104 304 121Q304 144 288 158.5Q272 173 237 182L150 205Q103 216 72.5 243Q42 270 42 322Q42 352 54.5 376Q67 400 88.5 417Q110 434 139 443.5Q168 453 202 453Q276 453 319 419.5Q362 386 374 327H299Q289 357 265.5 373.5Q242 390 201 390Q168 390 142 374Q116 358 116 326Q116 303 131 291Q146 279 178 270L264 249Q321 234 349 203Q377 172 377 125Q377 94 364.5 68.5Q352 43 330 26Q308 9 277.5 0Q247 -9 212 -9Q175 -9 144 0Q113 9 89.5 26Q66 43 50.5 67Q35 91 30 122ZM202 -137Q185 -135 173 -123.5Q161 -112 161 -93Q161 -72 175.5 -58.5Q190 -45 211 -45Q232 -45 246 -59Q260 -73 260 -95Q260 -112 253.5 -125.5Q247 -139 239 -152L210 -201H162Z" glyph-name="scommaaccent" horiz-adv-x="414" unicode="&#537;" /><glyph d="M363 88Q371 75 375 60.5Q379 46 379 27Q379 -3 367.5 -26.5Q356 -50 335 -66.5Q314 -83 285.5 -92Q257 -101 223 -101Q148 -101 104 -64.5Q60 -28 50 33H124Q132 0 156 -19.5Q180 -39 223 -39Q257 -39 281.5 -23Q306 -7 306 24Q306 50 291.5 64.5Q277 79 250 97L124 181Q103 195 84.5 209Q66 223 52.5 239.5Q39 256 31 275.5Q23 295 23 320Q23 356 41 385.5Q59 415 91 433Q83 445 79 460.5Q75 476 75 495Q75 525 86.5 548.5Q98 572 119 588.5Q140 605 168.5 614Q197 623 230 623Q306 623 350 586.5Q394 550 404 489H330Q321 522 297.5 541.5Q274 561 230 561Q197 561 172.5 545.5Q148 530 148 498Q148 485 152 475.5Q156 466 163 457.5Q170 449 180.5 441.5Q191 434 204 425L330 341Q351 327 369.5 313Q388 299 401.5 282.5Q415 266 423 246.5Q431 227 431 202Q431 166 413 135.5Q395 105 363 88ZM315 137Q338 144 349 161.5Q360 179 360 201Q360 228 340 246Q320 264 295 280L139 385Q116 378 104.5 361Q93 344 93 322Q93 295 113.5 276.5Q134 258 159 242Z" glyph-name="section" horiz-adv-x="454" unicode="&#167;" /><glyph d="M76 -1Q58 2 45 15Q32 28 32 49Q32 72 47.5 87.5Q63 103 86 103Q109 103 124.5 87.5Q140 72 140 44Q140 28 133.5 12Q127 -4 117 -19L64 -108H13ZM32 363Q32 386 47.5 402Q63 418 86 418Q97 418 107 413.5Q117 409 124 401.5Q131 394 135.5 384.5Q140 375 140 363Q140 351 135.5 341.5Q131 332 124 324.5Q117 317 107 312.5Q97 308 86 308Q75 308 65 312.5Q55 317 48 324.5Q41 332 36.5 341.5Q32 351 32 363Z" glyph-name="semicolon" horiz-adv-x="172" unicode=";" /><glyph d="M120 -1Q102 2 89 15Q76 28 76 49Q76 72 91.5 87.5Q107 103 130 103Q153 103 168.5 87.5Q184 72 184 44Q184 28 177.5 12Q171 -4 161 -19L108 -108H57ZM76 363Q76 386 91.5 402Q107 418 130 418Q141 418 151 413.5Q161 409 168 401.5Q175 394 179.5 384.5Q184 375 184 363Q184 351 179.5 341.5Q175 332 168 324.5Q161 317 151 312.5Q141 308 130 308Q119 308 109 312.5Q99 317 92 324.5Q85 332 80.5 341.5Q76 351 76 363Z" glyph-name="semicolon.tab" horiz-adv-x="260" /><glyph d="M196 0H117L334 543H18V614H415V553Z" glyph-name="seven" horiz-adv-x="440" unicode="7" /><glyph d="M243 0H164L388 543H47V614H469V553Z" glyph-name="seven.lt" horiz-adv-x="520" /><glyph d="M127 196Q127 166 137 140.5Q147 115 164.5 96.5Q182 78 206 68Q230 58 260 58Q288 58 312.5 68Q337 78 354.5 96.5Q372 115 382 140Q392 165 392 196Q392 226 382 252Q372 278 354.5 296.5Q337 315 312.5 325.5Q288 336 260 336Q231 336 206.5 325.5Q182 315 164.5 297Q147 279 137 253Q127 227 127 196ZM377 471Q364 510 338 534Q312 558 265 558Q231 558 202.5 539.5Q174 521 153.5 489.5Q133 458 121.5 415.5Q110 373 110 323Q110 317 110.5 310Q111 303 111 296Q119 319 134 338.5Q149 358 169.5 371.5Q190 385 215 393Q240 401 266 401Q311 401 347.5 385Q384 369 410 341Q436 313 450.5 276Q465 239 465 197Q465 155 450.5 117Q436 79 409 51Q382 23 344 7Q306 -9 259 -9Q198 -9 151.5 20.5Q105 50 76 108Q56 150 48 196Q40 242 40 296Q40 371 56.5 431.5Q73 492 102.5 534.5Q132 577 173.5 600Q215 623 265 623Q346 623 392 582.5Q438 542 456 471Z" glyph-name="six" horiz-adv-x="500" unicode="6" /><glyph d="M138 196Q138 166 148 140.5Q158 115 176 96.5Q194 78 219 68Q244 58 273 58Q302 58 326.5 68Q351 78 369 96.5Q387 115 397.5 140Q408 165 408 196Q408 226 397.5 252Q387 278 369 296.5Q351 315 326.5 325.5Q302 336 273 336Q244 336 219 325.5Q194 315 176 297Q158 279 148 253Q138 227 138 196ZM393 471Q380 510 353 534Q326 558 278 558Q244 558 215 539.5Q186 521 165.5 489.5Q145 458 133 415Q121 372 121 323Q121 317 121.5 310Q122 303 122 296Q130 319 145 338.5Q160 358 181 372Q202 386 227 393.5Q252 401 280 401Q325 401 362 385Q399 369 425.5 341Q452 313 466.5 276Q481 239 481 197Q481 155 466 117Q451 79 424 51Q397 23 358.5 7Q320 -9 273 -9Q211 -9 164 20.5Q117 50 88 108Q67 150 59 196Q51 242 51 296Q51 371 67.5 431.5Q84 492 114 534.5Q144 577 186 600Q228 623 278 623Q361 623 407.5 582.5Q454 542 472 471Z" glyph-name="six.lt" horiz-adv-x="520" /><glyph d="M253 650H328L80 -84H5Z" glyph-name="slash" horiz-adv-x="333" unicode="/" /><glyph d="M253 670H328L80 -64H5Z" glyph-name="slash.cap" horiz-adv-x="333" /><glyph glyph-name="space" horiz-adv-x="221" unicode=" " /><glyph glyph-name="space.tab" horiz-adv-x="260" /><glyph d="M187 156Q187 130 181.5 105Q176 80 165 65H461V0H31V65H92Q102 82 108 102.5Q114 123 114 156V272H31V334H114V425Q114 468 126.5 504.5Q139 541 163 567.5Q187 594 220 608.5Q253 623 294 623Q330 623 359 612.5Q388 602 409.5 583Q431 564 444 537Q457 510 462 478H389Q382 515 358.5 536Q335 557 294 557Q243 557 215 521.5Q187 486 187 425V334H342V272H187Z" glyph-name="sterling" horiz-adv-x="488" unicode="&#163;" /><glyph d="M200 156Q200 130 194.5 105Q189 80 178 65H474V0H44V65H105Q115 82 121 102.5Q127 123 127 156V272H44V334H127V425Q127 468 139.5 504.5Q152 541 176 567.5Q200 594 233 608.5Q266 623 307 623Q343 623 372 612.5Q401 602 422.5 583Q444 564 457 537Q470 510 475 478H402Q395 515 371.5 536Q348 557 307 557Q256 557 228 521.5Q200 486 200 425V334H355V272H200Z" glyph-name="sterling.lt" horiz-adv-x="520" /><glyph d="M88 380H16V444H88V561H164V444H271V380H164V120Q164 88 179 73.5Q194 59 222 59Q238 59 253.5 63.5Q269 68 281 76V6Q268 -1 249.5 -5Q231 -9 210 -9Q156 -9 122 20.5Q88 50 88 112Z" glyph-name="t" horiz-adv-x="318" unicode="t" /><glyph d="M29 280H92V380H20V444H92V561H168V444H275V380H168V280H258V219H168V120Q168 88 183 73.5Q198 59 226 59Q242 59 257.5 63.5Q273 68 285 76V6Q272 -1 253.5 -5Q235 -9 214 -9Q160 -9 126 20.5Q92 50 92 112V219H29Z" glyph-name="tbar" horiz-adv-x="322" unicode="&#359;" /><glyph d="M88 380H16V444H88V561H164V444H271V380H164V120Q164 88 179 73.5Q194 59 222 59Q238 59 253.5 63.5Q269 68 281 76V6Q268 -1 249.5 -5Q231 -9 210 -9Q156 -9 122 20.5Q88 50 88 112ZM217 496 250 660H310L277 496Z" glyph-name="tcaron" horiz-adv-x="317" unicode="&#357;" /><glyph d="M88 380H16V444H88V561H164V444H271V380H164V120Q164 88 179 73.5Q194 59 222 59Q238 59 253.5 63.5Q269 68 281 76V6Q268 -1 249.5 -5Q231 -9 210 -9Q156 -9 122 20.5Q88 50 88 112ZM178 -137Q161 -135 149.5 -123.5Q138 -112 138 -93Q138 -72 152.5 -58.5Q167 -45 188 -45Q209 -45 223 -59Q237 -73 237 -95Q237 -112 230.5 -125.5Q224 -139 216 -152L187 -201H139Z" glyph-name="tcommaaccent" horiz-adv-x="318" unicode="&#355;" /><glyph d="M142 -170H66V650H142V393Q150 404 163 415Q176 426 192 434.5Q208 443 227.5 448Q247 453 267 453Q316 453 353 434Q390 415 415.5 383.5Q441 352 454 310Q467 268 467 222Q467 176 454 134Q441 92 415.5 60.5Q390 29 353 10Q316 -9 267 -9Q247 -9 227.5 -4Q208 1 192 9.5Q176 18 163 29Q150 40 142 51ZM142 132Q159 98 189.5 78.5Q220 59 256 59Q288 59 313 71.5Q338 84 355 105.5Q372 127 381.5 157Q391 187 391 222Q391 257 381.5 287Q372 317 355 338.5Q338 360 313 372.5Q288 385 256 385Q220 385 189.5 365.5Q159 346 142 312Z" glyph-name="thorn" horiz-adv-x="502" unicode="&#254;" /><glyph d="M184 348H225Q249 348 270 354.5Q291 361 306.5 374.5Q322 388 331 407Q340 426 340 451Q340 496 310 525Q280 554 228 554Q176 554 144.5 524Q113 494 107 446H29Q34 485 50.5 517.5Q67 550 93 573.5Q119 597 153 610Q187 623 227 623Q271 623 306 610.5Q341 598 365 576Q389 554 402 522.5Q415 491 415 455Q415 429 408 406.5Q401 384 388 366Q375 348 357.5 334.5Q340 321 320 315Q344 307 364 293.5Q384 280 398 261.5Q412 243 419.5 220Q427 197 427 172Q427 134 413.5 101Q400 68 374.5 43.5Q349 19 312.5 5Q276 -9 229 -9Q185 -9 147.5 4Q110 17 82.5 41Q55 65 38 99Q21 133 17 175H94Q102 122 136.5 90.5Q171 59 229 59Q284 59 318 89.5Q352 120 352 171Q352 197 342.5 217.5Q333 238 315.5 252Q298 266 275.5 273.5Q253 281 227 281H184Z" glyph-name="three" horiz-adv-x="460" unicode="3" /><glyph d="M216 348H260Q285 348 306.5 354.5Q328 361 344 374.5Q360 388 369 407Q378 426 378 451Q378 496 345.5 525.5Q313 555 260 555Q207 555 175 524.5Q143 494 136 446H58Q64 485 80.5 517.5Q97 550 123.5 573.5Q150 597 185 610Q220 623 261 623Q306 623 342 610.5Q378 598 402.5 576Q427 554 440 522.5Q453 491 453 455Q453 429 445.5 406.5Q438 384 425 366Q412 348 394 334.5Q376 321 356 315Q381 307 401 293.5Q421 280 435.5 261Q450 242 458 219Q466 196 466 170Q466 133 452 100Q438 67 412 43Q386 19 348 5Q310 -9 263 -9Q216 -9 178 3.5Q140 16 112 40.5Q84 65 67.5 99Q51 133 46 175H125Q133 122 167 90.5Q201 59 262 59Q318 59 353.5 90Q389 121 389 171Q389 197 379.5 217.5Q370 238 352 252Q334 266 311 273.5Q288 281 261 281H216Z" glyph-name="three.lt" horiz-adv-x="520" /><glyph d="M180 0H112L541 614H608ZM140 475H164Q186 475 200.5 486.5Q215 498 215 520Q215 540 201.5 552.5Q188 565 166 565Q145 565 131 551Q117 537 114 516H51Q54 537 63 556Q72 575 86.5 589Q101 603 121 611Q141 619 165 619Q216 619 245 592Q274 565 274 522Q274 497 261.5 477.5Q249 458 229 450Q253 442 266 422.5Q279 403 279 378Q279 334 249.5 305Q220 276 166 276Q112 276 81.5 304.5Q51 333 46 382H111Q114 358 128.5 344Q143 330 167 330Q191 330 205.5 343Q220 356 220 379Q220 402 204.5 414Q189 426 166 426H140ZM469 122H549V189H605V122H658V68H605V0H549V68H400V116L513 333H576Z" glyph-name="threequarters" horiz-adv-x="707" unicode="&#190;" /><glyph d="M114 475H138Q160 475 174.5 486.5Q189 498 189 520Q189 540 175.5 552.5Q162 565 140 565Q119 565 105 551.5Q91 538 88 517H25Q28 538 37 557Q46 576 60.5 590Q75 604 95 611.5Q115 619 139 619Q190 619 219 592Q248 565 248 523Q248 498 235.5 478Q223 458 203 451Q227 442 240 422.5Q253 403 253 378Q253 334 223.5 305.5Q194 277 140 277Q86 277 55.5 305Q25 333 20 382H85Q88 358 102.5 344.5Q117 331 141 331Q165 331 179.5 344Q194 357 194 380Q194 402 178.5 414.5Q163 427 140 427H114Z" glyph-name="threesuperior" horiz-adv-x="280" unicode="&#179;" /><glyph d="M382 633Q382 607 377 585Q372 563 362.5 547.5Q353 532 338.5 523.5Q324 515 305 515Q288 515 274 524Q260 533 248 544Q236 555 224.5 564Q213 573 201 573Q184 573 176 558Q168 543 167 518H119Q119 544 123.5 566Q128 588 138 603.5Q148 619 162 627.5Q176 636 195 636Q213 636 227 627Q241 618 253.5 607Q266 596 276.5 587Q287 578 299 578Q316 578 324.5 593Q333 608 333 633Z" glyph-name="tilde" horiz-adv-x="500" unicode="&#732;" /><glyph d="M384 784Q384 757 379.5 735Q375 713 365.5 697.5Q356 682 341.5 673.5Q327 665 308 665Q289 665 274.5 674Q260 683 247.5 693Q235 703 223 712Q211 721 197 721Q180 721 172 707.5Q164 694 163 668H115Q115 695 119.5 716.5Q124 738 134 754Q144 770 158 778.5Q172 787 191 787Q210 787 224.5 778.5Q239 770 251.5 759.5Q264 749 276 740Q288 731 302 731Q318 731 326.5 745Q335 759 336 784Z" glyph-name="tilde.cap" horiz-adv-x="500" /><glyph d="M18 614H235V568H153V360H100V568H18ZM391 360 326 528V360H275V614H340L409 435L478 614H542V360H491V528L427 360Z" glyph-name="trademark" horiz-adv-x="585" unicode="&#8482;" /><glyph d="M341 449Q341 496 311 524.5Q281 553 231 553Q175 553 145 518.5Q115 484 111 430H30Q34 473 50 508.5Q66 544 92 569.5Q118 595 153 609Q188 623 231 623Q275 623 309.5 611Q344 599 368.5 576Q393 553 405.5 521Q418 489 418 450Q418 421 407.5 394.5Q397 368 379.5 342.5Q362 317 339.5 292Q317 267 294 241L137 70H430V0H29V52L227 270Q251 296 272 319.5Q293 343 308 364.5Q323 386 332 406.5Q341 427 341 449Z" glyph-name="two" horiz-adv-x="458" unicode="2" /><glyph d="M367 449Q367 496 337 524.5Q307 553 255 553Q198 553 167.5 518.5Q137 484 133 430H52Q56 473 72.5 508.5Q89 544 115 569.5Q141 595 176.5 609Q212 623 255 623Q299 623 334.5 611Q370 599 394 576Q418 553 431 521Q444 489 444 450Q444 421 433 394Q422 367 405 341.5Q388 316 365 291.5Q342 267 318 241L160 70H456V0H51V52L252 270Q276 297 297 320Q318 343 333.5 364.5Q349 386 358 406.5Q367 427 367 449Z" glyph-name="two.lt" horiz-adv-x="520" /><glyph d="M183 519Q183 539 170.5 551Q158 563 138 563Q115 563 102 547.5Q89 532 87 511H22Q25 534 34 554Q43 574 58 588.5Q73 603 93 611Q113 619 138 619Q188 619 217 592Q246 565 246 520Q246 488 226.5 463Q207 438 182 412L108 336H249V282H23V325L135 442Q158 466 170.5 483Q183 500 183 519Z" glyph-name="twosuperior" horiz-adv-x="276" unicode="&#178;" /><glyph d="M421 0H345V56Q326 30 292.5 10.5Q259 -9 216 -9Q140 -9 100.5 35.5Q61 80 61 153V444H137V165Q137 119 160.5 89.5Q184 60 234 60Q273 60 303 83.5Q333 107 345 143V444H421Z" glyph-name="u" horiz-adv-x="487" unicode="u" /><glyph d="M421 0H345V56Q326 30 292.5 10.5Q259 -9 216 -9Q140 -9 100.5 35.5Q61 80 61 153V444H137V165Q137 119 160.5 89.5Q184 60 234 60Q273 60 303 83.5Q333 107 345 143V444H421ZM203 516 283 650H362L273 516Z" glyph-name="uacute" horiz-adv-x="487" unicode="&#250;" /><glyph d="M421 0H345V56Q326 30 292.5 10.5Q259 -9 216 -9Q140 -9 100.5 35.5Q61 80 61 153V444H137V165Q137 119 160.5 89.5Q184 60 234 60Q273 60 303 83.5Q333 107 345 143V444H421ZM244 500Q219 500 198 508.5Q177 517 162 533Q147 549 138.5 573Q130 597 130 628H187Q187 594 201.5 574.5Q216 555 244 555Q272 555 286.5 574.5Q301 594 301 628H358Q358 597 349.5 573Q341 549 326 533Q311 517 290 508.5Q269 500 244 500Z" glyph-name="ubreve" horiz-adv-x="487" unicode="&#365;" /><glyph d="M421 0H345V56Q326 30 292.5 10.5Q259 -9 216 -9Q140 -9 100.5 35.5Q61 80 61 153V444H137V165Q137 119 160.5 89.5Q184 60 234 60Q273 60 303 83.5Q333 107 345 143V444H421ZM372 509H306L245 597L183 509H117L210 645H279Z" glyph-name="ucircumflex" horiz-adv-x="487" unicode="&#251;" /><glyph d="M421 0H345V56Q326 30 292.5 10.5Q259 -9 216 -9Q140 -9 100.5 35.5Q61 80 61 153V444H137V165Q137 119 160.5 89.5Q184 60 234 60Q273 60 303 83.5Q333 107 345 143V444H421ZM128 571Q128 592 141.5 605Q155 618 175 618Q184 618 192.5 614.5Q201 611 207 604.5Q213 598 217 590Q221 582 221 571Q221 552 207.5 538.5Q194 525 175 525Q155 525 141.5 538.5Q128 552 128 571ZM268 571Q268 592 281.5 605Q295 618 314 618Q324 618 332 614.5Q340 611 347 604.5Q354 598 357.5 590Q361 582 361 571Q361 552 347 538.5Q333 525 314 525Q295 525 281.5 538.5Q268 552 268 571Z" glyph-name="udieresis" horiz-adv-x="487" unicode="&#252;" /><glyph d="M421 0H345V56Q326 30 292.5 10.5Q259 -9 216 -9Q140 -9 100.5 35.5Q61 80 61 153V444H137V165Q137 119 160.5 89.5Q184 60 234 60Q273 60 303 83.5Q333 107 345 143V444H421ZM213 516 124 650H203L283 516Z" glyph-name="ugrave" horiz-adv-x="487" unicode="&#249;" /><glyph d="M421 0H345V56Q326 30 292.5 10.5Q259 -9 216 -9Q140 -9 100.5 35.5Q61 80 61 153V444H137V165Q137 119 160.5 89.5Q184 60 234 60Q273 60 303 83.5Q333 107 345 143V444H421ZM148 516 215 650H279L211 516ZM267 516 334 650H398L331 516Z" glyph-name="uhungarumlaut" horiz-adv-x="487" unicode="&#369;" /><glyph d="M421 0H345V56Q326 30 292.5 10.5Q259 -9 216 -9Q140 -9 100.5 35.5Q61 80 61 153V444H137V165Q137 119 160.5 89.5Q184 60 234 60Q273 60 303 83.5Q333 107 345 143V444H421ZM138 591H352V530H138Z" glyph-name="umacron" horiz-adv-x="487" unicode="&#363;" /><glyph d="M20 -42H347V-110H20Z" glyph-name="underscore" horiz-adv-x="367" unicode="_" /><glyph glyph-name="uni00A0" horiz-adv-x="221" unicode="&#160;" /><glyph d="M40 296H281V226H40Z" glyph-name="uni00AD" horiz-adv-x="321" unicode="&#173;" /><glyph d="M141 0H73L502 614H569ZM492 193H516Q538 193 552.5 205Q567 217 567 239Q567 259 553.5 271.5Q540 284 518 284Q497 284 483 270Q469 256 466 235H403Q406 256 415 275Q424 294 438.5 308Q453 322 472.5 330Q492 338 516 338Q568 338 597 311Q626 284 626 241Q626 216 613.5 196.5Q601 177 581 169Q604 161 617.5 141Q631 121 631 97Q631 52 601.5 23.5Q572 -5 518 -5Q464 -5 433.5 23.5Q403 52 398 100H463Q466 77 480.5 63Q495 49 519 49Q543 49 557.5 62Q572 75 572 98Q572 120 556.5 132.5Q541 145 518 145H492ZM192 282H129V541L41 497V561L149 615H192Z" glyph-name="uni2153" horiz-adv-x="685" unicode="&#8531;" /><glyph d="M200 0H133L562 614H629ZM209 522Q209 542 196.5 553.5Q184 565 164 565Q141 565 128 550Q115 535 113 513H48Q51 537 60 556.5Q69 576 84 591Q99 606 119 614Q139 622 164 622Q214 622 243 595Q272 568 272 523Q272 491 252.5 466Q233 441 208 414L134 339H275V284H49V327L161 444Q184 469 196.5 486Q209 503 209 522ZM552 193H575Q597 193 612 205Q627 217 627 239Q627 259 613.5 271.5Q600 284 578 284Q556 284 542 270Q528 256 525 235H463Q466 256 475 275Q484 294 498 308Q512 322 532 330Q552 338 576 338Q628 338 657 311Q686 284 686 241Q686 216 673 196.5Q660 177 641 169Q664 161 677.5 141Q691 121 691 97Q691 52 661.5 23.5Q632 -5 577 -5Q524 -5 493 23.5Q462 52 458 100H523Q526 77 540 63Q554 49 579 49Q602 49 616.5 62Q631 75 631 98Q631 120 616 132.5Q601 145 577 145H552Z" glyph-name="uni2154" horiz-adv-x="745" unicode="&#8532;" /><glyph d="M141 0H73L502 614H569ZM520 46Q545 46 561 60Q577 74 577 97Q577 119 561 133Q545 147 520 147Q494 147 478 133Q462 119 462 97Q462 74 478 60Q494 46 520 46ZM520 199Q541 199 555 211.5Q569 224 569 244Q569 264 555 276.5Q541 289 520 289Q498 289 483.5 276.5Q469 264 469 244Q469 224 483.5 211.5Q498 199 520 199ZM520 -4Q494 -4 472.5 2.5Q451 9 434.5 21.5Q418 34 408.5 52Q399 70 399 92Q399 123 416 143.5Q433 164 458 172Q437 182 424 201Q411 220 411 245Q411 267 419.5 284.5Q428 302 443 313.5Q458 325 477.5 331.5Q497 338 520 338Q541 338 561 331.5Q581 325 595.5 313.5Q610 302 619 284.5Q628 267 628 245Q628 220 614.5 201Q601 182 580 172Q605 164 622 143.5Q639 123 639 92Q639 70 629.5 52Q620 34 604 21.5Q588 9 566.5 2.5Q545 -4 520 -4ZM192 282H129V541L41 497V561L149 615H192Z" glyph-name="uni215B" horiz-adv-x="692" unicode="&#8539;" /><glyph d="M558 46Q584 46 600 60Q616 74 616 97Q616 119 600 133Q584 147 558 147Q532 147 516 133Q500 119 500 97Q500 74 516 60Q532 46 558 46ZM558 199Q580 199 593.5 211.5Q607 224 607 244Q607 264 593.5 276.5Q580 289 558 289Q536 289 522 276.5Q508 264 508 244Q508 224 522 211.5Q536 199 558 199ZM558 -4Q533 -4 511 2.5Q489 9 473 21.5Q457 34 447.5 52Q438 70 438 92Q438 123 455 143.5Q472 164 497 172Q476 182 463 201Q450 220 450 245Q450 267 458.5 284.5Q467 302 481.5 313.5Q496 325 516 331.5Q536 338 558 338Q580 338 600 331.5Q620 325 634.5 313.5Q649 302 657.5 284.5Q666 267 666 245Q666 220 653 201Q640 182 618 172Q643 164 660 143.5Q677 123 677 92Q677 70 668 52Q659 34 643 21.5Q627 9 605 2.5Q583 -4 558 -4ZM179 0H112L540 614H608ZM140 475H164Q186 475 200.5 486.5Q215 498 215 520Q215 540 201.5 552.5Q188 565 166 565Q145 565 131 551.5Q117 538 114 517H51Q54 538 63 557Q72 576 86.5 590Q101 604 121 611.5Q141 619 165 619Q216 619 245 592Q274 565 274 523Q274 498 261.5 478Q249 458 229 451Q253 442 266 422.5Q279 403 279 378Q279 334 249.5 305.5Q220 277 166 277Q112 277 81.5 305Q51 333 46 382H111Q114 358 128.5 344.5Q143 331 167 331Q191 331 205.5 344Q220 357 220 380Q220 402 204.5 414.5Q189 427 166 427H140Z" glyph-name="uni215C" horiz-adv-x="730" unicode="&#8540;" /><glyph d="M562 46Q588 46 604 60Q620 74 620 97Q620 119 604 133Q588 147 562 147Q537 147 521 133Q505 119 505 97Q505 74 521 60Q537 46 562 46ZM562 199Q584 199 598 211.5Q612 224 612 244Q612 264 598 276.5Q584 289 562 289Q541 289 526.5 276.5Q512 264 512 244Q512 224 526.5 211.5Q541 199 562 199ZM562 -4Q537 -4 515 2.5Q493 9 477 21.5Q461 34 451.5 52Q442 70 442 92Q442 123 459 143.5Q476 164 501 172Q480 182 467 201Q454 220 454 245Q454 267 462.5 284.5Q471 302 486 313.5Q501 325 520.5 331.5Q540 338 562 338Q584 338 604 331.5Q624 325 638.5 313.5Q653 302 662 284.5Q671 267 671 245Q671 220 657.5 201Q644 182 622 172Q648 164 665 143.5Q682 123 682 92Q682 70 672.5 52Q663 34 647 21.5Q631 9 609.5 2.5Q588 -4 562 -4ZM184 0H116L545 614H612ZM172 446Q155 446 143 439.5Q131 433 123 423H69V614H264V559H122V483Q130 489 145 494Q160 499 177 499Q226 499 255.5 468Q285 437 285 389Q285 339 254 308Q223 277 172 277Q118 277 86.5 305Q55 333 50 382H115Q119 360 133.5 345.5Q148 331 172 331Q195 331 210 347.5Q225 364 225 388Q225 413 210.5 429.5Q196 446 172 446Z" glyph-name="uni215D" horiz-adv-x="735" unicode="&#8541;" /><glyph d="M502 46Q527 46 543.5 60Q560 74 560 97Q560 119 543.5 133Q527 147 502 147Q476 147 460 133Q444 119 444 97Q444 74 460 60Q476 46 502 46ZM502 199Q523 199 537 211.5Q551 224 551 244Q551 264 537 276.5Q523 289 502 289Q480 289 466 276.5Q452 264 452 244Q452 224 466 211.5Q480 199 502 199ZM502 -4Q477 -4 455 2.5Q433 9 417 21.5Q401 34 391.5 52Q382 70 382 92Q382 123 399 143.5Q416 164 441 172Q420 182 406.5 201Q393 220 393 245Q393 267 401.5 284.5Q410 302 425 313.5Q440 325 460 331.5Q480 338 502 338Q524 338 544 331.5Q564 325 578.5 313.5Q593 302 601.5 284.5Q610 267 610 245Q610 220 596.5 201Q583 182 562 172Q587 164 604 143.5Q621 123 621 92Q621 70 612 52Q603 34 587 21.5Q571 9 549 2.5Q527 -4 502 -4ZM123 0H56L484 614H552ZM161 281H96L203 557H46V614H270V568Z" glyph-name="uni215E" horiz-adv-x="674" unicode="&#8542;" /><glyph d="M421 0Q407 -25 397.5 -41Q388 -57 382.5 -68.5Q377 -80 374.5 -88.5Q372 -97 372 -106Q372 -119 378 -125.5Q384 -132 395 -132Q404 -132 412.5 -128Q421 -124 432 -117V-167Q421 -176 408 -181Q395 -186 379 -186Q363 -186 350.5 -181.5Q338 -177 329.5 -168.5Q321 -160 317 -147.5Q313 -135 313 -120Q313 -106 316.5 -92.5Q320 -79 327 -65Q334 -51 343.5 -35Q353 -19 365 0H345V56Q326 30 292.5 10.5Q259 -9 216 -9Q140 -9 100.5 35.5Q61 80 61 153V444H137V165Q137 119 160.5 89.5Q184 60 234 60Q273 60 303 83.5Q333 107 345 143V444H421Z" glyph-name="uogonek" horiz-adv-x="488" unicode="&#371;" /><glyph d="M421 0H345V56Q326 30 292.5 10.5Q259 -9 216 -9Q140 -9 100.5 35.5Q61 80 61 153V444H137V165Q137 119 160.5 89.5Q184 60 234 60Q273 60 303 83.5Q333 107 345 143V444H421ZM332 580Q332 561 325.5 545.5Q319 530 306.5 518.5Q294 507 278 500.5Q262 494 245 494Q226 494 210.5 500.5Q195 507 182.5 518.5Q170 530 163.5 545.5Q157 561 157 580Q157 598 163.5 614Q170 630 182.5 641.5Q195 653 210.5 659.5Q226 666 245 666Q262 666 278 659.5Q294 653 306.5 641.5Q319 630 325.5 614Q332 598 332 580ZM290 580Q290 599 276.5 612Q263 625 245 625Q226 625 212.5 612Q199 599 199 580Q199 561 212.5 548Q226 535 245 535Q263 535 276.5 548Q290 561 290 580Z" glyph-name="uring" horiz-adv-x="487" unicode="&#367;" /><glyph d="M421 0H345V56Q326 30 292.5 10.5Q259 -9 216 -9Q140 -9 100.5 35.5Q61 80 61 153V444H137V165Q137 119 160.5 89.5Q184 60 234 60Q273 60 303 83.5Q333 107 345 143V444H421ZM376 633Q376 607 371 585Q366 563 356.5 547.5Q347 532 332.5 523.5Q318 515 299 515Q282 515 268 524Q254 533 242 544Q230 555 218.5 564Q207 573 195 573Q178 573 170 558Q162 543 161 518H113Q113 544 117.5 566Q122 588 132 603.5Q142 619 156 627.5Q170 636 189 636Q207 636 221 627Q235 618 247.5 607Q260 596 270.5 587Q281 578 293 578Q310 578 318.5 593Q327 608 327 633Z" glyph-name="utilde" horiz-adv-x="487" unicode="&#361;" /><glyph d="M190 0 18 444H99L229 95L358 444H437L265 0Z" glyph-name="v" horiz-adv-x="455" unicode="v" /><glyph d="M440 105 538 444H611L480 0H407L315 336L222 0H149L18 444H94L191 105L282 444H349Z" glyph-name="w" horiz-adv-x="629" unicode="w" /><glyph d="M440 105 538 444H611L480 0H407L315 336L222 0H149L18 444H94L191 105L282 444H349ZM275 516 355 650H434L345 516Z" glyph-name="wacute" horiz-adv-x="629" unicode="&#7811;" /><glyph d="M440 105 538 444H611L480 0H407L315 336L222 0H149L18 444H94L191 105L282 444H349ZM442 509H376L315 597L253 509H187L280 645H349Z" glyph-name="wcircumflex" horiz-adv-x="629" unicode="&#373;" /><glyph d="M440 105 538 444H611L480 0H407L315 336L222 0H149L18 444H94L191 105L282 444H349ZM199 571Q199 592 212.5 605Q226 618 246 618Q255 618 263.5 614.5Q272 611 278 604.5Q284 598 288 590Q292 582 292 571Q292 552 278.5 538.5Q265 525 246 525Q226 525 212.5 538.5Q199 552 199 571ZM339 571Q339 592 352.5 605Q366 618 385 618Q395 618 403 614.5Q411 611 418 604.5Q425 598 428.5 590Q432 582 432 571Q432 552 418 538.5Q404 525 385 525Q366 525 352.5 538.5Q339 552 339 571Z" glyph-name="wdieresis" horiz-adv-x="629" unicode="&#7813;" /><glyph d="M440 105 538 444H611L480 0H407L315 336L222 0H149L18 444H94L191 105L282 444H349ZM284 516 195 650H274L354 516Z" glyph-name="wgrave" horiz-adv-x="629" unicode="&#7809;" /><glyph d="M266 230 431 0H345L222 172L99 0H17L182 227L27 444H113L225 285L340 444H421Z" glyph-name="x" horiz-adv-x="448" unicode="x" /><glyph d="M124 -170 191 -3 18 444H100L230 94L359 444H437L198 -170Z" glyph-name="y" horiz-adv-x="455" unicode="y" /><glyph d="M124 -170 191 -3 18 444H100L230 94L359 444H437L198 -170ZM188 516 268 650H347L258 516Z" glyph-name="yacute" horiz-adv-x="455" unicode="&#253;" /><glyph d="M124 -170 191 -3 18 444H100L230 94L359 444H437L198 -170ZM356 509H290L229 597L167 509H101L194 645H263Z" glyph-name="ycircumflex" horiz-adv-x="455" unicode="&#375;" /><glyph d="M124 -170 191 -3 18 444H100L230 94L359 444H437L198 -170ZM113 571Q113 592 126.5 605Q140 618 160 618Q169 618 177.5 614.5Q186 611 192 604.5Q198 598 202 590Q206 582 206 571Q206 552 192.5 538.5Q179 525 160 525Q140 525 126.5 538.5Q113 552 113 571ZM253 571Q253 592 266.5 605Q280 618 299 618Q309 618 317 614.5Q325 611 332 604.5Q339 598 342.5 590Q346 582 346 571Q346 552 332 538.5Q318 525 299 525Q280 525 266.5 538.5Q253 552 253 571Z" glyph-name="ydieresis" horiz-adv-x="455" unicode="&#255;" /><glyph d="M71 194H228V264H71V323H198L25 614H109L269 339L427 614H509L336 323H463V264H306V194H463V134H306V0H228V134H71Z" glyph-name="yen" horiz-adv-x="534" unicode="&#165;" /><glyph d="M63 194H220V264H63V323H191L24 614H108L261 339L413 614H495L327 323H455V264H298V194H455V134H298V0H220V134H63Z" glyph-name="yen.lt" horiz-adv-x="520" /><glyph d="M124 -170 191 -3 18 444H100L230 94L359 444H437L198 -170ZM198 516 109 650H188L268 516Z" glyph-name="ygrave" horiz-adv-x="455" unicode="&#7923;" /><glyph d="M390 0H41V50L289 380H49V444H386V394L139 64H390Z" glyph-name="z" horiz-adv-x="434" unicode="z" /><glyph d="M390 0H41V50L289 380H49V444H386V394L139 64H390ZM184 516 264 650H343L254 516Z" glyph-name="zacute" horiz-adv-x="434" unicode="&#378;" /><glyph d="M390 0H41V50L289 380H49V444H386V394L139 64H390ZM259 510H190L97 646H163L225 559L286 646H352Z" glyph-name="zcaron" horiz-adv-x="434" unicode="&#382;" /><glyph d="M390 0H41V50L289 380H49V444H386V394L139 64H390ZM273 578Q273 558 259 544Q245 530 225 530Q204 530 190 544Q176 558 176 578Q176 599 190 613Q204 627 225 627Q245 627 259 613Q273 599 273 578Z" glyph-name="zdotaccent" horiz-adv-x="434" unicode="&#380;" /><glyph d="M269 -9Q218 -9 175.5 14Q133 37 103 78.5Q73 120 56.5 178.5Q40 237 40 307Q40 377 56.5 435.5Q73 494 103 535.5Q133 577 175.5 600Q218 623 269 623Q320 623 362.5 600Q405 577 435 535.5Q465 494 481.5 435.5Q498 377 498 307Q498 237 481.5 178.5Q465 120 435 78.5Q405 37 362.5 14Q320 -9 269 -9ZM269 552Q231 552 203 534Q175 516 155.5 483Q136 450 126.5 405Q117 360 117 307Q117 254 126.5 209Q136 164 155.5 131Q175 98 203 80Q231 62 269 62Q306 62 334.5 80Q363 98 382 131Q401 164 410.5 209Q420 254 420 307Q420 360 410.5 405Q401 450 382 483Q363 516 334.5 534Q306 552 269 552Z" glyph-name="zero" horiz-adv-x="538" unicode="0" /><glyph d="M260 -9Q209 -9 166.5 14Q124 37 94 78.5Q64 120 48 178.5Q32 237 32 307Q32 377 48 435.5Q64 494 94 535.5Q124 577 166.5 600Q209 623 260 623Q312 623 354 600Q396 577 426 535.5Q456 494 472 435.5Q488 377 488 307Q488 237 472 178.5Q456 120 426 78.5Q396 37 354 14Q312 -9 260 -9ZM260 552Q223 552 194.5 534Q166 516 147 483Q128 450 118.5 405Q109 360 109 307Q109 254 118.5 209Q128 164 147 131Q166 98 194.5 80Q223 62 260 62Q297 62 325.5 80Q354 98 373 131Q392 164 401.5 209Q411 254 411 307Q411 360 401.5 405Q392 450 373 483Q354 516 325.5 534Q297 552 260 552Z" glyph-name="zero.lt" horiz-adv-x="520" /></font>
</defs>
</svg>
