<?xml version="1.0" standalone="no"?><!DOCTYPE svg PUBLIC "-//W3C//DTD SVG 1.1//EN" "http://www.w3.org/Graphics/SVG/1.1/DTD/svg11.dtd" ><svg version="1.1" xmlns="http://www.w3.org/2000/svg"><defs><font horiz-adv-x="0" id="font"><font-face ascent="793" bbox="-120 -183 871 893" cap-height="614" descent="-207" font-family="Copyright Klim Type Foundry" font-stretch="normal" font-style="normal" font-weight="300" units-per-em="1000" x-height="444" /><missing-glyph horiz-adv-x="221" /><glyph d="M314 614 557 0H505L425 201H154L75 0H23L266 614ZM172 249H407L289 547Z" glyph-name="A" horiz-adv-x="580" unicode="A" /><glyph d="M77 0H23L405 614H802V566H485V340H771V293H485V48H802V0H434V201H203ZM434 249V569L233 249Z" glyph-name="AE" horiz-adv-x="858" unicode="&#198;" /><glyph d="M77 0H23L405 614H802V566H485V340H771V293H485V48H802V0H434V201H203ZM434 249V569L233 249ZM568 665 651 782H707L620 665Z" glyph-name="AEacute" horiz-adv-x="858" unicode="&#508;" /><glyph d="M314 614 557 0H505L425 201H154L75 0H23L266 614ZM172 249H407L289 547ZM264 665 347 782H403L316 665Z" glyph-name="Aacute" horiz-adv-x="580" unicode="&#193;" /><glyph d="M314 614 557 0H505L425 201H154L75 0H23L266 614ZM172 249H407L289 547ZM290 664Q267 664 248 671.5Q229 679 215.5 694Q202 709 194.5 730.5Q187 752 187 781H227Q227 743 244.5 723Q262 703 290 703Q318 703 335.5 723Q353 743 353 781H393Q393 752 385.5 730.5Q378 709 364 694Q350 679 331 671.5Q312 664 290 664Z" glyph-name="Abreve" horiz-adv-x="580" unicode="&#258;" /><glyph d="M314 614 557 0H505L425 201H154L75 0H23L266 614ZM172 249H407L289 547ZM404 667H356L289 750L223 667H175L267 786H312Z" glyph-name="Acircumflex" horiz-adv-x="580" unicode="&#194;" /><glyph d="M314 614 557 0H505L425 201H154L75 0H23L266 614ZM172 249H407L289 547ZM194 715Q194 730 203.5 739Q213 748 227 748Q241 748 250.5 739Q260 730 260 715Q260 701 250.5 691.5Q241 682 227 682Q213 682 203.5 691.5Q194 701 194 715ZM319 715Q319 730 328.5 739Q338 748 352 748Q366 748 376 739Q386 730 386 715Q386 701 376 691.5Q366 682 352 682Q338 682 328.5 691.5Q319 701 319 715Z" glyph-name="Adieresis" horiz-adv-x="580" unicode="&#196;" /><glyph d="M314 614 557 0H505L425 201H154L75 0H23L266 614ZM172 249H407L289 547ZM264 665 176 782H233L315 665Z" glyph-name="Agrave" horiz-adv-x="580" unicode="&#192;" /><glyph d="M314 614 557 0H505L425 201H154L75 0H23L266 614ZM172 249H407L289 547ZM189 712H391V670H189Z" glyph-name="Amacron" horiz-adv-x="580" unicode="&#256;" /><glyph d="M314 614 557 0Q541 -27 531 -45Q521 -63 516 -76Q511 -89 509 -98Q507 -107 507 -116Q507 -131 514 -138Q521 -145 531 -145Q542 -145 550 -141.5Q558 -138 568 -130V-167Q558 -174 547.5 -178Q537 -182 524 -182Q511 -182 500 -178.5Q489 -175 481.5 -167Q474 -159 470 -148Q466 -137 466 -122Q466 -110 469 -98Q472 -86 478.5 -72Q485 -58 494.5 -40.5Q504 -23 517 0H505L425 201H154L75 0H23L266 614ZM172 249H407L289 547Z" glyph-name="Aogonek" horiz-adv-x="580" unicode="&#260;" /><glyph d="M314 614 557 0H505L425 201H154L75 0H23L266 614ZM172 249H407L289 547ZM371 729Q371 711 365 696.5Q359 682 347.5 671Q336 660 321 654Q306 648 290 648Q272 648 257.5 654Q243 660 232 671Q221 682 214.5 696.5Q208 711 208 729Q208 745 214.5 760Q221 775 232 786Q243 797 257.5 803.5Q272 810 290 810Q306 810 321 803.5Q336 797 347.5 786Q359 775 365 760Q371 745 371 729ZM339 729Q339 749 324.5 763.5Q310 778 290 778Q269 778 254.5 763.5Q240 749 240 729Q240 708 254.5 693.5Q269 679 290 679Q310 679 324.5 693.5Q339 708 339 729Z" glyph-name="Aring" horiz-adv-x="580" unicode="&#197;" /><glyph d="M137 201H153L75 0H23L266 614H314L557 0H505L425 201H440V249H406L289 547L172 249H137ZM374 711Q374 682 349.5 661.5Q325 641 289 641Q255 641 230.5 661.5Q206 682 206 711Q206 727 212.5 740Q219 753 230 762Q241 771 256.5 777Q272 783 289 783Q307 783 322 777Q337 771 349 762Q361 753 367.5 740Q374 727 374 711ZM153 201H425L406 249H172ZM341 711Q341 730 326 741.5Q311 753 289 753Q268 753 253.5 741.5Q239 730 239 711Q239 694 253.5 682.5Q268 671 289 671Q311 671 326 682.5Q341 694 341 711ZM267 810 325 893H379L315 810Z" glyph-name="Aringacute" horiz-adv-x="580" unicode="&#506;" /><glyph d="M314 614 557 0H505L425 201H154L75 0H23L266 614ZM172 249H407L289 547ZM415 770Q415 746 410.5 726.5Q406 707 397.5 693Q389 679 376 672Q363 665 346 665Q327 665 312.5 675Q298 685 285.5 696.5Q273 708 261.5 718Q250 728 236 728Q218 728 209 712Q200 696 200 668H164Q164 691 168.5 710.5Q173 730 181.5 743.5Q190 757 203 765Q216 773 233 773Q252 773 266.5 763Q281 753 293.5 741Q306 729 317.5 719Q329 709 343 709Q361 709 370 725.5Q379 742 379 770Z" glyph-name="Atilde" horiz-adv-x="580" unicode="&#195;" /><glyph d="M363 318Q392 314 414.5 300Q437 286 453 266Q469 246 477.5 221Q486 196 486 169Q486 88 433.5 44Q381 0 286 0H79V614H268Q362 614 413 573Q464 532 464 455Q464 425 455.5 402Q447 379 433 362.5Q419 346 401 335Q383 324 363 318ZM267 338Q338 338 375.5 366.5Q413 395 413 452Q413 511 375.5 539Q338 567 267 567H130V338ZM130 47H290Q361 47 398 80.5Q435 114 435 170Q435 226 398 260Q361 294 290 294H130Z" glyph-name="B" horiz-adv-x="524" unicode="B" /><glyph d="M39 307Q39 379 60 437.5Q81 496 117.5 537.5Q154 579 203.5 601Q253 623 309 623Q354 623 391.5 610Q429 597 458 574Q487 551 507.5 518.5Q528 486 537 447H486Q467 506 422 540Q377 574 309 574Q262 574 222 555.5Q182 537 153 502Q124 467 108 418Q92 369 92 307Q92 245 108 195.5Q124 146 153 111.5Q182 77 222 58.5Q262 40 309 40Q377 40 422 74Q467 108 486 168H537Q528 128 507.5 95.5Q487 63 458 40Q429 17 391.5 4Q354 -9 309 -9Q253 -9 203.5 13Q154 35 117.5 76.5Q81 118 60 176Q39 234 39 307Z" glyph-name="C" horiz-adv-x="575" unicode="C" /><glyph d="M39 307Q39 379 60 437.5Q81 496 117.5 537.5Q154 579 203.5 601Q253 623 309 623Q354 623 391.5 610Q429 597 458 574Q487 551 507.5 518.5Q528 486 537 447H486Q467 506 422 540Q377 574 309 574Q262 574 222 555.5Q182 537 153 502Q124 467 108 418Q92 369 92 307Q92 245 108 195.5Q124 146 153 111.5Q182 77 222 58.5Q262 40 309 40Q377 40 422 74Q467 108 486 168H537Q528 128 507.5 95.5Q487 63 458 40Q429 17 391.5 4Q354 -9 309 -9Q253 -9 203.5 13Q154 35 117.5 76.5Q81 118 60 176Q39 234 39 307ZM283 665 366 782H422L335 665Z" glyph-name="Cacute" horiz-adv-x="575" unicode="&#262;" /><glyph d="M39 307Q39 379 60 437.5Q81 496 117.5 537.5Q154 579 203.5 601Q253 623 309 623Q354 623 391.5 610Q429 597 458 574Q487 551 507.5 518.5Q528 486 537 447H486Q467 506 422 540Q377 574 309 574Q262 574 222 555.5Q182 537 153 502Q124 467 108 418Q92 369 92 307Q92 245 108 195.5Q124 146 153 111.5Q182 77 222 58.5Q262 40 309 40Q377 40 422 74Q467 108 486 168H537Q528 128 507.5 95.5Q487 63 458 40Q429 17 391.5 4Q354 -9 309 -9Q253 -9 203.5 13Q154 35 117.5 76.5Q81 118 60 176Q39 234 39 307ZM198 779H246L312 696L379 779H427L335 660H290Z" glyph-name="Ccaron" horiz-adv-x="575" unicode="&#268;" /><glyph d="M39 307Q39 379 60 437.5Q81 496 117.5 537.5Q154 579 203.5 601Q253 623 309 623Q354 623 391.5 610Q429 597 458 574Q487 551 507.5 518.5Q528 486 537 447H486Q467 506 422 540Q377 574 309 574Q262 574 222 555.5Q182 537 153 502Q124 467 108 418Q92 369 92 307Q92 245 108 195.5Q124 146 153 111.5Q182 77 222 58.5Q262 40 309 40Q377 40 422 74Q467 108 486 168H537Q528 128 507.5 95.5Q487 63 458 40Q429 17 391.5 4Q354 -9 309 -9Q253 -9 203.5 13Q154 35 117.5 76.5Q81 118 60 176Q39 234 39 307ZM231 -176 291 -48H340L278 -176Z" glyph-name="Ccedilla" horiz-adv-x="575" unicode="&#199;" /><glyph d="M39 307Q39 379 60 437.5Q81 496 117.5 537.5Q154 579 203.5 601Q253 623 309 623Q354 623 391.5 610Q429 597 458 574Q487 551 507.5 518.5Q528 486 537 447H486Q467 506 422 540Q377 574 309 574Q262 574 222 555.5Q182 537 153 502Q124 467 108 418Q92 369 92 307Q92 245 108 195.5Q124 146 153 111.5Q182 77 222 58.5Q262 40 309 40Q377 40 422 74Q467 108 486 168H537Q528 128 507.5 95.5Q487 63 458 40Q429 17 391.5 4Q354 -9 309 -9Q253 -9 203.5 13Q154 35 117.5 76.5Q81 118 60 176Q39 234 39 307ZM429 667H381L314 750L248 667H200L292 786H337Z" glyph-name="Ccircumflex" horiz-adv-x="575" unicode="&#264;" /><glyph d="M39 307Q39 379 60 437.5Q81 496 117.5 537.5Q154 579 203.5 601Q253 623 309 623Q354 623 391.5 610Q429 597 458 574Q487 551 507.5 518.5Q528 486 537 447H486Q467 506 422 540Q377 574 309 574Q262 574 222 555.5Q182 537 153 502Q124 467 108 418Q92 369 92 307Q92 245 108 195.5Q124 146 153 111.5Q182 77 222 58.5Q262 40 309 40Q377 40 422 74Q467 108 486 168H537Q528 128 507.5 95.5Q487 63 458 40Q429 17 391.5 4Q354 -9 309 -9Q253 -9 203.5 13Q154 35 117.5 76.5Q81 118 60 176Q39 234 39 307ZM347 714Q347 700 337.5 690Q328 680 313 680Q298 680 288.5 690Q279 700 279 714Q279 729 288.5 739Q298 749 313 749Q328 749 337.5 739Q347 729 347 714Z" glyph-name="Cdotaccent" horiz-adv-x="575" unicode="&#266;" /><glyph d="M266 48Q323 48 368 66.5Q413 85 445 119Q477 153 494 200.5Q511 248 511 307Q511 366 494 414Q477 462 445 495.5Q413 529 368 547.5Q323 566 266 566H131V48ZM79 614H266Q333 614 388 592.5Q443 571 482 531Q521 491 542.5 434Q564 377 564 307Q564 237 542.5 180Q521 123 482 83Q443 43 388 21.5Q333 0 266 0H79Z" glyph-name="D" horiz-adv-x="603" unicode="D" /><glyph d="M266 48Q323 48 368 66.5Q413 85 445 119Q477 153 494 200.5Q511 248 511 307Q511 366 494 414Q477 462 445 495.5Q413 529 368 547.5Q323 566 266 566H131V48ZM79 614H266Q333 614 388 592.5Q443 571 482 531Q521 491 542.5 434Q564 377 564 307Q564 237 542.5 180Q521 123 482 83Q443 43 388 21.5Q333 0 266 0H79ZM163 779H211L277 696L344 779H392L300 660H255Z" glyph-name="Dcaron" horiz-adv-x="603" unicode="&#270;" /><glyph d="M34 340H93V614H280Q346 614 401 592.5Q456 571 495.5 531Q535 491 556.5 434Q578 377 578 307Q578 237 556.5 180Q535 123 495.5 83Q456 43 401 21.5Q346 0 280 0H93V295H34ZM280 48Q336 48 381.5 66.5Q427 85 458.5 119Q490 153 507.5 200.5Q525 248 525 307Q525 366 507.5 414Q490 462 458.5 495.5Q427 529 381.5 547.5Q336 566 280 566H144V340H274V295H144V48Z" glyph-name="Dcroat" horiz-adv-x="617" unicode="&#272;" /><glyph d="M460 614V566H130V340H429V293H130V48H460V0H79V614Z" glyph-name="E" horiz-adv-x="516" unicode="E" /><glyph d="M460 614V566H130V340H429V293H130V48H460V0H79V614ZM243 665 326 782H382L295 665Z" glyph-name="Eacute" horiz-adv-x="516" unicode="&#201;" /><glyph d="M460 614V566H130V340H429V293H130V48H460V0H79V614ZM274 664Q251 664 232 671.5Q213 679 199.5 694Q186 709 178.5 730.5Q171 752 171 781H211Q211 743 228.5 723Q246 703 274 703Q302 703 319.5 723Q337 743 337 781H377Q377 752 369.5 730.5Q362 709 348 694Q334 679 315 671.5Q296 664 274 664Z" glyph-name="Ebreve" horiz-adv-x="516" unicode="&#276;" /><glyph d="M460 614V566H130V340H429V293H130V48H460V0H79V614ZM162 779H210L276 696L343 779H391L299 660H254Z" glyph-name="Ecaron" horiz-adv-x="516" unicode="&#282;" /><glyph d="M460 614V566H130V340H429V293H130V48H460V0H79V614ZM389 667H341L274 750L208 667H160L252 786H297Z" glyph-name="Ecircumflex" horiz-adv-x="516" unicode="&#202;" /><glyph d="M460 614V566H130V340H429V293H130V48H460V0H79V614ZM178 715Q178 730 187.5 739Q197 748 211 748Q225 748 234.5 739Q244 730 244 715Q244 701 234.5 691.5Q225 682 211 682Q197 682 187.5 691.5Q178 701 178 715ZM303 715Q303 730 312.5 739Q322 748 336 748Q350 748 360 739Q370 730 370 715Q370 701 360 691.5Q350 682 336 682Q322 682 312.5 691.5Q303 701 303 715Z" glyph-name="Edieresis" horiz-adv-x="516" unicode="&#203;" /><glyph d="M460 614V566H130V340H429V293H130V48H460V0H79V614ZM308 714Q308 700 298.5 690Q289 680 274 680Q259 680 249.5 690Q240 700 240 714Q240 729 249.5 739Q259 749 274 749Q289 749 298.5 739Q308 729 308 714Z" glyph-name="Edotaccent" horiz-adv-x="516" unicode="&#278;" /><glyph d="M460 614V566H130V340H429V293H130V48H460V0H79V614ZM251 665 163 782H220L302 665Z" glyph-name="Egrave" horiz-adv-x="516" unicode="&#200;" /><glyph d="M460 614V566H130V340H429V293H130V48H460V0H79V614ZM174 712H376V670H174Z" glyph-name="Emacron" horiz-adv-x="516" unicode="&#274;" /><glyph d="M262 -96Q289 -116 314.5 -125Q340 -134 370 -134Q429 -134 458.5 -98.5Q488 -63 488 21L129 531V0H79V614H128L488 104V614H538V21Q538 -32 527 -70.5Q516 -109 494.5 -134Q473 -159 442 -171Q411 -183 372 -183Q336 -183 308.5 -172.5Q281 -162 262 -149Z" glyph-name="Eng" horiz-adv-x="617" unicode="&#330;" /><glyph d="M460 614V566H130V340H429V293H130V48H460V0H79V614ZM429 4Q413 -24 403 -42Q393 -60 387.5 -73.5Q382 -87 379.5 -97Q377 -107 377 -116Q377 -131 384 -138Q391 -145 402 -145Q412 -145 420.5 -141.5Q429 -138 439 -130V-167Q429 -174 418 -178Q407 -182 394 -182Q381 -182 370 -178.5Q359 -175 351.5 -167Q344 -159 340 -148Q336 -137 336 -122Q336 -110 339 -97.5Q342 -85 349 -70.5Q356 -56 366 -38Q376 -20 389 4Z" glyph-name="Eogonek" horiz-adv-x="516" unicode="&#280;" /><glyph d="M34 340H93V614H280Q346 614 401 592.5Q456 571 495.5 531Q535 491 556.5 434Q578 377 578 307Q578 237 556.5 180Q535 123 495.5 83Q456 43 401 21.5Q346 0 280 0H93V295H34ZM280 48Q336 48 381.5 66.5Q427 85 458.5 119Q490 153 507.5 200.5Q525 248 525 307Q525 366 507.5 414Q490 462 458.5 495.5Q427 529 381.5 547.5Q336 566 280 566H144V340H274V295H144V48Z" glyph-name="Eth" horiz-adv-x="617" unicode="&#208;" /><glyph d="M29 266H85Q84 286 84 307Q84 325 85 343H29V384H89Q94 412 102 438Q120 497 151 538Q182 579 224.5 601Q267 623 317 623Q354 623 385 611Q416 599 440.5 577.5Q465 556 482.5 525Q500 494 508 456H460Q444 512 408 544Q372 576 317 576Q277 576 243.5 557Q210 538 186 503Q162 468 149 418Q144 401 141 384H363L354 343H137Q136 325 136 307Q136 286 137 266H342L332 225H142Q145 210 149 196Q162 146 186 111Q210 76 243.5 57Q277 38 317 38Q372 38 408 70Q444 102 460 158H508Q500 120 482.5 89Q465 58 440.5 36.5Q416 15 385 3Q354 -9 317 -9Q267 -9 224.5 13Q182 35 151 76Q120 117 102 175Q94 199 90 225H29Z" glyph-name="Euro" horiz-adv-x="539" unicode="&#8364;" /><glyph d="M21 266H88Q87 286 87 307Q87 325 88 343H21V384H92Q96 412 104 438Q121 497 151 538Q181 579 222 601Q263 623 311 623Q346 623 376 611Q406 599 429.5 577.5Q453 556 469.5 525Q486 494 494 456H445Q430 512 396 544Q362 576 310 576Q272 576 240 557Q208 538 185.5 503Q163 468 150 418Q146 401 143 384H350L341 343H139Q138 325 138 307Q138 286 139 266H330L320 225H144Q147 210 150 196Q163 146 185.5 111Q208 76 240 57Q272 38 310 38Q362 38 396 70Q430 102 445 158H494Q486 120 469.5 89Q453 58 429.5 36.5Q406 15 376 3Q346 -9 311 -9Q263 -9 222 13Q181 35 151 76Q121 117 104 175Q97 199 93 225H21Z" glyph-name="Euro.lt" horiz-adv-x="520" /><glyph d="M79 0V614H435V566H131V333H419V286H131V0Z" glyph-name="F" horiz-adv-x="474" unicode="F" /><glyph d="M351 243V288H560V253Q560 194 543 145.5Q526 97 493.5 62.5Q461 28 415.5 9.5Q370 -9 314 -9Q257 -9 206.5 13Q156 35 119 76Q82 117 60.5 175.5Q39 234 39 307Q39 380 60.5 438.5Q82 497 119 538Q156 579 206.5 601Q257 623 314 623Q359 623 397.5 610Q436 597 465.5 574Q495 551 515.5 519Q536 487 545 447H493Q473 506 428 540Q383 574 314 574Q266 574 225.5 555.5Q185 537 155 502.5Q125 468 108.5 418.5Q92 369 92 307Q92 245 108.5 195.5Q125 146 154.5 111.5Q184 77 225 58Q266 39 314 39Q406 39 456.5 92.5Q507 146 511 243Z" glyph-name="G" horiz-adv-x="599" unicode="G" /><glyph d="M351 243V288H560V253Q560 194 543 145.5Q526 97 493.5 62.5Q461 28 415.5 9.5Q370 -9 314 -9Q257 -9 206.5 13Q156 35 119 76Q82 117 60.5 175.5Q39 234 39 307Q39 380 60.5 438.5Q82 497 119 538Q156 579 206.5 601Q257 623 314 623Q359 623 397.5 610Q436 597 465.5 574Q495 551 515.5 519Q536 487 545 447H493Q473 506 428 540Q383 574 314 574Q266 574 225.5 555.5Q185 537 155 502.5Q125 468 108.5 418.5Q92 369 92 307Q92 245 108.5 195.5Q125 146 154.5 111.5Q184 77 225 58Q266 39 314 39Q406 39 456.5 92.5Q507 146 511 243ZM317 664Q294 664 275 671.5Q256 679 242.5 694Q229 709 221.5 730.5Q214 752 214 781H254Q254 743 271.5 723Q289 703 317 703Q345 703 362.5 723Q380 743 380 781H420Q420 752 412.5 730.5Q405 709 391 694Q377 679 358 671.5Q339 664 317 664Z" glyph-name="Gbreve" horiz-adv-x="599" unicode="&#286;" /><glyph d="M351 243V288H560V253Q560 194 543 145.5Q526 97 493.5 62.5Q461 28 415.5 9.5Q370 -9 314 -9Q257 -9 206.5 13Q156 35 119 76Q82 117 60.5 175.5Q39 234 39 307Q39 380 60.5 438.5Q82 497 119 538Q156 579 206.5 601Q257 623 314 623Q359 623 397.5 610Q436 597 465.5 574Q495 551 515.5 519Q536 487 545 447H493Q473 506 428 540Q383 574 314 574Q266 574 225.5 555.5Q185 537 155 502.5Q125 468 108.5 418.5Q92 369 92 307Q92 245 108.5 195.5Q125 146 154.5 111.5Q184 77 225 58Q266 39 314 39Q406 39 456.5 92.5Q507 146 511 243ZM431 667H383L316 750L250 667H202L294 786H339Z" glyph-name="Gcircumflex" horiz-adv-x="599" unicode="&#284;" /><glyph d="M351 243V288H560V253Q560 194 543 145.5Q526 97 493.5 62.5Q461 28 415.5 9.5Q370 -9 314 -9Q257 -9 206.5 13Q156 35 119 76Q82 117 60.5 175.5Q39 234 39 307Q39 380 60.5 438.5Q82 497 119 538Q156 579 206.5 601Q257 623 314 623Q359 623 397.5 610Q436 597 465.5 574Q495 551 515.5 519Q536 487 545 447H493Q473 506 428 540Q383 574 314 574Q266 574 225.5 555.5Q185 537 155 502.5Q125 468 108.5 418.5Q92 369 92 307Q92 245 108.5 195.5Q125 146 154.5 111.5Q184 77 225 58Q266 39 314 39Q406 39 456.5 92.5Q507 146 511 243ZM314 -116Q302 -114 293.5 -105.5Q285 -97 285 -83Q285 -67 295.5 -57Q306 -47 321 -47Q337 -47 347 -57.5Q357 -68 357 -84Q357 -96 353 -105.5Q349 -115 343 -126L312 -183H278Z" glyph-name="Gcommaaccent" horiz-adv-x="599" unicode="&#290;" /><glyph d="M351 243V288H560V253Q560 194 543 145.5Q526 97 493.5 62.5Q461 28 415.5 9.5Q370 -9 314 -9Q257 -9 206.5 13Q156 35 119 76Q82 117 60.5 175.5Q39 234 39 307Q39 380 60.5 438.5Q82 497 119 538Q156 579 206.5 601Q257 623 314 623Q359 623 397.5 610Q436 597 465.5 574Q495 551 515.5 519Q536 487 545 447H493Q473 506 428 540Q383 574 314 574Q266 574 225.5 555.5Q185 537 155 502.5Q125 468 108.5 418.5Q92 369 92 307Q92 245 108.5 195.5Q125 146 154.5 111.5Q184 77 225 58Q266 39 314 39Q406 39 456.5 92.5Q507 146 511 243ZM351 714Q351 700 341.5 690Q332 680 317 680Q302 680 292.5 690Q283 700 283 714Q283 729 292.5 739Q302 749 317 749Q332 749 341.5 739Q351 729 351 714Z" glyph-name="Gdotaccent" horiz-adv-x="599" unicode="&#288;" /><glyph d="M571 614V0H519V293H131V0H79V614H131V340H519V614Z" glyph-name="H" horiz-adv-x="650" unicode="H" /><glyph d="M34 483H92V614H144V483H532V614H584V483H642V438H584V0H532V260H144V0H92V438H34ZM532 304V438H144V304Z" glyph-name="Hbar" horiz-adv-x="676" unicode="&#294;" /><glyph d="M571 614V0H519V293H131V0H79V614H131V340H519V614ZM439 667H391L324 750L258 667H210L302 786H347Z" glyph-name="Hcircumflex" horiz-adv-x="650" unicode="&#292;" /><glyph d="M131 0H79V614H131Z" glyph-name="I" horiz-adv-x="210" unicode="I" /><glyph d="M131 0H79V614H131ZM74 665 157 782H213L126 665Z" glyph-name="Iacute" horiz-adv-x="210" unicode="&#205;" /><glyph d="M131 0H79V614H131ZM106 664Q83 664 64 671.5Q45 679 31.5 694Q18 709 10.5 730.5Q3 752 3 781H43Q43 743 60.5 723Q78 703 106 703Q134 703 151.5 723Q169 743 169 781H209Q209 752 201.5 730.5Q194 709 180 694Q166 679 147 671.5Q128 664 106 664Z" glyph-name="Ibreve" horiz-adv-x="210" unicode="&#300;" /><glyph d="M131 0H79V614H131ZM220 667H172L105 750L39 667H-9L83 786H128Z" glyph-name="Icircumflex" horiz-adv-x="210" unicode="&#206;" /><glyph d="M131 0H79V614H131ZM10 715Q10 730 19.5 739Q29 748 43 748Q57 748 66.5 739Q76 730 76 715Q76 701 66.5 691.5Q57 682 43 682Q29 682 19.5 691.5Q10 701 10 715ZM135 715Q135 730 144.5 739Q154 748 168 748Q182 748 192 739Q202 730 202 715Q202 701 192 691.5Q182 682 168 682Q154 682 144.5 691.5Q135 701 135 715Z" glyph-name="Idieresis" horiz-adv-x="210" unicode="&#207;" /><glyph d="M131 0H79V614H131ZM139 714Q139 700 129.5 690Q120 680 105 680Q90 680 80.5 690Q71 700 71 714Q71 729 80.5 739Q90 749 105 749Q120 749 129.5 739Q139 729 139 714Z" glyph-name="Idotaccent" horiz-adv-x="210" unicode="&#304;" /><glyph d="M131 0H79V614H131ZM81 665 -7 782H50L132 665Z" glyph-name="Igrave" horiz-adv-x="210" unicode="&#204;" /><glyph d="M131 0H79V614H131ZM5 712H207V670H5Z" glyph-name="Imacron" horiz-adv-x="210" unicode="&#298;" /><glyph d="M131 0Q115 -27 105.5 -44.5Q96 -62 90.5 -75Q85 -88 83 -97.5Q81 -107 81 -116Q81 -131 88 -138Q95 -145 106 -145Q116 -145 124.5 -141.5Q133 -138 143 -130V-167Q133 -174 122 -178Q111 -182 98 -182Q85 -182 74 -178.5Q63 -175 55.5 -167Q48 -159 44 -148Q40 -137 40 -122Q40 -110 43 -97.5Q46 -85 52 -71Q58 -57 67.5 -39.5Q77 -22 90 0H79V614H131Z" glyph-name="Iogonek" horiz-adv-x="210" unicode="&#302;" /><glyph d="M131 0H79V614H131ZM231 770Q231 746 226.5 726.5Q222 707 213.5 693Q205 679 192 672Q179 665 162 665Q143 665 128.5 675Q114 685 101.5 696.5Q89 708 77.5 718Q66 728 52 728Q34 728 25 712Q16 696 16 668H-20Q-20 691 -15.5 710.5Q-11 730 -2.5 743.5Q6 757 19 765Q32 773 49 773Q68 773 82.5 763Q97 753 109.5 741Q122 729 133.5 719Q145 709 159 709Q177 709 186 725.5Q195 742 195 770Z" glyph-name="Itilde" horiz-adv-x="210" unicode="&#296;" /><glyph d="M73 170Q80 110 116.5 75Q153 40 213 40Q242 40 268 48.5Q294 57 313 76Q332 95 343 124.5Q354 154 354 196V614H406V196Q406 143 391 105Q376 67 350 41.5Q324 16 289 3.5Q254 -9 213 -9Q172 -9 138 4Q104 17 78 40Q52 63 37 96Q22 129 19 170Z" glyph-name="J" horiz-adv-x="473" unicode="J" /><glyph d="M73 170Q80 110 116.5 75Q153 40 213 40Q242 40 268 48.5Q294 57 313 76Q332 95 343 124.5Q354 154 354 196V614H406V196Q406 143 391 105Q376 67 350 41.5Q324 16 289 3.5Q254 -9 213 -9Q172 -9 138 4Q104 17 78 40Q52 63 37 96Q22 129 19 170ZM496 667H448L381 750L315 667H267L359 786H404Z" glyph-name="Jcircumflex" horiz-adv-x="473" unicode="&#308;" /><glyph d="M131 293 450 614H517L237 334L527 0H462L200 298L131 228V0H79V614H131Z" glyph-name="K" horiz-adv-x="546" unicode="K" /><glyph d="M131 293 450 614H517L237 334L527 0H462L200 298L131 228V0H79V614H131ZM247 -116Q235 -114 226.5 -105.5Q218 -97 218 -83Q218 -67 228.5 -57Q239 -47 254 -47Q270 -47 280 -57.5Q290 -68 290 -84Q290 -96 286 -105.5Q282 -115 276 -126L245 -183H211Z" glyph-name="Kcommaaccent" horiz-adv-x="544" unicode="&#310;" /><glyph d="M79 614H131V48H464V0H79Z" glyph-name="L" horiz-adv-x="503" unicode="L" /><glyph d="M79 614H131V48H464V0H79ZM86 665 169 782H225L138 665Z" glyph-name="Lacute" horiz-adv-x="503" unicode="&#313;" /><glyph d="M79 614H131V48H464V0H79ZM262 455 295 615H335L303 455Z" glyph-name="Lcaron" horiz-adv-x="503" unicode="&#317;" /><glyph d="M79 614H131V48H464V0H79ZM272 -116Q260 -114 251.5 -105.5Q243 -97 243 -83Q243 -67 253.5 -57Q264 -47 279 -47Q295 -47 305 -57.5Q315 -68 315 -84Q315 -96 311 -105.5Q307 -115 301 -126L270 -183H236Z" glyph-name="Lcommaaccent" horiz-adv-x="503" unicode="&#315;" /><glyph d="M79 614H131V48H464V0H79ZM394 309Q394 294 384.5 284Q375 274 360 274Q345 274 335.5 284Q326 294 326 309Q326 323 335.5 333Q345 343 360 343Q375 343 384.5 333Q394 323 394 309Z" glyph-name="Ldot" horiz-adv-x="503" unicode="&#319;" /><glyph d="M30 295 91 320V614H143V339L300 402V353L143 290V48H476V0H91V270L30 246Z" glyph-name="Lslash" horiz-adv-x="515" unicode="&#321;" /><glyph d="M349 0 129 511V0H79V614H136L366 76L596 614H651V0H601V511L382 0Z" glyph-name="M" horiz-adv-x="730" unicode="M" /><glyph d="M538 0H503L129 531V0H79V614H128L488 104V614H538Z" glyph-name="N" horiz-adv-x="617" unicode="N" /><glyph glyph-name="NULL" horiz-adv-x="0" /><glyph d="M538 0H503L129 531V0H79V614H128L488 104V614H538ZM277 665 360 782H416L329 665Z" glyph-name="Nacute" horiz-adv-x="617" unicode="&#323;" /><glyph d="M538 0H503L129 531V0H79V614H128L488 104V614H538ZM194 779H242L308 696L375 779H423L331 660H286Z" glyph-name="Ncaron" horiz-adv-x="617" unicode="&#327;" /><glyph d="M538 0H503L129 531V0H79V614H128L488 104V614H538ZM306 -116Q294 -114 285.5 -105.5Q277 -97 277 -83Q277 -67 287.5 -57Q298 -47 313 -47Q329 -47 339 -57.5Q349 -68 349 -84Q349 -96 345 -105.5Q341 -115 335 -126L304 -183H270Z" glyph-name="Ncommaaccent" horiz-adv-x="617" unicode="&#325;" /><glyph d="M538 0H503L129 531V0H79V614H128L488 104V614H538ZM434 770Q434 746 429.5 726.5Q425 707 416.5 693Q408 679 395 672Q382 665 365 665Q346 665 331.5 675Q317 685 304.5 696.5Q292 708 280.5 718Q269 728 255 728Q237 728 228 712Q219 696 219 668H183Q183 691 187.5 710.5Q192 730 200.5 743.5Q209 757 222 765Q235 773 252 773Q271 773 285.5 763Q300 753 312.5 741Q325 729 336.5 719Q348 709 362 709Q380 709 389 725.5Q398 742 398 770Z" glyph-name="Ntilde" horiz-adv-x="617" unicode="&#209;" /><glyph d="M582 307Q582 237 562 178.5Q542 120 505.5 78.5Q469 37 419 14Q369 -9 311 -9Q252 -9 202 14Q152 37 116 78.5Q80 120 59.5 178.5Q39 237 39 307Q39 377 59.5 435Q80 493 116 535Q152 577 202 600Q252 623 311 623Q369 623 419 600Q469 577 505.5 535Q542 493 562 435Q582 377 582 307ZM530 307Q530 366 514 415Q498 464 469 499.5Q440 535 399.5 555Q359 575 311 575Q262 575 222 555Q182 535 153 499.5Q124 464 108 415Q92 366 92 307Q92 248 108 199Q124 150 153 114.5Q182 79 222 59Q262 39 311 39Q359 39 399.5 59Q440 79 469 114.5Q498 150 514 199Q530 248 530 307Z" glyph-name="O" horiz-adv-x="621" unicode="O" /><glyph d="M784 566H467V340H753V293H467V48H784V0H337Q270 0 215 21.5Q160 43 121 83Q82 123 60.5 180Q39 237 39 307Q39 377 60.5 434Q82 491 121 531Q160 571 215 592.5Q270 614 337 614H784ZM416 48V566H337Q280 566 235 547.5Q190 529 158 495.5Q126 462 109 414Q92 366 92 307Q92 248 109 200.5Q126 153 158 119Q190 85 235 66.5Q280 48 337 48Z" glyph-name="OE" horiz-adv-x="840" unicode="&#338;" /><glyph d="M582 307Q582 237 562 178.5Q542 120 505.5 78.5Q469 37 419 14Q369 -9 311 -9Q252 -9 202 14Q152 37 116 78.5Q80 120 59.5 178.5Q39 237 39 307Q39 377 59.5 435Q80 493 116 535Q152 577 202 600Q252 623 311 623Q369 623 419 600Q469 577 505.5 535Q542 493 562 435Q582 377 582 307ZM530 307Q530 366 514 415Q498 464 469 499.5Q440 535 399.5 555Q359 575 311 575Q262 575 222 555Q182 535 153 499.5Q124 464 108 415Q92 366 92 307Q92 248 108 199Q124 150 153 114.5Q182 79 222 59Q262 39 311 39Q359 39 399.5 59Q440 79 469 114.5Q498 150 514 199Q530 248 530 307ZM279 665 362 782H418L331 665Z" glyph-name="Oacute" horiz-adv-x="621" unicode="&#211;" /><glyph d="M582 307Q582 237 562 178.5Q542 120 505.5 78.5Q469 37 419 14Q369 -9 311 -9Q252 -9 202 14Q152 37 116 78.5Q80 120 59.5 178.5Q39 237 39 307Q39 377 59.5 435Q80 493 116 535Q152 577 202 600Q252 623 311 623Q369 623 419 600Q469 577 505.5 535Q542 493 562 435Q582 377 582 307ZM530 307Q530 366 514 415Q498 464 469 499.5Q440 535 399.5 555Q359 575 311 575Q262 575 222 555Q182 535 153 499.5Q124 464 108 415Q92 366 92 307Q92 248 108 199Q124 150 153 114.5Q182 79 222 59Q262 39 311 39Q359 39 399.5 59Q440 79 469 114.5Q498 150 514 199Q530 248 530 307ZM310 664Q287 664 268 671.5Q249 679 235.5 694Q222 709 214.5 730.5Q207 752 207 781H247Q247 743 264.5 723Q282 703 310 703Q338 703 355.5 723Q373 743 373 781H413Q413 752 405.5 730.5Q398 709 384 694Q370 679 351 671.5Q332 664 310 664Z" glyph-name="Obreve" horiz-adv-x="621" unicode="&#334;" /><glyph d="M582 307Q582 237 562 178.5Q542 120 505.5 78.5Q469 37 419 14Q369 -9 311 -9Q252 -9 202 14Q152 37 116 78.5Q80 120 59.5 178.5Q39 237 39 307Q39 377 59.5 435Q80 493 116 535Q152 577 202 600Q252 623 311 623Q369 623 419 600Q469 577 505.5 535Q542 493 562 435Q582 377 582 307ZM530 307Q530 366 514 415Q498 464 469 499.5Q440 535 399.5 555Q359 575 311 575Q262 575 222 555Q182 535 153 499.5Q124 464 108 415Q92 366 92 307Q92 248 108 199Q124 150 153 114.5Q182 79 222 59Q262 39 311 39Q359 39 399.5 59Q440 79 469 114.5Q498 150 514 199Q530 248 530 307ZM425 667H377L310 750L244 667H196L288 786H333Z" glyph-name="Ocircumflex" horiz-adv-x="621" unicode="&#212;" /><glyph d="M582 307Q582 237 562 178.5Q542 120 505.5 78.5Q469 37 419 14Q369 -9 311 -9Q252 -9 202 14Q152 37 116 78.5Q80 120 59.5 178.5Q39 237 39 307Q39 377 59.5 435Q80 493 116 535Q152 577 202 600Q252 623 311 623Q369 623 419 600Q469 577 505.5 535Q542 493 562 435Q582 377 582 307ZM530 307Q530 366 514 415Q498 464 469 499.5Q440 535 399.5 555Q359 575 311 575Q262 575 222 555Q182 535 153 499.5Q124 464 108 415Q92 366 92 307Q92 248 108 199Q124 150 153 114.5Q182 79 222 59Q262 39 311 39Q359 39 399.5 59Q440 79 469 114.5Q498 150 514 199Q530 248 530 307ZM214 715Q214 730 223.5 739Q233 748 247 748Q261 748 270.5 739Q280 730 280 715Q280 701 270.5 691.5Q261 682 247 682Q233 682 223.5 691.5Q214 701 214 715ZM339 715Q339 730 348.5 739Q358 748 372 748Q386 748 396 739Q406 730 406 715Q406 701 396 691.5Q386 682 372 682Q358 682 348.5 691.5Q339 701 339 715Z" glyph-name="Odieresis" horiz-adv-x="621" unicode="&#214;" /><glyph d="M582 307Q582 237 562 178.5Q542 120 505.5 78.5Q469 37 419 14Q369 -9 311 -9Q252 -9 202 14Q152 37 116 78.5Q80 120 59.5 178.5Q39 237 39 307Q39 377 59.5 435Q80 493 116 535Q152 577 202 600Q252 623 311 623Q369 623 419 600Q469 577 505.5 535Q542 493 562 435Q582 377 582 307ZM530 307Q530 366 514 415Q498 464 469 499.5Q440 535 399.5 555Q359 575 311 575Q262 575 222 555Q182 535 153 499.5Q124 464 108 415Q92 366 92 307Q92 248 108 199Q124 150 153 114.5Q182 79 222 59Q262 39 311 39Q359 39 399.5 59Q440 79 469 114.5Q498 150 514 199Q530 248 530 307ZM286 665 198 782H255L337 665Z" glyph-name="Ograve" horiz-adv-x="621" unicode="&#210;" /><glyph d="M582 307Q582 237 562 178.5Q542 120 505.5 78.5Q469 37 419 14Q369 -9 311 -9Q252 -9 202 14Q152 37 116 78.5Q80 120 59.5 178.5Q39 237 39 307Q39 377 59.5 435Q80 493 116 535Q152 577 202 600Q252 623 311 623Q369 623 419 600Q469 577 505.5 535Q542 493 562 435Q582 377 582 307ZM530 307Q530 366 514 415Q498 464 469 499.5Q440 535 399.5 555Q359 575 311 575Q262 575 222 555Q182 535 153 499.5Q124 464 108 415Q92 366 92 307Q92 248 108 199Q124 150 153 114.5Q182 79 222 59Q262 39 311 39Q359 39 399.5 59Q440 79 469 114.5Q498 150 514 199Q530 248 530 307ZM234 665 308 782H354L280 665ZM346 665 419 782H466L391 665Z" glyph-name="Ohungarumlaut" horiz-adv-x="621" unicode="&#336;" /><glyph d="M582 307Q582 237 562 178.5Q542 120 505.5 78.5Q469 37 419 14Q369 -9 311 -9Q252 -9 202 14Q152 37 116 78.5Q80 120 59.5 178.5Q39 237 39 307Q39 377 59.5 435Q80 493 116 535Q152 577 202 600Q252 623 311 623Q369 623 419 600Q469 577 505.5 535Q542 493 562 435Q582 377 582 307ZM530 307Q530 366 514 415Q498 464 469 499.5Q440 535 399.5 555Q359 575 311 575Q262 575 222 555Q182 535 153 499.5Q124 464 108 415Q92 366 92 307Q92 248 108 199Q124 150 153 114.5Q182 79 222 59Q262 39 311 39Q359 39 399.5 59Q440 79 469 114.5Q498 150 514 199Q530 248 530 307ZM210 712H412V670H210Z" glyph-name="Omacron" horiz-adv-x="621" unicode="&#332;" /><glyph d="M544 618 577 593 520 523Q550 485 567 435Q587 377 587 307Q587 237 567 178.5Q547 120 510.5 78.5Q474 37 424 14Q374 -9 316 -9Q257 -9 207 14Q171 30 142 56L83 -17L50 8L114 87Q83 126 64 178Q44 237 44 307Q44 377 64.5 435Q85 493 121 535Q157 577 207 600Q257 623 316 623Q374 623 424 600Q462 582 492 554ZM406 555Q366 575 316 575Q267 575 227 555Q187 535 158 499.5Q129 464 113 415Q97 366 97 307Q97 248 112 199Q124 158 146 127L461 515Q437 540 406 555ZM535 307Q535 366 519 415Q507 453 487 482L173 95Q196 73 225 59Q265 39 316 39Q364 39 404.5 59Q445 79 474 114.5Q503 150 519 199Q535 248 535 307Z" glyph-name="Oslash" horiz-adv-x="631" unicode="&#216;" /><glyph d="M544 618 577 593 520 523Q550 485 567 435Q587 377 587 307Q587 237 567 178.5Q547 120 510.5 78.5Q474 37 424 14Q374 -9 316 -9Q257 -9 207 14Q171 30 142 56L83 -17L50 8L114 87Q83 126 64 178Q44 237 44 307Q44 377 64.5 435Q85 493 121 535Q157 577 207 600Q257 623 316 623Q374 623 424 600Q462 582 492 554ZM406 555Q366 575 316 575Q267 575 227 555Q187 535 158 499.5Q129 464 113 415Q97 366 97 307Q97 248 112 199Q124 158 146 127L461 515Q437 540 406 555ZM535 307Q535 366 519 415Q507 453 487 482L173 95Q196 73 225 59Q265 39 316 39Q364 39 404.5 59Q445 79 474 114.5Q503 150 519 199Q535 248 535 307ZM284 665 367 782H423L336 665Z" glyph-name="Oslashacute" horiz-adv-x="631" unicode="&#510;" /><glyph d="M582 307Q582 237 562 178.5Q542 120 505.5 78.5Q469 37 419 14Q369 -9 311 -9Q252 -9 202 14Q152 37 116 78.5Q80 120 59.5 178.5Q39 237 39 307Q39 377 59.5 435Q80 493 116 535Q152 577 202 600Q252 623 311 623Q369 623 419 600Q469 577 505.5 535Q542 493 562 435Q582 377 582 307ZM530 307Q530 366 514 415Q498 464 469 499.5Q440 535 399.5 555Q359 575 311 575Q262 575 222 555Q182 535 153 499.5Q124 464 108 415Q92 366 92 307Q92 248 108 199Q124 150 153 114.5Q182 79 222 59Q262 39 311 39Q359 39 399.5 59Q440 79 469 114.5Q498 150 514 199Q530 248 530 307ZM436 770Q436 746 431.5 726.5Q427 707 418.5 693Q410 679 397 672Q384 665 367 665Q348 665 333.5 675Q319 685 306.5 696.5Q294 708 282.5 718Q271 728 257 728Q239 728 230 712Q221 696 221 668H185Q185 691 189.5 710.5Q194 730 202.5 743.5Q211 757 224 765Q237 773 254 773Q273 773 287.5 763Q302 753 314.5 741Q327 729 338.5 719Q350 709 364 709Q382 709 391 725.5Q400 742 400 770Z" glyph-name="Otilde" horiz-adv-x="621" unicode="&#213;" /><glyph d="M131 265V0H79V614H301Q346 614 382 602.5Q418 591 443 569Q468 547 481.5 515Q495 483 495 440Q495 396 481.5 363.5Q468 331 443 309Q418 287 382 276Q346 265 301 265ZM444 440Q444 500 407.5 533.5Q371 567 300 567H131V312H300Q371 312 407.5 345.5Q444 379 444 440Z" glyph-name="P" horiz-adv-x="529" unicode="P" /><glyph d="M582 307Q582 237 562 178.5Q542 120 505 78Q497 69 488 61L539 -3L504 -32L453 33Q437 22 418 14Q369 -9 311 -9Q252 -9 202 14Q152 37 116 78.5Q80 120 59.5 178.5Q39 237 39 307Q39 377 59.5 435Q80 493 116 535Q152 577 202 600Q252 623 311 623Q369 623 419 600Q469 577 505.5 535Q542 493 562 435Q582 377 582 307ZM372 139 407 166 458 99Q464 105 469 112Q498 147 514 196.5Q530 246 530 307Q530 366 514 415Q498 464 469 499.5Q440 535 399.5 555Q359 575 311 575Q262 575 222 555Q182 535 153 499.5Q124 464 108 415Q92 366 92 307Q92 248 108 199Q124 150 153 114.5Q182 79 222 59Q262 39 311 39Q360 39 400 58Q413 64 424 71Z" glyph-name="Q" horiz-adv-x="620" unicode="Q" /><glyph d="M131 271V0H79V614H297Q342 614 377.5 602.5Q413 591 438 569.5Q463 548 476.5 516Q490 484 490 442Q490 400 476.5 368Q463 336 438 314.5Q413 293 377 282Q357 275 334 273L518 0H459L276 271ZM131 317H295Q365 317 401.5 350Q438 383 438 442Q438 502 401.5 534.5Q365 567 295 567H131Z" glyph-name="R" horiz-adv-x="549" unicode="R" /><glyph d="M131 271V0H79V614H297Q342 614 377.5 602.5Q413 591 438 569.5Q463 548 476.5 516Q490 484 490 442Q490 400 476.5 368Q463 336 438 314.5Q413 293 377 282Q357 275 334 273L518 0H459L276 271ZM131 317H295Q365 317 401.5 350Q438 383 438 442Q438 502 401.5 534.5Q365 567 295 567H131ZM233 665 316 782H372L285 665Z" glyph-name="Racute" horiz-adv-x="549" unicode="&#340;" /><glyph d="M131 271V0H79V614H297Q342 614 377.5 602.5Q413 591 438 569.5Q463 548 476.5 516Q490 484 490 442Q490 400 476.5 368Q463 336 438 314.5Q413 293 377 282Q357 275 334 273L518 0H459L276 271ZM131 317H295Q365 317 401.5 350Q438 383 438 442Q438 502 401.5 534.5Q365 567 295 567H131ZM150 779H198L264 696L331 779H379L287 660H242Z" glyph-name="Rcaron" horiz-adv-x="549" unicode="&#344;" /><glyph d="M131 271V0H79V614H297Q342 614 377.5 602.5Q413 591 438 569.5Q463 548 476.5 516Q490 484 490 442Q490 400 476.5 368Q463 336 438 314.5Q413 293 377 282Q357 275 334 273L518 0H459L276 271ZM131 317H295Q365 317 401.5 350Q438 383 438 442Q438 502 401.5 534.5Q365 567 295 567H131ZM262 -116Q250 -114 241.5 -105.5Q233 -97 233 -83Q233 -67 243.5 -57Q254 -47 269 -47Q285 -47 295 -57.5Q305 -68 305 -84Q305 -96 301 -105.5Q297 -115 291 -126L260 -183H226Z" glyph-name="Rcommaaccent" horiz-adv-x="549" unicode="&#342;" /><glyph d="M80 150Q98 94 144 65.5Q190 37 253 37Q287 37 315 45.5Q343 54 363.5 69.5Q384 85 395 108Q406 131 406 160Q406 201 382.5 229Q359 257 300 273L183 306Q151 315 125 327.5Q99 340 80.5 358Q62 376 52.5 400Q43 424 43 457Q43 496 58 526.5Q73 557 99.5 578.5Q126 600 161 611.5Q196 623 237 623Q282 623 317.5 611.5Q353 600 380.5 579.5Q408 559 426 531Q444 503 453 468H401Q384 518 344 547.5Q304 577 237 577Q207 577 180.5 569Q154 561 134.5 546Q115 531 103.5 509Q92 487 92 460Q92 435 100 418Q108 401 122.5 389Q137 377 158.5 368Q180 359 208 351L312 322Q387 300 422 261.5Q457 223 457 162Q457 122 441.5 90Q426 58 398.5 36.5Q371 15 334 3Q297 -9 253 -9Q168 -9 106 32Q44 73 26 150Z" glyph-name="S" horiz-adv-x="498" unicode="S" /><glyph d="M80 150Q98 94 144 65.5Q190 37 253 37Q287 37 315 45.5Q343 54 363.5 69.5Q384 85 395 108Q406 131 406 160Q406 201 382.5 229Q359 257 300 273L183 306Q151 315 125 327.5Q99 340 80.5 358Q62 376 52.5 400Q43 424 43 457Q43 496 58 526.5Q73 557 99.5 578.5Q126 600 161 611.5Q196 623 237 623Q282 623 317.5 611.5Q353 600 380.5 579.5Q408 559 426 531Q444 503 453 468H401Q384 518 344 547.5Q304 577 237 577Q207 577 180.5 569Q154 561 134.5 546Q115 531 103.5 509Q92 487 92 460Q92 435 100 418Q108 401 122.5 389Q137 377 158.5 368Q180 359 208 351L312 322Q387 300 422 261.5Q457 223 457 162Q457 122 441.5 90Q426 58 398.5 36.5Q371 15 334 3Q297 -9 253 -9Q168 -9 106 32Q44 73 26 150ZM210 665 293 782H349L262 665Z" glyph-name="Sacute" horiz-adv-x="498" unicode="&#346;" /><glyph d="M80 150Q98 94 144 65.5Q190 37 253 37Q287 37 315 45.5Q343 54 363.5 69.5Q384 85 395 108Q406 131 406 160Q406 201 382.5 229Q359 257 300 273L183 306Q151 315 125 327.5Q99 340 80.5 358Q62 376 52.5 400Q43 424 43 457Q43 496 58 526.5Q73 557 99.5 578.5Q126 600 161 611.5Q196 623 237 623Q282 623 317.5 611.5Q353 600 380.5 579.5Q408 559 426 531Q444 503 453 468H401Q384 518 344 547.5Q304 577 237 577Q207 577 180.5 569Q154 561 134.5 546Q115 531 103.5 509Q92 487 92 460Q92 435 100 418Q108 401 122.5 389Q137 377 158.5 368Q180 359 208 351L312 322Q387 300 422 261.5Q457 223 457 162Q457 122 441.5 90Q426 58 398.5 36.5Q371 15 334 3Q297 -9 253 -9Q168 -9 106 32Q44 73 26 150ZM129 779H177L243 696L310 779H358L266 660H221Z" glyph-name="Scaron" horiz-adv-x="498" unicode="&#352;" /><glyph d="M80 150Q98 94 144 65.5Q190 37 253 37Q287 37 315 45.5Q343 54 363.5 69.5Q384 85 395 108Q406 131 406 160Q406 201 382.5 229Q359 257 300 273L183 306Q151 315 125 327.5Q99 340 80.5 358Q62 376 52.5 400Q43 424 43 457Q43 496 58 526.5Q73 557 99.5 578.5Q126 600 161 611.5Q196 623 237 623Q282 623 317.5 611.5Q353 600 380.5 579.5Q408 559 426 531Q444 503 453 468H401Q384 518 344 547.5Q304 577 237 577Q207 577 180.5 569Q154 561 134.5 546Q115 531 103.5 509Q92 487 92 460Q92 435 100 418Q108 401 122.5 389Q137 377 158.5 368Q180 359 208 351L312 322Q387 300 422 261.5Q457 223 457 162Q457 122 441.5 90Q426 58 398.5 36.5Q371 15 334 3Q297 -9 253 -9Q168 -9 106 32Q44 73 26 150ZM160 -176 220 -48H269L207 -176Z" glyph-name="Scedilla" horiz-adv-x="498" unicode="&#350;" /><glyph d="M80 150Q98 94 144 65.5Q190 37 253 37Q287 37 315 45.5Q343 54 363.5 69.5Q384 85 395 108Q406 131 406 160Q406 201 382.5 229Q359 257 300 273L183 306Q151 315 125 327.5Q99 340 80.5 358Q62 376 52.5 400Q43 424 43 457Q43 496 58 526.5Q73 557 99.5 578.5Q126 600 161 611.5Q196 623 237 623Q282 623 317.5 611.5Q353 600 380.5 579.5Q408 559 426 531Q444 503 453 468H401Q384 518 344 547.5Q304 577 237 577Q207 577 180.5 569Q154 561 134.5 546Q115 531 103.5 509Q92 487 92 460Q92 435 100 418Q108 401 122.5 389Q137 377 158.5 368Q180 359 208 351L312 322Q387 300 422 261.5Q457 223 457 162Q457 122 441.5 90Q426 58 398.5 36.5Q371 15 334 3Q297 -9 253 -9Q168 -9 106 32Q44 73 26 150ZM358 667H310L243 750L177 667H129L221 786H266Z" glyph-name="Scircumflex" horiz-adv-x="498" unicode="&#348;" /><glyph d="M80 150Q98 94 144 65.5Q190 37 253 37Q287 37 315 45.5Q343 54 363.5 69.5Q384 85 395 108Q406 131 406 160Q406 201 382.5 229Q359 257 300 273L183 306Q151 315 125 327.5Q99 340 80.5 358Q62 376 52.5 400Q43 424 43 457Q43 496 58 526.5Q73 557 99.5 578.5Q126 600 161 611.5Q196 623 237 623Q282 623 317.5 611.5Q353 600 380.5 579.5Q408 559 426 531Q444 503 453 468H401Q384 518 344 547.5Q304 577 237 577Q207 577 180.5 569Q154 561 134.5 546Q115 531 103.5 509Q92 487 92 460Q92 435 100 418Q108 401 122.5 389Q137 377 158.5 368Q180 359 208 351L312 322Q387 300 422 261.5Q457 223 457 162Q457 122 441.5 90Q426 58 398.5 36.5Q371 15 334 3Q297 -9 253 -9Q168 -9 106 32Q44 73 26 150ZM240 -116Q228 -114 219.5 -105.5Q211 -97 211 -83Q211 -67 221.5 -57Q232 -47 247 -47Q263 -47 273 -57.5Q283 -68 283 -84Q283 -96 279 -105.5Q275 -115 269 -126L238 -183H204Z" glyph-name="Scommaaccent" horiz-adv-x="498" unicode="&#536;" /><glyph d="M31 614H532V566H307V0H255V566H31Z" glyph-name="T" horiz-adv-x="563" unicode="T" /><glyph d="M138 340H255V566H31V614H532V566H307V340H424V295H307V0H255V295H138Z" glyph-name="Tbar" horiz-adv-x="563" unicode="&#358;" /><glyph d="M31 614H532V566H307V0H255V566H31ZM167 779H215L281 696L348 779H396L304 660H259Z" glyph-name="Tcaron" horiz-adv-x="563" unicode="&#356;" /><glyph d="M31 614H532V566H307V0H255V566H31ZM279 -116Q267 -114 258.5 -105.5Q250 -97 250 -83Q250 -67 260.5 -57Q271 -47 286 -47Q302 -47 312 -57.5Q322 -68 322 -84Q322 -96 318 -105.5Q314 -115 308 -126L277 -183H243Z" glyph-name="Tcommaaccent" horiz-adv-x="563" unicode="&#354;" /><glyph d="M131 140V0H79V614H131V489H301Q346 489 382 478Q418 467 443 445Q468 423 481.5 390.5Q495 358 495 315Q495 272 481.5 239Q468 206 443 184Q418 162 382 151Q346 140 301 140ZM444 315Q444 375 407.5 408.5Q371 442 300 442H131V187H300Q371 187 407.5 220.5Q444 254 444 315Z" glyph-name="Thorn" horiz-adv-x="529" unicode="&#222;" /><glyph d="M302 -9Q252 -9 209.5 6.5Q167 22 135 53.5Q103 85 85 132Q67 179 67 242V614H119V249Q119 196 132.5 156Q146 116 170.5 90Q195 64 228.5 51.5Q262 39 302 39Q341 39 375 51.5Q409 64 433 90Q457 116 471.5 156Q486 196 486 249V614H538V242Q538 179 519.5 132Q501 85 469.5 53.5Q438 22 394.5 6.5Q351 -9 302 -9Z" glyph-name="U" horiz-adv-x="605" unicode="U" /><glyph d="M302 -9Q252 -9 209.5 6.5Q167 22 135 53.5Q103 85 85 132Q67 179 67 242V614H119V249Q119 196 132.5 156Q146 116 170.5 90Q195 64 228.5 51.5Q262 39 302 39Q341 39 375 51.5Q409 64 433 90Q457 116 471.5 156Q486 196 486 249V614H538V242Q538 179 519.5 132Q501 85 469.5 53.5Q438 22 394.5 6.5Q351 -9 302 -9ZM272 665 355 782H411L324 665Z" glyph-name="Uacute" horiz-adv-x="605" unicode="&#218;" /><glyph d="M302 -9Q252 -9 209.5 6.5Q167 22 135 53.5Q103 85 85 132Q67 179 67 242V614H119V249Q119 196 132.5 156Q146 116 170.5 90Q195 64 228.5 51.5Q262 39 302 39Q341 39 375 51.5Q409 64 433 90Q457 116 471.5 156Q486 196 486 249V614H538V242Q538 179 519.5 132Q501 85 469.5 53.5Q438 22 394.5 6.5Q351 -9 302 -9ZM303 664Q280 664 261 671.5Q242 679 228.5 694Q215 709 207.5 730.5Q200 752 200 781H240Q240 743 257.5 723Q275 703 303 703Q331 703 348.5 723Q366 743 366 781H406Q406 752 398.5 730.5Q391 709 377 694Q363 679 344 671.5Q325 664 303 664Z" glyph-name="Ubreve" horiz-adv-x="605" unicode="&#364;" /><glyph d="M302 -9Q252 -9 209.5 6.5Q167 22 135 53.5Q103 85 85 132Q67 179 67 242V614H119V249Q119 196 132.5 156Q146 116 170.5 90Q195 64 228.5 51.5Q262 39 302 39Q341 39 375 51.5Q409 64 433 90Q457 116 471.5 156Q486 196 486 249V614H538V242Q538 179 519.5 132Q501 85 469.5 53.5Q438 22 394.5 6.5Q351 -9 302 -9ZM417 667H369L302 750L236 667H188L280 786H325Z" glyph-name="Ucircumflex" horiz-adv-x="605" unicode="&#219;" /><glyph d="M302 -9Q252 -9 209.5 6.5Q167 22 135 53.5Q103 85 85 132Q67 179 67 242V614H119V249Q119 196 132.5 156Q146 116 170.5 90Q195 64 228.5 51.5Q262 39 302 39Q341 39 375 51.5Q409 64 433 90Q457 116 471.5 156Q486 196 486 249V614H538V242Q538 179 519.5 132Q501 85 469.5 53.5Q438 22 394.5 6.5Q351 -9 302 -9ZM207 715Q207 730 216.5 739Q226 748 240 748Q254 748 263.5 739Q273 730 273 715Q273 701 263.5 691.5Q254 682 240 682Q226 682 216.5 691.5Q207 701 207 715ZM332 715Q332 730 341.5 739Q351 748 365 748Q379 748 389 739Q399 730 399 715Q399 701 389 691.5Q379 682 365 682Q351 682 341.5 691.5Q332 701 332 715Z" glyph-name="Udieresis" horiz-adv-x="605" unicode="&#220;" /><glyph d="M302 -9Q252 -9 209.5 6.5Q167 22 135 53.5Q103 85 85 132Q67 179 67 242V614H119V249Q119 196 132.5 156Q146 116 170.5 90Q195 64 228.5 51.5Q262 39 302 39Q341 39 375 51.5Q409 64 433 90Q457 116 471.5 156Q486 196 486 249V614H538V242Q538 179 519.5 132Q501 85 469.5 53.5Q438 22 394.5 6.5Q351 -9 302 -9ZM278 665 190 782H247L329 665Z" glyph-name="Ugrave" horiz-adv-x="605" unicode="&#217;" /><glyph d="M302 -9Q252 -9 209.5 6.5Q167 22 135 53.5Q103 85 85 132Q67 179 67 242V614H119V249Q119 196 132.5 156Q146 116 170.5 90Q195 64 228.5 51.5Q262 39 302 39Q341 39 375 51.5Q409 64 433 90Q457 116 471.5 156Q486 196 486 249V614H538V242Q538 179 519.5 132Q501 85 469.5 53.5Q438 22 394.5 6.5Q351 -9 302 -9ZM227 665 301 782H347L273 665ZM339 665 412 782H459L384 665Z" glyph-name="Uhungarumlaut" horiz-adv-x="605" unicode="&#368;" /><glyph d="M302 -9Q252 -9 209.5 6.5Q167 22 135 53.5Q103 85 85 132Q67 179 67 242V614H119V249Q119 196 132.5 156Q146 116 170.5 90Q195 64 228.5 51.5Q262 39 302 39Q341 39 375 51.5Q409 64 433 90Q457 116 471.5 156Q486 196 486 249V614H538V242Q538 179 519.5 132Q501 85 469.5 53.5Q438 22 394.5 6.5Q351 -9 302 -9ZM202 712H404V670H202Z" glyph-name="Umacron" horiz-adv-x="605" unicode="&#362;" /><glyph d="M302 -9Q252 -9 209.5 6.5Q167 22 135 53.5Q103 85 85 132Q67 179 67 242V614H119V249Q119 196 132.5 156Q146 116 170.5 90Q195 64 228.5 51.5Q262 39 302 39Q341 39 375 51.5Q409 64 433 90Q457 116 471.5 156Q486 196 486 249V614H538V242Q538 200 529.5 166.5Q521 133 507 107Q493 81 473 60Q453 39 428 21Q376 -16 357 -51Q338 -86 338 -115Q338 -129 345 -137Q352 -145 362 -145Q373 -145 381 -141.5Q389 -138 399 -130V-167Q389 -174 378.5 -178Q368 -182 355 -182Q342 -182 331 -178Q320 -174 312.5 -166.5Q305 -159 301 -147.5Q297 -136 297 -121Q297 -112 298.5 -102Q300 -92 303.5 -82Q307 -72 311.5 -62Q316 -52 323 -41.5Q330 -31 338.5 -21.5Q347 -12 357 -2Q343 -5 329.5 -7Q316 -9 302 -9Z" glyph-name="Uogonek" horiz-adv-x="605" unicode="&#370;" /><glyph d="M302 -9Q252 -9 209.5 6.5Q167 22 135 53.5Q103 85 85 132Q67 179 67 242V614H119V249Q119 196 132.5 156Q146 116 170.5 90Q195 64 228.5 51.5Q262 39 302 39Q341 39 375 51.5Q409 64 433 90Q457 116 471.5 156Q486 196 486 249V614H538V242Q538 179 519.5 132Q501 85 469.5 53.5Q438 22 394.5 6.5Q351 -9 302 -9ZM384 729Q384 711 378 696.5Q372 682 360.5 671Q349 660 334 654Q319 648 303 648Q285 648 270.5 654Q256 660 245 671Q234 682 227.5 696.5Q221 711 221 729Q221 745 227.5 760Q234 775 245 786Q256 797 270.5 803.5Q285 810 303 810Q319 810 334 803.5Q349 797 360.5 786Q372 775 378 760Q384 745 384 729ZM352 729Q352 749 337.5 763.5Q323 778 303 778Q282 778 267.5 763.5Q253 749 253 729Q253 708 267.5 693.5Q282 679 303 679Q323 679 337.5 693.5Q352 708 352 729Z" glyph-name="Uring" horiz-adv-x="605" unicode="&#366;" /><glyph d="M302 -9Q252 -9 209.5 6.5Q167 22 135 53.5Q103 85 85 132Q67 179 67 242V614H119V249Q119 196 132.5 156Q146 116 170.5 90Q195 64 228.5 51.5Q262 39 302 39Q341 39 375 51.5Q409 64 433 90Q457 116 471.5 156Q486 196 486 249V614H538V242Q538 179 519.5 132Q501 85 469.5 53.5Q438 22 394.5 6.5Q351 -9 302 -9ZM428 770Q428 746 423.5 726.5Q419 707 410.5 693Q402 679 389 672Q376 665 359 665Q340 665 325.5 675Q311 685 298.5 696.5Q286 708 274.5 718Q263 728 249 728Q231 728 222 712Q213 696 213 668H177Q177 691 181.5 710.5Q186 730 194.5 743.5Q203 757 216 765Q229 773 246 773Q265 773 279.5 763Q294 753 306.5 741Q319 729 330.5 719Q342 709 356 709Q374 709 383 725.5Q392 742 392 770Z" glyph-name="Utilde" horiz-adv-x="605" unicode="&#360;" /><glyph d="M265 0 23 614H77L289 71L501 614H555L312 0Z" glyph-name="V" horiz-adv-x="578" unicode="V" /><glyph d="M401 614 545 87 687 614H737L570 0H523L379 522L236 0H189L22 614H73L215 87L358 614Z" glyph-name="W" horiz-adv-x="759" unicode="W" /><glyph d="M401 614 545 87 687 614H737L570 0H523L379 522L236 0H189L22 614H73L215 87L358 614ZM350 665 433 782H489L402 665Z" glyph-name="Wacute" horiz-adv-x="759" unicode="&#7810;" /><glyph d="M401 614 545 87 687 614H737L570 0H523L379 522L236 0H189L22 614H73L215 87L358 614ZM494 667H446L379 750L313 667H265L357 786H402Z" glyph-name="Wcircumflex" horiz-adv-x="759" unicode="&#372;" /><glyph d="M401 614 545 87 687 614H737L570 0H523L379 522L236 0H189L22 614H73L215 87L358 614ZM283 715Q283 730 292.5 739Q302 748 316 748Q330 748 339.5 739Q349 730 349 715Q349 701 339.5 691.5Q330 682 316 682Q302 682 292.5 691.5Q283 701 283 715ZM408 715Q408 730 417.5 739Q427 748 441 748Q455 748 465 739Q475 730 475 715Q475 701 465 691.5Q455 682 441 682Q427 682 417.5 691.5Q408 701 408 715Z" glyph-name="Wdieresis" horiz-adv-x="759" unicode="&#7812;" /><glyph d="M401 614 545 87 687 614H737L570 0H523L379 522L236 0H189L22 614H73L215 87L358 614ZM354 665 266 782H323L405 665Z" glyph-name="Wgrave" horiz-adv-x="759" unicode="&#7808;" /><glyph d="M300 312 518 0H459L270 270L81 0H24L241 311L30 614H89L271 353L453 614H511Z" glyph-name="X" horiz-adv-x="542" unicode="X" /><glyph d="M462 614H518L294 261V0H242V261L19 614H76L269 309Z" glyph-name="Y" horiz-adv-x="537" unicode="Y" /><glyph d="M462 614H518L294 261V0H242V261L19 614H76L269 309ZM237 665 320 782H376L289 665Z" glyph-name="Yacute" horiz-adv-x="537" unicode="&#221;" /><glyph d="M462 614H518L294 261V0H242V261L19 614H76L269 309ZM382 667H334L267 750L201 667H153L245 786H290Z" glyph-name="Ycircumflex" horiz-adv-x="537" unicode="&#374;" /><glyph d="M462 614H518L294 261V0H242V261L19 614H76L269 309ZM172 715Q172 730 181.5 739Q191 748 205 748Q219 748 228.5 739Q238 730 238 715Q238 701 228.5 691.5Q219 682 205 682Q191 682 181.5 691.5Q172 701 172 715ZM297 715Q297 730 306.5 739Q316 748 330 748Q344 748 354 739Q364 730 364 715Q364 701 354 691.5Q344 682 330 682Q316 682 306.5 691.5Q297 701 297 715Z" glyph-name="Ydieresis" horiz-adv-x="537" unicode="&#376;" /><glyph d="M462 614H518L294 261V0H242V261L19 614H76L269 309ZM244 665 156 782H213L295 665Z" glyph-name="Ygrave" horiz-adv-x="537" unicode="&#7922;" /><glyph d="M480 0H37V39L411 566H42V614H475V575L102 48H480Z" glyph-name="Z" horiz-adv-x="519" unicode="Z" /><glyph d="M480 0H37V39L411 566H42V614H475V575L102 48H480ZM248 665 331 782H387L300 665Z" glyph-name="Zacute" horiz-adv-x="519" unicode="&#377;" /><glyph d="M480 0H37V39L411 566H42V614H475V575L102 48H480ZM164 779H212L278 696L345 779H393L301 660H256Z" glyph-name="Zcaron" horiz-adv-x="519" unicode="&#381;" /><glyph d="M480 0H37V39L411 566H42V614H475V575L102 48H480ZM312 714Q312 700 302.5 690Q293 680 278 680Q263 680 253.5 690Q244 700 244 714Q244 729 253.5 739Q263 749 278 749Q293 749 302.5 739Q312 729 312 714Z" glyph-name="Zdotaccent" horiz-adv-x="519" unicode="&#379;" /><glyph d="M304 550Q304 520 279.5 499.5Q255 479 220 479Q185 479 160.5 499.5Q136 520 136 550Q136 565 142.5 578Q149 591 160.5 600.5Q172 610 187 615.5Q202 621 220 621Q237 621 252.5 615.5Q268 610 279.5 600.5Q291 591 297.5 578Q304 565 304 550ZM271 550Q271 569 256 580Q241 591 220 591Q198 591 183.5 580Q169 569 169 550Q169 532 183.5 520.5Q198 509 220 509Q241 509 256 520.5Q271 532 271 550ZM197 648 255 732H309L246 648Z" glyph-name="_442" horiz-adv-x="439" /><glyph d="M325 0V41Q310 25 276.5 9Q243 -7 202 -7Q168 -7 138 2.5Q108 12 86 30Q64 48 51 73Q38 98 38 130Q38 161 51 186Q64 211 86.5 229Q109 247 139 256.5Q169 266 204 266Q243 266 276 251Q309 236 325 219V298Q325 347 296.5 377.5Q268 408 214 408Q173 408 146 390Q119 372 107 332H57Q63 360 77.5 382.5Q92 405 112.5 420.5Q133 436 159 444.5Q185 453 215 453Q289 453 331 412Q373 371 373 300V0ZM325 158Q319 172 308 184Q297 196 281 205Q265 214 246 219Q227 224 207 224Q184 224 162 218Q140 212 123 200Q106 188 96 170.5Q86 153 86 130Q86 106 96 88.5Q106 71 123 59Q140 47 162 41.5Q184 36 207 36Q227 36 246 40.5Q265 45 281 54Q297 63 308 75Q319 87 325 102Z" glyph-name="a" horiz-adv-x="439" unicode="a" /><glyph d="M325 0V41Q310 25 276.5 9Q243 -7 202 -7Q168 -7 138 2.5Q108 12 86 30Q64 48 51 73Q38 98 38 130Q38 161 51 186Q64 211 86.5 229Q109 247 139 256.5Q169 266 204 266Q243 266 276 251Q309 236 325 219V298Q325 347 296.5 377.5Q268 408 214 408Q173 408 146 390Q119 372 107 332H57Q63 360 77.5 382.5Q92 405 112.5 420.5Q133 436 159 444.5Q185 453 215 453Q289 453 331 412Q373 371 373 300V0ZM325 158Q319 172 308 184Q297 196 281 205Q265 214 246 219Q227 224 207 224Q184 224 162 218Q140 212 123 200Q106 188 96 170.5Q86 153 86 130Q86 106 96 88.5Q106 71 123 59Q140 47 162 41.5Q184 36 207 36Q227 36 246 40.5Q265 45 281 54Q297 63 308 75Q319 87 325 102ZM194 520 277 650H330L243 520Z" glyph-name="aacute" horiz-adv-x="439" unicode="&#225;" /><glyph d="M325 0V41Q310 25 276.5 9Q243 -7 202 -7Q168 -7 138 2.5Q108 12 86 30Q64 48 51 73Q38 98 38 130Q38 161 51 186Q64 211 86.5 229Q109 247 139 256.5Q169 266 204 266Q243 266 276 251Q309 236 325 219V298Q325 347 296.5 377.5Q268 408 214 408Q173 408 146 390Q119 372 107 332H57Q63 360 77.5 382.5Q92 405 112.5 420.5Q133 436 159 444.5Q185 453 215 453Q289 453 331 412Q373 371 373 300V0ZM325 158Q319 172 308 184Q297 196 281 205Q265 214 246 219Q227 224 207 224Q184 224 162 218Q140 212 123 200Q106 188 96 170.5Q86 153 86 130Q86 106 96 88.5Q106 71 123 59Q140 47 162 41.5Q184 36 207 36Q227 36 246 40.5Q265 45 281 54Q297 63 308 75Q319 87 325 102ZM222 506Q200 506 181 514Q162 522 148.5 537Q135 552 127.5 574Q120 596 120 626H160Q160 587 177 565.5Q194 544 222 544Q251 544 267.5 565.5Q284 587 284 626H324Q324 596 316.5 574Q309 552 295.5 537Q282 522 263 514Q244 506 222 506Z" glyph-name="abreve" horiz-adv-x="439" unicode="&#259;" /><glyph d="M325 0V41Q310 25 276.5 9Q243 -7 202 -7Q168 -7 138 2.5Q108 12 86 30Q64 48 51 73Q38 98 38 130Q38 161 51 186Q64 211 86.5 229Q109 247 139 256.5Q169 266 204 266Q243 266 276 251Q309 236 325 219V298Q325 347 296.5 377.5Q268 408 214 408Q173 408 146 390Q119 372 107 332H57Q63 360 77.5 382.5Q92 405 112.5 420.5Q133 436 159 444.5Q185 453 215 453Q289 453 331 412Q373 371 373 300V0ZM325 158Q319 172 308 184Q297 196 281 205Q265 214 246 219Q227 224 207 224Q184 224 162 218Q140 212 123 200Q106 188 96 170.5Q86 153 86 130Q86 106 96 88.5Q106 71 123 59Q140 47 162 41.5Q184 36 207 36Q227 36 246 40.5Q265 45 281 54Q297 63 308 75Q319 87 325 102ZM339 513H292L224 609L156 513H110L202 644H247Z" glyph-name="acircumflex" horiz-adv-x="439" unicode="&#226;" /><glyph d="M182 520 265 650H318L231 520Z" glyph-name="acute" horiz-adv-x="500" unicode="&#180;" /><glyph d="M180 665 263 782H319L232 665Z" glyph-name="acute.cap" horiz-adv-x="500" /><glyph d="M325 0V41Q310 25 276.5 9Q243 -7 202 -7Q168 -7 138 2.5Q108 12 86 30Q64 48 51 73Q38 98 38 130Q38 161 51 186Q64 211 86.5 229Q109 247 139 256.5Q169 266 204 266Q243 266 276 251Q309 236 325 219V298Q325 347 296.5 377.5Q268 408 214 408Q173 408 146 390Q119 372 107 332H57Q63 360 77.5 382.5Q92 405 112.5 420.5Q133 436 159 444.5Q185 453 215 453Q289 453 331 412Q373 371 373 300V0ZM325 158Q319 172 308 184Q297 196 281 205Q265 214 246 219Q227 224 207 224Q184 224 162 218Q140 212 123 200Q106 188 96 170.5Q86 153 86 130Q86 106 96 88.5Q106 71 123 59Q140 47 162 41.5Q184 36 207 36Q227 36 246 40.5Q265 45 281 54Q297 63 308 75Q319 87 325 102ZM128 571Q128 585 137.5 594.5Q147 604 161 604Q168 604 174 601Q180 598 184.5 594Q189 590 191.5 584Q194 578 194 571Q194 557 184.5 547.5Q175 538 161 538Q147 538 137.5 547.5Q128 557 128 571ZM253 571Q253 585 262.5 594.5Q272 604 286 604Q293 604 299 601Q305 598 309.5 594Q314 590 317 584Q320 578 320 571Q320 557 310 547.5Q300 538 286 538Q272 538 262.5 547.5Q253 557 253 571Z" glyph-name="adieresis" horiz-adv-x="439" unicode="&#228;" /><glyph d="M188 35Q214 35 235.5 43.5Q257 52 273.5 66Q290 80 302 98.5Q314 117 321 138V217H203Q179 217 157.5 211.5Q136 206 119 194.5Q102 183 92 166Q82 149 82 126Q82 80 113 57.5Q144 35 188 35ZM686 129Q673 67 628.5 29Q584 -9 514 -9Q458 -9 415 19Q372 47 348 95Q337 76 322 57.5Q307 39 287 24.5Q267 10 241.5 1.5Q216 -7 186 -7Q153 -7 125.5 2Q98 11 77.5 28.5Q57 46 45.5 70Q34 94 34 125Q34 156 47 180.5Q60 205 82.5 222.5Q105 240 135.5 249Q166 258 200 258H321V298Q321 347 292.5 377.5Q264 408 211 408Q170 408 142.5 390Q115 372 103 332H54Q60 360 74.5 382.5Q89 405 109.5 420.5Q130 436 156 444.5Q182 453 211 453Q268 453 305 426.5Q342 400 356 354Q380 398 419 425.5Q458 453 513 453Q557 453 590.5 437Q624 421 647.5 392Q671 363 682 323Q693 283 693 236V218H367Q367 175 378 141Q389 107 408.5 83.5Q428 60 455 47.5Q482 35 514 35Q561 35 594 60Q627 85 637 129ZM513 409Q452 409 413.5 368Q375 327 368 258H642Q642 287 633.5 314.5Q625 342 609.5 363Q594 384 570 396.5Q546 409 513 409Z" glyph-name="ae" horiz-adv-x="731" unicode="&#230;" /><glyph d="M188 35Q214 35 235.5 43.5Q257 52 273.5 66Q290 80 302 98.5Q314 117 321 138V217H203Q179 217 157.5 211.5Q136 206 119 194.5Q102 183 92 166Q82 149 82 126Q82 80 113 57.5Q144 35 188 35ZM686 129Q673 67 628.5 29Q584 -9 514 -9Q458 -9 415 19Q372 47 348 95Q337 76 322 57.5Q307 39 287 24.5Q267 10 241.5 1.5Q216 -7 186 -7Q153 -7 125.5 2Q98 11 77.5 28.5Q57 46 45.5 70Q34 94 34 125Q34 156 47 180.5Q60 205 82.5 222.5Q105 240 135.5 249Q166 258 200 258H321V298Q321 347 292.5 377.5Q264 408 211 408Q170 408 142.5 390Q115 372 103 332H54Q60 360 74.5 382.5Q89 405 109.5 420.5Q130 436 156 444.5Q182 453 211 453Q268 453 305 426.5Q342 400 356 354Q380 398 419 425.5Q458 453 513 453Q557 453 590.5 437Q624 421 647.5 392Q671 363 682 323Q693 283 693 236V218H367Q367 175 378 141Q389 107 408.5 83.5Q428 60 455 47.5Q482 35 514 35Q561 35 594 60Q627 85 637 129ZM513 409Q452 409 413.5 368Q375 327 368 258H642Q642 287 633.5 314.5Q625 342 609.5 363Q594 384 570 396.5Q546 409 513 409ZM351 520 434 650H487L400 520Z" glyph-name="aeacute" horiz-adv-x="731" unicode="&#509;" /><glyph d="M325 0V41Q310 25 276.5 9Q243 -7 202 -7Q168 -7 138 2.5Q108 12 86 30Q64 48 51 73Q38 98 38 130Q38 161 51 186Q64 211 86.5 229Q109 247 139 256.5Q169 266 204 266Q243 266 276 251Q309 236 325 219V298Q325 347 296.5 377.5Q268 408 214 408Q173 408 146 390Q119 372 107 332H57Q63 360 77.5 382.5Q92 405 112.5 420.5Q133 436 159 444.5Q185 453 215 453Q289 453 331 412Q373 371 373 300V0ZM325 158Q319 172 308 184Q297 196 281 205Q265 214 246 219Q227 224 207 224Q184 224 162 218Q140 212 123 200Q106 188 96 170.5Q86 153 86 130Q86 106 96 88.5Q106 71 123 59Q140 47 162 41.5Q184 36 207 36Q227 36 246 40.5Q265 45 281 54Q297 63 308 75Q319 87 325 102ZM205 520 118 650H171L254 520Z" glyph-name="agrave" horiz-adv-x="439" unicode="&#224;" /><glyph d="M325 0V41Q310 25 276.5 9Q243 -7 202 -7Q168 -7 138 2.5Q108 12 86 30Q64 48 51 73Q38 98 38 130Q38 161 51 186Q64 211 86.5 229Q109 247 139 256.5Q169 266 204 266Q243 266 276 251Q309 236 325 219V298Q325 347 296.5 377.5Q268 408 214 408Q173 408 146 390Q119 372 107 332H57Q63 360 77.5 382.5Q92 405 112.5 420.5Q133 436 159 444.5Q185 453 215 453Q289 453 331 412Q373 371 373 300V0ZM325 158Q319 172 308 184Q297 196 281 205Q265 214 246 219Q227 224 207 224Q184 224 162 218Q140 212 123 200Q106 188 96 170.5Q86 153 86 130Q86 106 96 88.5Q106 71 123 59Q140 47 162 41.5Q184 36 207 36Q227 36 246 40.5Q265 45 281 54Q297 63 308 75Q319 87 325 102ZM123 579H325V537H123Z" glyph-name="amacron" horiz-adv-x="439" unicode="&#257;" /><glyph d="M374 474Q369 522 340.5 551Q312 580 263 580Q216 580 184.5 552Q153 524 153 472Q153 434 174.5 405Q196 376 227 344L415 143Q430 168 439 199Q455 248 457 303H504Q502 243 483 187Q469 145 446 110L550 0H485L417 72Q386 39 344 17Q294 -9 231 -9Q189 -9 153.5 5Q118 19 92.5 44.5Q67 70 52.5 104Q38 138 38 178Q38 212 50 242Q62 272 82.5 296Q103 320 131 336Q144 344 157 349Q155 351 153 354Q138 372 127 390Q116 408 110 428Q104 448 104 471Q104 506 116.5 534Q129 562 150 581.5Q171 601 200.5 612Q230 623 263 623Q301 623 329.5 611Q358 599 378 579Q398 559 409.5 532Q421 505 424 474ZM186 316Q174 312 163 306Q140 294 123 274.5Q106 255 96.5 230Q87 205 87 178Q87 147 98 121Q109 95 128 76Q147 57 173.5 46.5Q200 36 231 36Q285 36 326 56Q361 74 387 103L187 316Z" glyph-name="ampersand" horiz-adv-x="562" unicode="&amp;" /><glyph d="M324 158Q319 172 308 184Q297 196 281 205Q265 214 246 219Q227 224 207 224Q184 224 162 218Q140 212 123 200Q106 188 96 170.5Q86 153 86 130Q86 106 96 88.5Q106 71 123 59Q140 47 162 41.5Q184 36 207 36Q227 36 246 40.5Q265 45 281 54Q297 63 308 75Q319 87 324 102ZM324 0V41Q310 25 276.5 9Q243 -7 202 -7Q168 -7 138 2.5Q108 12 86 30Q64 48 51 73Q38 98 38 130Q38 161 51 186Q64 211 86.5 229Q109 247 139 256.5Q169 266 204 266Q243 266 276 251Q309 236 324 219V298Q324 347 296 377.5Q268 408 214 408Q173 408 145.5 390Q118 372 106 332H57Q63 360 77.5 382.5Q92 405 112.5 420.5Q133 436 159 444.5Q185 453 215 453Q289 453 331 412Q373 371 373 300V0Q358 -27 348.5 -44.5Q339 -62 333.5 -75Q328 -88 326 -97.5Q324 -107 324 -116Q324 -131 330.5 -138Q337 -145 348 -145Q359 -145 367 -141.5Q375 -138 385 -130V-167Q375 -174 364 -178Q353 -182 340 -182Q328 -182 317 -178.5Q306 -175 298.5 -167Q291 -159 287 -148Q283 -137 283 -122Q283 -110 286 -97.5Q289 -85 295 -71Q301 -57 310.5 -39.5Q320 -22 333 0Z" glyph-name="aogonek" horiz-adv-x="439" unicode="&#261;" /><glyph d="M75 240Q102 265 127 275.5Q152 286 175 286Q199 286 220 278.5Q241 271 261 262Q281 253 301.5 246Q322 239 345 239Q368 239 394 250Q420 261 448 287V241Q420 216 394 206Q368 196 345 196Q321 196 300 203Q279 210 259 219Q239 228 218.5 235Q198 242 175 242Q152 242 127 230.5Q102 219 75 195ZM75 350Q102 374 127 384.5Q152 395 175 395Q199 395 220 387.5Q241 380 261 371.5Q281 363 301.5 355.5Q322 348 345 348Q368 348 394 359.5Q420 371 448 396V350Q420 325 394 315Q368 305 345 305Q321 305 300 312.5Q279 320 259 328.5Q239 337 218.5 344.5Q198 352 175 352Q152 352 127 340Q102 328 75 304Z" glyph-name="approxequal" horiz-adv-x="523" unicode="&#8776;" /><glyph d="M73 240Q100 265 125 275.5Q150 286 173 286Q197 286 218 278.5Q239 271 259 262Q279 253 299.5 246Q320 239 343 239Q366 239 392 250Q418 261 446 287V241Q418 216 392 206Q366 196 343 196Q319 196 298 203Q277 210 257 219Q237 228 216.5 235Q196 242 173 242Q150 242 125 230.5Q100 219 73 195ZM73 350Q100 374 125 384.5Q150 395 173 395Q197 395 218 387.5Q239 380 259 371.5Q279 363 299.5 355.5Q320 348 343 348Q366 348 392 359.5Q418 371 446 396V350Q418 325 392 315Q366 305 343 305Q319 305 298 312.5Q277 320 257 328.5Q237 337 216.5 344.5Q196 352 173 352Q150 352 125 340Q100 328 73 304Z" glyph-name="approxequal.lt" horiz-adv-x="520" /><glyph d="M325 0V41Q310 25 276.5 9Q243 -7 202 -7Q168 -7 138 2.5Q108 12 86 30Q64 48 51 73Q38 98 38 130Q38 161 51 186Q64 211 86.5 229Q109 247 139 256.5Q169 266 204 266Q243 266 276 251Q309 236 325 219V298Q325 347 296.5 377.5Q268 408 214 408Q173 408 146 390Q119 372 107 332H57Q63 360 77.5 382.5Q92 405 112.5 420.5Q133 436 159 444.5Q185 453 215 453Q289 453 331 412Q373 371 373 300V0ZM325 158Q319 172 308 184Q297 196 281 205Q265 214 246 219Q227 224 207 224Q184 224 162 218Q140 212 123 200Q106 188 96 170.5Q86 153 86 130Q86 106 96 88.5Q106 71 123 59Q140 47 162 41.5Q184 36 207 36Q227 36 246 40.5Q265 45 281 54Q297 63 308 75Q319 87 325 102ZM304 580Q304 563 298 548Q292 533 280.5 522.5Q269 512 254 505.5Q239 499 223 499Q205 499 190.5 505.5Q176 512 165 522.5Q154 533 147.5 548Q141 563 141 580Q141 597 147.5 612Q154 627 165 637.5Q176 648 190.5 654.5Q205 661 223 661Q239 661 254 654.5Q269 648 280.5 637.5Q292 627 298 612Q304 597 304 580ZM272 580Q272 601 257.5 615Q243 629 223 629Q202 629 187.5 615Q173 601 173 580Q173 559 187.5 545Q202 531 223 531Q243 531 257.5 545Q272 559 272 580Z" glyph-name="aring" horiz-adv-x="439" unicode="&#229;" /><glyph d="M304 550Q304 520 279.5 499.5Q255 479 220 479Q185 479 160.5 499.5Q136 520 136 550Q136 565 142.5 578Q149 591 160.5 600.5Q172 610 187 615.5Q202 621 220 621Q237 621 252.5 615.5Q268 610 279.5 600.5Q291 591 297.5 578Q304 565 304 550ZM271 550Q271 569 256 580Q241 591 220 591Q198 591 183.5 580Q169 569 169 550Q169 532 183.5 520.5Q198 509 220 509Q241 509 256 520.5Q271 532 271 550ZM197 648 255 732H309L246 648ZM325 0V41Q310 25 276.5 9Q243 -7 202 -7Q168 -7 138 2.5Q108 12 86 30Q64 48 51 73Q38 98 38 130Q38 161 51 186Q64 211 86.5 229Q109 247 139 256.5Q169 266 204 266Q243 266 276 251Q309 236 325 219V298Q325 347 296.5 377.5Q268 408 214 408Q173 408 146 390Q119 372 107 332H57Q63 360 77.5 382.5Q92 405 112.5 420.5Q133 436 159 444.5Q185 453 215 453Q289 453 331 412Q373 371 373 300V0ZM325 158Q319 172 308 184Q297 196 281 205Q265 214 246 219Q227 224 207 224Q184 224 162 218Q140 212 123 200Q106 188 96 170.5Q86 153 86 130Q86 106 96 88.5Q106 71 123 59Q140 47 162 41.5Q184 36 207 36Q227 36 246 40.5Q265 45 281 54Q297 63 308 75Q319 87 325 102Z" glyph-name="aringacute" horiz-adv-x="439" unicode="&#507;" /><glyph d="M182 614 297 433H243L161 562L78 433H24L139 614Z" glyph-name="asciicircum" horiz-adv-x="321" unicode="^" /><glyph d="M366 329Q366 276 343 245.5Q320 215 277 215Q252 215 233.5 226Q215 237 199 250.5Q183 264 167.5 275Q152 286 135 286Q111 286 98.5 268Q86 250 86 219H40Q40 271 63.5 302Q87 333 130 333Q154 333 172.5 321.5Q191 310 207 296.5Q223 283 238.5 272Q254 261 272 261Q295 261 307.5 279.5Q320 298 320 329Z" glyph-name="asciitilde" horiz-adv-x="406" unicode="~" /><glyph d="M31 567 48 595 141 541V649H174V541L267 595L283 567L189 513L283 459L267 431L174 485V377H141V485L48 431L31 459L125 513Z" glyph-name="asterisk" horiz-adv-x="314" unicode="*" /><glyph d="M504 125Q498 90 512 77.5Q526 65 551 65Q581 65 607 78.5Q633 92 653 118Q673 144 684 181.5Q695 219 695 268Q695 324 674 370Q653 416 615.5 450Q578 484 526 502.5Q474 521 411 521Q337 521 276 495Q215 469 171.5 423.5Q128 378 104.5 317Q81 256 81 186Q81 105 109.5 48.5Q138 -8 184.5 -44.5Q231 -81 290.5 -97.5Q350 -114 412 -114Q477 -114 530 -100.5Q583 -87 621 -69V-111Q584 -128 530 -141Q476 -154 412 -154Q340 -154 272.5 -134.5Q205 -115 153 -73.5Q101 -32 69 32Q37 96 37 186Q37 263 64 331.5Q91 400 140 451Q189 502 258 532Q327 562 411 562Q484 562 544 539.5Q604 517 647 477.5Q690 438 714 384.5Q738 331 738 268Q738 208 722 162.5Q706 117 679 86.5Q652 56 617.5 41.5Q583 27 547 27Q512 27 487 42.5Q462 58 456 88Q438 65 409 47Q380 29 347 29Q315 29 291 40.5Q267 52 250.5 71.5Q234 91 226 117.5Q218 144 218 175Q218 215 230.5 253.5Q243 292 267 322Q291 352 324 370Q357 388 398 388Q435 388 460 370Q485 352 495 331L504 380H549ZM485 279Q475 307 453 326.5Q431 346 401 346Q369 346 343.5 330.5Q318 315 300.5 291Q283 267 273.5 237Q264 207 264 176Q264 127 288 99Q312 71 353 71Q388 71 414.5 91Q441 111 461 141Z" glyph-name="at" horiz-adv-x="774" unicode="@" /><glyph d="M504 217Q498 182 512 169.5Q526 157 551 157Q581 157 607 170.5Q633 184 653 210Q673 236 684 273.5Q695 311 695 360Q695 416 674 462Q653 508 615.5 542Q578 576 526 594.5Q474 613 411 613Q337 613 276 587Q215 561 171.5 515.5Q128 470 104.5 409Q81 348 81 278Q81 197 109.5 140.5Q138 84 184.5 47.5Q231 11 290.5 -5.5Q350 -22 412 -22Q477 -22 530 -8.5Q583 5 621 23V-19Q584 -36 530 -49Q476 -62 412 -62Q340 -62 272.5 -42.5Q205 -23 153 18.5Q101 60 69 124Q37 188 37 278Q37 355 64 423.5Q91 492 140 543Q189 594 258 624Q327 654 411 654Q484 654 544 631.5Q604 609 647 569.5Q690 530 714 476.5Q738 423 738 360Q738 300 722 254.5Q706 209 679 178.5Q652 148 617.5 133.5Q583 119 547 119Q512 119 487 134.5Q462 150 456 180Q438 157 409 139Q380 121 347 121Q315 121 291 132.5Q267 144 250.5 163.5Q234 183 226 209.5Q218 236 218 267Q218 307 230.5 345.5Q243 384 267 414Q291 444 324 462Q357 480 398 480Q435 480 460 462Q485 444 495 423L504 472H549ZM485 371Q475 399 453 418.5Q431 438 401 438Q369 438 343.5 422.5Q318 407 300.5 383Q283 359 273.5 329Q264 299 264 268Q264 219 288 191Q312 163 353 163Q388 163 414.5 183Q441 203 461 233Z" glyph-name="at.cap" horiz-adv-x="774" /><glyph d="M325 0V41Q310 25 276.5 9Q243 -7 202 -7Q168 -7 138 2.5Q108 12 86 30Q64 48 51 73Q38 98 38 130Q38 161 51 186Q64 211 86.5 229Q109 247 139 256.5Q169 266 204 266Q243 266 276 251Q309 236 325 219V298Q325 347 296.5 377.5Q268 408 214 408Q173 408 146 390Q119 372 107 332H57Q63 360 77.5 382.5Q92 405 112.5 420.5Q133 436 159 444.5Q185 453 215 453Q289 453 331 412Q373 371 373 300V0ZM325 158Q319 172 308 184Q297 196 281 205Q265 214 246 219Q227 224 207 224Q184 224 162 218Q140 212 123 200Q106 188 96 170.5Q86 153 86 130Q86 106 96 88.5Q106 71 123 59Q140 47 162 41.5Q184 36 207 36Q227 36 246 40.5Q265 45 281 54Q297 63 308 75Q319 87 325 102ZM349 625Q349 601 345 581.5Q341 562 332 548.5Q323 535 310 527.5Q297 520 280 520Q262 520 247.5 530Q233 540 221 552.5Q209 565 197.5 575Q186 585 173 585Q155 585 146 568Q137 551 137 523H101Q101 546 105.5 565.5Q110 585 118.5 599Q127 613 140 620.5Q153 628 170 628Q189 628 203 618Q217 608 229.5 596Q242 584 253 573.5Q264 563 277 563Q295 563 304 580Q313 597 313 625Z" glyph-name="atilde" horiz-adv-x="439" unicode="&#227;" /><glyph d="M121 0H71V650H121V378Q130 392 144 405.5Q158 419 176 429.5Q194 440 215 446.5Q236 453 259 453Q308 453 344 434Q380 415 404.5 383.5Q429 352 441 310Q453 268 453 222Q453 176 441 134Q429 92 404.5 60.5Q380 29 344 10Q308 -9 259 -9Q236 -9 215 -2.5Q194 4 176 14.5Q158 25 144 38Q130 51 121 66ZM121 125Q143 83 178 60.5Q213 38 254 38Q289 38 316.5 51.5Q344 65 363 89.5Q382 114 392 148Q402 182 402 222Q402 262 392 296Q382 330 363 354.5Q344 379 316.5 392.5Q289 406 254 406Q213 406 178 383.5Q143 361 121 319Z" glyph-name="b" horiz-adv-x="492" unicode="b" /><glyph d="M302 -84H253L5 650H54Z" glyph-name="backslash" horiz-adv-x="307" unicode="\" /><glyph d="M302 -64H253L5 670H54Z" glyph-name="backslash.cap" horiz-adv-x="307" /><glyph d="M79 650H127V-84H79Z" glyph-name="bar" horiz-adv-x="206" unicode="|" /><glyph d="M79 670H127V-64H79Z" glyph-name="bar.cap" horiz-adv-x="206" /><glyph d="M153 6Q153 -38 195 -38H307V-84H195Q155 -84 129.5 -58Q104 -32 104 10V215Q104 260 62 260H20V306H62Q104 306 104 351V556Q104 598 129.5 624Q155 650 195 650H307V604H195Q153 604 153 560V353Q153 328 142 311Q131 294 113 283Q131 272 142 254.5Q153 237 153 213Z" glyph-name="braceleft" horiz-adv-x="334" unicode="{" /><glyph d="M153 23Q153 -22 195 -22H307V-68H195Q155 -68 129.5 -42Q104 -16 104 26V232Q104 276 62 276H20V323H62Q104 323 104 367V573Q104 614 129.5 640Q155 666 195 666H307V621H195Q153 621 153 576V370Q153 345 142 327.5Q131 310 113 299Q131 288 142 270.5Q153 253 153 229Z" glyph-name="braceleft.cap" horiz-adv-x="334" /><glyph d="M181 213Q181 237 192 254.5Q203 272 221 283Q203 294 192 311Q181 328 181 353V560Q181 604 139 604H27V650H139Q179 650 204.5 624Q230 598 230 556V351Q230 306 272 306H314V260H272Q230 260 230 215V10Q230 -32 204.5 -58Q179 -84 139 -84H27V-38H139Q181 -38 181 6Z" glyph-name="braceright" horiz-adv-x="334" unicode="}" /><glyph d="M181 229Q181 253 192 270.5Q203 288 221 299Q203 310 192 327.5Q181 345 181 370V576Q181 621 139 621H27V666H139Q179 666 204.5 640Q230 614 230 573V367Q230 323 272 323H314V276H272Q230 276 230 232V26Q230 -16 204.5 -42Q179 -68 139 -68H27V-22H139Q181 -22 181 23Z" glyph-name="braceright.cap" horiz-adv-x="334" /><glyph d="M127 -38H285V-84H79V650H285V604H127Z" glyph-name="bracketleft" horiz-adv-x="312" unicode="[" /><glyph d="M127 -22H285V-68H79V666H285V621H127Z" glyph-name="bracketleft.cap" horiz-adv-x="312" /><glyph d="M185 604H27V650H233V-84H27V-38H185Z" glyph-name="bracketright" horiz-adv-x="312" unicode="]" /><glyph d="M185 621H27V666H233V-68H27V-22H185Z" glyph-name="bracketright.cap" horiz-adv-x="312" /><glyph d="M250 506Q228 506 209 514Q190 522 176.5 537Q163 552 155.5 574Q148 596 148 626H188Q188 587 205 565.5Q222 544 250 544Q279 544 295.5 565.5Q312 587 312 626H352Q352 596 344.5 574Q337 552 323.5 537Q310 522 291 514Q272 506 250 506Z" glyph-name="breve" horiz-adv-x="500" unicode="&#728;" /><glyph d="M250 664Q227 664 208 671.5Q189 679 175.5 694Q162 709 154.5 730.5Q147 752 147 781H187Q187 743 204.5 723Q222 703 250 703Q278 703 295.5 723Q313 743 313 781H353Q353 752 345.5 730.5Q338 709 324 694Q310 679 291 671.5Q272 664 250 664Z" glyph-name="breve.cap" horiz-adv-x="500" /><glyph d="M295 260Q295 231 285 208Q275 185 257.5 168Q240 151 216.5 141.5Q193 132 166 132Q139 132 116 141.5Q93 151 75.5 168Q58 185 48 208Q38 231 38 260Q38 288 48 311.5Q58 335 75.5 352Q93 369 116 378.5Q139 388 166 388Q193 388 216.5 378.5Q240 369 257.5 352Q275 335 285 311.5Q295 288 295 260Z" glyph-name="bullet" horiz-adv-x="333" unicode="&#8226;" /><glyph d="M295 300Q295 271 285 248Q275 225 257.5 208Q240 191 216.5 181.5Q193 172 166 172Q139 172 116 181.5Q93 191 75.5 208Q58 225 48 248Q38 271 38 300Q38 328 48 351.5Q58 375 75.5 392Q93 409 116 418.5Q139 428 166 428Q193 428 216.5 418.5Q240 409 257.5 392Q275 375 285 351.5Q295 328 295 300Z" glyph-name="bullet.cap" horiz-adv-x="333" /><glyph d="M39 222Q39 274 53 316.5Q67 359 93 389Q119 419 155 436Q191 453 235 453Q270 453 299 443Q328 433 349.5 415Q371 397 385 371.5Q399 346 406 315H353Q344 358 313.5 383Q283 408 236 408Q203 408 176 394.5Q149 381 130 356.5Q111 332 100.5 298Q90 264 90 222Q90 180 100.5 146Q111 112 130 87.5Q149 63 176 49.5Q203 36 236 36Q283 36 313.5 61Q344 86 353 129H406Q399 98 385 72.5Q371 47 349.5 29Q328 11 299 1Q270 -9 235 -9Q191 -9 155 8Q119 25 93 55Q67 85 53 127.5Q39 170 39 222Z" glyph-name="c" horiz-adv-x="442" unicode="c" /><glyph d="M39 222Q39 274 53 316.5Q67 359 93 389Q119 419 155 436Q191 453 235 453Q270 453 299 443Q328 433 349.5 415Q371 397 385 371.5Q399 346 406 315H353Q344 358 313.5 383Q283 408 236 408Q203 408 176 394.5Q149 381 130 356.5Q111 332 100.5 298Q90 264 90 222Q90 180 100.5 146Q111 112 130 87.5Q149 63 176 49.5Q203 36 236 36Q283 36 313.5 61Q344 86 353 129H406Q399 98 385 72.5Q371 47 349.5 29Q328 11 299 1Q270 -9 235 -9Q191 -9 155 8Q119 25 93 55Q67 85 53 127.5Q39 170 39 222ZM209 520 292 650H345L258 520Z" glyph-name="cacute" horiz-adv-x="442" unicode="&#263;" /><glyph d="M273 515H228L136 645H182L250 550L318 645H365Z" glyph-name="caron" horiz-adv-x="500" unicode="&#711;" /><glyph d="M211 490 244 650H284L252 490Z" glyph-name="caron.Slovak" horiz-adv-x="500" /><glyph d="M136 779H184L250 696L317 779H365L273 660H228Z" glyph-name="caron.cap" horiz-adv-x="500" /><glyph d="M39 222Q39 274 53 316.5Q67 359 93 389Q119 419 155 436Q191 453 235 453Q270 453 299 443Q328 433 349.5 415Q371 397 385 371.5Q399 346 406 315H353Q344 358 313.5 383Q283 408 236 408Q203 408 176 394.5Q149 381 130 356.5Q111 332 100.5 298Q90 264 90 222Q90 180 100.5 146Q111 112 130 87.5Q149 63 176 49.5Q203 36 236 36Q283 36 313.5 61Q344 86 353 129H406Q399 98 385 72.5Q371 47 349.5 29Q328 11 299 1Q270 -9 235 -9Q191 -9 155 8Q119 25 93 55Q67 85 53 127.5Q39 170 39 222ZM262 515H217L125 645H171L239 550L307 645H354Z" glyph-name="ccaron" horiz-adv-x="442" unicode="&#269;" /><glyph d="M39 222Q39 274 53 316.5Q67 359 93 389Q119 419 155 436Q191 453 235 453Q270 453 299 443Q328 433 349.5 415Q371 397 385 371.5Q399 346 406 315H353Q344 358 313.5 383Q283 408 236 408Q203 408 176 394.5Q149 381 130 356.5Q111 332 100.5 298Q90 264 90 222Q90 180 100.5 146Q111 112 130 87.5Q149 63 176 49.5Q203 36 236 36Q283 36 313.5 61Q344 86 353 129H406Q399 98 385 72.5Q371 47 349.5 29Q328 11 299 1Q270 -9 235 -9Q191 -9 155 8Q119 25 93 55Q67 85 53 127.5Q39 170 39 222ZM157 -176 217 -48H266L204 -176Z" glyph-name="ccedilla" horiz-adv-x="442" unicode="&#231;" /><glyph d="M39 222Q39 274 53 316.5Q67 359 93 389Q119 419 155 436Q191 453 235 453Q270 453 299 443Q328 433 349.5 415Q371 397 385 371.5Q399 346 406 315H353Q344 358 313.5 383Q283 408 236 408Q203 408 176 394.5Q149 381 130 356.5Q111 332 100.5 298Q90 264 90 222Q90 180 100.5 146Q111 112 130 87.5Q149 63 176 49.5Q203 36 236 36Q283 36 313.5 61Q344 86 353 129H406Q399 98 385 72.5Q371 47 349.5 29Q328 11 299 1Q270 -9 235 -9Q191 -9 155 8Q119 25 93 55Q67 85 53 127.5Q39 170 39 222ZM354 513H307L239 609L171 513H125L217 644H262Z" glyph-name="ccircumflex" horiz-adv-x="442" unicode="&#265;" /><glyph d="M39 222Q39 274 53 316.5Q67 359 93 389Q119 419 155 436Q191 453 235 453Q270 453 299 443Q328 433 349.5 415Q371 397 385 371.5Q399 346 406 315H353Q344 358 313.5 383Q283 408 236 408Q203 408 176 394.5Q149 381 130 356.5Q111 332 100.5 298Q90 264 90 222Q90 180 100.5 146Q111 112 130 87.5Q149 63 176 49.5Q203 36 236 36Q283 36 313.5 61Q344 86 353 129H406Q399 98 385 72.5Q371 47 349.5 29Q328 11 299 1Q270 -9 235 -9Q191 -9 155 8Q119 25 93 55Q67 85 53 127.5Q39 170 39 222ZM273 579Q273 564 263.5 554Q254 544 239 544Q224 544 214.5 554Q205 564 205 579Q205 593 214.5 603Q224 613 239 613Q254 613 263.5 603Q273 593 273 579Z" glyph-name="cdotaccent" horiz-adv-x="442" unicode="&#267;" /><glyph d="M194 -176 254 -48H303L241 -176Z" glyph-name="cedilla" horiz-adv-x="500" unicode="&#184;" /><glyph d="M194 -176 254 -48H303L241 -176Z" glyph-name="cedilla.alt" horiz-adv-x="500" /><glyph d="M39 232Q39 284 53 326.5Q67 369 93 399Q119 429 155 446Q183 459 217 462V548H263V461Q282 458 299 452Q328 442 349.5 424Q371 406 385 380Q399 354 405 323H354Q344 367 313.5 392.5Q283 418 235 418Q202 418 175.5 404.5Q149 391 130 366.5Q111 342 100.5 308Q90 274 90 232Q90 190 100.5 156Q111 122 130 97.5Q149 73 175.5 59.5Q202 46 235 46Q283 46 313.5 71.5Q344 97 354 141H405Q399 110 385 84Q371 58 349.5 40Q328 22 299 11Q282 5 263 2V-84H217V1Q183 4 155 18Q119 35 93 65Q67 95 53 137.5Q39 180 39 232Z" glyph-name="cent" horiz-adv-x="442" unicode="&#162;" /><glyph d="M74 232Q74 284 88 326.5Q102 369 128 399Q154 429 190 446Q218 459 252 462V548H298V461Q317 458 334 452Q363 442 384.5 424Q406 406 420 380Q434 354 440 323H389Q379 367 348.5 392.5Q318 418 270 418Q237 418 210.5 404.5Q184 391 165 366.5Q146 342 135.5 308Q125 274 125 232Q125 190 135.5 156Q146 122 165 97.5Q184 73 210.5 59.5Q237 46 270 46Q318 46 348.5 71.5Q379 97 389 141H440Q434 110 420 84Q406 58 384.5 40Q363 22 334 11Q317 5 298 2V-84H252V1Q218 4 190 18Q154 35 128 65Q102 95 88 137.5Q74 180 74 232Z" glyph-name="cent.lt" horiz-adv-x="520" /><glyph d="M365 513H318L250 609L182 513H136L228 644H273Z" glyph-name="circumflex" horiz-adv-x="500" unicode="&#710;" /><glyph d="M365 667H317L250 750L184 667H136L228 786H273Z" glyph-name="circumflex.cap" horiz-adv-x="500" /><glyph d="M33 364Q33 380 44 391.5Q55 403 71 403Q79 403 86 400Q93 397 98 391.5Q103 386 106 379.5Q109 373 109 364Q109 356 106 349Q103 342 98 336.5Q93 331 86 328Q79 325 71 325Q63 325 56 328Q49 331 44 336.5Q39 342 36 349Q33 356 33 364ZM33 36Q33 52 44 63.5Q55 75 71 75Q79 75 86 72Q93 69 98 63.5Q103 58 106 51Q109 44 109 36Q109 27 106 20Q103 13 98 8Q93 3 86 0Q79 -3 71 -3Q63 -3 56 0Q49 3 44 8Q39 13 36 20Q33 27 33 36Z" glyph-name="colon" horiz-adv-x="142" unicode=":" /><glyph d="M92 364Q92 380 103 391.5Q114 403 130 403Q138 403 145 400Q152 397 157 391.5Q162 386 165 379.5Q168 373 168 364Q168 356 165 349Q162 342 157 336.5Q152 331 145 328Q138 325 130 325Q122 325 115 328Q108 331 103 336.5Q98 342 95 349Q92 356 92 364ZM92 36Q92 52 103 63.5Q114 75 130 75Q138 75 145 72Q152 69 157 63.5Q162 58 165 51Q168 44 168 36Q168 27 165 20Q162 13 157 8Q152 3 145 0Q138 -3 130 -3Q122 -3 115 0Q108 3 103 8Q98 13 95 20Q92 27 92 36Z" glyph-name="colon.tab" horiz-adv-x="260" /><glyph d="M64 -1Q52 2 42.5 11Q33 20 33 36Q33 52 44 63Q55 74 71 74Q87 74 98 63Q109 52 109 33Q109 21 105 10.5Q101 0 94 -11L46 -102H10Z" glyph-name="comma" horiz-adv-x="142" unicode="," /><glyph d="M123 -1Q111 2 101.5 11Q92 20 92 36Q92 52 103 63Q114 74 130 74Q146 74 157 63Q168 52 168 33Q168 21 164 10.5Q160 0 153 -11L105 -102H69Z" glyph-name="comma.tab" horiz-adv-x="260" /><glyph d="M247 -116Q235 -114 226.5 -105.5Q218 -97 218 -83Q218 -67 228.5 -57Q239 -47 254 -47Q270 -47 280 -57.5Q290 -68 290 -84Q290 -96 286 -105.5Q282 -115 276 -126L245 -183H211Z" glyph-name="commaaccent" horiz-adv-x="500" /><glyph d="M252 595Q264 593 273 584.5Q282 576 282 561Q282 546 271 535.5Q260 525 245 525Q229 525 218.5 535.5Q208 546 208 562Q208 575 212.5 584.5Q217 594 223 605L254 663H288Z" glyph-name="commaturn" horiz-adv-x="500" /><glyph d="M670 307Q670 238 645 180.5Q620 123 577.5 80.5Q535 38 477.5 14.5Q420 -9 355 -9Q290 -9 232 14.5Q174 38 131.5 80.5Q89 123 64 180.5Q39 238 39 307Q39 376 64 433.5Q89 491 131.5 533.5Q174 576 232 599.5Q290 623 355 623Q420 623 477.5 599.5Q535 576 577.5 533.5Q620 491 645 433.5Q670 376 670 307ZM638 307Q638 369 615.5 421Q593 473 554.5 510.5Q516 548 464.5 569.5Q413 591 355 591Q296 591 244.5 569.5Q193 548 154.5 510.5Q116 473 93.5 421Q71 369 71 307Q71 245 93.5 193Q116 141 154.5 103.5Q193 66 244.5 44.5Q296 23 355 23Q413 23 464.5 44.5Q516 66 554.5 103.5Q593 141 615.5 193Q638 245 638 307ZM183 309Q183 354 196.5 391Q210 428 233.5 454Q257 480 289.5 494Q322 508 359 508Q389 508 414.5 499.5Q440 491 459 475.5Q478 460 491 438Q504 416 510 390H460Q448 424 422.5 443Q397 462 359 462Q303 462 268 420.5Q233 379 233 309Q233 239 268 197.5Q303 156 359 156Q397 156 422.5 175Q448 194 460 228H510Q504 202 491 180Q478 158 459 142.5Q440 127 414.5 118.5Q389 110 359 110Q322 110 289.5 124Q257 138 233.5 164Q210 190 196.5 227Q183 264 183 309Z" glyph-name="copyright" horiz-adv-x="709" unicode="&#169;" /><glyph d="M371 66Q361 51 347 38Q333 25 315.5 14.5Q298 4 277 -2.5Q256 -9 233 -9Q184 -9 147.5 10Q111 29 87 60.5Q63 92 51 134Q39 176 39 222Q39 268 51 310Q63 352 87 383.5Q111 415 147.5 434Q184 453 233 453Q256 453 277 446.5Q298 440 315.5 429.5Q333 419 347 405.5Q361 392 371 378V650H421V0H371ZM371 319Q349 361 314 383.5Q279 406 238 406Q202 406 175 392.5Q148 379 129 354.5Q110 330 100 296Q90 262 90 222Q90 182 100 148Q110 114 129 89.5Q148 65 175 51.5Q202 38 238 38Q279 38 314 60.5Q349 83 371 125Z" glyph-name="d" horiz-adv-x="492" unicode="d" /><glyph d="M31 558H130V650H171V558H270V519H171V315H130V519H31Z" glyph-name="dagger" horiz-adv-x="301" unicode="&#8224;" /><glyph d="M32 442H131V522H32V560H131V650H172V560H272V522H172V442H272V405H172V315H131V405H32Z" glyph-name="daggerdbl" horiz-adv-x="304" unicode="&#8225;" /><glyph d="M371 66Q361 51 347 38Q333 25 315.5 14.5Q298 4 277 -2.5Q256 -9 233 -9Q184 -9 147.5 10Q111 29 87 60.5Q63 92 51 134Q39 176 39 222Q39 268 51 310Q63 352 87 383.5Q111 415 147.5 434Q184 453 233 453Q256 453 277 446.5Q298 440 315.5 429.5Q333 419 347 405.5Q361 392 371 378V650H421V0H371ZM371 319Q349 361 314 383.5Q279 406 238 406Q202 406 175 392.5Q148 379 129 354.5Q110 330 100 296Q90 262 90 222Q90 182 100 148Q110 114 129 89.5Q148 65 175 51.5Q202 38 238 38Q279 38 314 60.5Q349 83 371 125ZM478 490 511 650H551L519 490Z" glyph-name="dcaron" horiz-adv-x="492" unicode="&#271;" /><glyph d="M371 66Q361 51 347 38Q333 25 315.5 14.5Q298 4 277 -2.5Q256 -9 233 -9Q184 -9 147.5 10Q111 29 87 60.5Q63 92 51 134Q39 176 39 222Q39 268 51 310Q63 352 87 383.5Q111 415 147.5 434Q184 453 233 453Q256 453 277 446.5Q298 440 315.5 429.5Q333 419 347 405.5Q361 392 371 378V520H256V558H371V650H421V558H474V520H421V0H371ZM371 319Q349 361 314 383.5Q279 406 238 406Q202 406 175 392.5Q148 379 129 354.5Q110 330 100 296Q90 262 90 222Q90 182 100 148Q110 114 129 89.5Q148 65 175 51.5Q202 38 238 38Q279 38 314 60.5Q349 83 371 125Z" glyph-name="dcroat" horiz-adv-x="492" unicode="&#273;" /><glyph d="M85 508Q85 477 106.5 455.5Q128 434 158 434Q189 434 210.5 455.5Q232 477 232 508Q232 539 210.5 561Q189 583 158 583Q128 583 106.5 561Q85 539 85 508ZM272 508Q272 484 263 463Q254 442 238.5 427Q223 412 202.5 403Q182 394 158 394Q135 394 114 403Q93 412 78 427Q63 442 54 463Q45 484 45 508Q45 532 54 553Q63 574 78 589Q93 604 114 613.5Q135 623 158 623Q182 623 202.5 613.5Q223 604 238.5 589Q254 574 263 553Q272 532 272 508Z" glyph-name="degree" horiz-adv-x="317" unicode="&#176;" /><glyph d="M154 571Q154 585 163.5 594.5Q173 604 187 604Q194 604 200 601Q206 598 210.5 594Q215 590 217.5 584Q220 578 220 571Q220 557 210.5 547.5Q201 538 187 538Q173 538 163.5 547.5Q154 557 154 571ZM279 571Q279 585 288.5 594.5Q298 604 312 604Q319 604 325 601Q331 598 335.5 594Q340 590 343 584Q346 578 346 571Q346 557 336 547.5Q326 538 312 538Q298 538 288.5 547.5Q279 557 279 571Z" glyph-name="dieresis" horiz-adv-x="500" unicode="&#168;" /><glyph d="M154 715Q154 730 163.5 739Q173 748 187 748Q201 748 210.5 739Q220 730 220 715Q220 701 210.5 691.5Q201 682 187 682Q173 682 163.5 691.5Q154 701 154 715ZM279 715Q279 730 288.5 739Q298 748 312 748Q326 748 336 739Q346 730 346 715Q346 701 336 691.5Q326 682 312 682Q298 682 288.5 691.5Q279 701 279 715Z" glyph-name="dieresis.cap" horiz-adv-x="500" /><glyph d="M71 316H443V273H71ZM220 448Q220 463 231 474Q242 485 257 485Q272 485 283 474Q294 463 294 448Q294 432 283 421Q272 410 257 410Q242 410 231 421Q220 432 220 448ZM220 142Q220 157 231 168Q242 179 257 179Q272 179 283 168Q294 157 294 142Q294 126 283 115Q272 104 257 104Q242 104 231 115Q220 126 220 142Z" glyph-name="divide" horiz-adv-x="514" unicode="&#247;" /><glyph d="M73 316H445V273H73ZM222 448Q222 463 233 474Q244 485 259 485Q274 485 285 474Q296 463 296 448Q296 432 285 421Q274 410 259 410Q244 410 233 421Q222 432 222 448ZM222 142Q222 157 233 168Q244 179 259 179Q274 179 285 168Q296 157 296 142Q296 126 285 115Q274 104 259 104Q244 104 233 115Q222 126 222 142Z" glyph-name="divide.lt" horiz-adv-x="520" /><glyph d="M373 459Q357 504 320.5 530.5Q284 557 222 557Q194 557 169.5 550Q145 543 127 529.5Q109 516 99 495.5Q89 475 89 449Q89 426 96.5 410.5Q104 395 118 383Q132 371 152 362.5Q172 354 198 347L292 321Q362 302 394.5 265.5Q427 229 427 171Q427 134 412 104Q397 74 371.5 54Q346 34 311 23Q285 16 257 13V-85H211V14Q149 18 102 49Q46 85 27 153H79Q97 105 137.5 81Q178 57 235 57Q266 57 292.5 64.5Q319 72 338 86.5Q357 101 368 122Q379 143 379 170Q379 208 357 233.5Q335 259 281 275L175 304Q145 313 120.5 324.5Q96 336 78.5 353Q61 370 51 393Q41 416 41 447Q41 484 55.5 512.5Q70 541 94.5 560.5Q119 580 151 590Q179 599 211 601V690H257V599Q278 596 296 591Q330 581 355 562.5Q380 544 397 517.5Q414 491 422 459Z" glyph-name="dollar" horiz-adv-x="463" unicode="$" /><glyph d="M404 459Q388 504 351.5 530.5Q315 557 253 557Q225 557 200.5 550Q176 543 158 529.5Q140 516 130 495.5Q120 475 120 449Q120 426 127.5 410.5Q135 395 149 383Q163 371 183 362.5Q203 354 229 347L323 321Q393 302 425.5 265.5Q458 229 458 171Q458 134 443 104Q428 74 402.5 54Q377 34 342 23Q316 16 288 13V-85H242V14Q180 18 133 49Q77 85 58 153H110Q128 105 168.5 81Q209 57 266 57Q297 57 323.5 64.5Q350 72 369 86.5Q388 101 399 122Q410 143 410 170Q410 208 388 233.5Q366 259 312 275L206 304Q176 313 151.5 324.5Q127 336 109.5 353Q92 370 82 393Q72 416 72 447Q72 484 86.5 512.5Q101 541 125.5 560.5Q150 580 182 590Q210 599 242 601V690H288V599Q309 596 327 591Q361 581 386 562.5Q411 544 428 517.5Q445 491 453 459Z" glyph-name="dollar.lt" horiz-adv-x="520" /><glyph d="M284 579Q284 564 274.5 554Q265 544 250 544Q235 544 225.5 554Q216 564 216 579Q216 593 225.5 603Q235 613 250 613Q265 613 274.5 603Q284 593 284 579Z" glyph-name="dotaccent" horiz-adv-x="500" unicode="&#729;" /><glyph d="M284 714Q284 700 274.5 690Q265 680 250 680Q235 680 225.5 690Q216 700 216 714Q216 729 225.5 739Q235 749 250 749Q265 749 274.5 739Q284 729 284 714Z" glyph-name="dotaccent.cap" horiz-adv-x="500" /><glyph d="M284 -111Q284 -126 274.5 -136Q265 -146 250 -146Q235 -146 225.5 -136Q216 -126 216 -111Q216 -97 225.5 -87Q235 -77 250 -77Q265 -77 274.5 -87Q284 -97 284 -111Z" glyph-name="dotbelow" horiz-adv-x="500" /><glyph d="M121 0H71V444H121Z" glyph-name="dotlessi" horiz-adv-x="192" unicode="&#305;" /><glyph d="M122 -64Q122 -121 92 -150Q62 -179 10 -179Q4 -179 -3 -178Q-10 -177 -14 -176V-132Q-10 -133 -4.5 -133.5Q1 -134 7 -134Q22 -134 34 -130.5Q46 -127 54.5 -118.5Q63 -110 67.5 -95.5Q72 -81 72 -59V444H122Z" glyph-name="dotlessj" horiz-adv-x="193" unicode="&#567;" /><glyph d="M408 129Q395 67 350.5 29Q306 -9 236 -9Q192 -9 156 8Q120 25 94 55Q68 85 53.5 127.5Q39 170 39 222Q39 271 52.5 313.5Q66 356 91.5 387Q117 418 153.5 435.5Q190 453 235 453Q279 453 313 437Q347 421 370 392Q393 363 404.5 323Q416 283 416 236V218H89Q89 176 100 142Q111 108 131 84.5Q151 61 177.5 48Q204 35 236 35Q284 35 317 60Q350 85 360 129ZM235 409Q206 409 181 398Q156 387 137 367.5Q118 348 106 320Q94 292 91 258H365Q364 287 356 314.5Q348 342 332 363Q316 384 292 396.5Q268 409 235 409Z" glyph-name="e" horiz-adv-x="453" unicode="e" /><glyph d="M408 129Q395 67 350.5 29Q306 -9 236 -9Q192 -9 156 8Q120 25 94 55Q68 85 53.5 127.5Q39 170 39 222Q39 271 52.5 313.5Q66 356 91.5 387Q117 418 153.5 435.5Q190 453 235 453Q279 453 313 437Q347 421 370 392Q393 363 404.5 323Q416 283 416 236V218H89Q89 176 100 142Q111 108 131 84.5Q151 61 177.5 48Q204 35 236 35Q284 35 317 60Q350 85 360 129ZM235 409Q206 409 181 398Q156 387 137 367.5Q118 348 106 320Q94 292 91 258H365Q364 287 356 314.5Q348 342 332 363Q316 384 292 396.5Q268 409 235 409ZM208 520 291 650H344L257 520Z" glyph-name="eacute" horiz-adv-x="453" unicode="&#233;" /><glyph d="M408 129Q395 67 350.5 29Q306 -9 236 -9Q192 -9 156 8Q120 25 94 55Q68 85 53.5 127.5Q39 170 39 222Q39 271 52.5 313.5Q66 356 91.5 387Q117 418 153.5 435.5Q190 453 235 453Q279 453 313 437Q347 421 370 392Q393 363 404.5 323Q416 283 416 236V218H89Q89 176 100 142Q111 108 131 84.5Q151 61 177.5 48Q204 35 236 35Q284 35 317 60Q350 85 360 129ZM235 409Q206 409 181 398Q156 387 137 367.5Q118 348 106 320Q94 292 91 258H365Q364 287 356 314.5Q348 342 332 363Q316 384 292 396.5Q268 409 235 409ZM238 506Q216 506 197 514Q178 522 164.5 537Q151 552 143.5 574Q136 596 136 626H176Q176 587 193 565.5Q210 544 238 544Q267 544 283.5 565.5Q300 587 300 626H340Q340 596 332.5 574Q325 552 311.5 537Q298 522 279 514Q260 506 238 506Z" glyph-name="ebreve" horiz-adv-x="453" unicode="&#277;" /><glyph d="M408 129Q395 67 350.5 29Q306 -9 236 -9Q192 -9 156 8Q120 25 94 55Q68 85 53.5 127.5Q39 170 39 222Q39 271 52.5 313.5Q66 356 91.5 387Q117 418 153.5 435.5Q190 453 235 453Q279 453 313 437Q347 421 370 392Q393 363 404.5 323Q416 283 416 236V218H89Q89 176 100 142Q111 108 131 84.5Q151 61 177.5 48Q204 35 236 35Q284 35 317 60Q350 85 360 129ZM235 409Q206 409 181 398Q156 387 137 367.5Q118 348 106 320Q94 292 91 258H365Q364 287 356 314.5Q348 342 332 363Q316 384 292 396.5Q268 409 235 409ZM261 515H216L124 645H170L238 550L306 645H353Z" glyph-name="ecaron" horiz-adv-x="453" unicode="&#283;" /><glyph d="M408 129Q395 67 350.5 29Q306 -9 236 -9Q192 -9 156 8Q120 25 94 55Q68 85 53.5 127.5Q39 170 39 222Q39 271 52.5 313.5Q66 356 91.5 387Q117 418 153.5 435.5Q190 453 235 453Q279 453 313 437Q347 421 370 392Q393 363 404.5 323Q416 283 416 236V218H89Q89 176 100 142Q111 108 131 84.5Q151 61 177.5 48Q204 35 236 35Q284 35 317 60Q350 85 360 129ZM235 409Q206 409 181 398Q156 387 137 367.5Q118 348 106 320Q94 292 91 258H365Q364 287 356 314.5Q348 342 332 363Q316 384 292 396.5Q268 409 235 409ZM353 513H306L238 609L170 513H124L216 644H261Z" glyph-name="ecircumflex" horiz-adv-x="453" unicode="&#234;" /><glyph d="M408 129Q395 67 350.5 29Q306 -9 236 -9Q192 -9 156 8Q120 25 94 55Q68 85 53.5 127.5Q39 170 39 222Q39 271 52.5 313.5Q66 356 91.5 387Q117 418 153.5 435.5Q190 453 235 453Q279 453 313 437Q347 421 370 392Q393 363 404.5 323Q416 283 416 236V218H89Q89 176 100 142Q111 108 131 84.5Q151 61 177.5 48Q204 35 236 35Q284 35 317 60Q350 85 360 129ZM235 409Q206 409 181 398Q156 387 137 367.5Q118 348 106 320Q94 292 91 258H365Q364 287 356 314.5Q348 342 332 363Q316 384 292 396.5Q268 409 235 409ZM143 571Q143 585 152.5 594.5Q162 604 176 604Q183 604 189 601Q195 598 199.5 594Q204 590 206.5 584Q209 578 209 571Q209 557 199.5 547.5Q190 538 176 538Q162 538 152.5 547.5Q143 557 143 571ZM268 571Q268 585 277.5 594.5Q287 604 301 604Q308 604 314 601Q320 598 324.5 594Q329 590 332 584Q335 578 335 571Q335 557 325 547.5Q315 538 301 538Q287 538 277.5 547.5Q268 557 268 571Z" glyph-name="edieresis" horiz-adv-x="453" unicode="&#235;" /><glyph d="M408 129Q395 67 350.5 29Q306 -9 236 -9Q192 -9 156 8Q120 25 94 55Q68 85 53.5 127.5Q39 170 39 222Q39 271 52.5 313.5Q66 356 91.5 387Q117 418 153.5 435.5Q190 453 235 453Q279 453 313 437Q347 421 370 392Q393 363 404.5 323Q416 283 416 236V218H89Q89 176 100 142Q111 108 131 84.5Q151 61 177.5 48Q204 35 236 35Q284 35 317 60Q350 85 360 129ZM235 409Q206 409 181 398Q156 387 137 367.5Q118 348 106 320Q94 292 91 258H365Q364 287 356 314.5Q348 342 332 363Q316 384 292 396.5Q268 409 235 409ZM272 579Q272 564 262.5 554Q253 544 238 544Q223 544 213.5 554Q204 564 204 579Q204 593 213.5 603Q223 613 238 613Q253 613 262.5 603Q272 593 272 579Z" glyph-name="edotaccent" horiz-adv-x="453" unicode="&#279;" /><glyph d="M408 129Q395 67 350.5 29Q306 -9 236 -9Q192 -9 156 8Q120 25 94 55Q68 85 53.5 127.5Q39 170 39 222Q39 271 52.5 313.5Q66 356 91.5 387Q117 418 153.5 435.5Q190 453 235 453Q279 453 313 437Q347 421 370 392Q393 363 404.5 323Q416 283 416 236V218H89Q89 176 100 142Q111 108 131 84.5Q151 61 177.5 48Q204 35 236 35Q284 35 317 60Q350 85 360 129ZM235 409Q206 409 181 398Q156 387 137 367.5Q118 348 106 320Q94 292 91 258H365Q364 287 356 314.5Q348 342 332 363Q316 384 292 396.5Q268 409 235 409ZM216 520 129 650H182L265 520Z" glyph-name="egrave" horiz-adv-x="453" unicode="&#232;" /><glyph d="M240 35Q275 35 303.5 45.5Q332 56 353 74.5Q374 93 385.5 117.5Q397 142 397 170Q397 198 385.5 223Q374 248 353 266Q332 284 303.5 294.5Q275 305 240 305Q206 305 177 294.5Q148 284 127.5 266Q107 248 95.5 223Q84 198 84 170Q84 142 95.5 117.5Q107 93 127.5 74.5Q148 56 177 45.5Q206 35 240 35ZM240 349Q270 349 294 358Q318 367 335.5 382.5Q353 398 362.5 419Q372 440 372 464Q372 488 362.5 509Q353 530 335.5 545.5Q318 561 294 570Q270 579 240 579Q211 579 186.5 570Q162 561 145 545.5Q128 530 118 509Q108 488 108 464Q108 440 118 419Q128 398 145 382.5Q162 367 186.5 358Q211 349 240 349ZM240 -9Q196 -9 158 4.5Q120 18 92.5 41.5Q65 65 49.5 97Q34 129 34 168Q34 197 43 222.5Q52 248 69 268.5Q86 289 109.5 304Q133 319 161 327Q114 344 86.5 381Q59 418 59 465Q59 499 72 528Q85 557 109.5 578Q134 599 167.5 611Q201 623 240 623Q280 623 313 611Q346 599 370.5 578Q395 557 408.5 528Q422 499 422 465Q422 418 394 381Q366 344 320 327Q348 319 371.5 304Q395 289 412 268.5Q429 248 438 222.5Q447 197 447 168Q447 129 431.5 97Q416 65 388.5 41.5Q361 18 323 4.5Q285 -9 240 -9Z" glyph-name="eight" horiz-adv-x="481" unicode="8" /><glyph d="M260 35Q295 35 325 45.5Q355 56 376.5 74.5Q398 93 409.5 117.5Q421 142 421 170Q421 198 409.5 223Q398 248 376.5 266Q355 284 325 294.5Q295 305 260 305Q225 305 195.5 294.5Q166 284 144.5 266Q123 248 111.5 223Q100 198 100 170Q100 142 111.5 117.5Q123 93 144.5 74.5Q166 56 195.5 45.5Q225 35 260 35ZM260 349Q289 349 314.5 358Q340 367 358 382.5Q376 398 386 419Q396 440 396 464Q396 488 386 509Q376 530 358 545.5Q340 561 314.5 570Q289 579 260 579Q230 579 205.5 570Q181 561 163 545.5Q145 530 135 509Q125 488 125 464Q125 440 135 419Q145 398 163 382.5Q181 367 205.5 358Q230 349 260 349ZM260 -9Q214 -9 175.5 4.5Q137 18 109.5 41.5Q82 65 66 97Q50 129 50 168Q50 197 59.5 222.5Q69 248 86 268.5Q103 289 126.5 304Q150 319 179 327Q131 344 103 381Q75 418 75 465Q75 499 89 528Q103 557 127.5 578Q152 599 185.5 611Q219 623 260 623Q300 623 334 611Q368 599 392.5 578Q417 557 431 528Q445 499 445 465Q445 418 417 381Q389 344 341 327Q370 319 394 304Q418 289 435 268.5Q452 248 461.5 222.5Q471 197 471 168Q471 129 455.5 97Q440 65 411.5 41.5Q383 18 344 4.5Q305 -9 260 -9Z" glyph-name="eight.lt" horiz-adv-x="520" /><glyph d="M33 36Q33 52 44 63.5Q55 75 71 75Q79 75 86 72Q93 69 98 63.5Q103 58 106 51Q109 44 109 36Q109 27 106 20Q103 13 98 8Q93 3 86 0Q79 -3 71 -3Q63 -3 56 0Q49 3 44 8Q39 13 36 20Q33 27 33 36ZM194 36Q194 52 205 63.5Q216 75 232 75Q240 75 247 72Q254 69 259 63.5Q264 58 267 51Q270 44 270 36Q270 27 267 20Q264 13 259 8Q254 3 247 0Q240 -3 232 -3Q225 -3 218 0Q211 3 205.5 8Q200 13 197 20Q194 27 194 36ZM356 36Q356 52 367 63.5Q378 75 394 75Q401 75 408.5 72Q416 69 421 63.5Q426 58 429 51Q432 44 432 36Q432 27 429 20Q426 13 421 8Q416 3 408.5 0Q401 -3 394 -3Q386 -3 379 0Q372 3 367 8Q362 13 359 20Q356 27 356 36Z" glyph-name="ellipsis" horiz-adv-x="465" unicode="&#8230;" /><glyph d="M408 129Q395 67 350.5 29Q306 -9 236 -9Q192 -9 156 8Q120 25 94 55Q68 85 53.5 127.5Q39 170 39 222Q39 271 52.5 313.5Q66 356 91.5 387Q117 418 153.5 435.5Q190 453 235 453Q279 453 313 437Q347 421 370 392Q393 363 404.5 323Q416 283 416 236V218H89Q89 176 100 142Q111 108 131 84.5Q151 61 177.5 48Q204 35 236 35Q284 35 317 60Q350 85 360 129ZM235 409Q206 409 181 398Q156 387 137 367.5Q118 348 106 320Q94 292 91 258H365Q364 287 356 314.5Q348 342 332 363Q316 384 292 396.5Q268 409 235 409ZM138 579H340V537H138Z" glyph-name="emacron" horiz-adv-x="453" unicode="&#275;" /><glyph d="M40 281H806V239H40Z" glyph-name="emdash" horiz-adv-x="846" unicode="&#8212;" /><glyph d="M40 321H806V279H40Z" glyph-name="emdash.cap" horiz-adv-x="846" /><glyph d="M40 281H435V239H40Z" glyph-name="endash" horiz-adv-x="475" unicode="&#8211;" /><glyph d="M40 321H435V279H40Z" glyph-name="endash.cap" horiz-adv-x="475" /><glyph d="M367 286Q367 338 340 372Q313 406 254 406Q231 406 210.5 398.5Q190 391 173 378Q156 365 142.5 347.5Q129 330 121 311V0H71V444H121V373Q141 405 178.5 429Q216 453 263 453Q339 453 378 409Q417 365 417 294V-64Q417 -121 387.5 -150Q358 -179 305 -179Q299 -179 292.5 -178Q286 -177 282 -176V-132Q285 -133 290.5 -133.5Q296 -134 302 -134Q318 -134 330 -130.5Q342 -127 350 -118.5Q358 -110 362.5 -95.5Q367 -81 367 -59Z" glyph-name="eng" horiz-adv-x="483" unicode="&#331;" /><glyph d="M292 3Q279 -3 265 -6Q251 -9 236 -9Q192 -9 156 8Q120 25 94 55Q68 85 53.5 127.5Q39 170 39 222Q39 271 52.5 313.5Q66 356 91.5 387Q117 418 153.5 435.5Q190 453 235 453Q279 453 313 437Q347 421 370 392Q393 363 404.5 323Q416 283 416 236V218H89Q89 176 100 142Q111 108 131 84.5Q151 61 177.5 48Q204 35 236 35Q283 35 316.5 60Q350 85 360 129H408Q402 98 388 74Q374 50 348 23Q313 -14 291.5 -47Q270 -80 270 -111Q270 -129 277.5 -137Q285 -145 296 -145Q306 -145 314.5 -141.5Q323 -138 333 -130V-167Q323 -174 312 -178Q301 -182 288 -182Q275 -182 264.5 -178Q254 -174 246 -166Q238 -158 233.5 -146.5Q229 -135 229 -120Q229 -89 246 -60Q263 -31 292 3ZM235 409Q206 409 181 398Q156 387 137 367.5Q118 348 106 320Q94 292 91 258H365Q364 287 356 314.5Q348 342 332 363Q316 384 292 396.5Q268 409 235 409Z" glyph-name="eogonek" horiz-adv-x="453" unicode="&#281;" /><glyph d="M75 252H448V210H75ZM75 381H448V338H75Z" glyph-name="equal" horiz-adv-x="523" unicode="=" /><glyph d="M73 252H446V210H73ZM73 381H446V338H73Z" glyph-name="equal.lt" horiz-adv-x="520" /><glyph d="M125 535 221 567Q214 574 206 581Q169 615 125 646V650H188Q232 620 270 583L351 610L363 576L298 554Q335 514 363 467Q396 412 414 350.5Q432 289 432 224Q432 172 418 129Q404 86 378.5 55.5Q353 25 316.5 8Q280 -9 236 -9Q192 -9 155.5 8Q119 25 93 55.5Q67 86 53 128Q39 170 39 221Q39 272 53 314.5Q67 357 92.5 387.5Q118 418 154 434.5Q190 451 232 451Q272 451 301 435Q330 419 351 393H354Q343 420 322 451Q301 482 272 515Q261 526 250 538L138 501ZM382 221Q382 263 371.5 297Q361 331 342 355.5Q323 380 296 393.5Q269 407 236 407Q202 407 175 393.5Q148 380 129 355.5Q110 331 100 297Q90 263 90 221Q90 179 100 145Q110 111 129 87Q148 63 175 49.5Q202 36 236 36Q269 36 296 49.5Q323 63 342 87Q361 111 371.5 145Q382 179 382 221Z" glyph-name="eth" horiz-adv-x="471" unicode="&#240;" /><glyph d="M65 36Q65 44 68 51Q71 58 76 63.5Q81 69 88 72Q95 75 103 75Q111 75 118 72Q125 69 130 63.5Q135 58 138 51Q141 44 141 36Q141 27 138 20Q135 13 130 8Q125 3 118 0Q111 -3 103 -3Q95 -3 88 0Q81 3 76 8Q71 13 68 20Q65 27 65 36ZM74 614H132L122 192H84Z" glyph-name="exclam" horiz-adv-x="206" unicode="!" /><glyph d="M84 326H122L132 -96H74ZM65 482Q65 491 68 498Q71 505 76 510Q81 515 88 518Q95 521 103 521Q111 521 118 518Q125 515 130 510Q135 505 138 498Q141 491 141 482Q141 474 138 467Q135 460 130 454.5Q125 449 118 446Q111 443 103 443Q95 443 88 446Q81 449 76 454.5Q71 460 68 467Q65 474 65 482Z" glyph-name="exclamdown" horiz-adv-x="209" unicode="&#161;" /><glyph d="M84 422H122L132 0H74ZM65 578Q65 587 68 594Q71 601 76 606Q81 611 88 614Q95 617 103 617Q111 617 118 614Q125 611 130 606Q135 601 138 594Q141 587 141 578Q141 570 138 563Q135 556 130 550.5Q125 545 118 542Q111 539 103 539Q95 539 88 542Q81 545 76 550.5Q71 556 68 563Q65 570 65 578Z" glyph-name="exclamdown.cap" horiz-adv-x="206" /><glyph d="M270 604Q259 609 248 611.5Q237 614 224 614Q188 614 165.5 589.5Q143 565 143 519V444H248V400H143V0H94V400H22V444H94V524Q94 554 103 579Q112 604 129 622Q146 640 169 649.5Q192 659 219 659Q233 659 245.5 657Q258 655 270 650Z" glyph-name="f" horiz-adv-x="259" unicode="f" /><glyph d="M506 604Q495 609 484 611.5Q473 614 460 614Q425 614 402.5 589.5Q380 565 380 519V444H484V400H380V0H330V400H143V0H94V400H22V444H94V518Q94 548 103 573Q112 598 129 616Q146 634 169 643.5Q192 653 219 653Q233 653 245.5 651Q258 649 270 644V598Q259 603 248 605.5Q237 608 224 608Q188 608 165.5 583.5Q143 559 143 513V444H330V524Q330 554 339.5 579Q349 604 366 622Q383 640 405.5 649.5Q428 659 455 659Q470 659 482 657Q494 655 506 650Z" glyph-name="f_f" horiz-adv-x="495" unicode="&#64256;" /><glyph d="M230 344Q190 344 160.5 327Q131 310 112 286H68V614H394V566H114V344Q131 362 162 376Q193 390 233 390Q275 390 310.5 374.5Q346 359 371.5 332Q397 305 411.5 268.5Q426 232 426 190Q426 148 411 112Q396 76 370 49Q344 22 308.5 6.5Q273 -9 230 -9Q188 -9 153 3Q118 15 92 37Q66 59 48.5 91.5Q31 124 24 166H76Q90 103 128 70.5Q166 38 230 38Q262 38 288.5 49.5Q315 61 334.5 82Q354 103 364.5 130.5Q375 158 375 190Q375 222 364.5 250Q354 278 334.5 299Q315 320 288 332Q261 344 230 344Z" glyph-name="five" horiz-adv-x="460" unicode="5" /><glyph d="M260 344Q218 344 186 327Q154 310 135 286H91V614H428V566H136V343Q155 360 187.5 375Q220 390 262 390Q305 390 341.5 374.5Q378 359 404.5 332Q431 305 446 268.5Q461 232 461 190Q461 148 446 112Q431 76 404 49Q377 22 340 6.5Q303 -9 259 -9Q216 -9 179.5 3Q143 15 116 37Q89 59 71.5 91.5Q54 124 46 166H98Q112 103 153 70.5Q194 38 260 38Q292 38 319.5 49.5Q347 61 367.5 82Q388 103 399 130.5Q410 158 410 190Q410 222 399 250Q388 278 367.5 299Q347 320 319.5 332Q292 344 260 344Z" glyph-name="five.lt" horiz-adv-x="520" /><glyph d="M66 337H146L173 488Q183 548 217.5 585.5Q252 623 309 623Q325 623 340 619.5Q355 616 368 611V564Q354 571 340.5 574.5Q327 578 309 578Q274 578 252 553Q230 528 222 483L196 337H299V295H188L128 -44Q123 -73 114 -96Q105 -119 90.5 -136.5Q76 -154 55 -163.5Q34 -173 6 -173Q-11 -173 -25 -170Q-39 -167 -52 -161V-114Q-38 -121 -24.5 -124.5Q-11 -128 5 -128Q41 -128 56.5 -104Q72 -80 79 -40L138 295H66Z" glyph-name="florin" horiz-adv-x="385" unicode="&#402;" /><glyph d="M168 337H248L275 488Q285 548 319.5 585.5Q354 623 411 623Q427 623 442 619.5Q457 616 470 611V564Q456 571 442.5 574.5Q429 578 411 578Q376 578 354 553Q332 528 324 483L298 337H401V295H290L230 -44Q225 -73 216 -96Q207 -119 192.5 -136.5Q178 -154 157 -163.5Q136 -173 108 -173Q91 -173 77 -170Q63 -167 50 -161V-114Q64 -121 77.5 -124.5Q91 -128 107 -128Q143 -128 158.5 -104Q174 -80 181 -40L240 295H168Z" glyph-name="florin.lt" horiz-adv-x="520" /><glyph d="M80 196H309V348H358V196H474V150H358V0H309V150H21V190L262 614H316Z" glyph-name="four" horiz-adv-x="501" unicode="4" /><glyph d="M93 196H322V348H371V196H487V150H371V0H322V150H34V190L275 614H329Z" glyph-name="four.lt" horiz-adv-x="520" /><glyph d="M-74 0H-120L278 614H324Z" glyph-name="fraction" horiz-adv-x="204" unicode="&#8260;" /><glyph d="M367 76Q358 62 344 48.5Q330 35 312 25Q294 15 273.5 9Q253 3 231 3Q182 3 146 21.5Q110 40 86.5 71Q63 102 51 142.5Q39 183 39 228Q39 272 51 312.5Q63 353 86.5 384.5Q110 416 146 434.5Q182 453 231 453Q253 453 273.5 446.5Q294 440 312 430Q330 420 344 406.5Q358 393 367 379V444H417V32Q417 -20 403.5 -60Q390 -100 365.5 -126.5Q341 -153 306.5 -166Q272 -179 230 -179Q192 -179 161 -169.5Q130 -160 107 -142.5Q84 -125 69.5 -100Q55 -75 48 -43H99Q111 -90 145 -113Q179 -136 230 -136Q296 -136 331.5 -94Q367 -52 367 29ZM367 321Q345 362 310.5 384.5Q276 407 236 407Q201 407 174 393.5Q147 380 128.5 356.5Q110 333 100 300Q90 267 90 228Q90 188 100 155.5Q110 123 128.5 99Q147 75 174 61.5Q201 48 236 48Q276 48 310.5 70.5Q345 93 367 134Z" glyph-name="g" horiz-adv-x="488" unicode="g" /><glyph d="M367 76Q358 62 344 48.5Q330 35 312 25Q294 15 273.5 9Q253 3 231 3Q182 3 146 21.5Q110 40 86.5 71Q63 102 51 142.5Q39 183 39 228Q39 272 51 312.5Q63 353 86.5 384.5Q110 416 146 434.5Q182 453 231 453Q253 453 273.5 446.5Q294 440 312 430Q330 420 344 406.5Q358 393 367 379V444H417V32Q417 -20 403.5 -60Q390 -100 365.5 -126.5Q341 -153 306.5 -166Q272 -179 230 -179Q192 -179 161 -169.5Q130 -160 107 -142.5Q84 -125 69.5 -100Q55 -75 48 -43H99Q111 -90 145 -113Q179 -136 230 -136Q296 -136 331.5 -94Q367 -52 367 29ZM367 321Q345 362 310.5 384.5Q276 407 236 407Q201 407 174 393.5Q147 380 128.5 356.5Q110 333 100 300Q90 267 90 228Q90 188 100 155.5Q110 123 128.5 99Q147 75 174 61.5Q201 48 236 48Q276 48 310.5 70.5Q345 93 367 134ZM250 506Q228 506 209 514Q190 522 176.5 537Q163 552 155.5 574Q148 596 148 626H188Q188 587 205 565.5Q222 544 250 544Q279 544 295.5 565.5Q312 587 312 626H352Q352 596 344.5 574Q337 552 323.5 537Q310 522 291 514Q272 506 250 506Z" glyph-name="gbreve" horiz-adv-x="488" unicode="&#287;" /><glyph d="M367 76Q358 62 344 48.5Q330 35 312 25Q294 15 273.5 9Q253 3 231 3Q182 3 146 21.5Q110 40 86.5 71Q63 102 51 142.5Q39 183 39 228Q39 272 51 312.5Q63 353 86.5 384.5Q110 416 146 434.5Q182 453 231 453Q253 453 273.5 446.5Q294 440 312 430Q330 420 344 406.5Q358 393 367 379V444H417V32Q417 -20 403.5 -60Q390 -100 365.5 -126.5Q341 -153 306.5 -166Q272 -179 230 -179Q192 -179 161 -169.5Q130 -160 107 -142.5Q84 -125 69.5 -100Q55 -75 48 -43H99Q111 -90 145 -113Q179 -136 230 -136Q296 -136 331.5 -94Q367 -52 367 29ZM367 321Q345 362 310.5 384.5Q276 407 236 407Q201 407 174 393.5Q147 380 128.5 356.5Q110 333 100 300Q90 267 90 228Q90 188 100 155.5Q110 123 128.5 99Q147 75 174 61.5Q201 48 236 48Q276 48 310.5 70.5Q345 93 367 134ZM365 513H318L250 609L182 513H136L228 644H273Z" glyph-name="gcircumflex" horiz-adv-x="489" unicode="&#285;" /><glyph d="M367 76Q358 62 344 48.5Q330 35 312 25Q294 15 273.5 9Q253 3 231 3Q182 3 146 21.5Q110 40 86.5 71Q63 102 51 142.5Q39 183 39 228Q39 272 51 312.5Q63 353 86.5 384.5Q110 416 146 434.5Q182 453 231 453Q253 453 273.5 446.5Q294 440 312 430Q330 420 344 406.5Q358 393 367 379V444H417V32Q417 -20 403.5 -60Q390 -100 365.5 -126.5Q341 -153 306.5 -166Q272 -179 230 -179Q192 -179 161 -169.5Q130 -160 107 -142.5Q84 -125 69.5 -100Q55 -75 48 -43H99Q111 -90 145 -113Q179 -136 230 -136Q296 -136 331.5 -94Q367 -52 367 29ZM367 321Q345 362 310.5 384.5Q276 407 236 407Q201 407 174 393.5Q147 380 128.5 356.5Q110 333 100 300Q90 267 90 228Q90 188 100 155.5Q110 123 128.5 99Q147 75 174 61.5Q201 48 236 48Q276 48 310.5 70.5Q345 93 367 134ZM252 595Q264 593 273 584.5Q282 576 282 561Q282 546 271 535.5Q260 525 245 525Q229 525 218.5 535.5Q208 546 208 562Q208 575 212.5 584.5Q217 594 223 605L254 663H288Z" glyph-name="gcommaaccent" horiz-adv-x="488" unicode="&#291;" /><glyph d="M367 76Q358 62 344 48.5Q330 35 312 25Q294 15 273.5 9Q253 3 231 3Q182 3 146 21.5Q110 40 86.5 71Q63 102 51 142.5Q39 183 39 228Q39 272 51 312.5Q63 353 86.5 384.5Q110 416 146 434.5Q182 453 231 453Q253 453 273.5 446.5Q294 440 312 430Q330 420 344 406.5Q358 393 367 379V444H417V32Q417 -20 403.5 -60Q390 -100 365.5 -126.5Q341 -153 306.5 -166Q272 -179 230 -179Q192 -179 161 -169.5Q130 -160 107 -142.5Q84 -125 69.5 -100Q55 -75 48 -43H99Q111 -90 145 -113Q179 -136 230 -136Q296 -136 331.5 -94Q367 -52 367 29ZM367 321Q345 362 310.5 384.5Q276 407 236 407Q201 407 174 393.5Q147 380 128.5 356.5Q110 333 100 300Q90 267 90 228Q90 188 100 155.5Q110 123 128.5 99Q147 75 174 61.5Q201 48 236 48Q276 48 310.5 70.5Q345 93 367 134ZM284 580Q284 566 274.5 556Q265 546 250 546Q235 546 225.5 556Q216 566 216 580Q216 595 225.5 605Q235 615 250 615Q265 615 274.5 605Q284 595 284 580Z" glyph-name="gdotaccent" horiz-adv-x="488" unicode="&#289;" /><glyph d="M311 370Q339 366 366 352Q393 338 414 315.5Q435 293 448 260.5Q461 228 461 188Q461 142 447 105.5Q433 69 408.5 44.5Q384 20 349.5 6.5Q315 -7 274 -7Q247 -7 223.5 -1Q200 5 180 16V64Q202 49 224 43.5Q246 38 272 38Q336 38 374 78Q412 118 412 190Q412 227 399.5 255.5Q387 284 364 304Q341 324 309.5 334.5Q278 345 240 345H197V389H240Q266 389 288 398Q310 407 325.5 422.5Q341 438 350 459.5Q359 481 359 506Q359 552 329.5 583Q300 614 247 614Q184 614 152 573Q120 532 120 466V0H71V467Q71 508 82.5 543Q94 578 116.5 603.5Q139 629 171.5 644Q204 659 247 659Q285 659 315 647Q345 635 365.5 614.5Q386 594 397 566.5Q408 539 408 508Q408 480 400 457.5Q392 435 378.5 418Q365 401 347.5 389Q330 377 311 370Z" glyph-name="germandbls" horiz-adv-x="501" unicode="&#223;" /><glyph d="M269 520 182 650H235L318 520Z" glyph-name="grave" horiz-adv-x="500" unicode="`" /><glyph d="M268 665 180 782H237L319 665Z" glyph-name="grave.cap" horiz-adv-x="500" /><glyph d="M341 269 65 119V168L297 293L65 417V467L341 317Z" glyph-name="greater" horiz-adv-x="399" unicode="&gt;" /><glyph d="M398 269 122 119V168L354 293L122 417V467L398 317Z" glyph-name="greater.lt" horiz-adv-x="520" /><glyph d="M343 308 67 193V239L291 332L67 423V470L343 354ZM343 111H67V154H343Z" glyph-name="greaterequal" horiz-adv-x="401" unicode="&#8805;" /><glyph d="M398 308 122 193V239L346 332L122 423V470L398 354ZM398 111H122V154H398Z" glyph-name="greaterequal.lt" horiz-adv-x="520" /><glyph d="M241 85 149 222 241 359H290L198 222L290 85ZM117 85 25 222 117 359H166L74 222L166 85Z" glyph-name="guillemotleft" horiz-adv-x="315" unicode="&#171;" /><glyph d="M241 173 149 309 241 446H290L198 309L290 173ZM117 173 25 309 117 446H166L74 309L166 173Z" glyph-name="guillemotleft.cap" horiz-adv-x="315" /><glyph d="M25 85 117 222 25 359H74L166 222L74 85ZM149 85 241 222 149 359H198L290 222L198 85Z" glyph-name="guillemotright" horiz-adv-x="315" unicode="&#187;" /><glyph d="M25 173 117 309 25 446H74L166 309L74 173ZM149 173 241 309 149 446H198L290 309L198 173Z" glyph-name="guillemotright.cap" horiz-adv-x="315" /><glyph d="M117 85 25 222 117 359H167L75 222L167 85Z" glyph-name="guilsinglleft" horiz-adv-x="192" unicode="&#8249;" /><glyph d="M117 173 25 309 117 446H167L75 309L167 173Z" glyph-name="guilsinglleft.cap" horiz-adv-x="192" /><glyph d="M25 85 117 222 25 359H75L167 222L75 85Z" glyph-name="guilsinglright" horiz-adv-x="192" unicode="&#8250;" /><glyph d="M25 173 117 309 25 446H75L167 309L75 173Z" glyph-name="guilsinglright.cap" horiz-adv-x="192" /><glyph d="M71 650H121V373Q141 405 178.5 429Q216 453 263 453Q339 453 378 409Q417 365 417 294V0H367V286Q367 338 340 372Q313 406 254 406Q231 406 210.5 398.5Q190 391 173 378Q156 365 142.5 347.5Q129 330 121 311V0H71Z" glyph-name="h" horiz-adv-x="483" unicode="h" /><glyph d="M18 558H71V650H121V558H236V520H121V373Q141 405 178 429Q215 453 263 453Q339 453 378 409Q417 365 417 294V0H367V286Q367 338 340 372Q313 406 254 406Q231 406 210.5 398.5Q190 391 173 378Q156 365 142.5 347.5Q129 330 121 311V0H71V520H18Z" glyph-name="hbar" horiz-adv-x="483" unicode="&#295;" /><glyph d="M71 650H121V373Q141 405 178.5 429Q216 453 263 453Q339 453 378 409Q417 365 417 294V0H367V286Q367 338 340 372Q313 406 254 406Q231 406 210.5 398.5Q190 391 173 378Q156 365 142.5 347.5Q129 330 121 311V0H71ZM360 673H312L245 756L179 673H131L223 792H268Z" glyph-name="hcircumflex" horiz-adv-x="483" unicode="&#293;" /><glyph d="M135 520 209 650H254L180 520ZM245 520 319 650H364L290 520Z" glyph-name="hungarumlaut" horiz-adv-x="500" unicode="&#733;" /><glyph d="M134 665 208 782H254L180 665ZM246 665 319 782H366L291 665Z" glyph-name="hungarumlaut.cap" horiz-adv-x="500" /><glyph d="M40 283H281V236H40Z" glyph-name="hyphen" horiz-adv-x="321" unicode="-" /><glyph d="M40 323H281V276H40Z" glyph-name="hyphen.cap" horiz-adv-x="321" /><glyph d="M121 0H71V444H121ZM130 579Q130 564 120.5 554Q111 544 96 544Q81 544 71.5 554Q62 564 62 579Q62 593 71.5 603Q81 613 96 613Q111 613 120.5 603Q130 593 130 579Z" glyph-name="i" horiz-adv-x="192" unicode="i" /><glyph d="M68 520 151 650H204L117 520ZM121 0H71V444H121Z" glyph-name="iacute" horiz-adv-x="192" unicode="&#237;" /><glyph d="M97 506Q57 506 31.5 536.5Q6 567 6 626H45Q45 587 58.5 565.5Q72 544 97 544Q121 544 134.5 565.5Q148 587 148 626H187Q187 567 161.5 536.5Q136 506 97 506ZM121 0H71V444H121Z" glyph-name="ibreve" horiz-adv-x="192" unicode="&#301;" /><glyph d="M191 513H146L96 606L46 513H1L73 644H118ZM121 0H71V444H121Z" glyph-name="icircumflex" horiz-adv-x="192" unicode="&#238;" /><glyph d="M10 571Q10 585 19.5 594.5Q29 604 43 604Q50 604 56 601Q62 598 66.5 594Q71 590 73.5 584Q76 578 76 571Q76 557 66.5 547.5Q57 538 43 538Q29 538 19.5 547.5Q10 557 10 571ZM117 571Q117 585 126.5 594.5Q136 604 150 604Q157 604 163 601Q169 598 173.5 594Q178 590 180.5 584Q183 578 183 571Q183 557 173.5 547.5Q164 538 150 538Q136 538 126.5 547.5Q117 557 117 571ZM122 0H72V444H122Z" glyph-name="idieresis" horiz-adv-x="192" unicode="&#239;" /><glyph d="M121 0H71V444H121ZM131 579Q131 564 121.5 554Q112 544 97 544Q82 544 72.5 554Q63 564 63 579Q63 593 72.5 603Q82 613 97 613Q112 613 121.5 603Q131 593 131 579Z" glyph-name="idotaccent" horiz-adv-x="192" /><glyph d="M75 520 -12 650H41L124 520ZM121 0H71V444H121Z" glyph-name="igrave" horiz-adv-x="192" unicode="&#236;" /><glyph d="M13 579H162V537H13ZM121 0H71V444H121Z" glyph-name="imacron" horiz-adv-x="192" unicode="&#299;" /><glyph d="M122 0Q106 -27 96.5 -44.5Q87 -62 81.5 -75Q76 -88 74 -97.5Q72 -107 72 -116Q72 -131 79 -138Q86 -145 97 -145Q107 -145 115.5 -141.5Q124 -138 134 -130V-167Q124 -174 113 -178Q102 -182 89 -182Q76 -182 65 -178.5Q54 -175 46.5 -167Q39 -159 35 -148Q31 -137 31 -122Q31 -110 34 -97.5Q37 -85 43 -71Q49 -57 58.5 -39.5Q68 -22 81 0H72V444H122ZM131 579Q131 564 121.5 554Q112 544 97 544Q82 544 72.5 554Q63 564 63 579Q63 593 72.5 603Q82 613 97 613Q112 613 121.5 603Q131 593 131 579Z" glyph-name="iogonek" horiz-adv-x="193" unicode="&#303;" /><glyph d="M195 625Q195 601 191.5 581.5Q188 562 181 548.5Q174 535 163.5 527.5Q153 520 140 520Q126 520 114 530Q102 540 92 552Q82 564 73.5 574Q65 584 56 584Q42 584 36 567.5Q30 551 30 523H-3Q-3 546 0.5 565.5Q4 585 11 599Q18 613 28 620.5Q38 628 51 628Q66 628 77.5 618Q89 608 99 596Q109 584 118 574Q127 564 136 564Q150 564 155.5 580.5Q161 597 162 625ZM121 0H71V444H121Z" glyph-name="itilde" horiz-adv-x="193" unicode="&#297;" /><glyph d="M122 -64Q122 -121 92 -150Q62 -179 10 -179Q4 -179 -3 -178Q-10 -177 -14 -176V-132Q-10 -133 -4.5 -133.5Q1 -134 7 -134Q22 -134 34 -130.5Q46 -127 54.5 -118.5Q63 -110 67.5 -95.5Q72 -81 72 -59V444H122ZM131 579Q131 564 121.5 554Q112 544 97 544Q82 544 72.5 554Q63 564 63 579Q63 593 72.5 603Q82 613 97 613Q112 613 121.5 603Q131 593 131 579Z" glyph-name="j" horiz-adv-x="193" unicode="j" /><glyph d="M192 513H147L97 606L47 513H2L74 644H119ZM122 -64Q122 -121 92 -150Q62 -179 10 -179Q4 -179 -3 -178Q-10 -177 -14 -176V-132Q-10 -133 -4.5 -133.5Q1 -134 7 -134Q22 -134 34 -130.5Q46 -127 54.5 -118.5Q63 -110 67.5 -95.5Q72 -81 72 -59V444H122Z" glyph-name="jcircumflex" horiz-adv-x="193" unicode="&#309;" /><glyph d="M176 221 121 172V0H71V650H121V231L355 444H422L212 253L429 0H368Z" glyph-name="k" horiz-adv-x="446" unicode="k" /><glyph d="M176 221 121 172V0H71V650H121V231L355 444H422L212 253L429 0H368ZM211 -116Q199 -114 190.5 -105.5Q182 -97 182 -83Q182 -67 192.5 -57Q203 -47 218 -47Q234 -47 244 -57.5Q254 -68 254 -84Q254 -96 250 -105.5Q246 -115 240 -126L209 -183H175Z" glyph-name="kcommaaccent" horiz-adv-x="446" unicode="&#311;" /><glyph d="M176 221 121 172V0H71V444H121V231L355 444H422L212 253L429 0H368Z" glyph-name="kgreenlandic" horiz-adv-x="446" unicode="&#312;" /><glyph d="M121 0H71V650H121Z" glyph-name="l" horiz-adv-x="192" unicode="l" /><glyph d="M121 0H71V650H121ZM72 688 155 805H211L124 688Z" glyph-name="lacute" horiz-adv-x="192" unicode="&#314;" /><glyph d="M121 0H71V650H121ZM180 490 213 650H253L221 490Z" glyph-name="lcaron" horiz-adv-x="192" unicode="&#318;" /><glyph d="M121 0H71V650H121ZM90 -116Q78 -114 69.5 -105.5Q61 -97 61 -83Q61 -67 71.5 -57Q82 -47 97 -47Q113 -47 123 -57.5Q133 -68 133 -84Q133 -96 129 -105.5Q125 -115 119 -126L88 -183H54Z" glyph-name="lcommaaccent" horiz-adv-x="192" unicode="&#316;" /><glyph d="M121 0H71V650H121ZM280 327Q280 312 270.5 302Q261 292 246 292Q231 292 221.5 302Q212 312 212 327Q212 341 221.5 351Q231 361 246 361Q261 361 270.5 351Q280 341 280 327Z" glyph-name="ldot" horiz-adv-x="298" unicode="&#320;" /><glyph d="M58 317 333 467V417L101 293L333 168V119L58 269Z" glyph-name="less" horiz-adv-x="398" unicode="&lt;" /><glyph d="M122 317 397 467V417L165 293L397 168V119L122 269Z" glyph-name="less.lt" horiz-adv-x="520" /><glyph d="M58 354 334 470V423L109 332L334 239V193L58 308ZM58 154H334V111H58Z" glyph-name="lessequal" horiz-adv-x="401" unicode="&#8804;" /><glyph d="M122 354 398 470V423L173 332L398 239V193L122 308ZM122 154H398V111H122Z" glyph-name="lessequal.lt" horiz-adv-x="520" /><glyph d="M141 0H91V331L30 289V338L91 380V650H141V407L206 453V404L141 359Z" glyph-name="lslash" horiz-adv-x="231" unicode="&#322;" /><glyph d="M373 369Q382 385 396 400Q410 415 427.5 427Q445 439 466 446Q487 453 511 453Q579 453 612.5 410Q646 367 646 300V0H596V292Q596 344 573 375Q550 406 501 406Q460 406 429 379.5Q398 353 384 314V0H334V292Q334 344 311 375Q288 406 239 406Q197 406 166 379.5Q135 353 121 314V0H71V444H121V376Q138 407 171 430Q204 453 249 453Q297 453 328.5 429.5Q360 406 373 369Z" glyph-name="m" horiz-adv-x="712" unicode="m" /><glyph d="M148 579H350V537H148Z" glyph-name="macron" horiz-adv-x="500" unicode="&#175;" /><glyph d="M148 712H350V670H148Z" glyph-name="macron.cap" horiz-adv-x="500" /><glyph d="M71 316H443V273H71Z" glyph-name="minus" horiz-adv-x="514" unicode="&#8722;" /><glyph d="M73 316H445V273H73Z" glyph-name="minus.lt" horiz-adv-x="520" /><glyph d="M71 414 101 443 221 321 342 443 372 414 251 292 372 170 342 141 221 262 101 141 71 170 193 292Z" glyph-name="multiply" horiz-adv-x="443" unicode="&#215;" /><glyph d="M109 414 139 443 259 321 380 443 410 414 289 292 410 170 380 141 259 262 139 141 109 170 231 292Z" glyph-name="multiply.lt" horiz-adv-x="520" /><glyph d="M71 444H121V373Q141 405 178.5 429Q216 453 263 453Q339 453 378 409Q417 365 417 294V0H367V286Q367 338 340 372Q313 406 254 406Q231 406 210.5 398.5Q190 391 173 378Q156 365 142.5 347.5Q129 330 121 311V0H71Z" glyph-name="n" horiz-adv-x="483" unicode="n" /><glyph d="M71 444H121V373Q141 405 178.5 429Q216 453 263 453Q339 453 378 409Q417 365 417 294V0H367V286Q367 338 340 372Q313 406 254 406Q231 406 210.5 398.5Q190 391 173 378Q156 365 142.5 347.5Q129 330 121 311V0H71ZM217 520 300 650H353L266 520Z" glyph-name="nacute" horiz-adv-x="483" unicode="&#324;" /><glyph d="M71 444H121V373Q141 405 178.5 429Q216 453 263 453Q339 453 378 409Q417 365 417 294V0H367V286Q367 338 340 372Q313 406 254 406Q231 406 210.5 398.5Q190 391 173 378Q156 365 142.5 347.5Q129 330 121 311V0H71ZM270 515H225L133 645H179L247 550L315 645H362Z" glyph-name="ncaron" horiz-adv-x="483" unicode="&#328;" /><glyph d="M71 444H121V373Q141 405 178.5 429Q216 453 263 453Q339 453 378 409Q417 365 417 294V0H367V286Q367 338 340 372Q313 406 254 406Q231 406 210.5 398.5Q190 391 173 378Q156 365 142.5 347.5Q129 330 121 311V0H71ZM245 -116Q233 -114 224.5 -105.5Q216 -97 216 -83Q216 -67 226.5 -57Q237 -47 252 -47Q268 -47 278 -57.5Q288 -68 288 -84Q288 -96 284 -105.5Q280 -115 274 -126L243 -183H209Z" glyph-name="ncommaaccent" horiz-adv-x="483" unicode="&#326;" /><glyph d="M388 418Q388 452 376.5 481Q365 510 345 531.5Q325 553 297.5 565Q270 577 236 577Q204 577 176.5 565Q149 553 128.5 532Q108 511 96.5 481.5Q85 452 85 418Q85 384 96.5 354.5Q108 325 128.5 304Q149 283 176.5 271Q204 259 236 259Q269 259 297 271Q325 283 345 304Q365 325 376.5 354.5Q388 384 388 418ZM100 139Q115 94 145.5 65Q176 36 233 36Q269 36 300.5 55Q332 74 355.5 108.5Q379 143 392.5 192.5Q406 242 406 304Q406 312 405.5 324Q405 336 404 347Q397 318 380.5 293.5Q364 269 341.5 251.5Q319 234 291 224Q263 214 234 214Q191 214 155 230Q119 246 92.5 273.5Q66 301 51 338Q36 375 36 417Q36 460 51 497.5Q66 535 92.5 563Q119 591 156 607Q193 623 237 623Q302 623 346.5 591.5Q391 560 417 506Q437 464 445 415Q453 366 453 315Q453 237 436 177Q419 117 389.5 76Q360 35 319.5 13Q279 -9 233 -9Q155 -9 110.5 31.5Q66 72 48 139Z" glyph-name="nine" horiz-adv-x="495" unicode="9" /><glyph d="M402 418Q402 452 390 481Q378 510 357.5 531.5Q337 553 308 565Q279 577 245 577Q212 577 183.5 565Q155 553 133.5 532Q112 511 100.5 481.5Q89 452 89 418Q89 384 100.5 354.5Q112 325 133.5 304Q155 283 183.5 271Q212 259 245 259Q279 259 308 271Q337 283 357.5 304Q378 325 390 354.5Q402 384 402 418ZM105 139Q120 94 152 65Q184 36 242 36Q279 36 311.5 55Q344 74 368 109Q392 144 406 193Q420 242 420 304Q420 313 419.5 324Q419 335 418 347Q411 317 394.5 292.5Q378 268 354.5 250.5Q331 233 302.5 223.5Q274 214 243 214Q199 214 162 230Q125 246 98 273.5Q71 301 55.5 338Q40 375 40 417Q40 460 55.5 497.5Q71 535 98.5 563Q126 591 163.5 607Q201 623 246 623Q312 623 358 591.5Q404 560 431 506Q451 464 459 415Q467 366 467 315Q467 237 449.5 177Q432 117 402 76Q372 35 330.5 13Q289 -9 242 -9Q162 -9 116 31.5Q70 72 53 139Z" glyph-name="nine.lt" horiz-adv-x="520" /><glyph glyph-name="nonmarkingreturn" horiz-adv-x="221" unicode="" /><glyph d="M75 252H205L271 338H75V379H303L373 469H418L348 379H448V338H317L251 252H448V211H219L150 121H104L173 211H75Z" glyph-name="notequal" horiz-adv-x="523" unicode="&#8800;" /><glyph d="M73 252H203L269 338H73V379H301L371 469H416L346 379H446V338H315L249 252H446V211H217L148 121H102L171 211H73Z" glyph-name="notequal.lt" horiz-adv-x="520" /><glyph d="M71 444H121V373Q141 405 178.5 429Q216 453 263 453Q339 453 378 409Q417 365 417 294V0H367V286Q367 338 340 372Q313 406 254 406Q231 406 210.5 398.5Q190 391 173 378Q156 365 142.5 347.5Q129 330 121 311V0H71ZM370 625Q370 601 366 581.5Q362 562 353 548.5Q344 535 331 527.5Q318 520 301 520Q283 520 268.5 530Q254 540 242 552.5Q230 565 218.5 575Q207 585 194 585Q176 585 167 568Q158 551 158 523H122Q122 546 126.5 565.5Q131 585 139.5 599Q148 613 161 620.5Q174 628 191 628Q210 628 224 618Q238 608 250.5 596Q263 584 274 573.5Q285 563 298 563Q316 563 325 580Q334 597 334 625Z" glyph-name="ntilde" horiz-adv-x="483" unicode="&#241;" /><glyph d="M474 191H370L325 0H279L324 191H169L123 0H79L124 191H27L36 231H134L170 383H67L75 423H179L225 614H270L224 423H380L426 614H471L425 423H522L513 383H416L380 231H482ZM178 231H334L370 383H215Z" glyph-name="numbersign" horiz-adv-x="549" unicode="#" /><glyph d="M432 222Q432 171 418 128.5Q404 86 378.5 55.5Q353 25 316.5 8Q280 -9 236 -9Q192 -9 155.5 8Q119 25 93 55.5Q67 86 53 128.5Q39 171 39 222Q39 273 53 315.5Q67 358 93 388.5Q119 419 155.5 436Q192 453 236 453Q280 453 316.5 436Q353 419 378.5 388.5Q404 358 418 315.5Q432 273 432 222ZM382 222Q382 264 371.5 298Q361 332 342 356.5Q323 381 296 394.5Q269 408 236 408Q202 408 175 394.5Q148 381 129 356.5Q110 332 100 298Q90 264 90 222Q90 180 100 146Q110 112 129 87.5Q148 63 175 49.5Q202 36 236 36Q269 36 296 49.5Q323 63 342 87.5Q361 112 371.5 146Q382 180 382 222Z" glyph-name="o" horiz-adv-x="471" unicode="o" /><glyph d="M432 222Q432 171 418 128.5Q404 86 378.5 55.5Q353 25 316.5 8Q280 -9 236 -9Q192 -9 155.5 8Q119 25 93 55.5Q67 86 53 128.5Q39 171 39 222Q39 273 53 315.5Q67 358 93 388.5Q119 419 155.5 436Q192 453 236 453Q280 453 316.5 436Q353 419 378.5 388.5Q404 358 418 315.5Q432 273 432 222ZM382 222Q382 264 371.5 298Q361 332 342 356.5Q323 381 296 394.5Q269 408 236 408Q202 408 175 394.5Q148 381 129 356.5Q110 332 100 298Q90 264 90 222Q90 180 100 146Q110 112 129 87.5Q148 63 175 49.5Q202 36 236 36Q269 36 296 49.5Q323 63 342 87.5Q361 112 371.5 146Q382 180 382 222ZM206 520 289 650H342L255 520Z" glyph-name="oacute" horiz-adv-x="471" unicode="&#243;" /><glyph d="M432 222Q432 171 418 128.5Q404 86 378.5 55.5Q353 25 316.5 8Q280 -9 236 -9Q192 -9 155.5 8Q119 25 93 55.5Q67 86 53 128.5Q39 171 39 222Q39 273 53 315.5Q67 358 93 388.5Q119 419 155.5 436Q192 453 236 453Q280 453 316.5 436Q353 419 378.5 388.5Q404 358 418 315.5Q432 273 432 222ZM382 222Q382 264 371.5 298Q361 332 342 356.5Q323 381 296 394.5Q269 408 236 408Q202 408 175 394.5Q148 381 129 356.5Q110 332 100 298Q90 264 90 222Q90 180 100 146Q110 112 129 87.5Q148 63 175 49.5Q202 36 236 36Q269 36 296 49.5Q323 63 342 87.5Q361 112 371.5 146Q382 180 382 222ZM236 506Q214 506 195 514Q176 522 162.5 537Q149 552 141.5 574Q134 596 134 626H174Q174 587 191 565.5Q208 544 236 544Q265 544 281.5 565.5Q298 587 298 626H338Q338 596 330.5 574Q323 552 309.5 537Q296 522 277 514Q258 506 236 506Z" glyph-name="obreve" horiz-adv-x="471" unicode="&#335;" /><glyph d="M432 222Q432 171 418 128.5Q404 86 378.5 55.5Q353 25 316.5 8Q280 -9 236 -9Q192 -9 155.5 8Q119 25 93 55.5Q67 86 53 128.5Q39 171 39 222Q39 273 53 315.5Q67 358 93 388.5Q119 419 155.5 436Q192 453 236 453Q280 453 316.5 436Q353 419 378.5 388.5Q404 358 418 315.5Q432 273 432 222ZM382 222Q382 264 371.5 298Q361 332 342 356.5Q323 381 296 394.5Q269 408 236 408Q202 408 175 394.5Q148 381 129 356.5Q110 332 100 298Q90 264 90 222Q90 180 100 146Q110 112 129 87.5Q148 63 175 49.5Q202 36 236 36Q269 36 296 49.5Q323 63 342 87.5Q361 112 371.5 146Q382 180 382 222ZM351 513H304L236 609L168 513H122L214 644H259Z" glyph-name="ocircumflex" horiz-adv-x="471" unicode="&#244;" /><glyph d="M432 222Q432 171 418 128.5Q404 86 378.5 55.5Q353 25 316.5 8Q280 -9 236 -9Q192 -9 155.5 8Q119 25 93 55.5Q67 86 53 128.5Q39 171 39 222Q39 273 53 315.5Q67 358 93 388.5Q119 419 155.5 436Q192 453 236 453Q280 453 316.5 436Q353 419 378.5 388.5Q404 358 418 315.5Q432 273 432 222ZM382 222Q382 264 371.5 298Q361 332 342 356.5Q323 381 296 394.5Q269 408 236 408Q202 408 175 394.5Q148 381 129 356.5Q110 332 100 298Q90 264 90 222Q90 180 100 146Q110 112 129 87.5Q148 63 175 49.5Q202 36 236 36Q269 36 296 49.5Q323 63 342 87.5Q361 112 371.5 146Q382 180 382 222ZM141 571Q141 585 150.5 594.5Q160 604 174 604Q181 604 187 601Q193 598 197.5 594Q202 590 204.5 584Q207 578 207 571Q207 557 197.5 547.5Q188 538 174 538Q160 538 150.5 547.5Q141 557 141 571ZM266 571Q266 585 275.5 594.5Q285 604 299 604Q306 604 312 601Q318 598 322.5 594Q327 590 330 584Q333 578 333 571Q333 557 323 547.5Q313 538 299 538Q285 538 275.5 547.5Q266 557 266 571Z" glyph-name="odieresis" horiz-adv-x="471" unicode="&#246;" /><glyph d="M576 -9Q517 -9 473 21Q429 51 405 104Q381 52 337.5 21.5Q294 -9 236 -9Q192 -9 155.5 8Q119 25 93 55.5Q67 86 53 128.5Q39 171 39 222Q39 273 53 315.5Q67 358 93 388.5Q119 419 155.5 436Q192 453 236 453Q295 453 338.5 421.5Q382 390 405 337Q428 390 470.5 421.5Q513 453 575 453Q619 453 653 437Q687 421 710 392Q733 363 744.5 323Q756 283 756 236V218H429Q429 176 440 142Q451 108 471 84.5Q491 61 517.5 48Q544 35 576 35Q624 35 657 60Q690 85 700 129H748Q735 67 690.5 29Q646 -9 576 -9ZM382 222Q382 264 371.5 298Q361 332 342 356.5Q323 381 296 394.5Q269 408 236 408Q202 408 175 394.5Q148 381 129 356.5Q110 332 100 298Q90 264 90 222Q90 180 100 146Q110 112 129 87.5Q148 63 175 49.5Q202 36 236 36Q269 36 296 49.5Q323 63 342 87.5Q361 112 371.5 146Q382 180 382 222ZM575 409Q515 409 476.5 367.5Q438 326 431 258H705Q704 287 696 314.5Q688 342 672 363Q656 384 632 396.5Q608 409 575 409Z" glyph-name="oe" horiz-adv-x="793" unicode="&#339;" /><glyph d="M303 4Q287 -24 277 -42Q267 -60 261.5 -73.5Q256 -87 253.5 -97Q251 -107 251 -116Q251 -131 258 -138Q265 -145 276 -145Q286 -145 294.5 -141.5Q303 -138 313 -130V-167Q303 -174 292 -178Q281 -182 268 -182Q255 -182 244 -178.5Q233 -175 225.5 -167Q218 -159 214 -148Q210 -137 210 -122Q210 -110 213 -97.5Q216 -85 223 -70.5Q230 -56 240 -38Q250 -20 263 4Z" glyph-name="ogonek" horiz-adv-x="500" unicode="&#731;" /><glyph d="M432 222Q432 171 418 128.5Q404 86 378.5 55.5Q353 25 316.5 8Q280 -9 236 -9Q192 -9 155.5 8Q119 25 93 55.5Q67 86 53 128.5Q39 171 39 222Q39 273 53 315.5Q67 358 93 388.5Q119 419 155.5 436Q192 453 236 453Q280 453 316.5 436Q353 419 378.5 388.5Q404 358 418 315.5Q432 273 432 222ZM382 222Q382 264 371.5 298Q361 332 342 356.5Q323 381 296 394.5Q269 408 236 408Q202 408 175 394.5Q148 381 129 356.5Q110 332 100 298Q90 264 90 222Q90 180 100 146Q110 112 129 87.5Q148 63 175 49.5Q202 36 236 36Q269 36 296 49.5Q323 63 342 87.5Q361 112 371.5 146Q382 180 382 222ZM214 520 127 650H180L263 520Z" glyph-name="ograve" horiz-adv-x="471" unicode="&#242;" /><glyph d="M432 222Q432 171 418 128.5Q404 86 378.5 55.5Q353 25 316.5 8Q280 -9 236 -9Q192 -9 155.5 8Q119 25 93 55.5Q67 86 53 128.5Q39 171 39 222Q39 273 53 315.5Q67 358 93 388.5Q119 419 155.5 436Q192 453 236 453Q280 453 316.5 436Q353 419 378.5 388.5Q404 358 418 315.5Q432 273 432 222ZM382 222Q382 264 371.5 298Q361 332 342 356.5Q323 381 296 394.5Q269 408 236 408Q202 408 175 394.5Q148 381 129 356.5Q110 332 100 298Q90 264 90 222Q90 180 100 146Q110 112 129 87.5Q148 63 175 49.5Q202 36 236 36Q269 36 296 49.5Q323 63 342 87.5Q361 112 371.5 146Q382 180 382 222ZM156 520 230 650H275L201 520ZM266 520 340 650H385L311 520Z" glyph-name="ohungarumlaut" horiz-adv-x="471" unicode="&#337;" /><glyph d="M432 222Q432 171 418 128.5Q404 86 378.5 55.5Q353 25 316.5 8Q280 -9 236 -9Q192 -9 155.5 8Q119 25 93 55.5Q67 86 53 128.5Q39 171 39 222Q39 273 53 315.5Q67 358 93 388.5Q119 419 155.5 436Q192 453 236 453Q280 453 316.5 436Q353 419 378.5 388.5Q404 358 418 315.5Q432 273 432 222ZM382 222Q382 264 371.5 298Q361 332 342 356.5Q323 381 296 394.5Q269 408 236 408Q202 408 175 394.5Q148 381 129 356.5Q110 332 100 298Q90 264 90 222Q90 180 100 146Q110 112 129 87.5Q148 63 175 49.5Q202 36 236 36Q269 36 296 49.5Q323 63 342 87.5Q361 112 371.5 146Q382 180 382 222ZM136 579H338V537H136Z" glyph-name="omacron" horiz-adv-x="471" unicode="&#333;" /><glyph d="M242 0H191V553L31 470V524L211 615H242Z" glyph-name="one" horiz-adv-x="329" unicode="1" /><glyph d="M73 47H260V553L79 459V512L280 615H311V47H474V0H73Z" glyph-name="one.lt" horiz-adv-x="520" /><glyph d="M123 0H76L494 614H540ZM177 285H133V563L47 519V564L148 615H177ZM551 240Q551 265 535.5 280Q520 295 495 295Q465 295 449 276.5Q433 258 430 229H385Q387 252 396 271.5Q405 291 419 305Q433 319 451.5 327Q470 335 494 335Q541 335 568 309Q595 283 595 241Q595 209 575 183Q555 157 530 130L444 39H599V0H385V30L497 152Q522 178 536.5 197.5Q551 217 551 240Z" glyph-name="onehalf" horiz-adv-x="654" unicode="&#189;" /><glyph d="M123 0H76L494 614H540ZM177 285H133V563L47 519V564L148 615H177ZM394 112H497V187H537V112H594V74H537V0H497V74H345V108L467 330H511Z" glyph-name="onequarter" horiz-adv-x="643" unicode="&#188;" /><glyph d="M149 285H105V563L19 519V564L120 615H149Z" glyph-name="onesuperior" horiz-adv-x="207" unicode="&#185;" /><glyph d="M205 321V346Q196 336 174 326Q152 316 126 316Q103 316 83 322.5Q63 329 48.5 340.5Q34 352 25.5 369.5Q17 387 17 408Q17 450 49 475Q81 500 128 500Q153 500 174 490.5Q195 481 205 471V517Q205 547 188 565Q171 583 138 583Q88 583 73 538H29Q38 578 67.5 600Q97 622 140 622Q191 622 220.5 594Q250 566 250 518V321ZM205 425Q198 443 178 453.5Q158 464 134 464Q106 464 83.5 450Q61 436 61 409Q61 381 83.5 367Q106 353 134 353Q158 353 178 363.5Q198 374 205 392Z" glyph-name="ordfeminine" horiz-adv-x="284" unicode="&#170;" /><glyph d="M287 469Q287 434 277 406Q267 378 249.5 357.5Q232 337 207 326Q182 315 152 315Q122 315 97 326Q72 337 54.5 357.5Q37 378 27 406Q17 434 17 469Q17 503 27 531Q37 559 54.5 579.5Q72 600 97 611Q122 622 152 622Q182 622 207 611Q232 600 249.5 579.5Q267 559 277 531Q287 503 287 469ZM240 469Q240 519 216.5 550.5Q193 582 152 582Q112 582 88 550.5Q64 519 64 469Q64 418 88 387Q112 356 152 356Q193 356 216.5 387Q240 418 240 469Z" glyph-name="ordmasculine" horiz-adv-x="305" unicode="&#186;" /><glyph d="M404 462 434 441 388 382Q410 353 423 315Q437 273 437 222Q437 171 423 128.5Q409 86 383 55.5Q357 25 320.5 8Q284 -9 240 -9Q196 -9 159 8Q136 19 117 35L73 -22L43 -1L92 62Q70 90 57 128Q43 171 43 222Q43 273 57.5 315.5Q72 358 97.5 388.5Q123 419 159.5 436Q196 453 240 453Q284 453 320 436Q343 425 362 409ZM387 222Q387 264 376 298Q369 322 357 342L146 72Q161 58 179 49Q206 36 240 36Q274 36 301 49.5Q328 63 347 87.5Q366 112 376.5 146Q387 180 387 222ZM301 394Q274 408 240 408Q207 408 180 394.5Q153 381 133.5 356.5Q114 332 104 298Q94 264 94 222Q94 180 104 146Q111 121 123 101L333 371Q319 385 301 394Z" glyph-name="oslash" horiz-adv-x="481" unicode="&#248;" /><glyph d="M210 520 293 650H346L259 520ZM404 462 434 441 388 382Q410 353 423 315Q437 273 437 222Q437 171 423 128.5Q409 86 383 55.5Q357 25 320.5 8Q284 -9 240 -9Q196 -9 159 8Q136 19 117 35L73 -22L43 -1L92 62Q70 90 57 128Q43 171 43 222Q43 273 57.5 315.5Q72 358 97.5 388.5Q123 419 159.5 436Q196 453 240 453Q284 453 320 436Q343 425 362 409ZM387 222Q387 264 376 298Q369 322 357 342L146 72Q161 58 179 49Q206 36 240 36Q274 36 301 49.5Q328 63 347 87.5Q366 112 376.5 146Q387 180 387 222ZM301 394Q274 408 240 408Q207 408 180 394.5Q153 381 133.5 356.5Q114 332 104 298Q94 264 94 222Q94 180 104 146Q111 121 123 101L333 371Q319 385 301 394Z" glyph-name="oslashacute" horiz-adv-x="481" unicode="&#511;" /><glyph d="M432 222Q432 171 418 128.5Q404 86 378.5 55.5Q353 25 316.5 8Q280 -9 236 -9Q192 -9 155.5 8Q119 25 93 55.5Q67 86 53 128.5Q39 171 39 222Q39 273 53 315.5Q67 358 93 388.5Q119 419 155.5 436Q192 453 236 453Q280 453 316.5 436Q353 419 378.5 388.5Q404 358 418 315.5Q432 273 432 222ZM382 222Q382 264 371.5 298Q361 332 342 356.5Q323 381 296 394.5Q269 408 236 408Q202 408 175 394.5Q148 381 129 356.5Q110 332 100 298Q90 264 90 222Q90 180 100 146Q110 112 129 87.5Q148 63 175 49.5Q202 36 236 36Q269 36 296 49.5Q323 63 342 87.5Q361 112 371.5 146Q382 180 382 222ZM361 625Q361 601 357 581.5Q353 562 344 548.5Q335 535 322 527.5Q309 520 292 520Q274 520 259.5 530Q245 540 233 552.5Q221 565 209.5 575Q198 585 185 585Q167 585 158 568Q149 551 149 523H113Q113 546 117.5 565.5Q122 585 130.5 599Q139 613 152 620.5Q165 628 182 628Q201 628 215 618Q229 608 241.5 596Q254 584 265 573.5Q276 563 289 563Q307 563 316 580Q325 597 325 625Z" glyph-name="otilde" horiz-adv-x="471" unicode="&#245;" /><glyph d="M121 -170H71V444H121V378Q130 392 144 405.5Q158 419 176 429.5Q194 440 215 446.5Q236 453 259 453Q308 453 344 434Q380 415 404.5 383.5Q429 352 441 309.5Q453 267 453 222Q453 176 441 134Q429 92 404.5 60.5Q380 29 344 10Q308 -9 259 -9Q236 -9 215 -2.5Q194 4 176 14.5Q158 25 144 38Q130 51 121 66ZM121 125Q143 83 178 60.5Q213 38 254 38Q289 38 316.5 51.5Q344 65 363 89.5Q382 114 392 148Q402 182 402 222Q402 262 392 296Q382 330 363 354.5Q344 379 316.5 392.5Q289 406 254 406Q213 406 178 383.5Q143 361 121 319Z" glyph-name="p" horiz-adv-x="492" unicode="p" /><glyph d="M325 614H369V-90H325ZM214 338Q179 338 144 345.5Q109 353 81 370Q53 387 35.5 413Q18 439 18 476Q18 513 35.5 539Q53 565 81 581.5Q109 598 144 606Q179 614 214 614H258V-90H214Z" glyph-name="paragraph" horiz-adv-x="448" unicode="&#182;" /><glyph d="M30 283Q30 352 49 411.5Q68 471 102.5 519Q137 567 186.5 600.5Q236 634 298 650V599Q254 588 214.5 561.5Q175 535 145 494Q115 453 97.5 400Q80 347 80 283Q80 219 97.5 166Q115 113 145 72Q175 31 214.5 4.5Q254 -22 298 -33V-84Q236 -68 186.5 -34.5Q137 -1 102.5 47Q68 95 49 154.5Q30 214 30 283Z" glyph-name="parenleft" horiz-adv-x="325" unicode="(" /><glyph d="M30 299Q30 368 49 427.5Q68 487 102.5 535Q137 583 186.5 616.5Q236 650 298 666V616Q254 604 214.5 577.5Q175 551 145 510.5Q115 470 97.5 417Q80 364 80 299Q80 235 97.5 182Q115 129 145 88.5Q175 48 214.5 21Q254 -6 298 -17V-68Q236 -52 186.5 -18.5Q137 15 102.5 63Q68 111 49 170.5Q30 230 30 299Z" glyph-name="parenleft.cap" horiz-adv-x="325" /><glyph d="M295 283Q295 214 276 154.5Q257 95 222.5 47Q188 -1 138 -34.5Q88 -68 27 -84V-33Q71 -22 110.5 4.5Q150 31 180 72Q210 113 227.5 166Q245 219 245 283Q245 347 227.5 400Q210 453 180 494Q150 535 110.5 561.5Q71 588 27 599V650Q88 634 138 600.5Q188 567 222.5 519Q257 471 276 411.5Q295 352 295 283Z" glyph-name="parenright" horiz-adv-x="325" unicode=")" /><glyph d="M295 299Q295 230 276 170.5Q257 111 222.5 63Q188 15 138 -18.5Q88 -52 27 -68V-17Q71 -6 110.5 21Q150 48 180 88.5Q210 129 227.5 182Q245 235 245 299Q245 364 227.5 417Q210 470 180 510.5Q150 551 110.5 577.5Q71 604 27 616V666Q88 650 138 616.5Q188 583 222.5 535Q257 487 276 427.5Q295 368 295 299Z" glyph-name="parenright.cap" horiz-adv-x="325" /><glyph d="M487 614H531L134 0H90ZM78 495Q78 477 85 461.5Q92 446 103.5 434.5Q115 423 130.5 416.5Q146 410 164 410Q182 410 197.5 416.5Q213 423 224.5 434.5Q236 446 243 461.5Q250 477 250 495Q250 531 225 556Q200 581 164 581Q146 581 130.5 574.5Q115 568 103.5 556.5Q92 545 85 529Q78 513 78 495ZM584 119Q584 92 574 69Q564 46 547 28.5Q530 11 507 1Q484 -9 457 -9Q431 -9 408 1Q385 11 367.5 28.5Q350 46 340 69Q330 92 330 119Q330 145 340 168.5Q350 192 367.5 209Q385 226 408 236Q431 246 457 246Q484 246 507 236Q530 226 547 209Q564 192 574 168.5Q584 145 584 119ZM291 495Q291 468 281 445Q271 422 253.5 405Q236 388 213 378Q190 368 164 368Q137 368 114 378Q91 388 74 405Q57 422 47 445Q37 468 37 495Q37 521 47 544.5Q57 568 74 585.5Q91 603 114 613Q137 623 164 623Q190 623 213 613Q236 603 253.5 585.5Q271 568 281 544.5Q291 521 291 495ZM543 119Q543 136 536 152Q529 168 517.5 179.5Q506 191 490.5 197.5Q475 204 457 204Q439 204 423.5 197.5Q408 191 396.5 179.5Q385 168 378 152Q371 136 371 119Q371 83 396 58Q421 33 457 33Q475 33 490.5 39.5Q506 46 517.5 57.5Q529 69 536 85Q543 101 543 119Z" glyph-name="percent" horiz-adv-x="621" unicode="%" /><glyph d="M19 500Q19 525 28.5 547.5Q38 570 54.5 587Q71 604 93 613.5Q115 623 141 623Q166 623 188.5 613.5Q211 604 227.5 587Q244 570 253.5 547.5Q263 525 263 500Q263 474 253.5 452Q244 430 227.5 413.5Q211 397 188.5 387.5Q166 378 141 378Q115 378 93 387.5Q71 397 54.5 413.5Q38 430 28.5 452Q19 474 19 500ZM58 500Q58 482 64.5 467Q71 452 82 441Q93 430 108 423.5Q123 417 141 417Q158 417 173.5 423.5Q189 430 200 441Q211 452 218 467Q225 482 225 500Q225 535 200.5 559.5Q176 584 141 584Q123 584 108 577Q93 570 82 559Q71 548 64.5 533Q58 518 58 500ZM503 114Q503 88 493.5 66Q484 44 467.5 27Q451 10 428.5 0.5Q406 -9 381 -9Q355 -9 333 0.5Q311 10 294 27Q277 44 267.5 66Q258 88 258 114Q258 139 267.5 161.5Q277 184 294 200.5Q311 217 333 226.5Q355 236 381 236Q406 236 428.5 226.5Q451 217 467.5 200.5Q484 184 493.5 161.5Q503 139 503 114ZM464 114Q464 131 457.5 146.5Q451 162 440 173Q429 184 413.5 190.5Q398 197 381 197Q363 197 347.5 190.5Q332 184 321 173Q310 162 303.5 146.5Q297 131 297 114Q297 79 321.5 54.5Q346 30 381 30Q398 30 413.5 37Q429 44 440 55Q451 66 457.5 81Q464 96 464 114ZM438 614H482L84 0H40Z" glyph-name="percent.lt" horiz-adv-x="520" /><glyph d="M33 36Q33 52 44 63.5Q55 75 71 75Q79 75 86 72Q93 69 98 63.5Q103 58 106 51Q109 44 109 36Q109 27 106 20Q103 13 98 8Q93 3 86 0Q79 -3 71 -3Q63 -3 56 0Q49 3 44 8Q39 13 36 20Q33 27 33 36Z" glyph-name="period" horiz-adv-x="142" unicode="." /><glyph d="M92 36Q92 52 103 63.5Q114 75 130 75Q138 75 145 72Q152 69 157 63.5Q162 58 165 51Q168 44 168 36Q168 27 165 20Q162 13 157 8Q152 3 145 0Q138 -3 130 -3Q122 -3 115 0Q108 3 103 8Q98 13 95 20Q92 27 92 36Z" glyph-name="period.tab" horiz-adv-x="260" /><glyph d="M38 261Q38 277 49 288.5Q60 300 76 300Q84 300 91 297Q98 294 103 288.5Q108 283 111 276Q114 269 114 261Q114 252 111 245.5Q108 239 103 233.5Q98 228 91 225Q84 222 76 222Q68 222 61 225Q54 228 49 233.5Q44 239 41 245.5Q38 252 38 261Z" glyph-name="periodcentered" horiz-adv-x="152" unicode="&#183;" /><glyph d="M38 301Q38 317 49 328.5Q60 340 76 340Q84 340 91 337Q98 334 103 328.5Q108 323 111 316Q114 309 114 301Q114 292 111 285.5Q108 279 103 273.5Q98 268 91 265Q84 262 76 262Q68 262 61 265Q54 268 49 273.5Q44 279 41 285.5Q38 292 38 301Z" glyph-name="periodcentered.cap" horiz-adv-x="152" /><glyph d="M871 119Q871 92 861.5 69Q852 46 834.5 28.5Q817 11 794 1Q771 -9 745 -9Q718 -9 695 1Q672 11 654.5 28.5Q637 46 627 69Q617 92 617 119Q617 145 627 168.5Q637 192 654.5 209Q672 226 695 236Q718 246 745 246Q771 246 794 236Q817 226 834.5 209Q852 192 861.5 168.5Q871 145 871 119ZM37 495Q37 521 47 544.5Q57 568 74 585.5Q91 603 114 613Q137 623 164 623Q190 623 213 613Q236 603 253.5 585.5Q271 568 281 544.5Q291 521 291 495Q291 468 281 445Q271 422 253.5 405Q236 388 213 378Q190 368 164 368Q137 368 114 378Q91 388 74 405Q57 422 47 445Q37 468 37 495ZM584 119Q584 92 574 69Q564 46 547 28.5Q530 11 507 1Q484 -9 457 -9Q431 -9 408 1Q385 11 367.5 28.5Q350 46 340 69Q330 92 330 119Q330 145 340 168.5Q350 192 367.5 209Q385 226 408 236Q431 246 457 246Q484 246 507 236Q530 226 547 209Q564 192 574 168.5Q584 145 584 119ZM487 614H531L134 0H90ZM78 495Q78 477 85 461.5Q92 446 103.5 434.5Q115 423 130.5 416.5Q146 410 164 410Q182 410 197.5 416.5Q213 423 224.5 434.5Q236 446 243 461.5Q250 477 250 495Q250 531 225 556Q200 581 164 581Q146 581 130.5 574.5Q115 568 103.5 556.5Q92 545 85 529Q78 513 78 495ZM543 119Q543 136 536 152Q529 168 517.5 179.5Q506 191 490.5 197.5Q475 204 457 204Q439 204 423.5 197.5Q408 191 396.5 179.5Q385 168 378 152Q371 136 371 119Q371 83 396 58Q421 33 457 33Q475 33 490.5 39.5Q506 46 517.5 57.5Q529 69 536 85Q543 101 543 119ZM830 119Q830 136 823 152Q816 168 804.5 179.5Q793 191 777.5 197.5Q762 204 745 204Q727 204 711 197.5Q695 191 683.5 179.5Q672 168 665 152Q658 136 658 119Q658 83 683.5 58Q709 33 745 33Q762 33 777.5 39.5Q793 46 804.5 57.5Q816 69 823 85Q830 101 830 119Z" glyph-name="perthousand" horiz-adv-x="908" unicode="&#8240;" /><glyph d="M439 614H483L85 0H41ZM59 500Q59 482 65.5 467Q72 452 83 441Q94 430 109 423.5Q124 417 142 417Q159 417 174.5 423.5Q190 430 201 441Q212 452 219 467Q226 482 226 500Q226 535 201.5 559.5Q177 584 142 584Q124 584 109 577Q94 570 83 559Q72 548 65.5 533Q59 518 59 500ZM504 114Q504 88 494.5 66Q485 44 468.5 27Q452 10 429.5 0.5Q407 -9 382 -9Q356 -9 334 0.5Q312 10 295 27Q278 44 268.5 66Q259 88 259 114Q259 139 268.5 161.5Q278 184 295 200.5Q312 217 334 226.5Q356 236 382 236Q407 236 429.5 226.5Q452 217 468.5 200.5Q485 184 494.5 161.5Q504 139 504 114ZM465 114Q465 131 458.5 146.5Q452 162 441 173Q430 184 414.5 190.5Q399 197 382 197Q364 197 348.5 190.5Q333 184 322 173Q311 162 304.5 146.5Q298 131 298 114Q298 79 322.5 54.5Q347 30 382 30Q399 30 414.5 37Q430 44 441 55Q452 66 458.5 81Q465 96 465 114ZM20 500Q20 525 29.5 547.5Q39 570 55.5 587Q72 604 94 613.5Q116 623 142 623Q167 623 189.5 613.5Q212 604 228.5 587Q245 570 254.5 547.5Q264 525 264 500Q264 474 254.5 452Q245 430 228.5 413.5Q212 397 189.5 387.5Q167 378 142 378Q116 378 94 387.5Q72 397 55.5 413.5Q39 430 29.5 452Q20 474 20 500ZM780 114Q780 88 770.5 66Q761 44 744.5 27Q728 10 705.5 0.5Q683 -9 658 -9Q632 -9 610 0.5Q588 10 571 27Q554 44 544.5 66Q535 88 535 114Q535 139 544.5 161.5Q554 184 571 200.5Q588 217 610 226.5Q632 236 658 236Q683 236 705.5 226.5Q728 217 744.5 200.5Q761 184 770.5 161.5Q780 139 780 114ZM741 114Q741 131 734.5 146.5Q728 162 717 173Q706 184 690.5 190.5Q675 197 658 197Q640 197 625 190.5Q610 184 599 173Q588 162 581 146.5Q574 131 574 114Q574 79 598.5 54.5Q623 30 658 30Q675 30 690.5 37Q706 44 717 55Q728 66 734.5 81Q741 96 741 114Z" glyph-name="perthousand.lt" horiz-adv-x="800" /><glyph d="M71 316H235V481H279V316H443V273H279V108H235V273H71Z" glyph-name="plus" horiz-adv-x="514" unicode="+" /><glyph d="M73 316H237V481H281V316H445V273H281V108H237V273H73Z" glyph-name="plus.lt" horiz-adv-x="520" /><glyph d="M73 370H236V495H280V370H443V327H280V201H236V327H73ZM73 147H443V104H73Z" glyph-name="plusminus" horiz-adv-x="516" unicode="&#177;" /><glyph d="M75 370H238V495H282V370H445V327H282V201H238V327H75ZM75 147H445V104H75Z" glyph-name="plusminus.lt" horiz-adv-x="520" /><glyph d="M670 307Q670 238 645 180.5Q620 123 577.5 80.5Q535 38 477.5 14.5Q420 -9 355 -9Q290 -9 232 14.5Q174 38 131.5 80.5Q89 123 64 180.5Q39 238 39 307Q39 376 64 433.5Q89 491 131.5 533.5Q174 576 232 599.5Q290 623 355 623Q420 623 477.5 599.5Q535 576 577.5 533.5Q620 491 645 433.5Q670 376 670 307ZM638 307Q638 369 615.5 421Q593 473 554.5 510.5Q516 548 464.5 569.5Q413 591 355 591Q296 591 244.5 569.5Q193 548 154.5 510.5Q116 473 93.5 421Q71 369 71 307Q71 245 93.5 193Q116 141 154.5 103.5Q193 66 244.5 44.5Q296 23 355 23Q413 23 464.5 44.5Q516 66 554.5 103.5Q593 141 615.5 193Q638 245 638 307ZM295 270V124H247V493H389Q445 493 478 465Q511 437 511 382Q511 326 478 298Q445 270 389 270ZM464 382Q464 413 444.5 431.5Q425 450 387 450H295V313H387Q425 313 444.5 331Q464 349 464 382Z" glyph-name="published" horiz-adv-x="709" /><glyph d="M371 66Q361 51 347 38Q333 25 315.5 14.5Q298 4 277 -2.5Q256 -9 233 -9Q184 -9 147.5 10Q111 29 87 60.5Q63 92 51 134Q39 176 39 222Q39 267 51 309.5Q63 352 87 383.5Q111 415 147.5 434Q184 453 233 453Q256 453 277 446.5Q298 440 315.5 429.5Q333 419 347 405.5Q361 392 371 378V444H421V-170H371ZM371 319Q349 361 314 383.5Q279 406 238 406Q202 406 175 392.5Q148 379 129 354.5Q110 330 100 296Q90 262 90 222Q90 182 100 148Q110 114 129 89.5Q148 65 175 51.5Q202 38 238 38Q279 38 314 60.5Q349 83 371 125Z" glyph-name="q" horiz-adv-x="492" unicode="q" /><glyph d="M185 36Q185 44 188 51Q191 58 196 63.5Q201 69 208 72Q215 75 223 75Q239 75 250 63.5Q261 52 261 36Q261 19 250 8Q239 -3 223 -3Q215 -3 208 0Q201 3 196 8Q191 13 188 20Q185 27 185 36ZM395 456Q395 429 385.5 405Q376 381 361.5 359Q347 337 328.5 317Q310 297 292 278Q268 251 259 232.5Q250 214 248 193H200Q201 210 204.5 224Q208 238 215 251Q222 264 231 276.5Q240 289 254 304Q267 320 283.5 336.5Q300 353 313.5 371.5Q327 390 336 410.5Q345 431 345 456Q345 512 309.5 544Q274 576 217 576Q152 576 116 535.5Q80 495 73 431H20Q24 474 39.5 509Q55 544 80.5 569Q106 594 140 608.5Q174 623 217 623Q258 623 291 611Q324 599 347.5 577Q371 555 383 524Q395 493 395 456Z" glyph-name="question" horiz-adv-x="422" unicode="?" /><glyph d="M237 482Q237 474 234 467Q231 460 226 454.5Q221 449 214 446Q207 443 199 443Q183 443 172 454.5Q161 466 161 482Q161 499 172 510Q183 521 199 521Q207 521 214 518Q221 515 226 510Q231 505 234 498Q237 491 237 482ZM27 62Q27 89 36.5 113Q46 137 60.5 159Q75 181 93.5 201Q112 221 130 240Q154 267 163 285.5Q172 304 174 325H222Q221 308 217.5 294Q214 280 207 267Q200 254 191 241.5Q182 229 168 214Q155 198 138.5 181.5Q122 165 108.5 146.5Q95 128 86 107.5Q77 87 77 62Q77 6 112.5 -26Q148 -58 205 -58Q270 -58 306 -17.5Q342 23 349 87H402Q398 44 382.5 9Q367 -26 341.5 -51Q316 -76 282 -90.5Q248 -105 205 -105Q164 -105 131 -93Q98 -81 74.5 -59Q51 -37 39 -6Q27 25 27 62Z" glyph-name="questiondown" horiz-adv-x="422" unicode="&#191;" /><glyph d="M238 578Q238 570 235 563Q232 556 227 550.5Q222 545 214.5 542Q207 539 200 539Q184 539 173 550.5Q162 562 162 578Q162 594 173 605.5Q184 617 200 617Q207 617 214.5 614Q222 611 227 605.5Q232 600 235 593.5Q238 587 238 578ZM27 158Q27 185 36.5 209Q46 233 61 254.5Q76 276 94 296.5Q112 317 130 336Q154 362 163 381Q172 400 174 421H222Q221 403 217.5 389.5Q214 376 207.5 363Q201 350 191.5 337Q182 324 169 310Q155 293 139 277Q123 261 109 242.5Q95 224 86.5 203Q78 182 78 158Q78 101 113 69.5Q148 38 206 38Q270 38 306.5 78Q343 118 349 183H402Q398 140 382.5 105Q367 70 341.5 44.5Q316 19 282 5Q248 -9 206 -9Q165 -9 131.5 3Q98 15 75 37Q52 59 39.5 89.5Q27 120 27 158Z" glyph-name="questiondown.cap" horiz-adv-x="422" /><glyph d="M40 614H86V417H40ZM136 614H182V417H136Z" glyph-name="quotedbl" horiz-adv-x="222" unicode="&quot;" /><glyph d="M72 -1Q59 2 50 11Q41 20 41 35Q41 52 52 63Q63 74 79 74Q95 74 106 63Q117 52 117 33Q117 21 112.5 10.5Q108 0 102 -11L56 -98H20ZM196 -1Q183 2 174 11Q165 20 165 35Q165 52 176 63Q187 74 203 74Q219 74 230 63Q241 52 241 33Q241 21 236.5 10.5Q232 0 226 -11L180 -98H144Z" glyph-name="quotedblbase" horiz-adv-x="266" unicode="&#8222;" /><glyph d="M70 517Q83 514 92 505Q101 496 101 481Q101 464 90 453Q79 442 63 442Q47 442 36 453Q25 464 25 483Q25 495 29 505.5Q33 516 40 527L86 614H122ZM194 517Q206 514 215.5 505Q225 496 225 481Q225 464 214 453Q203 442 187 442Q171 442 160 453Q149 464 149 483Q149 495 153 505.5Q157 516 164 527L210 614H246Z" glyph-name="quotedblleft" horiz-adv-x="266" unicode="&#8220;" /><glyph d="M196 548Q183 551 174 560Q165 569 165 584Q165 600 176 611.5Q187 623 203 623Q219 623 230 611.5Q241 600 241 582Q241 570 236.5 559Q232 548 226 538L180 451H144ZM72 548Q59 551 50 560Q41 569 41 584Q41 600 52 611.5Q63 623 79 623Q95 623 106 611.5Q117 600 117 582Q117 570 112.5 559Q108 548 102 538L56 451H20Z" glyph-name="quotedblright" horiz-adv-x="266" unicode="&#8221;" /><glyph d="M70 517Q83 514 92 505Q101 496 101 481Q101 464 90 453Q79 442 63 442Q47 442 36 453Q25 464 25 483Q25 495 29 505.5Q33 516 40 527L86 614H122Z" glyph-name="quoteleft" horiz-adv-x="142" unicode="&#8216;" /><glyph d="M72 548Q59 551 50 560Q41 569 41 584Q41 600 52 611.5Q63 623 79 623Q95 623 106 611.5Q117 600 117 582Q117 570 112.5 559Q108 548 102 538L56 451H20Z" glyph-name="quoteright" horiz-adv-x="142" unicode="&#8217;" /><glyph d="M72 -1Q59 2 50 11Q41 20 41 35Q41 52 52 63Q63 74 79 74Q95 74 106 63Q117 52 117 33Q117 21 112.5 10.5Q108 0 102 -11L56 -98H20Z" glyph-name="quotesinglbase" horiz-adv-x="128" unicode="&#8218;" /><glyph d="M40 614H87V417H40Z" glyph-name="quotesingle" horiz-adv-x="127" unicode="&apos;" /><glyph d="M280 397Q271 401 261 403Q251 405 239 405Q198 405 167.5 378.5Q137 352 121 310V0H71V444H121V373Q137 407 168.5 430Q200 453 241 453Q254 453 263.5 451Q273 449 280 447Z" glyph-name="r" horiz-adv-x="301" unicode="r" /><glyph d="M280 397Q271 401 261 403Q251 405 239 405Q198 405 167.5 378.5Q137 352 121 310V0H71V444H121V373Q137 407 168.5 430Q200 453 241 453Q254 453 263.5 451Q273 449 280 447ZM147 520 230 650H283L196 520Z" glyph-name="racute" horiz-adv-x="301" unicode="&#341;" /><glyph d="M280 397Q271 401 261 403Q251 405 239 405Q198 405 167.5 378.5Q137 352 121 310V0H71V444H121V373Q137 407 168.5 430Q200 453 241 453Q254 453 263.5 451Q273 449 280 447ZM199 515H154L62 645H108L176 550L244 645H291Z" glyph-name="rcaron" horiz-adv-x="301" unicode="&#345;" /><glyph d="M280 397Q271 401 261 403Q251 405 239 405Q198 405 167.5 378.5Q137 352 121 310V0H71V444H121V373Q137 407 168.5 430Q200 453 241 453Q254 453 263.5 451Q273 449 280 447ZM88 -116Q76 -114 67.5 -105.5Q59 -97 59 -83Q59 -67 69.5 -57Q80 -47 95 -47Q111 -47 121 -57.5Q131 -68 131 -84Q131 -96 127 -105.5Q123 -115 117 -126L86 -183H52Z" glyph-name="rcommaaccent" horiz-adv-x="301" unicode="&#343;" /><glyph d="M390 440Q390 400 375.5 366.5Q361 333 336.5 308.5Q312 284 279 270.5Q246 257 209 257Q172 257 139 270.5Q106 284 81.5 308.5Q57 333 42.5 366.5Q28 400 28 440Q28 480 42.5 513.5Q57 547 81.5 571.5Q106 596 139 609.5Q172 623 209 623Q246 623 279 609.5Q312 596 336.5 571.5Q361 547 375.5 513.5Q390 480 390 440ZM362 440Q362 473 350 502Q338 531 317 551.5Q296 572 268.5 583.5Q241 595 209 595Q177 595 149.5 583.5Q122 572 101 551.5Q80 531 68 502Q56 473 56 440Q56 406 68 377Q80 348 101 327.5Q122 307 149.5 295.5Q177 284 209 284Q241 284 268.5 295.5Q296 307 317 327.5Q338 348 350 377Q362 406 362 440ZM176 420V346H142V538H220Q250 538 268.5 522.5Q287 507 287 478Q287 455 274.5 440.5Q262 426 241 422L294 346H255L205 420ZM254 478Q254 491 245.5 499Q237 507 221 507H176V450H221Q237 450 245.5 458Q254 466 254 478Z" glyph-name="registered" horiz-adv-x="418" unicode="&#174;" /><glyph d="M331 580Q331 563 325 548Q319 533 307.5 522.5Q296 512 281 505.5Q266 499 250 499Q232 499 217.5 505.5Q203 512 192 522.5Q181 533 174.5 548Q168 563 168 580Q168 597 174.5 612Q181 627 192 637.5Q203 648 217.5 654.5Q232 661 250 661Q266 661 281 654.5Q296 648 307.5 637.5Q319 627 325 612Q331 597 331 580ZM299 580Q299 601 284.5 615Q270 629 250 629Q229 629 214.5 615Q200 601 200 580Q200 559 214.5 545Q229 531 250 531Q270 531 284.5 545Q299 559 299 580Z" glyph-name="ring" horiz-adv-x="500" unicode="&#730;" /><glyph d="M331 729Q331 711 325 696.5Q319 682 307.5 671Q296 660 281 654Q266 648 250 648Q232 648 217.5 654Q203 660 192 671Q181 682 174.5 696.5Q168 711 168 729Q168 745 174.5 760Q181 775 192 786Q203 797 217.5 803.5Q232 810 250 810Q266 810 281 803.5Q296 797 307.5 786Q319 775 325 760Q331 745 331 729ZM299 729Q299 749 284.5 763.5Q270 778 250 778Q229 778 214.5 763.5Q200 749 200 729Q200 708 214.5 693.5Q229 679 250 679Q270 679 284.5 693.5Q299 708 299 729Z" glyph-name="ring.cap" horiz-adv-x="500" /><glyph d="M81 115Q94 74 126 54.5Q158 35 204 35Q227 35 246.5 40Q266 45 280.5 54.5Q295 64 303.5 79.5Q312 95 312 116Q312 144 292.5 163.5Q273 183 230 195L148 217Q101 230 72 255.5Q43 281 43 330Q43 359 54.5 382Q66 405 87 420.5Q108 436 135 444.5Q162 453 193 453Q262 453 304 420.5Q346 388 358 332H308Q295 371 267.5 390Q240 409 193 409Q152 409 122 390Q92 371 92 332Q92 300 111.5 286Q131 272 171 260L249 239Q306 223 333.5 192.5Q361 162 361 118Q361 88 349 64Q337 40 316 24.5Q295 9 266 0Q237 -9 204 -9Q170 -9 140.5 -0.5Q111 8 88.5 24Q66 40 51 63Q36 86 30 115Z" glyph-name="s" horiz-adv-x="400" unicode="s" /><glyph d="M81 115Q94 74 126 54.5Q158 35 204 35Q227 35 246.5 40Q266 45 280.5 54.5Q295 64 303.5 79.5Q312 95 312 116Q312 144 292.5 163.5Q273 183 230 195L148 217Q101 230 72 255.5Q43 281 43 330Q43 359 54.5 382Q66 405 87 420.5Q108 436 135 444.5Q162 453 193 453Q262 453 304 420.5Q346 388 358 332H308Q295 371 267.5 390Q240 409 193 409Q152 409 122 390Q92 371 92 332Q92 300 111.5 286Q131 272 171 260L249 239Q306 223 333.5 192.5Q361 162 361 118Q361 88 349 64Q337 40 316 24.5Q295 9 266 0Q237 -9 204 -9Q170 -9 140.5 -0.5Q111 8 88.5 24Q66 40 51 63Q36 86 30 115ZM169 520 252 650H305L218 520Z" glyph-name="sacute" horiz-adv-x="400" unicode="&#347;" /><glyph d="M81 115Q94 74 126 54.5Q158 35 204 35Q227 35 246.5 40Q266 45 280.5 54.5Q295 64 303.5 79.5Q312 95 312 116Q312 144 292.5 163.5Q273 183 230 195L148 217Q101 230 72 255.5Q43 281 43 330Q43 359 54.5 382Q66 405 87 420.5Q108 436 135 444.5Q162 453 193 453Q262 453 304 420.5Q346 388 358 332H308Q295 371 267.5 390Q240 409 193 409Q152 409 122 390Q92 371 92 332Q92 300 111.5 286Q131 272 171 260L249 239Q306 223 333.5 192.5Q361 162 361 118Q361 88 349 64Q337 40 316 24.5Q295 9 266 0Q237 -9 204 -9Q170 -9 140.5 -0.5Q111 8 88.5 24Q66 40 51 63Q36 86 30 115ZM221 515H176L84 645H130L198 550L266 645H313Z" glyph-name="scaron" horiz-adv-x="400" unicode="&#353;" /><glyph d="M81 115Q94 74 126 54.5Q158 35 204 35Q227 35 246.5 40Q266 45 280.5 54.5Q295 64 303.5 79.5Q312 95 312 116Q312 144 292.5 163.5Q273 183 230 195L148 217Q101 230 72 255.5Q43 281 43 330Q43 359 54.5 382Q66 405 87 420.5Q108 436 135 444.5Q162 453 193 453Q262 453 304 420.5Q346 388 358 332H308Q295 371 267.5 390Q240 409 193 409Q152 409 122 390Q92 371 92 332Q92 300 111.5 286Q131 272 171 260L249 239Q306 223 333.5 192.5Q361 162 361 118Q361 88 349 64Q337 40 316 24.5Q295 9 266 0Q237 -9 204 -9Q170 -9 140.5 -0.5Q111 8 88.5 24Q66 40 51 63Q36 86 30 115ZM116 -176 176 -48H225L163 -176Z" glyph-name="scedilla" horiz-adv-x="400" unicode="&#351;" /><glyph d="M81 115Q94 74 126 54.5Q158 35 204 35Q227 35 246.5 40Q266 45 280.5 54.5Q295 64 303.5 79.5Q312 95 312 116Q312 144 292.5 163.5Q273 183 230 195L148 217Q101 230 72 255.5Q43 281 43 330Q43 359 54.5 382Q66 405 87 420.5Q108 436 135 444.5Q162 453 193 453Q262 453 304 420.5Q346 388 358 332H308Q295 371 267.5 390Q240 409 193 409Q152 409 122 390Q92 371 92 332Q92 300 111.5 286Q131 272 171 260L249 239Q306 223 333.5 192.5Q361 162 361 118Q361 88 349 64Q337 40 316 24.5Q295 9 266 0Q237 -9 204 -9Q170 -9 140.5 -0.5Q111 8 88.5 24Q66 40 51 63Q36 86 30 115ZM313 513H266L198 609L130 513H84L176 644H221Z" glyph-name="scircumflex" horiz-adv-x="400" unicode="&#349;" /><glyph d="M81 115Q94 74 126 54.5Q158 35 204 35Q227 35 246.5 40Q266 45 280.5 54.5Q295 64 303.5 79.5Q312 95 312 116Q312 144 292.5 163.5Q273 183 230 195L148 217Q101 230 72 255.5Q43 281 43 330Q43 359 54.5 382Q66 405 87 420.5Q108 436 135 444.5Q162 453 193 453Q262 453 304 420.5Q346 388 358 332H308Q295 371 267.5 390Q240 409 193 409Q152 409 122 390Q92 371 92 332Q92 300 111.5 286Q131 272 171 260L249 239Q306 223 333.5 192.5Q361 162 361 118Q361 88 349 64Q337 40 316 24.5Q295 9 266 0Q237 -9 204 -9Q170 -9 140.5 -0.5Q111 8 88.5 24Q66 40 51 63Q36 86 30 115ZM196 -116Q184 -114 175.5 -105.5Q167 -97 167 -83Q167 -67 177.5 -57Q188 -47 203 -47Q219 -47 229 -57.5Q239 -68 239 -84Q239 -96 235 -105.5Q231 -115 225 -126L194 -183H160Z" glyph-name="scommaaccent" horiz-adv-x="400" unicode="&#537;" /><glyph d="M349 86Q357 72 362 56.5Q367 41 367 20Q367 -9 355.5 -32Q344 -55 324.5 -70.5Q305 -86 278 -94Q251 -102 220 -102Q151 -102 108.5 -68.5Q66 -35 55 22H104Q116 -18 144 -38.5Q172 -59 220 -59Q262 -59 290 -39.5Q318 -20 318 19Q318 50 304.5 65.5Q291 81 264 100L118 199Q99 213 82 225.5Q65 238 53 253Q41 268 34 285.5Q27 303 27 325Q27 362 46 389.5Q65 417 95 433Q87 446 82 462.5Q77 479 77 500Q77 529 88 551.5Q99 574 119 590Q139 606 165.5 614.5Q192 623 223 623Q292 623 334.5 589Q377 555 389 498H339Q327 538 299 559Q271 580 223 580Q182 580 154 560Q126 540 126 501Q126 486 129 475Q132 464 139 455Q146 446 156 438Q166 430 180 420L325 321Q345 308 361.5 295Q378 282 390.5 267.5Q403 253 409.5 235Q416 217 416 195Q416 158 397.5 129.5Q379 101 349 86ZM317 121Q340 130 354 149Q368 168 368 195Q368 224 348 243Q328 262 299 281L126 400Q103 391 89 372Q75 353 75 326Q75 297 95 278Q115 259 144 240Z" glyph-name="section" horiz-adv-x="443" unicode="&#167;" /><glyph d="M64 -1Q52 2 42.5 11Q33 20 33 36Q33 52 44 63Q55 74 71 74Q87 74 98 63Q109 52 109 33Q109 21 105 10.5Q101 0 94 -11L46 -102H10ZM33 364Q33 380 44 391.5Q55 403 71 403Q79 403 86 400Q93 397 98 391.5Q103 386 106 379.5Q109 373 109 364Q109 356 106 349Q103 342 98 336.5Q93 331 86 328Q79 325 71 325Q64 325 56.5 328Q49 331 44 336.5Q39 342 36 349Q33 356 33 364Z" glyph-name="semicolon" horiz-adv-x="142" unicode=";" /><glyph d="M123 -1Q111 2 101.5 11Q92 20 92 36Q92 52 103 63Q114 74 130 74Q146 74 157 63Q168 52 168 33Q168 21 164 10.5Q160 0 153 -11L105 -102H69ZM92 364Q92 380 103 391.5Q114 403 130 403Q138 403 145 400Q152 397 157 391.5Q162 386 165 379.5Q168 373 168 364Q168 356 165 349Q162 342 157 336.5Q152 331 145 328Q138 325 130 325Q123 325 115.5 328Q108 331 103 336.5Q98 342 95 349Q92 356 92 364Z" glyph-name="semicolon.tab" horiz-adv-x="260" /><glyph d="M181 0H128L354 566H18V614H407V572Z" glyph-name="seven" horiz-adv-x="429" unicode="7" /><glyph d="M236 0H183L412 566H46V614H465V572Z" glyph-name="seven.lt" horiz-adv-x="520" /><glyph d="M107 196Q107 162 118.5 133Q130 104 150 82.5Q170 61 197.5 49Q225 37 259 37Q291 37 318.5 49Q346 61 366 82Q386 103 398 132Q410 161 410 196Q410 230 398 259.5Q386 289 366 310Q346 331 318.5 343Q291 355 259 355Q226 355 198 343Q170 331 150 310Q130 289 118.5 259.5Q107 230 107 196ZM395 475Q380 520 349.5 549Q319 578 262 578Q226 578 194.5 559Q163 540 139.5 505.5Q116 471 102.5 421.5Q89 372 89 310Q89 302 89.5 290Q90 278 91 267Q98 296 114.5 320.5Q131 345 153.5 362.5Q176 380 204 390Q232 400 261 400Q304 400 340 384Q376 368 402.5 340.5Q429 313 444 276Q459 239 459 197Q459 154 444 116.5Q429 79 402.5 51Q376 23 339 7Q302 -9 258 -9Q193 -9 148.5 22.5Q104 54 78 108Q58 150 50 199Q42 248 42 299Q42 376 59 436.5Q76 497 105.5 538Q135 579 175.5 601Q216 623 262 623Q340 623 384.5 582.5Q429 542 447 475Z" glyph-name="six" horiz-adv-x="495" unicode="6" /><glyph d="M118 196Q118 162 129.5 133Q141 104 162 82.5Q183 61 212 49Q241 37 275 37Q307 37 335.5 49Q364 61 385.5 82Q407 103 419 132Q431 161 431 196Q431 230 419 259.5Q407 289 385.5 310Q364 331 335.5 343Q307 355 275 355Q241 355 212 343Q183 331 162.5 310Q142 289 130 259.5Q118 230 118 196ZM415 475Q400 520 368 549Q336 578 278 578Q241 578 208.5 559Q176 540 152 505Q128 470 114 421Q100 372 100 310Q100 301 100.5 290Q101 279 102 267Q109 297 125.5 321.5Q142 346 165.5 363.5Q189 381 217.5 390.5Q246 400 277 400Q321 400 358 384Q395 368 422 340.5Q449 313 464.5 276Q480 239 480 197Q480 154 464.5 116.5Q449 79 421.5 51Q394 23 356.5 7Q319 -9 274 -9Q208 -9 162 22.5Q116 54 89 108Q69 150 61 199Q53 248 53 299Q53 376 70.5 436.5Q88 497 118 538Q148 579 189.5 601Q231 623 278 623Q358 623 404 582.5Q450 542 467 475Z" glyph-name="six.lt" horiz-adv-x="520" /><glyph d="M253 650H302L54 -84H5Z" glyph-name="slash" horiz-adv-x="307" unicode="/" /><glyph d="M253 670H302L54 -64H5Z" glyph-name="slash.cap" horiz-adv-x="307" /><glyph glyph-name="space" horiz-adv-x="221" unicode=" " /><glyph glyph-name="space.tab" horiz-adv-x="260" /><glyph d="M169 136Q169 110 162.5 85Q156 60 145 45H452V0H31V45H96Q107 63 113.5 83Q120 103 120 136V282H31V324H120V423Q120 469 132.5 506Q145 543 168 568.5Q191 594 223 608.5Q255 623 293 623Q328 623 355 613Q382 603 402.5 585.5Q423 568 436 543.5Q449 519 455 489H405Q395 531 368 554Q341 577 293 577Q237 577 203 537.5Q169 498 169 423V324H338V282H169Z" glyph-name="sterling" horiz-adv-x="483" unicode="&#163;" /><glyph d="M186 136Q186 110 179.5 85Q173 60 162 45H469V0H48V45H113Q124 63 130.5 83Q137 103 137 136V282H48V324H137V423Q137 469 149.5 506Q162 543 185 568.5Q208 594 240 608.5Q272 623 310 623Q345 623 372 613Q399 603 419.5 585.5Q440 568 453 543.5Q466 519 472 489H422Q412 531 385 554Q358 577 310 577Q254 577 220 537.5Q186 498 186 423V324H355V282H186Z" glyph-name="sterling.lt" horiz-adv-x="520" /><glyph d="M90 400H16V444H90V558H140V444H255V400H140V108Q140 70 156.5 53.5Q173 37 204 37Q220 37 235.5 41.5Q251 46 265 53V6Q252 -1 234.5 -5Q217 -9 199 -9Q150 -9 120 18Q90 45 90 103Z" glyph-name="t" horiz-adv-x="298" unicode="t" /><glyph d="M28 282H92V400H18V444H92V558H142V444H257V400H142V282H236V240H142V108Q142 70 158.5 53.5Q175 37 206 37Q222 37 237.5 41.5Q253 46 267 53V6Q254 -1 236.5 -5Q219 -9 201 -9Q152 -9 122 18Q92 45 92 103V240H28Z" glyph-name="tbar" horiz-adv-x="300" unicode="&#359;" /><glyph d="M90 400H16V444H90V558H140V444H255V400H140V108Q140 70 156.5 53.5Q173 37 204 37Q220 37 235.5 41.5Q251 46 265 53V6Q252 -1 234.5 -5Q217 -9 199 -9Q150 -9 120 18Q90 45 90 103ZM197 500 230 660H271L238 500Z" glyph-name="tcaron" horiz-adv-x="298" unicode="&#357;" /><glyph d="M90 400H16V444H90V558H140V444H255V400H140V108Q140 70 156.5 53.5Q173 37 204 37Q220 37 235.5 41.5Q251 46 265 53V6Q252 -1 234.5 -5Q217 -9 199 -9Q150 -9 120 18Q90 45 90 103ZM171 -116Q159 -114 150.5 -105.5Q142 -97 142 -83Q142 -67 152.5 -57Q163 -47 178 -47Q194 -47 204 -57.5Q214 -68 214 -84Q214 -96 210 -105.5Q206 -115 200 -126L169 -183H135Z" glyph-name="tcommaaccent" horiz-adv-x="298" unicode="&#355;" /><glyph d="M121 -170H71V650H121V378Q130 392 144 405.5Q158 419 176 429.5Q194 440 215 446.5Q236 453 259 453Q308 453 344 434Q380 415 404.5 383.5Q429 352 441 309.5Q453 267 453 222Q453 176 441 134Q429 92 404.5 60.5Q380 29 344 10Q308 -9 259 -9Q236 -9 215 -2.5Q194 4 176 14.5Q158 25 144 38Q130 51 121 66ZM121 125Q143 83 178 60.5Q213 38 254 38Q289 38 316.5 51.5Q344 65 363 89.5Q382 114 392 148Q402 182 402 222Q402 262 392 296Q382 330 363 354.5Q344 379 316.5 392.5Q289 406 254 406Q213 406 178 383.5Q143 361 121 319Z" glyph-name="thorn" horiz-adv-x="492" unicode="&#254;" /><glyph d="M182 338H228Q255 338 278.5 346Q302 354 319 369.5Q336 385 346.5 407Q357 429 357 457Q357 509 321 542.5Q285 576 225 576Q170 576 133 543.5Q96 511 85 455H34Q39 492 55.5 523Q72 554 97.5 576Q123 598 155 610.5Q187 623 225 623Q267 623 301 610.5Q335 598 358.5 576Q382 554 394.5 524Q407 494 407 458Q407 431 398.5 407Q390 383 374.5 364.5Q359 346 339 333.5Q319 321 296 316Q321 311 344 299Q367 287 383.5 268Q400 249 410 224Q420 199 420 168Q420 132 407 99.5Q394 67 369.5 43.5Q345 20 309 5.5Q273 -9 228 -9Q186 -9 150.5 3.5Q115 16 88.5 38.5Q62 61 45.5 93Q29 125 24 165H76Q87 105 126 71.5Q165 38 228 38Q292 38 330.5 73Q369 108 369 168Q369 197 358 220.5Q347 244 327.5 260Q308 276 282.5 284.5Q257 293 229 293H182Z" glyph-name="three" horiz-adv-x="455" unicode="3" /><glyph d="M211 338H259Q287 338 311.5 346Q336 354 354.5 369.5Q373 385 383 407Q393 429 393 457Q393 510 355 543Q317 576 255 576Q198 576 159.5 543.5Q121 511 110 455H58Q64 492 81 523Q98 554 124 576Q150 598 183.5 610.5Q217 623 256 623Q300 623 335 610.5Q370 598 394 576Q418 554 431 524Q444 494 444 458Q444 431 435 407Q426 383 410.5 364.5Q395 346 374 333.5Q353 321 329 316Q355 311 378.5 299Q402 287 419.5 268Q437 249 447.5 223.5Q458 198 458 167Q458 131 444.5 99Q431 67 405.5 43Q380 19 342.5 5Q305 -9 259 -9Q215 -9 178 3.5Q141 16 114.5 38.5Q88 61 70.5 93Q53 125 48 165H100Q112 105 152.5 71.5Q193 38 258 38Q325 38 365.5 73Q406 108 406 168Q406 197 394.5 220.5Q383 244 362.5 260Q342 276 315.5 284.5Q289 293 260 293H211Z" glyph-name="three.lt" horiz-adv-x="520" /><glyph d="M164 0H118L535 614H581ZM136 470H160Q186 470 203.5 484.5Q221 499 221 526Q221 550 204 565Q187 580 160 580Q135 580 117.5 564Q100 548 96 523H53Q56 543 64.5 561Q73 579 87 592Q101 605 119.5 612Q138 619 160 619Q208 619 235.5 593Q263 567 263 527Q263 500 247.5 479.5Q232 459 210 453Q236 447 252.5 426.5Q269 406 269 377Q269 336 241 307.5Q213 279 161 279Q111 279 81.5 305.5Q52 332 47 378H93Q97 350 115 334Q133 318 162 318Q191 318 208.5 334Q226 350 226 377Q226 405 207 420Q188 435 161 435H136ZM435 112H538V187H578V112H636V74H578V0H538V74H386V108L508 330H553Z" glyph-name="threequarters" horiz-adv-x="685" unicode="&#190;" /><glyph d="M110 471H134Q160 471 177.5 485.5Q195 500 195 526Q195 550 178 565.5Q161 581 134 581Q109 581 91.5 565Q74 549 70 524H27Q30 544 38.5 562Q47 580 61 593Q75 606 93.5 613Q112 620 134 620Q182 620 209.5 594Q237 568 237 528Q237 501 221.5 480.5Q206 460 184 454Q210 447 226.5 426.5Q243 406 243 378Q243 336 215 308Q187 280 135 280Q85 280 55.5 306.5Q26 333 21 379H67Q71 350 89 334Q107 318 136 318Q165 318 182.5 334.5Q200 351 200 378Q200 405 181 420.5Q162 436 135 436H110Z" glyph-name="threesuperior" horiz-adv-x="271" unicode="&#179;" /><glyph d="M374 625Q374 601 370 581.5Q366 562 357 548.5Q348 535 335 527.5Q322 520 305 520Q287 520 272.5 530Q258 540 246 552.5Q234 565 222.5 575Q211 585 198 585Q180 585 171 568Q162 551 162 523H126Q126 546 130.5 565.5Q135 585 143.5 599Q152 613 165 620.5Q178 628 195 628Q214 628 228 618Q242 608 254.5 596Q267 584 278 573.5Q289 563 302 563Q320 563 329 580Q338 597 338 625Z" glyph-name="tilde" horiz-adv-x="500" unicode="&#732;" /><glyph d="M375 770Q375 746 370.5 726.5Q366 707 357.5 693Q349 679 336 672Q323 665 306 665Q287 665 272.5 675Q258 685 245.5 696.5Q233 708 221.5 718Q210 728 196 728Q178 728 169 712Q160 696 160 668H124Q124 691 128.5 710.5Q133 730 141.5 743.5Q150 757 163 765Q176 773 193 773Q212 773 226.5 763Q241 753 253.5 741Q266 729 277.5 719Q289 709 303 709Q321 709 330 725.5Q339 742 339 770Z" glyph-name="tilde.cap" horiz-adv-x="500" /><glyph d="M16 614H227V581H141V360H102V581H16ZM385 360 309 548V360H271V614H318L400 413L481 614H527V360H489V548L413 360Z" glyph-name="trademark" horiz-adv-x="574" unicode="&#8482;" /><glyph d="M354 454Q354 510 318.5 543Q283 576 226 576Q159 576 123.5 535Q88 494 81 429H29Q33 472 48.5 507.5Q64 543 89 568.5Q114 594 148.5 608.5Q183 623 226 623Q267 623 300 610.5Q333 598 356.5 576Q380 554 392 522.5Q404 491 404 454Q404 424 393.5 397Q383 370 365.5 344.5Q348 319 326 294.5Q304 270 281 244L98 47H419V0H26V35L242 271Q266 297 287 320Q308 343 322.5 364.5Q337 386 345.5 407.5Q354 429 354 454Z" glyph-name="two" horiz-adv-x="445" unicode="2" /><glyph d="M388 454Q388 510 352 543Q316 576 256 576Q188 576 151 535Q114 494 107 429H55Q59 472 74.5 507.5Q90 543 116 568.5Q142 594 177 608.5Q212 623 256 623Q298 623 332 610.5Q366 598 389.5 576Q413 554 425.5 522.5Q438 491 438 454Q438 424 427 397Q416 370 398.5 344.5Q381 319 358.5 294.5Q336 270 312 244L125 47H453V0H52V35L273 271Q298 297 319 320Q340 343 355 364.5Q370 386 379 407.5Q388 429 388 454Z" glyph-name="two.lt" horiz-adv-x="520" /><glyph d="M190 525Q190 550 174.5 565Q159 580 133 580Q103 580 87 561Q71 542 69 514H23Q25 537 34 556.5Q43 576 57 590Q71 604 90 612Q109 620 133 620Q180 620 207 594Q234 568 234 525Q234 493 214 467.5Q194 442 169 415L83 324H237V285H23V315L135 436Q160 463 175 482.5Q190 502 190 525Z" glyph-name="twosuperior" horiz-adv-x="263" unicode="&#178;" /><glyph d="M410 0H360V71Q340 39 303.5 15Q267 -9 220 -9Q144 -9 105 35Q66 79 66 150V444H116V158Q116 106 143 72Q170 38 229 38Q275 38 309.5 66Q344 94 360 133V444H410Z" glyph-name="u" horiz-adv-x="481" unicode="u" /><glyph d="M410 0H360V71Q340 39 303.5 15Q267 -9 220 -9Q144 -9 105 35Q66 79 66 150V444H116V158Q116 106 143 72Q170 38 229 38Q275 38 309.5 66Q344 94 360 133V444H410ZM210 520 293 650H346L259 520Z" glyph-name="uacute" horiz-adv-x="481" unicode="&#250;" /><glyph d="M410 0H360V71Q340 39 303.5 15Q267 -9 220 -9Q144 -9 105 35Q66 79 66 150V444H116V158Q116 106 143 72Q170 38 229 38Q275 38 309.5 66Q344 94 360 133V444H410ZM240 506Q218 506 199 514Q180 522 166.5 537Q153 552 145.5 574Q138 596 138 626H178Q178 587 195 565.5Q212 544 240 544Q269 544 285.5 565.5Q302 587 302 626H342Q342 596 334.5 574Q327 552 313.5 537Q300 522 281 514Q262 506 240 506Z" glyph-name="ubreve" horiz-adv-x="481" unicode="&#365;" /><glyph d="M410 0H360V71Q340 39 303.5 15Q267 -9 220 -9Q144 -9 105 35Q66 79 66 150V444H116V158Q116 106 143 72Q170 38 229 38Q275 38 309.5 66Q344 94 360 133V444H410ZM355 513H308L240 609L172 513H126L218 644H263Z" glyph-name="ucircumflex" horiz-adv-x="481" unicode="&#251;" /><glyph d="M410 0H360V71Q340 39 303.5 15Q267 -9 220 -9Q144 -9 105 35Q66 79 66 150V444H116V158Q116 106 143 72Q170 38 229 38Q275 38 309.5 66Q344 94 360 133V444H410ZM144 571Q144 585 153.5 594.5Q163 604 177 604Q184 604 190 601Q196 598 200.5 594Q205 590 207.5 584Q210 578 210 571Q210 557 200.5 547.5Q191 538 177 538Q163 538 153.5 547.5Q144 557 144 571ZM269 571Q269 585 278.5 594.5Q288 604 302 604Q309 604 315 601Q321 598 325.5 594Q330 590 333 584Q336 578 336 571Q336 557 326 547.5Q316 538 302 538Q288 538 278.5 547.5Q269 557 269 571Z" glyph-name="udieresis" horiz-adv-x="481" unicode="&#252;" /><glyph d="M410 0H360V71Q340 39 303.5 15Q267 -9 220 -9Q144 -9 105 35Q66 79 66 150V444H116V158Q116 106 143 72Q170 38 229 38Q275 38 309.5 66Q344 94 360 133V444H410ZM218 520 131 650H184L267 520Z" glyph-name="ugrave" horiz-adv-x="481" unicode="&#249;" /><glyph d="M410 0H360V71Q340 39 303.5 15Q267 -9 220 -9Q144 -9 105 35Q66 79 66 150V444H116V158Q116 106 143 72Q170 38 229 38Q275 38 309.5 66Q344 94 360 133V444H410ZM159 520 233 650H278L204 520ZM269 520 343 650H388L314 520Z" glyph-name="uhungarumlaut" horiz-adv-x="481" unicode="&#369;" /><glyph d="M410 0H360V71Q340 39 303.5 15Q267 -9 220 -9Q144 -9 105 35Q66 79 66 150V444H116V158Q116 106 143 72Q170 38 229 38Q275 38 309.5 66Q344 94 360 133V444H410ZM140 579H342V537H140Z" glyph-name="umacron" horiz-adv-x="481" unicode="&#363;" /><glyph d="M20 -42H332V-89H20Z" glyph-name="underscore" horiz-adv-x="352" unicode="_" /><glyph glyph-name="uni00A0" horiz-adv-x="221" unicode="&#160;" /><glyph d="M40 283H281V236H40Z" glyph-name="uni00AD" horiz-adv-x="321" unicode="&#173;" /><glyph d="M123 0H76L494 614H540ZM474 186H499Q524 186 541.5 200.5Q559 215 559 242Q559 266 542.5 281Q526 296 499 296Q473 296 456 280Q439 264 435 239H391Q394 259 402.5 277Q411 295 425 308Q439 321 457.5 328Q476 335 498 335Q546 335 573.5 309Q601 283 601 243Q601 216 586 195.5Q571 175 548 169Q574 163 590.5 142.5Q607 122 607 93Q607 52 579 23.5Q551 -5 500 -5Q450 -5 420.5 21.5Q391 48 385 94H431Q435 66 453 50Q471 34 500 34Q529 34 546.5 50Q564 66 564 93Q564 121 545.5 136Q527 151 500 151H474ZM177 285H133V563L47 519V564L148 615H177Z" glyph-name="uni2153" horiz-adv-x="662" unicode="&#8531;" /><glyph d="M177 0H131L548 614H595ZM216 525Q216 550 200.5 565Q185 580 159 580Q129 580 113 561Q97 542 95 514H49Q51 537 60 556.5Q69 576 83 590Q97 604 116 612Q135 620 159 620Q206 620 233 594Q260 568 260 525Q260 493 240 467.5Q220 442 195 415L109 324H263V285H49V315L161 436Q186 463 201 482.5Q216 502 216 525ZM529 186H553Q579 186 596 200.5Q613 215 613 242Q613 266 596.5 281Q580 296 553 296Q527 296 510 280Q493 264 489 239H445Q448 259 457 277Q466 295 480 308Q494 321 512.5 328Q531 335 552 335Q601 335 628 309Q655 283 655 243Q655 216 640 195.5Q625 175 602 169Q628 163 645 142.5Q662 122 662 93Q662 52 633.5 23.5Q605 -5 554 -5Q504 -5 474.5 21.5Q445 48 440 94H486Q490 66 507.5 50Q525 34 555 34Q584 34 601.5 50Q619 66 619 93Q619 121 600 136Q581 151 554 151H529Z" glyph-name="uni2154" horiz-adv-x="717" unicode="&#8532;" /><glyph d="M123 0H76L494 614H540ZM495 31Q526 31 546 49Q566 67 566 94Q566 120 546 137.5Q526 155 495 155Q463 155 443 137.5Q423 120 423 94Q423 67 443 49Q463 31 495 31ZM495 192Q521 192 538 207Q555 222 555 246Q555 269 538 284.5Q521 300 495 300Q468 300 450.5 284.5Q433 269 433 246Q433 222 450.5 207Q468 192 495 192ZM495 -5Q470 -5 449 2Q428 9 413 22Q398 35 389 52Q380 69 380 91Q380 122 398 143.5Q416 165 443 173Q420 182 406 201.5Q392 221 392 247Q392 267 400 283.5Q408 300 422 311Q436 322 454.5 328.5Q473 335 495 335Q516 335 535 328.5Q554 322 567 311Q580 300 588.5 283.5Q597 267 597 247Q597 221 582.5 201.5Q568 182 545 173Q572 165 590.5 143.5Q609 122 609 91Q609 69 600 52Q591 35 576 22Q561 9 540 2Q519 -5 495 -5ZM177 285H133V563L47 519V564L148 615H177Z" glyph-name="uni215B" horiz-adv-x="661" unicode="&#8539;" /><glyph d="M535 31Q567 31 587 49Q607 67 607 94Q607 120 587 137.5Q567 155 535 155Q503 155 483.5 137.5Q464 120 464 94Q464 67 483.5 49Q503 31 535 31ZM535 192Q562 192 579 207Q596 222 596 246Q596 269 579 284.5Q562 300 535 300Q508 300 491 284.5Q474 269 474 246Q474 222 491 207Q508 192 535 192ZM535 -5Q511 -5 490 2Q469 9 453.5 22Q438 35 429 52Q420 69 420 91Q420 122 438.5 143.5Q457 165 484 173Q461 182 447 201.5Q433 221 433 247Q433 267 441 283.5Q449 300 462.5 311Q476 322 495 328.5Q514 335 535 335Q557 335 575.5 328.5Q594 322 607.5 311Q621 300 629 283.5Q637 267 637 247Q637 221 623 201.5Q609 182 586 173Q613 165 631 143.5Q649 122 649 91Q649 69 640.5 52Q632 35 616.5 22Q601 9 580.5 2Q560 -5 535 -5ZM163 0H117L534 614H581ZM136 471H160Q186 471 203.5 485.5Q221 500 221 526Q221 550 204 565.5Q187 581 160 581Q135 581 117.5 565Q100 549 96 524H53Q56 544 64.5 562Q73 580 87 593Q101 606 119.5 613Q138 620 160 620Q208 620 235.5 594Q263 568 263 528Q263 501 247.5 480.5Q232 460 210 454Q236 447 252.5 426.5Q269 406 269 378Q269 336 241 308Q213 280 161 280Q111 280 81.5 306.5Q52 333 47 379H93Q97 350 115 334Q133 318 162 318Q191 318 208.5 334.5Q226 351 226 378Q226 405 207 420.5Q188 436 161 436H136Z" glyph-name="uni215C" horiz-adv-x="701" unicode="&#8540;" /><glyph d="M537 31Q568 31 588 49Q608 67 608 94Q608 120 588 137.5Q568 155 537 155Q505 155 485 137.5Q465 120 465 94Q465 67 485 49Q505 31 537 31ZM537 192Q563 192 580 207Q597 222 597 246Q597 269 580 284.5Q563 300 537 300Q510 300 492.5 284.5Q475 269 475 246Q475 222 492.5 207Q510 192 537 192ZM537 -5Q512 -5 491 2Q470 9 455 22Q440 35 431 52Q422 69 422 91Q422 122 440 143.5Q458 165 485 173Q463 182 448.5 201.5Q434 221 434 247Q434 267 442 283.5Q450 300 464 311Q478 322 496.5 328.5Q515 335 537 335Q558 335 577 328.5Q596 322 609.5 311Q623 300 631 283.5Q639 267 639 247Q639 221 624.5 201.5Q610 182 587 173Q615 165 633 143.5Q651 122 651 91Q651 69 642 52Q633 35 618 22Q603 9 582 2Q561 -5 537 -5ZM165 0H118L536 614H582ZM165 460Q146 460 132 452Q118 444 109 432H70V615H254V575H108V477Q117 484 132.5 490.5Q148 497 168 497Q214 497 243.5 466Q273 435 273 389Q273 342 243 311Q213 280 165 280Q115 280 85.5 306Q56 332 49 379H94Q100 351 118 335Q136 319 165 319Q194 319 212.5 339Q231 359 231 389Q231 419 212.5 439.5Q194 460 165 460Z" glyph-name="uni215D" horiz-adv-x="703" unicode="&#8541;" /><glyph d="M476 31Q507 31 527 49Q547 67 547 94Q547 120 527 137.5Q507 155 476 155Q444 155 424.5 137.5Q405 120 405 94Q405 67 424.5 49Q444 31 476 31ZM476 192Q502 192 519 207Q536 222 536 246Q536 269 519 284.5Q502 300 476 300Q449 300 432 284.5Q415 269 415 246Q415 222 432 207Q449 192 476 192ZM476 -5Q451 -5 430 2Q409 9 394 22Q379 35 370 52Q361 69 361 91Q361 122 379 143.5Q397 165 425 173Q402 182 387.5 201.5Q373 221 373 247Q373 267 381 283.5Q389 300 403 311Q417 322 435.5 328.5Q454 335 476 335Q497 335 516 328.5Q535 322 548.5 311Q562 300 570 283.5Q578 267 578 247Q578 221 563.5 201.5Q549 182 526 173Q554 165 572 143.5Q590 122 590 91Q590 69 581 52Q572 35 557 22Q542 9 521.5 2Q501 -5 476 -5ZM104 0H58L475 614H521ZM146 284H101L215 574H46V614H261V581Z" glyph-name="uni215E" horiz-adv-x="642" unicode="&#8542;" /><glyph d="M410 0Q395 -27 385.5 -44.5Q376 -62 370.5 -75Q365 -88 363 -97.5Q361 -107 361 -116Q361 -131 367.5 -138Q374 -145 385 -145Q396 -145 404 -141.5Q412 -138 422 -130V-167Q412 -174 401 -178Q390 -182 377 -182Q365 -182 354 -178.5Q343 -175 335.5 -167Q328 -159 324 -148Q320 -137 320 -122Q320 -110 323 -97.5Q326 -85 332 -71Q338 -57 347.5 -39.5Q357 -22 370 0H360V71Q340 39 303.5 15Q267 -9 220 -9Q144 -9 105 35Q66 79 66 150V444H116V158Q116 106 143 72Q170 38 229 38Q275 38 309.5 66Q344 94 360 133V444H410Z" glyph-name="uogonek" horiz-adv-x="481" unicode="&#371;" /><glyph d="M410 0H360V71Q340 39 303.5 15Q267 -9 220 -9Q144 -9 105 35Q66 79 66 150V444H116V158Q116 106 143 72Q170 38 229 38Q275 38 309.5 66Q344 94 360 133V444H410ZM322 580Q322 563 316 548Q310 533 298.5 522.5Q287 512 272 505.5Q257 499 241 499Q223 499 208.5 505.5Q194 512 183 522.5Q172 533 165.5 548Q159 563 159 580Q159 597 165.5 612Q172 627 183 637.5Q194 648 208.5 654.5Q223 661 241 661Q257 661 272 654.5Q287 648 298.5 637.5Q310 627 316 612Q322 597 322 580ZM290 580Q290 601 275.5 615Q261 629 241 629Q220 629 205.5 615Q191 601 191 580Q191 559 205.5 545Q220 531 241 531Q261 531 275.5 545Q290 559 290 580Z" glyph-name="uring" horiz-adv-x="481" unicode="&#367;" /><glyph d="M410 0H360V71Q340 39 303.5 15Q267 -9 220 -9Q144 -9 105 35Q66 79 66 150V444H116V158Q116 106 143 72Q170 38 229 38Q275 38 309.5 66Q344 94 360 133V444H410ZM364 625Q364 601 360 581.5Q356 562 347 548.5Q338 535 325 527.5Q312 520 295 520Q277 520 262.5 530Q248 540 236 552.5Q224 565 212.5 575Q201 585 188 585Q170 585 161 568Q152 551 152 523H116Q116 546 120.5 565.5Q125 585 133.5 599Q142 613 155 620.5Q168 628 185 628Q204 628 218 618Q232 608 244.5 596Q257 584 268 573.5Q279 563 292 563Q310 563 319 580Q328 597 328 625Z" glyph-name="utilde" horiz-adv-x="481" unicode="&#361;" /><glyph d="M195 0 18 444H71L217 70L363 444H415L238 0Z" glyph-name="v" horiz-adv-x="433" unicode="v" /><glyph d="M429 79 538 444H587L453 0H409L302 366L196 0H152L18 444H67L177 79L282 444H324Z" glyph-name="w" horiz-adv-x="605" unicode="w" /><glyph d="M429 79 538 444H587L453 0H409L302 366L196 0H152L18 444H67L177 79L282 444H324ZM273 520 356 650H409L322 520Z" glyph-name="wacute" horiz-adv-x="605" unicode="&#7811;" /><glyph d="M429 79 538 444H587L453 0H409L302 366L196 0H152L18 444H67L177 79L282 444H324ZM417 513H370L302 609L234 513H188L280 644H325Z" glyph-name="wcircumflex" horiz-adv-x="605" unicode="&#373;" /><glyph d="M429 79 538 444H587L453 0H409L302 366L196 0H152L18 444H67L177 79L282 444H324ZM207 571Q207 585 216.5 594.5Q226 604 240 604Q247 604 253 601Q259 598 263.5 594Q268 590 270.5 584Q273 578 273 571Q273 557 263.5 547.5Q254 538 240 538Q226 538 216.5 547.5Q207 557 207 571ZM332 571Q332 585 341.5 594.5Q351 604 365 604Q372 604 378 601Q384 598 388.5 594Q393 590 396 584Q399 578 399 571Q399 557 389 547.5Q379 538 365 538Q351 538 341.5 547.5Q332 557 332 571Z" glyph-name="wdieresis" horiz-adv-x="605" unicode="&#7813;" /><glyph d="M429 79 538 444H587L453 0H409L302 366L196 0H152L18 444H67L177 79L282 444H324ZM280 520 193 650H246L329 520Z" glyph-name="wgrave" horiz-adv-x="605" unicode="&#7809;" /><glyph d="M243 228 408 0H351L215 189L77 0H23L187 226L30 444H87L216 264L346 444H401Z" glyph-name="x" horiz-adv-x="431" unicode="x" /><glyph d="M121 -170 192 6 18 444H72L217 69L363 444H415L170 -170Z" glyph-name="y" horiz-adv-x="433" unicode="y" /><glyph d="M121 -170 192 6 18 444H72L217 69L363 444H415L170 -170ZM187 520 270 650H323L236 520Z" glyph-name="yacute" horiz-adv-x="433" unicode="&#253;" /><glyph d="M121 -170 192 6 18 444H72L217 69L363 444H415L170 -170ZM332 513H285L217 609L149 513H103L195 644H240Z" glyph-name="ycircumflex" horiz-adv-x="433" unicode="&#375;" /><glyph d="M121 -170 192 6 18 444H72L217 69L363 444H415L170 -170ZM122 571Q122 585 131.5 594.5Q141 604 155 604Q162 604 168 601Q174 598 178.5 594Q183 590 185.5 584Q188 578 188 571Q188 557 178.5 547.5Q169 538 155 538Q141 538 131.5 547.5Q122 557 122 571ZM247 571Q247 585 256.5 594.5Q266 604 280 604Q287 604 293 601Q299 598 303.5 594Q308 590 311 584Q314 578 314 571Q314 557 304 547.5Q294 538 280 538Q266 538 256.5 547.5Q247 557 247 571Z" glyph-name="ydieresis" horiz-adv-x="433" unicode="&#255;" /><glyph d="M75 185H232V262H75V303H218L29 614H85L259 326L433 614H488L297 303H441V262H284V185H441V144H284V0H232V144H75Z" glyph-name="yen" horiz-adv-x="517" unicode="&#165;" /><glyph d="M77 185H234V262H77V303H220L33 614H89L260 326L431 614H486L298 303H442V262H285V185H442V144H285V0H234V144H77Z" glyph-name="yen.lt" horiz-adv-x="520" /><glyph d="M121 -170 192 6 18 444H72L217 69L363 444H415L170 -170ZM195 520 108 650H161L244 520Z" glyph-name="ygrave" horiz-adv-x="433" unicode="&#7923;" /><glyph d="M375 0H39V35L309 400H44V444H372V409L103 44H375Z" glyph-name="z" horiz-adv-x="416" unicode="z" /><glyph d="M375 0H39V35L309 400H44V444H372V409L103 44H375ZM182 520 265 650H318L231 520Z" glyph-name="zacute" horiz-adv-x="417" unicode="&#378;" /><glyph d="M375 0H39V35L309 400H44V444H372V409L103 44H375ZM237 515H192L100 645H146L214 550L282 645H329Z" glyph-name="zcaron" horiz-adv-x="416" unicode="&#382;" /><glyph d="M375 0H39V35L309 400H44V444H372V409L103 44H375ZM248 579Q248 564 238.5 554Q229 544 214 544Q199 544 189.5 554Q180 564 180 579Q180 593 189.5 603Q199 613 214 613Q229 613 238.5 603Q248 593 248 579Z" glyph-name="zdotaccent" horiz-adv-x="416" unicode="&#380;" /><glyph d="M268 -9Q217 -9 175 14Q133 37 103.5 79Q74 121 58 179Q42 237 42 307Q42 377 58 435Q74 493 103.5 535Q133 577 175 600Q217 623 268 623Q318 623 359.5 600Q401 577 431 535Q461 493 477 435Q493 377 493 307Q493 237 477 179Q461 121 431 79Q401 37 359.5 14Q318 -9 268 -9ZM268 575Q226 575 194 555.5Q162 536 139.5 500.5Q117 465 105 415.5Q93 366 93 307Q93 248 105 198.5Q117 149 139.5 113.5Q162 78 194 58.5Q226 39 268 39Q308 39 340.5 58.5Q373 78 395.5 113.5Q418 149 430 198.5Q442 248 442 307Q442 366 430 415.5Q418 465 395.5 500.5Q373 536 340.5 555.5Q308 575 268 575Z" glyph-name="zero" horiz-adv-x="535" unicode="0" /><glyph d="M260 -9Q210 -9 168 14Q126 37 97 79Q68 121 52 179Q36 237 36 307Q36 377 52 435Q68 493 97 535Q126 577 168 600Q210 623 260 623Q311 623 352.5 600Q394 577 423.5 535Q453 493 468.5 435Q484 377 484 307Q484 237 468.5 179Q453 121 423.5 79Q394 37 352.5 14Q311 -9 260 -9ZM260 575Q219 575 187 555.5Q155 536 133 500.5Q111 465 99 415.5Q87 366 87 307Q87 248 99 198.5Q111 149 133 113.5Q155 78 187 58.5Q219 39 260 39Q301 39 333 58.5Q365 78 387 113.5Q409 149 421 198.5Q433 248 433 307Q433 366 421 415.5Q409 465 387 500.5Q365 536 333 555.5Q301 575 260 575Z" glyph-name="zero.lt" horiz-adv-x="520" /></font>
</defs>
</svg>
