<?xml version="1.0" standalone="no"?><!DOCTYPE svg PUBLIC "-//W3C//DTD SVG 1.1//EN" "http://www.w3.org/Graphics/SVG/1.1/DTD/svg11.dtd" ><svg version="1.1" xmlns="http://www.w3.org/2000/svg"><defs><font horiz-adv-x="0" id="font"><font-face ascent="650" bbox="-120 -225 957 906" cap-height="614" descent="-350" font-family="Copyright Klim Type Foundry" font-stretch="normal" font-style="normal" font-weight="600" units-per-em="1000" x-height="444" /><missing-glyph horiz-adv-x="212" /><glyph d="M377 614 612 0H482L427 148H197L143 0H15L250 614ZM237 256H387L312 460Z" glyph-name="A" horiz-adv-x="627" unicode="A" /><glyph d="M839 614V503H567V368H812V259H567V112H839V0H442V148H233L149 0H15L365 614ZM442 512 295 256H442Z" glyph-name="AE" horiz-adv-x="879" unicode="&#198;" /><glyph d="M839 614V503H567V368H812V259H567V112H839V0H442V148H233L149 0H15L365 614ZM442 512 295 256H442ZM520 669 599 791H734L641 669Z" glyph-name="AEacute" horiz-adv-x="879" unicode="&#508;" /><glyph d="M377 614 612 0H482L427 148H197L143 0H15L250 614ZM237 256H387L312 460ZM247 669 326 791H461L368 669Z" glyph-name="Aacute" horiz-adv-x="627" unicode="&#193;" /><glyph d="M377 614 612 0H482L427 148H197L143 0H15L250 614ZM237 256H387L312 460ZM313 663Q283 663 258.5 671.5Q234 680 216 697Q198 714 188.5 739Q179 764 179 797H267Q267 772 279.5 760.5Q292 749 313 749Q335 749 347.5 760.5Q360 772 360 797H448Q448 764 438.5 739Q429 714 411 697Q393 680 368 671.5Q343 663 313 663Z" glyph-name="Abreve" horiz-adv-x="627" unicode="&#258;" /><glyph d="M377 614 612 0H482L427 148H197L143 0H15L250 614ZM237 256H387L312 460ZM465 669H360L313 723L266 669H161L261 796H365Z" glyph-name="Acircumflex" horiz-adv-x="627" unicode="&#194;" /><glyph d="M377 614 612 0H482L427 148H197L143 0H15L250 614ZM237 256H387L312 460ZM164 730Q164 760 183.5 779Q203 798 231 798Q259 798 278.5 779Q298 760 298 730Q298 703 278.5 683.5Q259 664 231 664Q203 664 183.5 683.5Q164 703 164 730ZM329 730Q329 760 348.5 779Q368 798 396 798Q424 798 444 779Q464 760 464 730Q464 703 444 683.5Q424 664 396 664Q368 664 348.5 683.5Q329 703 329 730Z" glyph-name="Adieresis" horiz-adv-x="627" unicode="&#196;" /><glyph d="M377 614 612 0H482L427 148H197L143 0H15L250 614ZM237 256H387L312 460ZM257 669 165 791H300L379 669Z" glyph-name="Agrave" horiz-adv-x="627" unicode="&#192;" /><glyph d="M377 614 612 0H482L427 148H197L143 0H15L250 614ZM237 256H387L312 460ZM193 760H435V669H193Z" glyph-name="Amacron" horiz-adv-x="627" unicode="&#256;" /><glyph d="M377 614 612 0Q598 -21 588 -34Q578 -47 572.5 -56.5Q567 -66 564.5 -73Q562 -80 562 -88Q562 -98 567.5 -103.5Q573 -109 582 -109Q591 -109 599 -105Q607 -101 619 -94V-167Q606 -176 591 -182Q576 -188 557 -188Q537 -188 522 -182.5Q507 -177 496.5 -167.5Q486 -158 480.5 -144Q475 -130 475 -113Q475 -97 479.5 -83.5Q484 -70 491.5 -56.5Q499 -43 508.5 -29Q518 -15 529 0H482L427 148H197L143 0H15L250 614ZM237 256H387L312 460Z" glyph-name="Aogonek" horiz-adv-x="627" unicode="&#260;" /><glyph d="M377 614 612 0H482L427 148H197L143 0H15L250 614ZM237 256H387L312 460ZM413 743Q413 722 405.5 704.5Q398 687 384 674Q370 661 352 653.5Q334 646 313 646Q292 646 274 653.5Q256 661 242.5 674Q229 687 221.5 704.5Q214 722 214 743Q214 763 221.5 781Q229 799 242.5 812Q256 825 274 832.5Q292 840 313 840Q334 840 352 832.5Q370 825 384 812Q398 799 405.5 781Q413 763 413 743ZM353 743Q353 760 341.5 771.5Q330 783 313 783Q297 783 285.5 771.5Q274 760 274 743Q274 726 285.5 715Q297 704 313 704Q330 704 341.5 715Q353 726 353 743Z" glyph-name="Aring" horiz-adv-x="627" unicode="&#197;" /><glyph d="M377 614 612 0H482L427 148H197L143 0H15L250 614ZM411 713Q411 679 382.5 655.5Q354 632 312 632Q270 632 241.5 655.5Q213 679 213 713Q213 730 220.5 744.5Q228 759 242 770Q256 781 273.5 787.5Q291 794 312 794Q332 794 350 787.5Q368 781 382 770Q396 759 403.5 744.5Q411 730 411 713ZM237 256H387L312 460ZM257 812 314 906H449L378 812ZM352 713Q352 727 340 735.5Q328 744 312 744Q296 744 284 735.5Q272 727 272 713Q272 699 284 690.5Q296 682 312 682Q328 682 340 690.5Q352 699 352 713Z" glyph-name="Aringacute" horiz-adv-x="627" unicode="&#506;" /><glyph d="M377 614 612 0H482L427 148H197L143 0H15L250 614ZM237 256H387L312 460ZM462 802Q462 773 457 747Q452 721 442 702.5Q432 684 415.5 673.5Q399 663 377 663Q359 663 344 669.5Q329 676 315.5 684Q302 692 289.5 698.5Q277 705 264 705Q250 705 242.5 695.5Q235 686 235 666H164Q164 696 168.5 721.5Q173 747 183.5 765.5Q194 784 210.5 794.5Q227 805 249 805Q267 805 282 798.5Q297 792 310 784Q323 776 335.5 769.5Q348 763 362 763Q375 763 382.5 773Q390 783 391 802Z" glyph-name="Atilde" horiz-adv-x="627" unicode="&#195;" /><glyph d="M420 317Q442 310 460 296Q478 282 491.5 263.5Q505 245 512.5 222Q520 199 520 174Q520 89 465.5 44.5Q411 0 314 0H59V614H295Q392 614 446.5 572Q501 530 501 447Q501 422 495 401Q489 380 477.5 363.5Q466 347 451.5 335Q437 323 420 317ZM286 362Q332 362 356 380Q380 398 380 435Q380 473 356 489.5Q332 506 286 506H182V362ZM182 108H304Q349 108 372.5 128.5Q396 149 396 185Q396 221 372.5 241.5Q349 262 304 262H182Z" glyph-name="B" horiz-adv-x="554" unicode="B" /><glyph d="M29 307Q29 377 51 435.5Q73 494 111 536Q149 578 201.5 601Q254 624 315 624Q369 624 413 608.5Q457 593 489 566Q521 539 541.5 500.5Q562 462 571 416H445Q429 458 398.5 484Q368 510 315 510Q278 510 249 495Q220 480 199.5 452.5Q179 425 168.5 388Q158 351 158 307Q158 263 168.5 226Q179 189 199.5 162Q220 135 249 119.5Q278 104 315 104Q368 104 398.5 130Q429 156 445 199H571Q562 152 541.5 113.5Q521 75 488.5 48Q456 21 412.5 5.5Q369 -10 315 -10Q254 -10 201.5 13Q149 36 111 78Q73 120 51 178.5Q29 237 29 307Z" glyph-name="C" horiz-adv-x="599" unicode="C" /><glyph d="M29 307Q29 377 51 435.5Q73 494 111 536Q149 578 201.5 601Q254 624 315 624Q369 624 413 608.5Q457 593 489 566Q521 539 541.5 500.5Q562 462 571 416H445Q429 458 398.5 484Q368 510 315 510Q278 510 249 495Q220 480 199.5 452.5Q179 425 168.5 388Q158 351 158 307Q158 263 168.5 226Q179 189 199.5 162Q220 135 249 119.5Q278 104 315 104Q368 104 398.5 130Q429 156 445 199H571Q562 152 541.5 113.5Q521 75 488.5 48Q456 21 412.5 5.5Q369 -10 315 -10Q254 -10 201.5 13Q149 36 111 78Q73 120 51 178.5Q29 237 29 307ZM256 669 335 791H470L377 669Z" glyph-name="Cacute" horiz-adv-x="599" unicode="&#262;" /><glyph d="M29 307Q29 377 51 435.5Q73 494 111 536Q149 578 201.5 601Q254 624 315 624Q369 624 413 608.5Q457 593 489 566Q521 539 541.5 500.5Q562 462 571 416H445Q429 458 398.5 484Q368 510 315 510Q278 510 249 495Q220 480 199.5 452.5Q179 425 168.5 388Q158 351 158 307Q158 263 168.5 226Q179 189 199.5 162Q220 135 249 119.5Q278 104 315 104Q368 104 398.5 130Q429 156 445 199H571Q562 152 541.5 113.5Q521 75 488.5 48Q456 21 412.5 5.5Q369 -10 315 -10Q254 -10 201.5 13Q149 36 111 78Q73 120 51 178.5Q29 237 29 307ZM167 795H272L319 741L366 795H471L371 668H267Z" glyph-name="Ccaron" horiz-adv-x="599" unicode="&#268;" /><glyph d="M29 307Q29 377 51 435.5Q73 494 111 536Q149 578 201.5 601Q254 624 315 624Q369 624 413 608.5Q457 593 489 566Q521 539 541.5 500.5Q562 462 571 416H445Q429 458 398.5 484Q368 510 315 510Q278 510 249 495Q220 480 199.5 452.5Q179 425 168.5 388Q158 351 158 307Q158 263 168.5 226Q179 189 199.5 162Q220 135 249 119.5Q278 104 315 104Q368 104 398.5 130Q429 156 445 199H571Q562 152 541.5 113.5Q521 75 488.5 48Q456 21 412.5 5.5Q369 -10 315 -10Q254 -10 201.5 13Q149 36 111 78Q73 120 51 178.5Q29 237 29 307ZM195 -186 265 -47H379L305 -186Z" glyph-name="Ccedilla" horiz-adv-x="599" unicode="&#199;" /><glyph d="M29 307Q29 377 51 435.5Q73 494 111 536Q149 578 201.5 601Q254 624 315 624Q369 624 413 608.5Q457 593 489 566Q521 539 541.5 500.5Q562 462 571 416H445Q429 458 398.5 484Q368 510 315 510Q278 510 249 495Q220 480 199.5 452.5Q179 425 168.5 388Q158 351 158 307Q158 263 168.5 226Q179 189 199.5 162Q220 135 249 119.5Q278 104 315 104Q368 104 398.5 130Q429 156 445 199H571Q562 152 541.5 113.5Q521 75 488.5 48Q456 21 412.5 5.5Q369 -10 315 -10Q254 -10 201.5 13Q149 36 111 78Q73 120 51 178.5Q29 237 29 307ZM475 669H370L323 723L276 669H171L271 796H375Z" glyph-name="Ccircumflex" horiz-adv-x="599" unicode="&#264;" /><glyph d="M29 307Q29 377 51 435.5Q73 494 111 536Q149 578 201.5 601Q254 624 315 624Q369 624 413 608.5Q457 593 489 566Q521 539 541.5 500.5Q562 462 571 416H445Q429 458 398.5 484Q368 510 315 510Q278 510 249 495Q220 480 199.5 452.5Q179 425 168.5 388Q158 351 158 307Q158 263 168.5 226Q179 189 199.5 162Q220 135 249 119.5Q278 104 315 104Q368 104 398.5 130Q429 156 445 199H571Q562 152 541.5 113.5Q521 75 488.5 48Q456 21 412.5 5.5Q369 -10 315 -10Q254 -10 201.5 13Q149 36 111 78Q73 120 51 178.5Q29 237 29 307ZM392 734Q392 703 370 683Q348 663 318 663Q289 663 267 683Q245 703 245 734Q245 766 267 785.5Q289 805 318 805Q348 805 370 785.5Q392 766 392 734Z" glyph-name="Cdotaccent" horiz-adv-x="599" unicode="&#266;" /><glyph d="M271 112Q315 112 348.5 126Q382 140 405 165.5Q428 191 440 227Q452 263 452 307Q452 352 440 388Q428 424 405 449.5Q382 475 348.5 489Q315 503 271 503H186V112ZM59 614H277Q347 614 402.5 592.5Q458 571 497.5 531Q537 491 558 434Q579 377 579 307Q579 237 558 180Q537 123 497.5 83Q458 43 402.5 21.5Q347 0 277 0H59Z" glyph-name="D" horiz-adv-x="608" unicode="D" /><glyph d="M271 112Q315 112 348.5 126Q382 140 405 165.5Q428 191 440 227Q452 263 452 307Q452 352 440 388Q428 424 405 449.5Q382 475 348.5 489Q315 503 271 503H186V112ZM59 614H277Q347 614 402.5 592.5Q458 571 497.5 531Q537 491 558 434Q579 377 579 307Q579 237 558 180Q537 123 497.5 83Q458 43 402.5 21.5Q347 0 277 0H59ZM126 795H231L278 741L325 795H430L330 668H226Z" glyph-name="Dcaron" horiz-adv-x="608" unicode="&#270;" /><glyph d="M25 367H76V614H294Q364 614 419.5 592.5Q475 571 514.5 531Q554 491 575 434Q596 377 596 307Q596 237 575 180Q554 123 514.5 83Q475 43 419.5 21.5Q364 0 294 0H76V264H25ZM288 112Q332 112 365.5 126Q399 140 422 165.5Q445 191 457 227Q469 263 469 307Q469 352 457 388Q445 424 422 449.5Q399 475 365.5 489Q332 503 288 503H203V367H307V264H203V112Z" glyph-name="Dcroat" horiz-adv-x="625" unicode="&#272;" /><glyph d="M476 614V503H185V368H450V259H185V112H476V0H59V614Z" glyph-name="E" horiz-adv-x="516" unicode="E" /><glyph d="M476 614V503H185V368H450V259H185V112H476V0H59V614ZM205 669 284 791H419L326 669Z" glyph-name="Eacute" horiz-adv-x="516" unicode="&#201;" /><glyph d="M476 614V503H185V368H450V259H185V112H476V0H59V614ZM271 663Q241 663 216.5 671.5Q192 680 174 697Q156 714 146.5 739Q137 764 137 797H225Q225 772 237.5 760.5Q250 749 271 749Q293 749 305.5 760.5Q318 772 318 797H406Q406 764 396.5 739Q387 714 369 697Q351 680 326 671.5Q301 663 271 663Z" glyph-name="Ebreve" horiz-adv-x="516" unicode="&#276;" /><glyph d="M476 614V503H185V368H450V259H185V112H476V0H59V614ZM124 795H229L276 741L323 795H428L328 668H224Z" glyph-name="Ecaron" horiz-adv-x="516" unicode="&#282;" /><glyph d="M476 614V503H185V368H450V259H185V112H476V0H59V614ZM423 669H318L271 723L224 669H119L219 796H323Z" glyph-name="Ecircumflex" horiz-adv-x="516" unicode="&#202;" /><glyph d="M476 614V503H185V368H450V259H185V112H476V0H59V614ZM122 730Q122 760 141.5 779Q161 798 189 798Q217 798 236.5 779Q256 760 256 730Q256 703 236.5 683.5Q217 664 189 664Q161 664 141.5 683.5Q122 703 122 730ZM287 730Q287 760 306.5 779Q326 798 354 798Q382 798 402 779Q422 760 422 730Q422 703 402 683.5Q382 664 354 664Q326 664 306.5 683.5Q287 703 287 730Z" glyph-name="Edieresis" horiz-adv-x="516" unicode="&#203;" /><glyph d="M476 614V503H185V368H450V259H185V112H476V0H59V614ZM345 734Q345 703 323 683Q301 663 271 663Q242 663 220 683Q198 703 198 734Q198 766 220 785.5Q242 805 271 805Q301 805 323 785.5Q345 766 345 734Z" glyph-name="Edotaccent" horiz-adv-x="516" unicode="&#278;" /><glyph d="M476 614V503H185V368H450V259H185V112H476V0H59V614ZM216 669 124 791H259L338 669Z" glyph-name="Egrave" horiz-adv-x="516" unicode="&#200;" /><glyph d="M476 614V503H185V368H450V259H185V112H476V0H59V614ZM151 760H393V669H151Z" glyph-name="Emacron" horiz-adv-x="516" unicode="&#274;" /><glyph d="M275 -46Q295 -57 315 -63Q335 -69 359 -69Q403 -69 424 -45Q445 -21 447 35L182 410V0H59V614H179L450 225V614H573V41Q573 -18 560 -60Q547 -102 521 -129.5Q495 -157 457.5 -170Q420 -183 372 -183Q345 -183 320 -177Q295 -171 275 -164Z" glyph-name="Eng" horiz-adv-x="632" unicode="&#330;" /><glyph d="M476 614V503H185V368H450V259H185V112H476V0H59V614ZM446 6Q431 -16 420.5 -30Q410 -44 404 -54.5Q398 -65 395 -72.5Q392 -80 392 -88Q392 -98 397.5 -103.5Q403 -109 413 -109Q421 -109 429 -105Q437 -101 449 -94V-167Q436 -176 421.5 -182Q407 -188 387 -188Q367 -188 352 -182.5Q337 -177 326.5 -167.5Q316 -158 310.5 -144Q305 -130 305 -113Q305 -97 310 -82.5Q315 -68 323.5 -53.5Q332 -39 342.5 -24.5Q353 -10 365 6Z" glyph-name="Eogonek" horiz-adv-x="516" unicode="&#280;" /><glyph d="M25 367H76V614H294Q364 614 419.5 592.5Q475 571 514.5 531Q554 491 575 434Q596 377 596 307Q596 237 575 180Q554 123 514.5 83Q475 43 419.5 21.5Q364 0 294 0H76V264H25ZM288 112Q332 112 365.5 126Q399 140 422 165.5Q445 191 457 227Q469 263 469 307Q469 352 457 388Q445 424 422 449.5Q399 475 365.5 489Q332 503 288 503H203V367H307V264H203V112Z" glyph-name="Eth" horiz-adv-x="625" unicode="&#208;" /><glyph d="M26 278H73Q73 292 73 307Q73 320 73 333H26V410H84Q87 423 91 436Q110 494 143.5 536Q177 578 223 601Q269 624 323 624Q367 624 402 611.5Q437 599 464 575Q491 551 508.5 516.5Q526 482 535 440H420Q411 473 386.5 493Q362 513 323 513Q291 513 267 497.5Q243 482 227 454Q215 435 208 410H374L359 333H195Q195 320 195 307Q195 292 195 278H351L335 201H209Q216 178 227 159Q243 132 267 116.5Q291 101 323 101Q362 101 386.5 121Q411 141 420 174H535Q526 132 508.5 97.5Q491 63 464 39Q437 15 402 2.5Q367 -10 323 -10Q269 -10 223 13Q177 36 143.5 78Q110 120 91 178Q88 189 85 201H26Z" glyph-name="Euro" horiz-adv-x="556" unicode="&#8364;" /><glyph d="M25 278H67Q67 292 67 307Q67 320 67 333H25V410H77Q80 423 84 436Q102 494 133.5 536Q165 578 208.5 601Q252 624 303 624Q344 624 377 611.5Q410 599 435.5 575Q461 551 478 516.5Q495 482 503 440H390Q382 473 360 493Q338 513 303 513Q274 513 253 497.5Q232 482 217 454Q207 435 200 410H351L337 333H188Q188 320 188 307Q188 292 188 278H329L314 201H201Q207 177 217 159Q232 132 253 116.5Q274 101 303 101Q338 101 360 121Q382 141 390 174H503Q495 132 478 97.5Q461 63 435.5 39Q410 15 377 2.5Q344 -10 303 -10Q252 -10 208.5 13Q165 36 133.5 78Q102 120 84 178Q81 189 78 201H25Z" glyph-name="Euro.lt" horiz-adv-x="520" /><glyph d="M59 0V614H468V502H186V346H447V236H186V0Z" glyph-name="F" horiz-adv-x="501" unicode="F" /><glyph d="M349 220V322H592V268Q592 204 572 152.5Q552 101 516.5 65Q481 29 432 9.5Q383 -10 324 -10Q260 -10 206 13Q152 36 112.5 78Q73 120 51 178Q29 236 29 307Q29 378 51 436Q73 494 112.5 536Q152 578 205.5 601Q259 624 321 624Q377 624 421.5 609Q466 594 498.5 566.5Q531 539 552 501Q573 463 582 416H452Q436 460 405.5 485Q375 510 321 510Q284 510 254 495Q224 480 202.5 453Q181 426 169.5 388.5Q158 351 158 307Q158 262 169.5 224.5Q181 187 202.5 160Q224 133 255 118Q286 103 324 103Q384 103 420 135Q456 167 467 220Z" glyph-name="G" horiz-adv-x="621" unicode="G" /><glyph d="M349 220V322H592V268Q592 204 572 152.5Q552 101 516.5 65Q481 29 432 9.5Q383 -10 324 -10Q260 -10 206 13Q152 36 112.5 78Q73 120 51 178Q29 236 29 307Q29 378 51 436Q73 494 112.5 536Q152 578 205.5 601Q259 624 321 624Q377 624 421.5 609Q466 594 498.5 566.5Q531 539 552 501Q573 463 582 416H452Q436 460 405.5 485Q375 510 321 510Q284 510 254 495Q224 480 202.5 453Q181 426 169.5 388.5Q158 351 158 307Q158 262 169.5 224.5Q181 187 202.5 160Q224 133 255 118Q286 103 324 103Q384 103 420 135Q456 167 467 220ZM323 663Q293 663 268.5 671.5Q244 680 226 697Q208 714 198.5 739Q189 764 189 797H277Q277 772 289.5 760.5Q302 749 323 749Q345 749 357.5 760.5Q370 772 370 797H458Q458 764 448.5 739Q439 714 421 697Q403 680 378 671.5Q353 663 323 663Z" glyph-name="Gbreve" horiz-adv-x="621" unicode="&#286;" /><glyph d="M349 220V322H592V268Q592 204 572 152.5Q552 101 516.5 65Q481 29 432 9.5Q383 -10 324 -10Q260 -10 206 13Q152 36 112.5 78Q73 120 51 178Q29 236 29 307Q29 378 51 436Q73 494 112.5 536Q152 578 205.5 601Q259 624 321 624Q377 624 421.5 609Q466 594 498.5 566.5Q531 539 552 501Q573 463 582 416H452Q436 460 405.5 485Q375 510 321 510Q284 510 254 495Q224 480 202.5 453Q181 426 169.5 388.5Q158 351 158 307Q158 262 169.5 224.5Q181 187 202.5 160Q224 133 255 118Q286 103 324 103Q384 103 420 135Q456 167 467 220ZM474 669H369L322 723L275 669H170L270 796H374Z" glyph-name="Gcircumflex" horiz-adv-x="621" unicode="&#284;" /><glyph d="M349 220V322H592V268Q592 204 572 152.5Q552 101 516.5 65Q481 29 432 9.5Q383 -10 324 -10Q260 -10 206 13Q152 36 112.5 78Q73 120 51 178Q29 236 29 307Q29 378 51 436Q73 494 112.5 536Q152 578 205.5 601Q259 624 321 624Q377 624 421.5 609Q466 594 498.5 566.5Q531 539 552 501Q573 463 582 416H452Q436 460 405.5 485Q375 510 321 510Q284 510 254 495Q224 480 202.5 453Q181 426 169.5 388.5Q158 351 158 307Q158 262 169.5 224.5Q181 187 202.5 160Q224 133 255 118Q286 103 324 103Q384 103 420 135Q456 167 467 220ZM301 -163Q280 -159 265.5 -143.5Q251 -128 251 -103Q251 -75 271.5 -57Q292 -39 322 -39Q350 -39 370.5 -57.5Q391 -76 391 -108Q391 -131 381.5 -149.5Q372 -168 358 -186L331 -225H256Z" glyph-name="Gcommaaccent" horiz-adv-x="621" unicode="&#290;" /><glyph d="M349 220V322H592V268Q592 204 572 152.5Q552 101 516.5 65Q481 29 432 9.5Q383 -10 324 -10Q260 -10 206 13Q152 36 112.5 78Q73 120 51 178Q29 236 29 307Q29 378 51 436Q73 494 112.5 536Q152 578 205.5 601Q259 624 321 624Q377 624 421.5 609Q466 594 498.5 566.5Q531 539 552 501Q573 463 582 416H452Q436 460 405.5 485Q375 510 321 510Q284 510 254 495Q224 480 202.5 453Q181 426 169.5 388.5Q158 351 158 307Q158 262 169.5 224.5Q181 187 202.5 160Q224 133 255 118Q286 103 324 103Q384 103 420 135Q456 167 467 220ZM398 734Q398 703 376 683Q354 663 324 663Q295 663 273 683Q251 703 251 734Q251 766 273 785.5Q295 805 324 805Q354 805 376 785.5Q398 766 398 734Z" glyph-name="Gdotaccent" horiz-adv-x="621" unicode="&#288;" /><glyph d="M594 614V0H466V258H187V0H59V614H187V370H466V614Z" glyph-name="H" horiz-adv-x="653" unicode="H" /><glyph d="M25 520H75V614H203V520H481V614H609V520H659V418H609V0H481V216H203V0H75V418H25ZM481 318V418H203V318Z" glyph-name="Hbar" horiz-adv-x="683" unicode="&#294;" /><glyph d="M594 614V0H466V258H187V0H59V614H187V370H466V614ZM477 669H372L325 723L278 669H173L273 796H377Z" glyph-name="Hcircumflex" horiz-adv-x="653" unicode="&#292;" /><glyph d="M187 0H59V614H187Z" glyph-name="I" horiz-adv-x="246" unicode="I" /><glyph d="M187 0H59V614H187ZM57 669 136 791H271L178 669Z" glyph-name="Iacute" horiz-adv-x="246" unicode="&#205;" /><glyph d="M187 0H59V614H187ZM123 663Q93 663 68.5 671.5Q44 680 26 697Q8 714 -1.5 739Q-11 764 -11 797H77Q77 772 89.5 760.5Q102 749 123 749Q145 749 157.5 760.5Q170 772 170 797H258Q258 764 248.5 739Q239 714 221 697Q203 680 178 671.5Q153 663 123 663Z" glyph-name="Ibreve" horiz-adv-x="246" unicode="&#300;" /><glyph d="M187 0H59V614H187ZM276 669H171L124 723L77 669H-28L72 796H176Z" glyph-name="Icircumflex" horiz-adv-x="246" unicode="&#206;" /><glyph d="M187 0H59V614H187ZM-26 730Q-26 760 -6.5 779Q13 798 41 798Q69 798 88.5 779Q108 760 108 730Q108 703 88.5 683.5Q69 664 41 664Q13 664 -6.5 683.5Q-26 703 -26 730ZM139 730Q139 760 158.5 779Q178 798 206 798Q234 798 254 779Q274 760 274 730Q274 703 254 683.5Q234 664 206 664Q178 664 158.5 683.5Q139 703 139 730Z" glyph-name="Idieresis" horiz-adv-x="246" unicode="&#207;" /><glyph d="M187 0H59V614H187ZM197 734Q197 703 175 683Q153 663 123 663Q94 663 72 683Q50 703 50 734Q50 766 72 785.5Q94 805 123 805Q153 805 175 785.5Q197 766 197 734Z" glyph-name="Idotaccent" horiz-adv-x="246" unicode="&#304;" /><glyph d="M187 0H59V614H187ZM67 669 -25 791H110L189 669Z" glyph-name="Igrave" horiz-adv-x="246" unicode="&#204;" /><glyph d="M187 0H59V614H187ZM3 760H245V669H3Z" glyph-name="Imacron" horiz-adv-x="246" unicode="&#298;" /><glyph d="M186 0Q172 -21 162 -34Q152 -47 146.5 -56.5Q141 -66 138.5 -73Q136 -80 136 -88Q136 -98 141.5 -103.5Q147 -109 157 -109Q165 -109 173 -105Q181 -101 193 -94V-167Q180 -176 165.5 -182Q151 -188 131 -188Q111 -188 96 -182.5Q81 -177 70.5 -167.5Q60 -158 54.5 -144Q49 -130 49 -113Q49 -97 53.5 -83.5Q58 -70 65.5 -56.5Q73 -43 82.5 -29Q92 -15 104 0H58V614H186Z" glyph-name="Iogonek" horiz-adv-x="245" unicode="&#302;" /><glyph d="M187 0H59V614H187ZM273 802Q273 773 268 747Q263 721 253 702.5Q243 684 226.5 673.5Q210 663 188 663Q170 663 155 669.5Q140 676 126.5 684Q113 692 100.5 698.5Q88 705 75 705Q61 705 53.5 695.5Q46 686 46 666H-25Q-25 696 -20.5 721.5Q-16 747 -5.5 765.5Q5 784 21.5 794.5Q38 805 60 805Q78 805 93 798.5Q108 792 121 784Q134 776 146.5 769.5Q159 763 173 763Q186 763 193.5 773Q201 783 202 802Z" glyph-name="Itilde" horiz-adv-x="246" unicode="&#296;" /><glyph d="M146 195Q150 152 172.5 129Q195 106 237 106Q261 106 279 113Q297 120 308.5 134.5Q320 149 326 171Q332 193 332 223V614H460V222Q460 163 444 119.5Q428 76 398.5 47Q369 18 328 4Q287 -10 238 -10Q186 -10 145.5 5Q105 20 77 47.5Q49 75 33 112.5Q17 150 15 195Z" glyph-name="J" horiz-adv-x="509" unicode="J" /><glyph d="M146 195Q150 152 172.5 129Q195 106 237 106Q261 106 279 113Q297 120 308.5 134.5Q320 149 326 171Q332 193 332 223V614H460V222Q460 163 444 119.5Q428 76 398.5 47Q369 18 328 4Q287 -10 238 -10Q186 -10 145.5 5Q105 20 77 47.5Q49 75 33 112.5Q17 150 15 195ZM549 669H444L397 723L350 669H245L345 796H449Z" glyph-name="Jcircumflex" horiz-adv-x="509" unicode="&#308;" /><glyph d="M187 338 418 614H573L339 339L582 0H427L245 252L187 182V0H59V614H187Z" glyph-name="K" horiz-adv-x="593" unicode="K" /><glyph d="M187 338 418 614H573L339 339L582 0H427L245 252L187 182V0H59V614H187ZM262 -163Q241 -159 226.5 -143.5Q212 -128 212 -103Q212 -75 232.5 -57Q253 -39 283 -39Q311 -39 331.5 -57.5Q352 -76 352 -108Q352 -131 342.5 -149.5Q333 -168 319 -186L292 -225H217Z" glyph-name="Kcommaaccent" horiz-adv-x="593" unicode="&#310;" /><glyph d="M59 614H187V112H474V0H59Z" glyph-name="L" horiz-adv-x="508" unicode="L" /><glyph d="M59 614H187V112H474V0H59ZM68 669 147 791H282L189 669Z" glyph-name="Lacute" horiz-adv-x="508" unicode="&#313;" /><glyph d="M59 614H187V112H474V0H59ZM263 448 301 615H397L359 448Z" glyph-name="Lcaron" horiz-adv-x="508" unicode="&#317;" /><glyph d="M59 614H187V112H474V0H59ZM254 -163Q233 -159 218.5 -143.5Q204 -128 204 -103Q204 -75 224.5 -57Q245 -39 275 -39Q303 -39 323.5 -57.5Q344 -76 344 -108Q344 -131 334.5 -149.5Q325 -168 311 -186L284 -225H209Z" glyph-name="Lcommaaccent" horiz-adv-x="508" unicode="&#315;" /><glyph d="M59 614H187V112H474V0H59ZM443 326Q443 294 421 274.5Q399 255 369 255Q340 255 318 274.5Q296 294 296 326Q296 357 318 376.5Q340 396 369 396Q399 396 421 376.5Q443 357 443 326Z" glyph-name="Ldot" horiz-adv-x="508" unicode="&#319;" /><glyph d="M22 309 80 333V614H208V380L346 437V329L208 272V112H494V0H80V225L22 201Z" glyph-name="Lslash" horiz-adv-x="528" unicode="&#321;" /><glyph d="M331 0 180 401V0H59V614H211L375 180L539 614H688V0H567V401L418 0Z" glyph-name="M" horiz-adv-x="747" unicode="M" /><glyph d="M573 0H472L182 410V0H59V614H179L450 225V614H573Z" glyph-name="N" horiz-adv-x="632" unicode="N" /><glyph glyph-name="NULL" horiz-adv-x="0" /><glyph d="M573 0H472L182 410V0H59V614H179L450 225V614H573ZM249 669 328 791H463L370 669Z" glyph-name="Nacute" horiz-adv-x="632" unicode="&#323;" /><glyph d="M573 0H472L182 410V0H59V614H179L450 225V614H573ZM164 795H269L316 741L363 795H468L368 668H264Z" glyph-name="Ncaron" horiz-adv-x="632" unicode="&#327;" /><glyph d="M573 0H472L182 410V0H59V614H179L450 225V614H573ZM295 -163Q274 -159 259.5 -143.5Q245 -128 245 -103Q245 -75 265.5 -57Q286 -39 316 -39Q344 -39 364.5 -57.5Q385 -76 385 -108Q385 -131 375.5 -149.5Q366 -168 352 -186L325 -225H250Z" glyph-name="Ncommaaccent" horiz-adv-x="632" unicode="&#325;" /><glyph d="M573 0H472L182 410V0H59V614H179L450 225V614H573ZM465 802Q465 773 460 747Q455 721 445 702.5Q435 684 418.5 673.5Q402 663 380 663Q362 663 347 669.5Q332 676 318.5 684Q305 692 292.5 698.5Q280 705 267 705Q253 705 245.5 695.5Q238 686 238 666H167Q167 696 171.5 721.5Q176 747 186.5 765.5Q197 784 213.5 794.5Q230 805 252 805Q270 805 285 798.5Q300 792 313 784Q326 776 338.5 769.5Q351 763 365 763Q378 763 385.5 773Q393 783 394 802Z" glyph-name="Ntilde" horiz-adv-x="632" unicode="&#209;" /><glyph d="M610 307Q610 238 588.5 180Q567 122 528.5 80Q490 38 436.5 14Q383 -10 319 -10Q255 -10 201.5 14Q148 38 110 80Q72 122 50.5 180Q29 238 29 307Q29 376 50.5 434Q72 492 110 534.5Q148 577 201.5 600.5Q255 624 319 624Q383 624 436.5 600.5Q490 577 528.5 534.5Q567 492 588.5 434Q610 376 610 307ZM481 307Q481 352 469 389.5Q457 427 436.5 454Q416 481 385.5 496Q355 511 319 511Q282 511 252.5 496Q223 481 202 454Q181 427 169.5 389.5Q158 352 158 307Q158 262 169.5 224.5Q181 187 202 160Q223 133 252.5 118Q282 103 319 103Q355 103 385.5 118Q416 133 436.5 160Q457 187 469 224.5Q481 262 481 307Z" glyph-name="O" horiz-adv-x="639" unicode="O" /><glyph d="M791 503H520V368H764V259H520V112H791V0H332Q262 0 206 21.5Q150 43 110.5 83Q71 123 50 180Q29 237 29 307Q29 377 50 434Q71 491 110.5 531Q150 571 206 592.5Q262 614 332 614H791ZM394 112V503H337Q294 503 260 489Q226 475 203 449.5Q180 424 168 388Q156 352 156 307Q156 263 168 227Q180 191 203 165.5Q226 140 260 126Q294 112 337 112Z" glyph-name="OE" horiz-adv-x="831" unicode="&#338;" /><glyph d="M610 307Q610 238 588.5 180Q567 122 528.5 80Q490 38 436.5 14Q383 -10 319 -10Q255 -10 201.5 14Q148 38 110 80Q72 122 50.5 180Q29 238 29 307Q29 376 50.5 434Q72 492 110 534.5Q148 577 201.5 600.5Q255 624 319 624Q383 624 436.5 600.5Q490 577 528.5 534.5Q567 492 588.5 434Q610 376 610 307ZM481 307Q481 352 469 389.5Q457 427 436.5 454Q416 481 385.5 496Q355 511 319 511Q282 511 252.5 496Q223 481 202 454Q181 427 169.5 389.5Q158 352 158 307Q158 262 169.5 224.5Q181 187 202 160Q223 133 252.5 118Q282 103 319 103Q355 103 385.5 118Q416 133 436.5 160Q457 187 469 224.5Q481 262 481 307ZM253 669 332 791H467L374 669Z" glyph-name="Oacute" horiz-adv-x="639" unicode="&#211;" /><glyph d="M610 307Q610 238 588.5 180Q567 122 528.5 80Q490 38 436.5 14Q383 -10 319 -10Q255 -10 201.5 14Q148 38 110 80Q72 122 50.5 180Q29 238 29 307Q29 376 50.5 434Q72 492 110 534.5Q148 577 201.5 600.5Q255 624 319 624Q383 624 436.5 600.5Q490 577 528.5 534.5Q567 492 588.5 434Q610 376 610 307ZM481 307Q481 352 469 389.5Q457 427 436.5 454Q416 481 385.5 496Q355 511 319 511Q282 511 252.5 496Q223 481 202 454Q181 427 169.5 389.5Q158 352 158 307Q158 262 169.5 224.5Q181 187 202 160Q223 133 252.5 118Q282 103 319 103Q355 103 385.5 118Q416 133 436.5 160Q457 187 469 224.5Q481 262 481 307ZM319 663Q289 663 264.5 671.5Q240 680 222 697Q204 714 194.5 739Q185 764 185 797H273Q273 772 285.5 760.5Q298 749 319 749Q341 749 353.5 760.5Q366 772 366 797H454Q454 764 444.5 739Q435 714 417 697Q399 680 374 671.5Q349 663 319 663Z" glyph-name="Obreve" horiz-adv-x="639" unicode="&#334;" /><glyph d="M610 307Q610 238 588.5 180Q567 122 528.5 80Q490 38 436.5 14Q383 -10 319 -10Q255 -10 201.5 14Q148 38 110 80Q72 122 50.5 180Q29 238 29 307Q29 376 50.5 434Q72 492 110 534.5Q148 577 201.5 600.5Q255 624 319 624Q383 624 436.5 600.5Q490 577 528.5 534.5Q567 492 588.5 434Q610 376 610 307ZM481 307Q481 352 469 389.5Q457 427 436.5 454Q416 481 385.5 496Q355 511 319 511Q282 511 252.5 496Q223 481 202 454Q181 427 169.5 389.5Q158 352 158 307Q158 262 169.5 224.5Q181 187 202 160Q223 133 252.5 118Q282 103 319 103Q355 103 385.5 118Q416 133 436.5 160Q457 187 469 224.5Q481 262 481 307ZM471 669H366L319 723L272 669H167L267 796H371Z" glyph-name="Ocircumflex" horiz-adv-x="639" unicode="&#212;" /><glyph d="M610 307Q610 238 588.5 180Q567 122 528.5 80Q490 38 436.5 14Q383 -10 319 -10Q255 -10 201.5 14Q148 38 110 80Q72 122 50.5 180Q29 238 29 307Q29 376 50.5 434Q72 492 110 534.5Q148 577 201.5 600.5Q255 624 319 624Q383 624 436.5 600.5Q490 577 528.5 534.5Q567 492 588.5 434Q610 376 610 307ZM481 307Q481 352 469 389.5Q457 427 436.5 454Q416 481 385.5 496Q355 511 319 511Q282 511 252.5 496Q223 481 202 454Q181 427 169.5 389.5Q158 352 158 307Q158 262 169.5 224.5Q181 187 202 160Q223 133 252.5 118Q282 103 319 103Q355 103 385.5 118Q416 133 436.5 160Q457 187 469 224.5Q481 262 481 307ZM170 730Q170 760 189.5 779Q209 798 237 798Q265 798 284.5 779Q304 760 304 730Q304 703 284.5 683.5Q265 664 237 664Q209 664 189.5 683.5Q170 703 170 730ZM335 730Q335 760 354.5 779Q374 798 402 798Q430 798 450 779Q470 760 470 730Q470 703 450 683.5Q430 664 402 664Q374 664 354.5 683.5Q335 703 335 730Z" glyph-name="Odieresis" horiz-adv-x="639" unicode="&#214;" /><glyph d="M610 307Q610 238 588.5 180Q567 122 528.5 80Q490 38 436.5 14Q383 -10 319 -10Q255 -10 201.5 14Q148 38 110 80Q72 122 50.5 180Q29 238 29 307Q29 376 50.5 434Q72 492 110 534.5Q148 577 201.5 600.5Q255 624 319 624Q383 624 436.5 600.5Q490 577 528.5 534.5Q567 492 588.5 434Q610 376 610 307ZM481 307Q481 352 469 389.5Q457 427 436.5 454Q416 481 385.5 496Q355 511 319 511Q282 511 252.5 496Q223 481 202 454Q181 427 169.5 389.5Q158 352 158 307Q158 262 169.5 224.5Q181 187 202 160Q223 133 252.5 118Q282 103 319 103Q355 103 385.5 118Q416 133 436.5 160Q457 187 469 224.5Q481 262 481 307ZM263 669 171 791H306L385 669Z" glyph-name="Ograve" horiz-adv-x="639" unicode="&#210;" /><glyph d="M610 307Q610 238 588.5 180Q567 122 528.5 80Q490 38 436.5 14Q383 -10 319 -10Q255 -10 201.5 14Q148 38 110 80Q72 122 50.5 180Q29 238 29 307Q29 376 50.5 434Q72 492 110 534.5Q148 577 201.5 600.5Q255 624 319 624Q383 624 436.5 600.5Q490 577 528.5 534.5Q567 492 588.5 434Q610 376 610 307ZM481 307Q481 352 469 389.5Q457 427 436.5 454Q416 481 385.5 496Q355 511 319 511Q282 511 252.5 496Q223 481 202 454Q181 427 169.5 389.5Q158 352 158 307Q158 262 169.5 224.5Q181 187 202 160Q223 133 252.5 118Q282 103 319 103Q355 103 385.5 118Q416 133 436.5 160Q457 187 469 224.5Q481 262 481 307ZM199 669 266 791H370L301 669ZM346 669 413 791H517L449 669Z" glyph-name="Ohungarumlaut" horiz-adv-x="639" unicode="&#336;" /><glyph d="M610 307Q610 238 588.5 180Q567 122 528.5 80Q490 38 436.5 14Q383 -10 319 -10Q255 -10 201.5 14Q148 38 110 80Q72 122 50.5 180Q29 238 29 307Q29 376 50.5 434Q72 492 110 534.5Q148 577 201.5 600.5Q255 624 319 624Q383 624 436.5 600.5Q490 577 528.5 534.5Q567 492 588.5 434Q610 376 610 307ZM481 307Q481 352 469 389.5Q457 427 436.5 454Q416 481 385.5 496Q355 511 319 511Q282 511 252.5 496Q223 481 202 454Q181 427 169.5 389.5Q158 352 158 307Q158 262 169.5 224.5Q181 187 202 160Q223 133 252.5 118Q282 103 319 103Q355 103 385.5 118Q416 133 436.5 160Q457 187 469 224.5Q481 262 481 307ZM199 760H441V669H199Z" glyph-name="Omacron" horiz-adv-x="639" unicode="&#332;" /><glyph d="M543 627 601 583 547 518Q576 481 593 434Q615 376 615 307Q615 238 593.5 180Q572 122 533.5 80Q495 38 441.5 14Q388 -10 324 -10Q260 -10 206 14Q179 26 155 43L109 -13L50 31L102 94Q73 132 55 180Q34 238 34 307Q34 376 55.5 434Q77 492 115 534.5Q153 577 206.5 600.5Q260 624 324 624Q388 624 441 600Q470 587 495 569ZM393 496Q363 511 324 511Q287 511 257.5 496Q228 481 207 454Q186 427 174.5 389.5Q163 352 163 307Q163 262 173 224Q177 207 184 192L420 478Q407 488 393 496ZM486 307Q486 352 475 389Q470 404 464 418L229 133Q241 124 254 118Q285 103 324 103Q360 103 390.5 118Q421 133 441.5 160Q462 187 474 224.5Q486 262 486 307Z" glyph-name="Oslash" horiz-adv-x="649" unicode="&#216;" /><glyph d="M543 627 601 583 547 518Q576 481 593 434Q615 376 615 307Q615 238 593.5 180Q572 122 533.5 80Q495 38 441.5 14Q388 -10 324 -10Q260 -10 206 14Q179 26 155 43L109 -13L50 31L102 94Q73 132 55 180Q34 238 34 307Q34 376 55.5 434Q77 492 115 534.5Q153 577 206.5 600.5Q260 624 324 624Q388 624 441 600Q470 587 495 569ZM393 496Q363 511 324 511Q287 511 257.5 496Q228 481 207 454Q186 427 174.5 389.5Q163 352 163 307Q163 262 173 224Q177 207 184 192L420 478Q407 488 393 496ZM486 307Q486 352 475 389Q470 404 464 418L229 133Q241 124 254 118Q285 103 324 103Q360 103 390.5 118Q421 133 441.5 160Q462 187 474 224.5Q486 262 486 307ZM258 669 337 791H472L379 669Z" glyph-name="Oslashacute" horiz-adv-x="649" unicode="&#510;" /><glyph d="M610 307Q610 238 588.5 180Q567 122 528.5 80Q490 38 436.5 14Q383 -10 319 -10Q255 -10 201.5 14Q148 38 110 80Q72 122 50.5 180Q29 238 29 307Q29 376 50.5 434Q72 492 110 534.5Q148 577 201.5 600.5Q255 624 319 624Q383 624 436.5 600.5Q490 577 528.5 534.5Q567 492 588.5 434Q610 376 610 307ZM481 307Q481 352 469 389.5Q457 427 436.5 454Q416 481 385.5 496Q355 511 319 511Q282 511 252.5 496Q223 481 202 454Q181 427 169.5 389.5Q158 352 158 307Q158 262 169.5 224.5Q181 187 202 160Q223 133 252.5 118Q282 103 319 103Q355 103 385.5 118Q416 133 436.5 160Q457 187 469 224.5Q481 262 481 307ZM468 802Q468 773 463 747Q458 721 448 702.5Q438 684 421.5 673.5Q405 663 383 663Q365 663 350 669.5Q335 676 321.5 684Q308 692 295.5 698.5Q283 705 270 705Q256 705 248.5 695.5Q241 686 241 666H170Q170 696 174.5 721.5Q179 747 189.5 765.5Q200 784 216.5 794.5Q233 805 255 805Q273 805 288 798.5Q303 792 316 784Q329 776 341.5 769.5Q354 763 368 763Q381 763 388.5 773Q396 783 397 802Z" glyph-name="Otilde" horiz-adv-x="639" unicode="&#213;" /><glyph d="M186 213V0H59V614H310Q358 614 398 601Q438 588 466 563Q494 538 509.5 500.5Q525 463 525 413Q525 364 509.5 326.5Q494 289 466 264Q438 239 398 226Q358 213 310 213ZM400 413Q400 454 375.5 479.5Q351 505 301 505H186V322H301Q351 322 375.5 347Q400 372 400 413Z" glyph-name="P" horiz-adv-x="552" unicode="P" /><glyph d="M610 307Q610 238 587.5 180.5Q565 123 526 81L575 21L493 -43L443 18Q438 16 433 14Q380 -10 319 -10Q255 -10 201.5 14Q148 38 110 80Q72 122 50.5 180Q29 238 29 307Q29 376 50.5 434Q72 492 110 534.5Q148 577 201.5 600.5Q255 624 319 624Q383 624 436.5 600.5Q490 577 528.5 534.5Q567 492 588.5 434Q610 376 610 307ZM321 171 404 233 452 173Q463 192 470 216Q481 255 481 307Q481 352 469.5 389.5Q458 427 437 454Q416 481 385.5 496Q355 511 319 511Q282 511 252.5 496Q223 481 202 454Q181 427 169.5 389.5Q158 352 158 307Q158 262 169.5 224Q181 186 202 158.5Q223 131 252.5 115.5Q282 100 319 100Q347 100 372 107Z" glyph-name="Q" horiz-adv-x="639" unicode="Q" /><glyph d="M186 230V0H59V614H313Q361 614 400.5 601Q440 588 468 563.5Q496 539 511.5 502.5Q527 466 527 419Q527 373 511.5 337.5Q496 302 468 278Q440 254 400 242Q394 240 387 238L549 0H405L253 230ZM186 334H304Q352 334 377 357Q402 380 402 419Q402 459 377 482Q352 505 304 505H186Z" glyph-name="R" horiz-adv-x="564" unicode="R" /><glyph d="M186 230V0H59V614H313Q361 614 400.5 601Q440 588 468 563.5Q496 539 511.5 502.5Q527 466 527 419Q527 373 511.5 337.5Q496 302 468 278Q440 254 400 242Q394 240 387 238L549 0H405L253 230ZM186 334H304Q352 334 377 357Q402 380 402 419Q402 459 377 482Q352 505 304 505H186ZM213 669 292 791H427L334 669Z" glyph-name="Racute" horiz-adv-x="564" unicode="&#340;" /><glyph d="M186 230V0H59V614H313Q361 614 400.5 601Q440 588 468 563.5Q496 539 511.5 502.5Q527 466 527 419Q527 373 511.5 337.5Q496 302 468 278Q440 254 400 242Q394 240 387 238L549 0H405L253 230ZM186 334H304Q352 334 377 357Q402 380 402 419Q402 459 377 482Q352 505 304 505H186ZM128 795H233L280 741L327 795H432L332 668H228Z" glyph-name="Rcaron" horiz-adv-x="564" unicode="&#344;" /><glyph d="M186 230V0H59V614H313Q361 614 400.5 601Q440 588 468 563.5Q496 539 511.5 502.5Q527 466 527 419Q527 373 511.5 337.5Q496 302 468 278Q440 254 400 242Q394 240 387 238L549 0H405L253 230ZM186 334H304Q352 334 377 357Q402 380 402 419Q402 459 377 482Q352 505 304 505H186ZM259 -163Q238 -159 223.5 -143.5Q209 -128 209 -103Q209 -75 229.5 -57Q250 -39 280 -39Q308 -39 328.5 -57.5Q349 -76 349 -108Q349 -131 339.5 -149.5Q330 -168 316 -186L289 -225H214Z" glyph-name="Rcommaaccent" horiz-adv-x="564" unicode="&#342;" /><glyph d="M149 175Q161 134 193 114.5Q225 95 271 95Q294 95 313 100Q332 105 345.5 115.5Q359 126 367 140.5Q375 155 375 173Q375 200 357 216.5Q339 233 299 242L189 267Q156 274 127.5 287Q99 300 78 320.5Q57 341 45 369Q33 397 33 435Q33 476 49.5 511Q66 546 95.5 571Q125 596 165 610Q205 624 254 624Q307 624 348.5 611Q390 598 420 574Q450 550 469 517.5Q488 485 495 446H368Q358 478 330.5 498.5Q303 519 255 519Q233 519 215 514Q197 509 184.5 499.5Q172 490 165 477Q158 464 158 447Q158 434 162.5 423.5Q167 413 175.5 405Q184 397 196.5 390.5Q209 384 227 380L339 354Q414 336 457 293.5Q500 251 500 181Q500 136 482.5 100.5Q465 65 434.5 40.5Q404 16 362.5 3Q321 -10 272 -10Q169 -10 101.5 38.5Q34 87 17 175Z" glyph-name="S" horiz-adv-x="530" unicode="S" /><glyph d="M149 175Q161 134 193 114.5Q225 95 271 95Q294 95 313 100Q332 105 345.5 115.5Q359 126 367 140.5Q375 155 375 173Q375 200 357 216.5Q339 233 299 242L189 267Q156 274 127.5 287Q99 300 78 320.5Q57 341 45 369Q33 397 33 435Q33 476 49.5 511Q66 546 95.5 571Q125 596 165 610Q205 624 254 624Q307 624 348.5 611Q390 598 420 574Q450 550 469 517.5Q488 485 495 446H368Q358 478 330.5 498.5Q303 519 255 519Q233 519 215 514Q197 509 184.5 499.5Q172 490 165 477Q158 464 158 447Q158 434 162.5 423.5Q167 413 175.5 405Q184 397 196.5 390.5Q209 384 227 380L339 354Q414 336 457 293.5Q500 251 500 181Q500 136 482.5 100.5Q465 65 434.5 40.5Q404 16 362.5 3Q321 -10 272 -10Q169 -10 101.5 38.5Q34 87 17 175ZM194 669 273 791H408L315 669Z" glyph-name="Sacute" horiz-adv-x="530" unicode="&#346;" /><glyph d="M149 175Q161 134 193 114.5Q225 95 271 95Q294 95 313 100Q332 105 345.5 115.5Q359 126 367 140.5Q375 155 375 173Q375 200 357 216.5Q339 233 299 242L189 267Q156 274 127.5 287Q99 300 78 320.5Q57 341 45 369Q33 397 33 435Q33 476 49.5 511Q66 546 95.5 571Q125 596 165 610Q205 624 254 624Q307 624 348.5 611Q390 598 420 574Q450 550 469 517.5Q488 485 495 446H368Q358 478 330.5 498.5Q303 519 255 519Q233 519 215 514Q197 509 184.5 499.5Q172 490 165 477Q158 464 158 447Q158 434 162.5 423.5Q167 413 175.5 405Q184 397 196.5 390.5Q209 384 227 380L339 354Q414 336 457 293.5Q500 251 500 181Q500 136 482.5 100.5Q465 65 434.5 40.5Q404 16 362.5 3Q321 -10 272 -10Q169 -10 101.5 38.5Q34 87 17 175ZM113 795H218L265 741L312 795H417L317 668H213Z" glyph-name="Scaron" horiz-adv-x="530" unicode="&#352;" /><glyph d="M149 175Q161 134 193 114.5Q225 95 271 95Q294 95 313 100Q332 105 345.5 115.5Q359 126 367 140.5Q375 155 375 173Q375 200 357 216.5Q339 233 299 242L189 267Q156 274 127.5 287Q99 300 78 320.5Q57 341 45 369Q33 397 33 435Q33 476 49.5 511Q66 546 95.5 571Q125 596 165 610Q205 624 254 624Q307 624 348.5 611Q390 598 420 574Q450 550 469 517.5Q488 485 495 446H368Q358 478 330.5 498.5Q303 519 255 519Q233 519 215 514Q197 509 184.5 499.5Q172 490 165 477Q158 464 158 447Q158 434 162.5 423.5Q167 413 175.5 405Q184 397 196.5 390.5Q209 384 227 380L339 354Q414 336 457 293.5Q500 251 500 181Q500 136 482.5 100.5Q465 65 434.5 40.5Q404 16 362.5 3Q321 -10 272 -10Q169 -10 101.5 38.5Q34 87 17 175ZM139 -186 209 -47H323L249 -186Z" glyph-name="Scedilla" horiz-adv-x="530" unicode="&#350;" /><glyph d="M149 175Q161 134 193 114.5Q225 95 271 95Q294 95 313 100Q332 105 345.5 115.5Q359 126 367 140.5Q375 155 375 173Q375 200 357 216.5Q339 233 299 242L189 267Q156 274 127.5 287Q99 300 78 320.5Q57 341 45 369Q33 397 33 435Q33 476 49.5 511Q66 546 95.5 571Q125 596 165 610Q205 624 254 624Q307 624 348.5 611Q390 598 420 574Q450 550 469 517.5Q488 485 495 446H368Q358 478 330.5 498.5Q303 519 255 519Q233 519 215 514Q197 509 184.5 499.5Q172 490 165 477Q158 464 158 447Q158 434 162.5 423.5Q167 413 175.5 405Q184 397 196.5 390.5Q209 384 227 380L339 354Q414 336 457 293.5Q500 251 500 181Q500 136 482.5 100.5Q465 65 434.5 40.5Q404 16 362.5 3Q321 -10 272 -10Q169 -10 101.5 38.5Q34 87 17 175ZM417 669H312L265 723L218 669H113L213 796H317Z" glyph-name="Scircumflex" horiz-adv-x="530" unicode="&#348;" /><glyph d="M149 175Q161 134 193 114.5Q225 95 271 95Q294 95 313 100Q332 105 345.5 115.5Q359 126 367 140.5Q375 155 375 173Q375 200 357 216.5Q339 233 299 242L189 267Q156 274 127.5 287Q99 300 78 320.5Q57 341 45 369Q33 397 33 435Q33 476 49.5 511Q66 546 95.5 571Q125 596 165 610Q205 624 254 624Q307 624 348.5 611Q390 598 420 574Q450 550 469 517.5Q488 485 495 446H368Q358 478 330.5 498.5Q303 519 255 519Q233 519 215 514Q197 509 184.5 499.5Q172 490 165 477Q158 464 158 447Q158 434 162.5 423.5Q167 413 175.5 405Q184 397 196.5 390.5Q209 384 227 380L339 354Q414 336 457 293.5Q500 251 500 181Q500 136 482.5 100.5Q465 65 434.5 40.5Q404 16 362.5 3Q321 -10 272 -10Q169 -10 101.5 38.5Q34 87 17 175ZM240 -163Q219 -159 204.5 -143.5Q190 -128 190 -103Q190 -75 210.5 -57Q231 -39 261 -39Q289 -39 309.5 -57.5Q330 -76 330 -108Q330 -131 320.5 -149.5Q311 -168 297 -186L270 -225H195Z" glyph-name="Scommaaccent" horiz-adv-x="530" unicode="&#536;" /><glyph d="M26 614H550V503H352V0H224V503H26Z" glyph-name="T" horiz-adv-x="576" unicode="T" /><glyph d="M122 362H224V503H26V614H550V503H352V362H454V256H352V0H224V256H122Z" glyph-name="Tbar" horiz-adv-x="576" unicode="&#358;" /><glyph d="M26 614H550V503H352V0H224V503H26ZM136 795H241L288 741L335 795H440L340 668H236Z" glyph-name="Tcaron" horiz-adv-x="576" unicode="&#356;" /><glyph d="M26 614H550V503H352V0H224V503H26ZM267 -163Q246 -159 231.5 -143.5Q217 -128 217 -103Q217 -75 237.5 -57Q258 -39 288 -39Q316 -39 336.5 -57.5Q357 -76 357 -108Q357 -131 347.5 -149.5Q338 -168 324 -186L297 -225H222Z" glyph-name="Tcommaaccent" horiz-adv-x="576" unicode="&#354;" /><glyph d="M186 114V0H59V614H186V515H310Q358 515 398 502Q438 489 466 464Q494 439 509.5 401.5Q525 364 525 314Q525 265 509.5 227.5Q494 190 466 165Q438 140 398 127Q358 114 310 114ZM400 314Q400 356 375.5 381Q351 406 301 406H186V223H301Q351 223 375.5 248Q400 273 400 314Z" glyph-name="Thorn" horiz-adv-x="552" unicode="&#222;" /><glyph d="M305 -10Q248 -10 201 6.5Q154 23 120.5 55.5Q87 88 68.5 136Q50 184 50 247V614H178V260Q178 221 186 191.5Q194 162 210.5 142.5Q227 123 250.5 113.5Q274 104 305 104Q335 104 359 113.5Q383 123 399 142.5Q415 162 423.5 191.5Q432 221 432 260V614H560V247Q560 184 541.5 136Q523 88 490 55.5Q457 23 409.5 6.5Q362 -10 305 -10Z" glyph-name="U" horiz-adv-x="610" unicode="U" /><glyph d="M305 -10Q248 -10 201 6.5Q154 23 120.5 55.5Q87 88 68.5 136Q50 184 50 247V614H178V260Q178 221 186 191.5Q194 162 210.5 142.5Q227 123 250.5 113.5Q274 104 305 104Q335 104 359 113.5Q383 123 399 142.5Q415 162 423.5 191.5Q432 221 432 260V614H560V247Q560 184 541.5 136Q523 88 490 55.5Q457 23 409.5 6.5Q362 -10 305 -10ZM239 669 318 791H453L360 669Z" glyph-name="Uacute" horiz-adv-x="610" unicode="&#218;" /><glyph d="M305 -10Q248 -10 201 6.5Q154 23 120.5 55.5Q87 88 68.5 136Q50 184 50 247V614H178V260Q178 221 186 191.5Q194 162 210.5 142.5Q227 123 250.5 113.5Q274 104 305 104Q335 104 359 113.5Q383 123 399 142.5Q415 162 423.5 191.5Q432 221 432 260V614H560V247Q560 184 541.5 136Q523 88 490 55.5Q457 23 409.5 6.5Q362 -10 305 -10ZM305 663Q275 663 250.5 671.5Q226 680 208 697Q190 714 180.5 739Q171 764 171 797H259Q259 772 271.5 760.5Q284 749 305 749Q327 749 339.5 760.5Q352 772 352 797H440Q440 764 430.5 739Q421 714 403 697Q385 680 360 671.5Q335 663 305 663Z" glyph-name="Ubreve" horiz-adv-x="610" unicode="&#364;" /><glyph d="M305 -10Q248 -10 201 6.5Q154 23 120.5 55.5Q87 88 68.5 136Q50 184 50 247V614H178V260Q178 221 186 191.5Q194 162 210.5 142.5Q227 123 250.5 113.5Q274 104 305 104Q335 104 359 113.5Q383 123 399 142.5Q415 162 423.5 191.5Q432 221 432 260V614H560V247Q560 184 541.5 136Q523 88 490 55.5Q457 23 409.5 6.5Q362 -10 305 -10ZM457 669H352L305 723L258 669H153L253 796H357Z" glyph-name="Ucircumflex" horiz-adv-x="610" unicode="&#219;" /><glyph d="M305 -10Q248 -10 201 6.5Q154 23 120.5 55.5Q87 88 68.5 136Q50 184 50 247V614H178V260Q178 221 186 191.5Q194 162 210.5 142.5Q227 123 250.5 113.5Q274 104 305 104Q335 104 359 113.5Q383 123 399 142.5Q415 162 423.5 191.5Q432 221 432 260V614H560V247Q560 184 541.5 136Q523 88 490 55.5Q457 23 409.5 6.5Q362 -10 305 -10ZM156 730Q156 760 175.5 779Q195 798 223 798Q251 798 270.5 779Q290 760 290 730Q290 703 270.5 683.5Q251 664 223 664Q195 664 175.5 683.5Q156 703 156 730ZM321 730Q321 760 340.5 779Q360 798 388 798Q416 798 436 779Q456 760 456 730Q456 703 436 683.5Q416 664 388 664Q360 664 340.5 683.5Q321 703 321 730Z" glyph-name="Udieresis" horiz-adv-x="610" unicode="&#220;" /><glyph d="M305 -10Q248 -10 201 6.5Q154 23 120.5 55.5Q87 88 68.5 136Q50 184 50 247V614H178V260Q178 221 186 191.5Q194 162 210.5 142.5Q227 123 250.5 113.5Q274 104 305 104Q335 104 359 113.5Q383 123 399 142.5Q415 162 423.5 191.5Q432 221 432 260V614H560V247Q560 184 541.5 136Q523 88 490 55.5Q457 23 409.5 6.5Q362 -10 305 -10ZM249 669 157 791H292L371 669Z" glyph-name="Ugrave" horiz-adv-x="610" unicode="&#217;" /><glyph d="M305 -10Q248 -10 201 6.5Q154 23 120.5 55.5Q87 88 68.5 136Q50 184 50 247V614H178V260Q178 221 186 191.5Q194 162 210.5 142.5Q227 123 250.5 113.5Q274 104 305 104Q335 104 359 113.5Q383 123 399 142.5Q415 162 423.5 191.5Q432 221 432 260V614H560V247Q560 184 541.5 136Q523 88 490 55.5Q457 23 409.5 6.5Q362 -10 305 -10ZM185 669 252 791H356L287 669ZM332 669 399 791H503L435 669Z" glyph-name="Uhungarumlaut" horiz-adv-x="610" unicode="&#368;" /><glyph d="M305 -10Q248 -10 201 6.5Q154 23 120.5 55.5Q87 88 68.5 136Q50 184 50 247V614H178V260Q178 221 186 191.5Q194 162 210.5 142.5Q227 123 250.5 113.5Q274 104 305 104Q335 104 359 113.5Q383 123 399 142.5Q415 162 423.5 191.5Q432 221 432 260V614H560V247Q560 184 541.5 136Q523 88 490 55.5Q457 23 409.5 6.5Q362 -10 305 -10ZM185 760H427V669H185Z" glyph-name="Umacron" horiz-adv-x="610" unicode="&#362;" /><glyph d="M201 6Q154 23 120.5 55.5Q87 88 68.5 136Q50 184 50 247V614H178V260Q178 221 186 191.5Q194 162 210.5 142.5Q227 123 250.5 113.5Q274 104 305 104Q335 104 359 113.5Q383 123 399 142.5Q415 162 423.5 191.5Q432 221 432 260V614H560V247Q560 206 553 173Q546 140 532 113Q518 86 497 64Q476 42 449 23Q396 -13 376.5 -41Q357 -69 357 -88Q357 -98 362.5 -103.5Q368 -109 378 -109Q387 -109 394.5 -105Q402 -101 414 -94V-167Q401 -176 386.5 -182Q372 -188 352 -188Q332 -188 317 -182.5Q302 -177 291.5 -167.5Q281 -158 275.5 -144Q270 -130 270 -113Q270 -104 271 -94.5Q272 -85 273 -74Q274 -63 275.5 -54Q277 -45 283 -30Q296 -16 305 -10Q229 -3 201 6Z" glyph-name="Uogonek" horiz-adv-x="610" unicode="&#370;" /><glyph d="M305 -10Q248 -10 201 6.5Q154 23 120.5 55.5Q87 88 68.5 136Q50 184 50 247V614H178V260Q178 221 186 191.5Q194 162 210.5 142.5Q227 123 250.5 113.5Q274 104 305 104Q335 104 359 113.5Q383 123 399 142.5Q415 162 423.5 191.5Q432 221 432 260V614H560V247Q560 184 541.5 136Q523 88 490 55.5Q457 23 409.5 6.5Q362 -10 305 -10ZM405 743Q405 722 397.5 704.5Q390 687 376 674Q362 661 344 653.5Q326 646 305 646Q284 646 266 653.5Q248 661 234.5 674Q221 687 213.5 704.5Q206 722 206 743Q206 763 213.5 781Q221 799 234.5 812Q248 825 266 832.5Q284 840 305 840Q326 840 344 832.5Q362 825 376 812Q390 799 397.5 781Q405 763 405 743ZM345 743Q345 760 333.5 771.5Q322 783 305 783Q289 783 277.5 771.5Q266 760 266 743Q266 726 277.5 715Q289 704 305 704Q322 704 333.5 715Q345 726 345 743Z" glyph-name="Uring" horiz-adv-x="610" unicode="&#366;" /><glyph d="M305 -10Q248 -10 201 6.5Q154 23 120.5 55.5Q87 88 68.5 136Q50 184 50 247V614H178V260Q178 221 186 191.5Q194 162 210.5 142.5Q227 123 250.5 113.5Q274 104 305 104Q335 104 359 113.5Q383 123 399 142.5Q415 162 423.5 191.5Q432 221 432 260V614H560V247Q560 184 541.5 136Q523 88 490 55.5Q457 23 409.5 6.5Q362 -10 305 -10ZM454 802Q454 773 449 747Q444 721 434 702.5Q424 684 407.5 673.5Q391 663 369 663Q351 663 336 669.5Q321 676 307.5 684Q294 692 281.5 698.5Q269 705 256 705Q242 705 234.5 695.5Q227 686 227 666H156Q156 696 160.5 721.5Q165 747 175.5 765.5Q186 784 202.5 794.5Q219 805 241 805Q259 805 274 798.5Q289 792 302 784Q315 776 327.5 769.5Q340 763 354 763Q367 763 374.5 773Q382 783 383 802Z" glyph-name="Utilde" horiz-adv-x="610" unicode="&#360;" /><glyph d="M246 0 15 614H150L309 170L469 614H600L369 0Z" glyph-name="V" horiz-adv-x="615" unicode="V" /><glyph d="M448 614 555 200 655 614H781L621 0H504L397 406L288 0H171L12 614H140L241 200L348 614Z" glyph-name="W" horiz-adv-x="793" unicode="W" /><glyph d="M448 614 555 200 655 614H781L621 0H504L397 406L288 0H171L12 614H140L241 200L348 614ZM335 669 414 791H549L456 669Z" glyph-name="Wacute" horiz-adv-x="793" unicode="&#7810;" /><glyph d="M448 614 555 200 655 614H781L621 0H504L397 406L288 0H171L12 614H140L241 200L348 614ZM549 669H444L397 723L350 669H245L345 796H449Z" glyph-name="Wcircumflex" horiz-adv-x="793" unicode="&#372;" /><glyph d="M448 614 555 200 655 614H781L621 0H504L397 406L288 0H171L12 614H140L241 200L348 614ZM247 730Q247 760 266.5 779Q286 798 314 798Q342 798 361.5 779Q381 760 381 730Q381 703 361.5 683.5Q342 664 314 664Q286 664 266.5 683.5Q247 703 247 730ZM412 730Q412 760 431.5 779Q451 798 479 798Q507 798 527 779Q547 760 547 730Q547 703 527 683.5Q507 664 479 664Q451 664 431.5 683.5Q412 703 412 730Z" glyph-name="Wdieresis" horiz-adv-x="793" unicode="&#7812;" /><glyph d="M448 614 555 200 655 614H781L621 0H504L397 406L288 0H171L12 614H140L241 200L348 614ZM337 669 245 791H380L459 669Z" glyph-name="Wgrave" horiz-adv-x="793" unicode="&#7808;" /><glyph d="M365 315 579 0H435L291 213L148 0H7L220 313L17 614H161L294 415L429 614H569Z" glyph-name="X" horiz-adv-x="586" unicode="X" /><glyph d="M447 614H581L359 234V0H232V234L11 614H150L299 354Z" glyph-name="Y" horiz-adv-x="592" unicode="Y" /><glyph d="M447 614H581L359 234V0H232V234L11 614H150L299 354ZM230 669 309 791H444L351 669Z" glyph-name="Yacute" horiz-adv-x="592" unicode="&#221;" /><glyph d="M447 614H581L359 234V0H232V234L11 614H150L299 354ZM448 669H343L296 723L249 669H144L244 796H348Z" glyph-name="Ycircumflex" horiz-adv-x="592" unicode="&#374;" /><glyph d="M447 614H581L359 234V0H232V234L11 614H150L299 354ZM147 730Q147 760 166.5 779Q186 798 214 798Q242 798 261.5 779Q281 760 281 730Q281 703 261.5 683.5Q242 664 214 664Q186 664 166.5 683.5Q147 703 147 730ZM312 730Q312 760 331.5 779Q351 798 379 798Q407 798 427 779Q447 760 447 730Q447 703 427 683.5Q407 664 379 664Q351 664 331.5 683.5Q312 703 312 730Z" glyph-name="Ydieresis" horiz-adv-x="592" unicode="&#376;" /><glyph d="M447 614H581L359 234V0H232V234L11 614H150L299 354ZM240 669 148 791H283L362 669Z" glyph-name="Ygrave" horiz-adv-x="592" unicode="&#7922;" /><glyph d="M514 0H40V92L348 503H44V614H509V523L204 112H514Z" glyph-name="Z" horiz-adv-x="554" unicode="Z" /><glyph d="M514 0H40V92L348 503H44V614H509V523L204 112H514ZM228 669 307 791H442L349 669Z" glyph-name="Zacute" horiz-adv-x="554" unicode="&#377;" /><glyph d="M514 0H40V92L348 503H44V614H509V523L204 112H514ZM142 795H247L294 741L341 795H446L346 668H242Z" glyph-name="Zcaron" horiz-adv-x="554" unicode="&#381;" /><glyph d="M514 0H40V92L348 503H44V614H509V523L204 112H514ZM368 734Q368 703 346 683Q324 663 294 663Q265 663 243 683Q221 703 221 734Q221 766 243 785.5Q265 805 294 805Q324 805 346 785.5Q368 766 368 734Z" glyph-name="Zdotaccent" horiz-adv-x="554" unicode="&#379;" /><glyph d="M337 556Q337 522 308.5 498.5Q280 475 238 475Q196 475 168 498.5Q140 522 140 556Q140 572 147 587Q154 602 168 613Q182 624 199.5 630.5Q217 637 238 637Q258 637 276.5 630.5Q295 624 308.5 613Q322 602 329.5 587Q337 572 337 556ZM278 556Q278 570 266.5 578.5Q255 587 238 587Q222 587 210.5 578.5Q199 570 199 556Q199 542 210.5 533.5Q222 525 238 525Q255 525 266.5 533.5Q278 542 278 556ZM183 655 240 749H375L305 655Z" glyph-name="_442" horiz-adv-x="467" /><glyph d="M301 0V24Q290 13 259.5 2.5Q229 -8 192 -8Q158 -8 128 1.5Q98 11 75.5 29.5Q53 48 40 75Q27 102 27 137Q27 169 40 195.5Q53 222 76.5 240.5Q100 259 131.5 269.5Q163 280 200 280Q229 280 258 272Q287 264 301 254V287Q301 316 283.5 336Q266 356 229 356Q202 356 186 345Q170 334 163 314H45Q50 344 65.5 370Q81 396 105.5 415.5Q130 435 162 446Q194 457 232 457Q322 457 371 411.5Q420 366 420 285V0ZM301 154Q298 163 290 170Q282 177 271 182.5Q260 188 247 190.5Q234 193 221 193Q206 193 192 190Q178 187 166.5 180Q155 173 148.5 162.5Q142 152 142 138Q142 123 148.5 113Q155 103 166.5 96Q178 89 192 86Q206 83 221 83Q234 83 247 85.5Q260 88 271 93Q282 98 290 105Q298 112 301 121Z" glyph-name="a" horiz-adv-x="467" unicode="a" /><glyph d="M301 0V24Q290 13 259.5 2.5Q229 -8 192 -8Q158 -8 128 1.5Q98 11 75.5 29.5Q53 48 40 75Q27 102 27 137Q27 169 40 195.5Q53 222 76.5 240.5Q100 259 131.5 269.5Q163 280 200 280Q229 280 258 272Q287 264 301 254V287Q301 316 283.5 336Q266 356 229 356Q202 356 186 345Q170 334 163 314H45Q50 344 65.5 370Q81 396 105.5 415.5Q130 435 162 446Q194 457 232 457Q322 457 371 411.5Q420 366 420 285V0ZM301 154Q298 163 290 170Q282 177 271 182.5Q260 188 247 190.5Q234 193 221 193Q206 193 192 190Q178 187 166.5 180Q155 173 148.5 162.5Q142 152 142 138Q142 123 148.5 113Q155 103 166.5 96Q178 89 192 86Q206 83 221 83Q234 83 247 85.5Q260 88 271 93Q282 98 290 105Q298 112 301 121ZM181 508 260 650H383L293 508Z" glyph-name="aacute" horiz-adv-x="467" unicode="&#225;" /><glyph d="M301 0V24Q290 13 259.5 2.5Q229 -8 192 -8Q158 -8 128 1.5Q98 11 75.5 29.5Q53 48 40 75Q27 102 27 137Q27 169 40 195.5Q53 222 76.5 240.5Q100 259 131.5 269.5Q163 280 200 280Q229 280 258 272Q287 264 301 254V287Q301 316 283.5 336Q266 356 229 356Q202 356 186 345Q170 334 163 314H45Q50 344 65.5 370Q81 396 105.5 415.5Q130 435 162 446Q194 457 232 457Q322 457 371 411.5Q420 366 420 285V0ZM301 154Q298 163 290 170Q282 177 271 182.5Q260 188 247 190.5Q234 193 221 193Q206 193 192 190Q178 187 166.5 180Q155 173 148.5 162.5Q142 152 142 138Q142 123 148.5 113Q155 103 166.5 96Q178 89 192 86Q206 83 221 83Q234 83 247 85.5Q260 88 271 93Q282 98 290 105Q298 112 301 121ZM240 502Q210 502 186 511.5Q162 521 144 538.5Q126 556 116.5 582.5Q107 609 107 643H195Q195 617 206 601.5Q217 586 240 586Q263 586 274 601.5Q285 617 285 643H372Q372 609 362.5 582.5Q353 556 335.5 538.5Q318 521 293.5 511.5Q269 502 240 502Z" glyph-name="abreve" horiz-adv-x="467" unicode="&#259;" /><glyph d="M301 0V24Q290 13 259.5 2.5Q229 -8 192 -8Q158 -8 128 1.5Q98 11 75.5 29.5Q53 48 40 75Q27 102 27 137Q27 169 40 195.5Q53 222 76.5 240.5Q100 259 131.5 269.5Q163 280 200 280Q229 280 258 272Q287 264 301 254V287Q301 316 283.5 336Q266 356 229 356Q202 356 186 345Q170 334 163 314H45Q50 344 65.5 370Q81 396 105.5 415.5Q130 435 162 446Q194 457 232 457Q322 457 371 411.5Q420 366 420 285V0ZM301 154Q298 163 290 170Q282 177 271 182.5Q260 188 247 190.5Q234 193 221 193Q206 193 192 190Q178 187 166.5 180Q155 173 148.5 162.5Q142 152 142 138Q142 123 148.5 113Q155 103 166.5 96Q178 89 192 86Q206 83 221 83Q234 83 247 85.5Q260 88 271 93Q282 98 290 105Q298 112 301 121ZM387 503H290L241 571L192 503H94L189 647H293Z" glyph-name="acircumflex" horiz-adv-x="467" unicode="&#226;" /><glyph d="M149 508 228 650H351L261 508Z" glyph-name="acute" horiz-adv-x="500" unicode="&#180;" /><glyph d="M143 669 222 791H357L264 669Z" glyph-name="acute.cap" horiz-adv-x="500" /><glyph d="M301 0V24Q290 13 259.5 2.5Q229 -8 192 -8Q158 -8 128 1.5Q98 11 75.5 29.5Q53 48 40 75Q27 102 27 137Q27 169 40 195.5Q53 222 76.5 240.5Q100 259 131.5 269.5Q163 280 200 280Q229 280 258 272Q287 264 301 254V287Q301 316 283.5 336Q266 356 229 356Q202 356 186 345Q170 334 163 314H45Q50 344 65.5 370Q81 396 105.5 415.5Q130 435 162 446Q194 457 232 457Q322 457 371 411.5Q420 366 420 285V0ZM301 154Q298 163 290 170Q282 177 271 182.5Q260 188 247 190.5Q234 193 221 193Q206 193 192 190Q178 187 166.5 180Q155 173 148.5 162.5Q142 152 142 138Q142 123 148.5 113Q155 103 166.5 96Q178 89 192 86Q206 83 221 83Q234 83 247 85.5Q260 88 271 93Q282 98 290 105Q298 112 301 121ZM95 570Q95 599 114.5 618Q134 637 161 637Q175 637 187 631.5Q199 626 208 617Q217 608 222 596Q227 584 227 570Q227 543 208 523.5Q189 504 161 504Q134 504 114.5 523.5Q95 543 95 570ZM259 570Q259 599 278 618Q297 637 324 637Q338 637 350 631.5Q362 626 371.5 617Q381 608 386 596Q391 584 391 570Q391 543 371.5 523.5Q352 504 324 504Q297 504 278 523.5Q259 543 259 570Z" glyph-name="adieresis" horiz-adv-x="467" unicode="&#228;" /><glyph d="M213 85Q229 85 242 88Q255 91 266.5 98Q278 105 286 114.5Q294 124 299 136V194H219Q204 194 190 191Q176 188 165 181.5Q154 175 147.5 164.5Q141 154 141 140Q141 111 163 98Q185 85 213 85ZM703 144Q691 74 639.5 32Q588 -10 505 -10Q456 -10 417 7Q378 24 350 52Q337 39 320 28Q303 17 283.5 8.5Q264 0 241 -4.5Q218 -9 193 -9Q160 -9 129.5 1Q99 11 76.5 29Q54 47 40.5 72.5Q27 98 27 131Q27 165 41 192Q55 219 79.5 236.5Q104 254 137 263.5Q170 273 208 273H299V288Q299 317 281.5 337Q264 357 226 357Q200 357 182.5 345.5Q165 334 158 314H45Q50 344 65 370.5Q80 397 104 416Q128 435 159.5 446Q191 457 229 457Q278 457 312.5 441.5Q347 426 369 398Q395 423 428.5 440Q462 457 504 457Q553 457 590.5 440.5Q628 424 653.5 395Q679 366 692.5 325Q706 284 706 235V195H408Q410 170 417.5 150Q425 130 437.5 117Q450 104 467.5 97Q485 90 506 90Q537 90 558.5 103.5Q580 117 588 144ZM504 357Q468 357 444 335Q420 313 412 272H585Q585 290 579.5 305.5Q574 321 563.5 332.5Q553 344 538.5 350.5Q524 357 504 357Z" glyph-name="ae" horiz-adv-x="731" unicode="&#230;" /><glyph d="M213 85Q229 85 242 88Q255 91 266.5 98Q278 105 286 114.5Q294 124 299 136V194H219Q204 194 190 191Q176 188 165 181.5Q154 175 147.5 164.5Q141 154 141 140Q141 111 163 98Q185 85 213 85ZM703 144Q691 74 639.5 32Q588 -10 505 -10Q456 -10 417 7Q378 24 350 52Q337 39 320 28Q303 17 283.5 8.5Q264 0 241 -4.5Q218 -9 193 -9Q160 -9 129.5 1Q99 11 76.5 29Q54 47 40.5 72.5Q27 98 27 131Q27 165 41 192Q55 219 79.5 236.5Q104 254 137 263.5Q170 273 208 273H299V288Q299 317 281.5 337Q264 357 226 357Q200 357 182.5 345.5Q165 334 158 314H45Q50 344 65 370.5Q80 397 104 416Q128 435 159.5 446Q191 457 229 457Q278 457 312.5 441.5Q347 426 369 398Q395 423 428.5 440Q462 457 504 457Q553 457 590.5 440.5Q628 424 653.5 395Q679 366 692.5 325Q706 284 706 235V195H408Q410 170 417.5 150Q425 130 437.5 117Q450 104 467.5 97Q485 90 506 90Q537 90 558.5 103.5Q580 117 588 144ZM504 357Q468 357 444 335Q420 313 412 272H585Q585 290 579.5 305.5Q574 321 563.5 332.5Q553 344 538.5 350.5Q524 357 504 357ZM324 508 403 650H526L436 508Z" glyph-name="aeacute" horiz-adv-x="731" unicode="&#509;" /><glyph d="M301 0V24Q290 13 259.5 2.5Q229 -8 192 -8Q158 -8 128 1.5Q98 11 75.5 29.5Q53 48 40 75Q27 102 27 137Q27 169 40 195.5Q53 222 76.5 240.5Q100 259 131.5 269.5Q163 280 200 280Q229 280 258 272Q287 264 301 254V287Q301 316 283.5 336Q266 356 229 356Q202 356 186 345Q170 334 163 314H45Q50 344 65.5 370Q81 396 105.5 415.5Q130 435 162 446Q194 457 232 457Q322 457 371 411.5Q420 366 420 285V0ZM301 154Q298 163 290 170Q282 177 271 182.5Q260 188 247 190.5Q234 193 221 193Q206 193 192 190Q178 187 166.5 180Q155 173 148.5 162.5Q142 152 142 138Q142 123 148.5 113Q155 103 166.5 96Q178 89 192 86Q206 83 221 83Q234 83 247 85.5Q260 88 271 93Q282 98 290 105Q298 112 301 121ZM192 508 103 650H225L305 508Z" glyph-name="agrave" horiz-adv-x="467" unicode="&#224;" /><glyph d="M301 0V24Q290 13 259.5 2.5Q229 -8 192 -8Q158 -8 128 1.5Q98 11 75.5 29.5Q53 48 40 75Q27 102 27 137Q27 169 40 195.5Q53 222 76.5 240.5Q100 259 131.5 269.5Q163 280 200 280Q229 280 258 272Q287 264 301 254V287Q301 316 283.5 336Q266 356 229 356Q202 356 186 345Q170 334 163 314H45Q50 344 65.5 370Q81 396 105.5 415.5Q130 435 162 446Q194 457 232 457Q322 457 371 411.5Q420 366 420 285V0ZM301 154Q298 163 290 170Q282 177 271 182.5Q260 188 247 190.5Q234 193 221 193Q206 193 192 190Q178 187 166.5 180Q155 173 148.5 162.5Q142 152 142 138Q142 123 148.5 113Q155 103 166.5 96Q178 89 192 86Q206 83 221 83Q234 83 247 85.5Q260 88 271 93Q282 98 290 105Q298 112 301 121ZM124 607H361V516H124Z" glyph-name="amacron" horiz-adv-x="467" unicode="&#257;" /><glyph d="M346 465Q345 489 330 507.5Q315 526 284 526Q256 526 236 508Q216 490 216 460Q216 433 231.5 411.5Q247 390 268 368L406 214Q408 219 410 225Q423 267 425 317H536Q534 253 512 194Q499 160 481 131L600 0H451L407 47Q385 30 360 17Q307 -10 245 -10Q198 -10 159.5 3.5Q121 17 93.5 42.5Q66 68 50.5 103.5Q35 139 35 182Q35 216 47.5 246Q60 276 81 299.5Q102 323 130 340L137 344Q126 359 117 375Q107 394 101.5 414Q96 434 96 458Q96 496 110 527Q124 558 149.5 579.5Q175 601 209 612.5Q243 624 284 624Q327 624 361 611.5Q395 599 417.5 577.5Q440 556 453 527Q466 498 467 465ZM176 250Q164 237 157 219.5Q150 202 150 182Q150 162 156.5 144.5Q163 127 175.5 115Q188 103 206 96Q224 89 246 89Q285 89 317 105Q330 111 340 120L202 270Q188 263 176 250Z" glyph-name="ampersand" horiz-adv-x="607" unicode="&amp;" /><glyph d="M301 154Q297 163 289 170Q281 177 270.5 182.5Q260 188 247 190.5Q234 193 221 193Q206 193 192 190Q178 187 166.5 180Q155 173 148.5 162.5Q142 152 142 138Q142 123 148.5 113Q155 103 166.5 96Q178 89 192 86Q206 83 221 83Q234 83 247 85.5Q260 88 270.5 93Q281 98 289 105Q297 112 301 121ZM301 0V24Q290 13 259.5 2.5Q229 -8 192 -8Q158 -8 128 1.5Q98 11 75.5 29.5Q53 48 40 75Q27 102 27 137Q27 169 40 195.5Q53 222 76.5 240.5Q100 259 131.5 269.5Q163 280 200 280Q229 280 258 272Q287 264 301 254V287Q301 316 283.5 336Q266 356 229 356Q202 356 185 345Q168 334 161 314H45Q50 344 65.5 370Q81 396 105.5 415.5Q130 435 162 446Q194 457 232 457Q322 457 371 411.5Q420 366 420 285V0Q406 -21 396 -34Q386 -47 380.5 -56.5Q375 -66 372.5 -73Q370 -80 370 -88Q370 -98 375.5 -103.5Q381 -109 391 -109Q399 -109 407 -105Q415 -101 427 -94V-167Q414 -176 399 -182Q384 -188 365 -188Q345 -188 330 -182.5Q315 -177 304.5 -167.5Q294 -158 288.5 -144Q283 -130 283 -113Q283 -97 287.5 -83.5Q292 -70 299.5 -56.5Q307 -43 316.5 -29Q326 -15 337 0Z" glyph-name="aogonek" horiz-adv-x="468" unicode="&#261;" /><glyph d="M73 248Q104 269 133 278Q162 287 189 287Q216 287 240 281Q264 275 287 268Q310 261 334 255Q358 249 385 249Q412 249 441.5 257.5Q471 266 504 288V198Q471 178 441.5 169Q412 160 385 160Q358 160 334 166Q310 172 287 179Q264 186 240 192Q216 198 189 198Q162 198 133 189Q104 180 73 159ZM73 401Q104 422 133 431Q162 440 189 440Q216 440 240 434Q264 428 287 421Q310 414 334 408Q358 402 385 402Q412 402 441.5 411.5Q471 421 504 442V352Q471 331 441.5 322Q412 313 385 313Q358 313 334 319Q310 325 287 332Q264 339 240 345Q216 351 189 351Q162 351 133 342Q104 333 73 312Z" glyph-name="approxequal" horiz-adv-x="576" unicode="&#8776;" /><glyph d="M44 248Q75 269 104 278Q133 287 160 287Q187 287 211 281Q235 275 258 268Q281 261 305 255Q329 249 356 249Q383 249 412.5 257.5Q442 266 475 288V198Q442 178 412.5 169Q383 160 356 160Q329 160 305 166Q281 172 258 179Q235 186 211 191.5Q187 197 160 197Q133 197 104 188.5Q75 180 44 159ZM44 401Q75 422 104 431Q133 440 160 440Q187 440 211 434Q235 428 258 421Q281 414 305 408Q329 402 356 402Q383 402 412.5 411.5Q442 421 475 442V352Q442 331 412.5 322Q383 313 356 313Q329 313 305 319Q281 325 258 332Q235 339 211 345Q187 351 160 351Q133 351 104 342Q75 333 44 312Z" glyph-name="approxequal.lt" horiz-adv-x="520" /><glyph d="M301 0V24Q290 13 259.5 2.5Q229 -8 192 -8Q158 -8 128 1.5Q98 11 75.5 29.5Q53 48 40 75Q27 102 27 137Q27 169 40 195.5Q53 222 76.5 240.5Q100 259 131.5 269.5Q163 280 200 280Q229 280 258 272Q287 264 301 254V287Q301 316 283.5 336Q266 356 229 356Q202 356 186 345Q170 334 163 314H45Q50 344 65.5 370Q81 396 105.5 415.5Q130 435 162 446Q194 457 232 457Q322 457 371 411.5Q420 366 420 285V0ZM301 154Q298 163 290 170Q282 177 271 182.5Q260 188 247 190.5Q234 193 221 193Q206 193 192 190Q178 187 166.5 180Q155 173 148.5 162.5Q142 152 142 138Q142 123 148.5 113Q155 103 166.5 96Q178 89 192 86Q206 83 221 83Q234 83 247 85.5Q260 88 271 93Q282 98 290 105Q298 112 301 121ZM340 584Q340 563 332.5 545.5Q325 528 311 515Q297 502 279 494.5Q261 487 240 487Q219 487 201 494.5Q183 502 169.5 515Q156 528 148.5 545.5Q141 563 141 584Q141 604 148.5 622Q156 640 169.5 653Q183 666 201 673.5Q219 681 240 681Q261 681 279 673.5Q297 666 311 653Q325 640 332.5 622Q340 604 340 584ZM280 584Q280 601 268.5 612.5Q257 624 240 624Q224 624 212.5 612.5Q201 601 201 584Q201 567 212.5 556Q224 545 240 545Q257 545 268.5 556Q280 567 280 584Z" glyph-name="aring" horiz-adv-x="467" unicode="&#229;" /><glyph d="M337 556Q337 522 308.5 498.5Q280 475 238 475Q196 475 168 498.5Q140 522 140 556Q140 572 147 587Q154 602 168 613Q182 624 199.5 630.5Q217 637 238 637Q258 637 276.5 630.5Q295 624 308.5 613Q322 602 329.5 587Q337 572 337 556ZM278 556Q278 570 266.5 578.5Q255 587 238 587Q222 587 210.5 578.5Q199 570 199 556Q199 542 210.5 533.5Q222 525 238 525Q255 525 266.5 533.5Q278 542 278 556ZM183 655 240 749H375L305 655ZM301 0V24Q290 13 259.5 2.5Q229 -8 192 -8Q158 -8 128 1.5Q98 11 75.5 29.5Q53 48 40 75Q27 102 27 137Q27 169 40 195.5Q53 222 76.5 240.5Q100 259 131.5 269.5Q163 280 200 280Q229 280 258 272Q287 264 301 254V287Q301 316 283.5 336Q266 356 229 356Q202 356 186 345Q170 334 163 314H45Q50 344 65.5 370Q81 396 105.5 415.5Q130 435 162 446Q194 457 232 457Q322 457 371 411.5Q420 366 420 285V0ZM301 154Q298 163 290 170Q282 177 271 182.5Q260 188 247 190.5Q234 193 221 193Q206 193 192 190Q178 187 166.5 180Q155 173 148.5 162.5Q142 152 142 138Q142 123 148.5 113Q155 103 166.5 96Q178 89 192 86Q206 83 221 83Q234 83 247 85.5Q260 88 271 93Q282 98 290 105Q298 112 301 121Z" glyph-name="aringacute" horiz-adv-x="467" unicode="&#507;" /><glyph d="M261 614 398 395H283L205 520L126 395H10L148 614Z" glyph-name="asciicircum" horiz-adv-x="408" unicode="^" /><glyph d="M392 347Q392 274 364 234.5Q336 195 286 195Q263 195 245.5 204Q228 213 213.5 224.5Q199 236 186.5 245Q174 254 160 254Q142 254 133 240.5Q124 227 124 199H36Q36 271 63.5 311Q91 351 142 351Q164 351 182 341.5Q200 332 214.5 321Q229 310 242 301Q255 292 268 292Q285 292 294.5 305.5Q304 319 304 347Z" glyph-name="asciitilde" horiz-adv-x="428" unicode="~" /><glyph d="M27 548 59 602 141 555V650H205V555L287 602L319 548L236 500L319 452L287 398L205 445V350H141V445L59 398L27 452L109 500Z" glyph-name="asterisk" horiz-adv-x="346" unicode="*" /><glyph d="M534 150Q529 126 536 114.5Q543 103 564 103Q586 103 605 115Q624 127 637.5 149Q651 171 658.5 202.5Q666 234 666 274Q666 327 646.5 368.5Q627 410 592.5 438.5Q558 467 510.5 482.5Q463 498 408 498Q341 498 285.5 475.5Q230 453 190 412Q150 371 128 315Q106 259 106 190Q106 111 134.5 59Q163 7 207 -24.5Q251 -56 304.5 -69Q358 -82 409 -82Q479 -82 532 -68.5Q585 -55 633 -34V-107Q595 -126 536.5 -140Q478 -154 409 -154Q335 -154 266 -134Q197 -114 143.5 -72Q90 -30 57.5 35Q25 100 25 190Q25 269 52.5 338Q80 407 130.5 459Q181 511 251.5 541Q322 571 408 571Q483 571 544.5 548.5Q606 526 650.5 486Q695 446 719.5 391.5Q744 337 744 274Q744 212 727 166.5Q710 121 682 91Q654 61 617 46Q580 31 540 31Q505 31 475.5 44.5Q446 58 429 84Q414 59 386.5 45.5Q359 32 331 32Q300 32 274.5 43.5Q249 55 231.5 75.5Q214 96 205 123.5Q196 151 196 183Q196 225 209.5 263.5Q223 302 247.5 331.5Q272 361 306 378Q340 395 381 395Q410 395 432.5 384Q455 373 466 358L471 386H575ZM449 266Q444 281 428.5 292Q413 303 392 303Q372 303 355.5 293.5Q339 284 328 268.5Q317 253 310.5 233Q304 213 304 191Q304 162 318.5 143.5Q333 125 363 125Q386 125 403 137Q420 149 430 166Z" glyph-name="at" horiz-adv-x="769" unicode="@" /><glyph d="M534 242Q529 218 536 206.5Q543 195 564 195Q586 195 605 207Q624 219 637.5 241Q651 263 658.5 294.5Q666 326 666 366Q666 419 646.5 460.5Q627 502 592.5 530.5Q558 559 510.5 574.5Q463 590 408 590Q341 590 285.5 567.5Q230 545 190 504Q150 463 128 407Q106 351 106 282Q106 203 134.5 151Q163 99 207 67.5Q251 36 304.5 23Q358 10 409 10Q479 10 532 23.5Q585 37 633 58V-15Q595 -34 536.5 -48Q478 -62 409 -62Q335 -62 266 -42Q197 -22 143.5 20Q90 62 57.5 127Q25 192 25 282Q25 361 52.5 430Q80 499 130.5 551Q181 603 251.5 633Q322 663 408 663Q483 663 544.5 640.5Q606 618 650.5 578Q695 538 719.5 483.5Q744 429 744 366Q744 304 727 258.5Q710 213 682 183Q654 153 617 138Q580 123 540 123Q505 123 475.5 136.5Q446 150 429 176Q414 151 386.5 137.5Q359 124 331 124Q300 124 274.5 135.5Q249 147 231.5 167.5Q214 188 205 215.5Q196 243 196 275Q196 317 209.5 355.5Q223 394 247.5 423.5Q272 453 306 470Q340 487 381 487Q410 487 432.5 476Q455 465 466 450L471 478H575ZM449 358Q444 373 428.5 384Q413 395 392 395Q372 395 355.5 385.5Q339 376 328 360.5Q317 345 310.5 325Q304 305 304 283Q304 254 318.5 235.5Q333 217 363 217Q386 217 403 229Q420 241 430 258Z" glyph-name="at.cap" horiz-adv-x="769" /><glyph d="M301 0V24Q290 13 259.5 2.5Q229 -8 192 -8Q158 -8 128 1.5Q98 11 75.5 29.5Q53 48 40 75Q27 102 27 137Q27 169 40 195.5Q53 222 76.5 240.5Q100 259 131.5 269.5Q163 280 200 280Q229 280 258 272Q287 264 301 254V287Q301 316 283.5 336Q266 356 229 356Q202 356 186 345Q170 334 163 314H45Q50 344 65.5 370Q81 396 105.5 415.5Q130 435 162 446Q194 457 232 457Q322 457 371 411.5Q420 366 420 285V0ZM301 154Q298 163 290 170Q282 177 271 182.5Q260 188 247 190.5Q234 193 221 193Q206 193 192 190Q178 187 166.5 180Q155 173 148.5 162.5Q142 152 142 138Q142 123 148.5 113Q155 103 166.5 96Q178 89 192 86Q206 83 221 83Q234 83 247 85.5Q260 88 271 93Q282 98 290 105Q298 112 301 121ZM384 643Q384 614 379.5 588Q375 562 364.5 544Q354 526 338 515Q322 504 299 504Q282 504 268.5 511Q255 518 243.5 527Q232 536 221 543Q210 550 199 550Q185 550 177.5 538.5Q170 527 170 508H99Q99 537 103.5 562.5Q108 588 118.5 607Q129 626 145.5 636.5Q162 647 184 647Q201 647 214.5 640Q228 633 240 624Q252 615 262.5 608Q273 601 284 601Q298 601 305.5 612.5Q313 624 313 643Z" glyph-name="atilde" horiz-adv-x="467" unicode="&#227;" /><glyph d="M178 0H54V650H178V409Q185 418 197 427Q209 436 223.5 442.5Q238 449 255 453Q272 457 290 457Q339 457 376.5 438.5Q414 420 440.5 388Q467 356 480.5 314Q494 272 494 223Q494 175 480.5 132.5Q467 90 440.5 58Q414 26 376.5 8Q339 -10 290 -10Q272 -10 255 -6Q238 -2 223.5 4.5Q209 11 197 19.5Q185 28 178 37ZM178 150Q189 127 211.5 112.5Q234 98 263 98Q288 98 308 107.5Q328 117 341.5 133.5Q355 150 362.5 173Q370 196 370 223Q370 250 362.5 273Q355 296 341.5 312.5Q328 329 308 339Q288 349 263 349Q235 349 212 334.5Q189 320 178 297Z" glyph-name="b" horiz-adv-x="520" unicode="b" /><glyph d="M367 -84H253L5 650H119Z" glyph-name="backslash" horiz-adv-x="372" unicode="\" /><glyph d="M367 -64H253L5 670H119Z" glyph-name="backslash.cap" horiz-adv-x="372" /><glyph d="M59 650H170V-84H59Z" glyph-name="bar" horiz-adv-x="229" unicode="|" /><glyph d="M59 670H170V-64H59Z" glyph-name="bar.cap" horiz-adv-x="229" /><glyph d="M213 52Q213 23 242 23H333V-84H225Q168 -84 132 -48Q96 -12 96 46V200Q96 229 67 229H20V337H67Q96 337 96 366V520Q96 578 132 614Q168 650 225 650H333V543H242Q213 543 213 514V366Q213 334 199.5 314.5Q186 295 166 283Q186 271 199.5 251.5Q213 232 213 200Z" glyph-name="braceleft" horiz-adv-x="353" unicode="{" /><glyph d="M213 72Q213 43 242 43H333V-64H225Q168 -64 132 -28Q96 8 96 66V220Q96 249 67 249H20V357H67Q96 357 96 386V540Q96 598 132 634Q168 670 225 670H333V563H242Q213 563 213 534V386Q213 354 199.5 334.5Q186 315 166 303Q186 291 199.5 271.5Q213 252 213 220Z" glyph-name="braceleft.cap" horiz-adv-x="353" /><glyph d="M140 200Q140 232 153.5 251.5Q167 271 187 283Q167 295 153.5 314.5Q140 334 140 366V514Q140 543 111 543H20V650H128Q185 650 221 614Q257 578 257 520V366Q257 337 286 337H333V229H286Q257 229 257 200V46Q257 -12 221 -48Q185 -84 128 -84H20V23H111Q140 23 140 52Z" glyph-name="braceright" horiz-adv-x="353" unicode="}" /><glyph d="M140 220Q140 252 153.5 271.5Q167 291 187 303Q167 315 153.5 334.5Q140 354 140 386V534Q140 563 111 563H20V670H128Q185 670 221 634Q257 598 257 540V386Q257 357 286 357H333V249H286Q257 249 257 220V66Q257 8 221 -28Q185 -64 128 -64H20V43H111Q140 43 140 72Z" glyph-name="braceright.cap" horiz-adv-x="353" /><glyph d="M175 23H302V-84H59V650H302V543H175Z" glyph-name="bracketleft" horiz-adv-x="322" unicode="[" /><glyph d="M175 43H302V-64H59V670H302V563H175Z" glyph-name="bracketleft.cap" horiz-adv-x="322" /><glyph d="M147 543H20V650H263V-84H20V23H147Z" glyph-name="bracketright" horiz-adv-x="322" unicode="]" /><glyph d="M147 563H20V670H263V-64H20V43H147Z" glyph-name="bracketright.cap" horiz-adv-x="322" /><glyph d="M250 502Q220 502 196 511.5Q172 521 154 538.5Q136 556 126.5 582.5Q117 609 117 643H205Q205 617 216 601.5Q227 586 250 586Q273 586 284 601.5Q295 617 295 643H382Q382 609 372.5 582.5Q363 556 345.5 538.5Q328 521 303.5 511.5Q279 502 250 502Z" glyph-name="breve" horiz-adv-x="500" unicode="&#728;" /><glyph d="M249 663Q219 663 194.5 671.5Q170 680 152 697Q134 714 124.5 739Q115 764 115 797H203Q203 772 215.5 760.5Q228 749 249 749Q271 749 283.5 760.5Q296 772 296 797H384Q384 764 374.5 739Q365 714 347 697Q329 680 304 671.5Q279 663 249 663Z" glyph-name="breve.cap" horiz-adv-x="500" /><glyph d="M336 262Q336 228 323.5 200Q311 172 290.5 152Q270 132 242 121Q214 110 183 110Q150 110 122 121Q94 132 73.5 152Q53 172 41 200Q29 228 29 262Q29 296 41 324Q53 352 73.5 372.5Q94 393 122 404Q150 415 183 415Q214 415 242 404Q270 393 290.5 372.5Q311 352 323.5 324Q336 296 336 262Z" glyph-name="bullet" horiz-adv-x="365" unicode="&#8226;" /><glyph d="M336 299Q336 265 323.5 237.5Q311 210 290.5 189.5Q270 169 242 158Q214 147 183 147Q150 147 122 158Q94 169 73.5 189.5Q53 210 41 237.5Q29 265 29 299Q29 333 41 361.5Q53 390 73.5 410Q94 430 122 441.5Q150 453 183 453Q214 453 242 441.5Q270 430 290.5 410Q311 390 323.5 361.5Q336 333 336 299Z" glyph-name="bullet.cap" horiz-adv-x="365" /><glyph d="M26 223Q26 275 42 318Q58 361 86.5 391.5Q115 422 154.5 439.5Q194 457 241 457Q284 457 317.5 445Q351 433 376.5 412Q402 391 417 361Q432 331 437 296H315Q310 322 290.5 336.5Q271 351 242 351Q220 351 203 341.5Q186 332 174 315.5Q162 299 155.5 275Q149 251 149 223Q149 195 155.5 171.5Q162 148 174 131Q186 114 203 104.5Q220 95 242 95Q271 95 290.5 110Q310 125 315 151H437Q432 115 417 85.5Q402 56 376.5 35Q351 14 317.5 2Q284 -10 241 -10Q194 -10 154.5 7Q115 24 86.5 55Q58 86 42 128.5Q26 171 26 223Z" glyph-name="c" horiz-adv-x="460" unicode="c" /><glyph d="M26 223Q26 275 42 318Q58 361 86.5 391.5Q115 422 154.5 439.5Q194 457 241 457Q284 457 317.5 445Q351 433 376.5 412Q402 391 417 361Q432 331 437 296H315Q310 322 290.5 336.5Q271 351 242 351Q220 351 203 341.5Q186 332 174 315.5Q162 299 155.5 275Q149 251 149 223Q149 195 155.5 171.5Q162 148 174 131Q186 114 203 104.5Q220 95 242 95Q271 95 290.5 110Q310 125 315 151H437Q432 115 417 85.5Q402 56 376.5 35Q351 14 317.5 2Q284 -10 241 -10Q194 -10 154.5 7Q115 24 86.5 55Q58 86 42 128.5Q26 171 26 223ZM183 508 262 650H385L295 508Z" glyph-name="cacute" horiz-adv-x="460" unicode="&#263;" /><glyph d="M302 503H198L103 647H201L250 578L299 647H396Z" glyph-name="caron" horiz-adv-x="500" unicode="&#711;" /><glyph d="M175 483 213 650H309L271 483Z" glyph-name="caron.Slovak" horiz-adv-x="500" /><glyph d="M98 795H203L250 741L297 795H402L302 668H198Z" glyph-name="caron.cap" horiz-adv-x="500" /><glyph d="M26 223Q26 275 42 318Q58 361 86.5 391.5Q115 422 154.5 439.5Q194 457 241 457Q284 457 317.5 445Q351 433 376.5 412Q402 391 417 361Q432 331 437 296H315Q310 322 290.5 336.5Q271 351 242 351Q220 351 203 341.5Q186 332 174 315.5Q162 299 155.5 275Q149 251 149 223Q149 195 155.5 171.5Q162 148 174 131Q186 114 203 104.5Q220 95 242 95Q271 95 290.5 110Q310 125 315 151H437Q432 115 417 85.5Q402 56 376.5 35Q351 14 317.5 2Q284 -10 241 -10Q194 -10 154.5 7Q115 24 86.5 55Q58 86 42 128.5Q26 171 26 223ZM298 503H194L99 647H197L246 578L295 647H392Z" glyph-name="ccaron" horiz-adv-x="460" unicode="&#269;" /><glyph d="M26 223Q26 275 42 318Q58 361 86.5 391.5Q115 422 154.5 439.5Q194 457 241 457Q284 457 317.5 445Q351 433 376.5 412Q402 391 417 361Q432 331 437 296H315Q310 322 290.5 336.5Q271 351 242 351Q220 351 203 341.5Q186 332 174 315.5Q162 299 155.5 275Q149 251 149 223Q149 195 155.5 171.5Q162 148 174 131Q186 114 203 104.5Q220 95 242 95Q271 95 290.5 110Q310 125 315 151H437Q432 115 417 85.5Q402 56 376.5 35Q351 14 317.5 2Q284 -10 241 -10Q194 -10 154.5 7Q115 24 86.5 55Q58 86 42 128.5Q26 171 26 223ZM122 -186 192 -47H306L232 -186Z" glyph-name="ccedilla" horiz-adv-x="460" unicode="&#231;" /><glyph d="M26 223Q26 275 42 318Q58 361 86.5 391.5Q115 422 154.5 439.5Q194 457 241 457Q284 457 317.5 445Q351 433 376.5 412Q402 391 417 361Q432 331 437 296H315Q310 322 290.5 336.5Q271 351 242 351Q220 351 203 341.5Q186 332 174 315.5Q162 299 155.5 275Q149 251 149 223Q149 195 155.5 171.5Q162 148 174 131Q186 114 203 104.5Q220 95 242 95Q271 95 290.5 110Q310 125 315 151H437Q432 115 417 85.5Q402 56 376.5 35Q351 14 317.5 2Q284 -10 241 -10Q194 -10 154.5 7Q115 24 86.5 55Q58 86 42 128.5Q26 171 26 223ZM392 503H295L246 571L197 503H99L194 647H298Z" glyph-name="ccircumflex" horiz-adv-x="460" unicode="&#265;" /><glyph d="M26 223Q26 275 42 318Q58 361 86.5 391.5Q115 422 154.5 439.5Q194 457 241 457Q284 457 317.5 445Q351 433 376.5 412Q402 391 417 361Q432 331 437 296H315Q310 322 290.5 336.5Q271 351 242 351Q220 351 203 341.5Q186 332 174 315.5Q162 299 155.5 275Q149 251 149 223Q149 195 155.5 171.5Q162 148 174 131Q186 114 203 104.5Q220 95 242 95Q271 95 290.5 110Q310 125 315 151H437Q432 115 417 85.5Q402 56 376.5 35Q351 14 317.5 2Q284 -10 241 -10Q194 -10 154.5 7Q115 24 86.5 55Q58 86 42 128.5Q26 171 26 223ZM319 579Q319 547 297 527.5Q275 508 245 508Q216 508 194 527.5Q172 547 172 579Q172 610 194 629.5Q216 649 245 649Q275 649 297 629.5Q319 610 319 579Z" glyph-name="cdotaccent" horiz-adv-x="460" unicode="&#267;" /><glyph d="M155 -186 225 -47H339L265 -186Z" glyph-name="cedilla" horiz-adv-x="500" unicode="&#184;" /><glyph d="M155 -186 225 -47H339L265 -186Z" glyph-name="cedilla.alt" horiz-adv-x="500" /><glyph d="M26 233Q26 285 42 328Q58 371 86.5 401.5Q115 432 154 449Q172 457 191 461V552H297V461Q308 458 318 454Q353 442 378 420Q403 398 417.5 367.5Q432 337 436 301H316Q312 329 292 345Q272 361 241 361Q220 361 202.5 351.5Q185 342 173.5 325.5Q162 309 155.5 285Q149 261 149 233Q149 205 155.5 181.5Q162 158 173.5 141Q185 124 202.5 114.5Q220 105 241 105Q272 105 292 121.5Q312 138 316 166H436Q432 129 417.5 98.5Q403 68 378 46.5Q353 25 318 12Q308 8 297 6V-87H191V5Q172 9 154 17Q115 34 86.5 65Q58 96 42 138.5Q26 181 26 233Z" glyph-name="cent" horiz-adv-x="459" unicode="&#162;" /><glyph d="M55 233Q55 285 71 328Q87 371 115.5 401.5Q144 432 183 449Q201 457 220 461V552H326V461Q337 458 347 454Q382 442 407 420Q432 398 446.5 367.5Q461 337 465 301H345Q341 329 321 345Q301 361 270 361Q249 361 231.5 351.5Q214 342 202.5 325.5Q191 309 184.5 285Q178 261 178 233Q178 205 184.5 181.5Q191 158 202.5 141Q214 124 231.5 114.5Q249 105 270 105Q301 105 321 121.5Q341 138 345 166H465Q461 129 446.5 98.5Q432 68 407 46.5Q382 25 347 12Q337 8 326 6V-87H220V5Q201 9 183 17Q144 34 115.5 65Q87 96 71 138.5Q55 181 55 233Z" glyph-name="cent.lt" horiz-adv-x="520" /><glyph d="M396 503H299L250 571L201 503H103L198 647H302Z" glyph-name="circumflex" horiz-adv-x="500" unicode="&#710;" /><glyph d="M402 669H297L250 723L203 669H98L198 796H302Z" glyph-name="circumflex.cap" horiz-adv-x="500" /><glyph d="M27 358Q27 392 49.5 414.5Q72 437 105 437Q121 437 135.5 431Q150 425 160.5 414.5Q171 404 177.5 389.5Q184 375 184 358Q184 341 177.5 326.5Q171 312 160.5 301.5Q150 291 135.5 284.5Q121 278 105 278Q89 278 74.5 284.5Q60 291 50 301.5Q40 312 33.5 326.5Q27 341 27 358ZM27 72Q27 106 49.5 129Q72 152 105 152Q121 152 135.5 145.5Q150 139 160.5 129Q171 119 177.5 104.5Q184 90 184 72Q184 55 177.5 41Q171 27 160.5 16.5Q150 6 135.5 -0.5Q121 -7 105 -7Q89 -7 74.5 -0.5Q60 6 50 16.5Q40 27 33.5 41Q27 55 27 72Z" glyph-name="colon" horiz-adv-x="211" unicode=":" /><glyph d="M52 358Q52 392 74.5 414.5Q97 437 130 437Q146 437 160.5 431Q175 425 185.5 414.5Q196 404 202.5 389.5Q209 375 209 358Q209 341 202.5 326.5Q196 312 185.5 301.5Q175 291 160.5 284.5Q146 278 130 278Q114 278 99.5 284.5Q85 291 75 301.5Q65 312 58.5 326.5Q52 341 52 358ZM52 72Q52 106 74.5 129Q97 152 130 152Q146 152 160.5 145.5Q175 139 185.5 129Q196 119 202.5 104.5Q209 90 209 72Q209 55 202.5 41Q196 27 185.5 16.5Q175 6 160.5 -0.5Q146 -7 130 -7Q114 -7 99.5 -0.5Q85 6 75 16.5Q65 27 58.5 41Q52 55 52 72Z" glyph-name="colon.tab" horiz-adv-x="260" /><glyph d="M87 3Q62 8 44 26Q26 44 26 75Q26 108 48.5 129Q71 150 105 150Q137 150 160 128.5Q183 107 183 66Q183 43 173.5 19.5Q164 -4 150 -24L93 -110H14Z" glyph-name="comma" horiz-adv-x="210" unicode="," /><glyph d="M112 3Q87 8 69 26Q51 44 51 75Q51 108 73.5 129Q96 150 130 150Q162 150 185 128.5Q208 107 208 66Q208 43 198.5 19.5Q189 -4 175 -24L118 -110H39Z" glyph-name="comma.tab" horiz-adv-x="260" /><glyph d="M231 -163Q210 -159 195.5 -143.5Q181 -128 181 -103Q181 -75 201.5 -57Q222 -39 252 -39Q280 -39 300.5 -57.5Q321 -76 321 -108Q321 -131 311.5 -149.5Q302 -168 288 -186L261 -225H186Z" glyph-name="commaaccent" horiz-adv-x="500" /><glyph d="M269 632Q291 628 305.5 611.5Q320 595 320 570Q320 542 299 523.5Q278 505 248 505Q219 505 198 524Q177 543 177 575Q177 598 187 617.5Q197 637 210 655L240 696H316Z" glyph-name="commaturn" horiz-adv-x="500" /><glyph d="M669 307Q669 238 644 180Q619 122 576 79.5Q533 37 475 13.5Q417 -10 352 -10Q287 -10 229 13.5Q171 37 128 79.5Q85 122 60 180Q35 238 35 307Q35 376 60 434Q85 492 128 534.5Q171 577 229 600.5Q287 624 352 624Q417 624 475 600.5Q533 577 576 534.5Q619 492 644 434Q669 376 669 307ZM622 307Q622 366 600.5 415.5Q579 465 542.5 501Q506 537 456.5 557.5Q407 578 352 578Q296 578 247 557.5Q198 537 161.5 501Q125 465 103.5 415.5Q82 366 82 307Q82 248 103.5 198.5Q125 149 161.5 113Q198 77 247 56.5Q296 36 352 36Q407 36 456.5 56.5Q506 77 542.5 113Q579 149 600.5 198.5Q622 248 622 307ZM168 309Q168 353 181.5 389.5Q195 426 220 452.5Q245 479 279 493.5Q313 508 355 508Q392 508 421 497.5Q450 487 471 469Q492 451 505 426Q518 401 523 371H418Q411 392 395 403Q379 414 355 414Q315 414 293.5 384.5Q272 355 272 309Q272 263 293.5 233Q315 203 355 203Q379 203 395 214.5Q411 226 418 247H523Q518 217 505 192Q492 167 471 148.5Q450 130 421 120Q392 110 355 110Q313 110 279 124.5Q245 139 220 165.5Q195 192 181.5 228.5Q168 265 168 309Z" glyph-name="copyright" horiz-adv-x="704" unicode="&#169;" /><glyph d="M342 37Q334 28 322.5 19.5Q311 11 296.5 4.5Q282 -2 264.5 -6Q247 -10 230 -10Q181 -10 143 8Q105 26 79 58Q53 90 39.5 132.5Q26 175 26 223Q26 272 39.5 314Q53 356 79 388Q105 420 143 438.5Q181 457 230 457Q247 457 264.5 453Q282 449 296.5 442.5Q311 436 322.5 427Q334 418 342 409V650H466V0H342ZM342 297Q331 320 308 334.5Q285 349 257 349Q232 349 212 339Q192 329 178.5 312.5Q165 296 157.5 273Q150 250 150 223Q150 196 157.5 173Q165 150 178.5 133.5Q192 117 212 107.5Q232 98 257 98Q285 98 308 112.5Q331 127 342 150Z" glyph-name="d" horiz-adv-x="520" unicode="d" /><glyph d="M27 558H126V650H211V558H310V475H211V276H126V475H27Z" glyph-name="dagger" horiz-adv-x="337" unicode="&#8224;" /><glyph d="M31 426H132V499H31V575H132V650H215V575H316V499H215V426H316V351H215V276H132V351H31Z" glyph-name="daggerdbl" horiz-adv-x="347" unicode="&#8225;" /><glyph d="M342 37Q334 28 322.5 19.5Q311 11 296.5 4.5Q282 -2 264.5 -6Q247 -10 230 -10Q181 -10 143 8Q105 26 79 58Q53 90 39.5 132.5Q26 175 26 223Q26 272 39.5 314Q53 356 79 388Q105 420 143 438.5Q181 457 230 457Q247 457 264.5 453Q282 449 296.5 442.5Q311 436 322.5 427Q334 418 342 409V650H466V0H342ZM342 297Q331 320 308 334.5Q285 349 257 349Q232 349 212 339Q192 329 178.5 312.5Q165 296 157.5 273Q150 250 150 223Q150 196 157.5 173Q165 150 178.5 133.5Q192 117 212 107.5Q232 98 257 98Q285 98 308 112.5Q331 127 342 150ZM507 483 545 650H641L603 483Z" glyph-name="dcaron" horiz-adv-x="520" unicode="&#271;" /><glyph d="M342 37Q334 28 322.5 19.5Q311 11 296.5 4.5Q282 -2 264.5 -6Q247 -10 230 -10Q181 -10 143 8Q105 26 79 58Q53 90 39.5 132.5Q26 175 26 223Q26 272 39.5 314Q53 356 79 388Q105 420 143 438.5Q181 457 230 457Q247 457 264.5 453Q282 449 296.5 442.5Q311 436 322.5 427Q334 418 342 409V497H249V581H342V650H466V581H520V497H466V0H342ZM342 297Q331 320 308 334.5Q285 349 257 349Q232 349 212 339Q192 329 178.5 312.5Q165 296 157.5 273Q150 250 150 223Q150 196 157.5 173Q165 150 178.5 133.5Q192 117 212 107.5Q232 98 257 98Q285 98 308 112.5Q331 127 342 150Z" glyph-name="dcroat" horiz-adv-x="519" unicode="&#273;" /><glyph d="M119 488Q119 462 136.5 444Q154 426 179 426Q204 426 221.5 444Q239 462 239 488Q239 513 221.5 531Q204 549 179 549Q154 549 136.5 531Q119 513 119 488ZM314 488Q314 459 303 434Q292 409 274 391Q256 373 231 362Q206 351 179 351Q151 351 126.5 362Q102 373 84 391Q66 409 55 434Q44 459 44 488Q44 516 55 541Q66 566 84 584Q102 602 126.5 613Q151 624 179 624Q206 624 231 613Q256 602 274 584Q292 566 303 541Q314 516 314 488Z" glyph-name="degree" horiz-adv-x="358" unicode="&#176;" /><glyph d="M101 570Q101 599 120.5 618Q140 637 167 637Q181 637 193 631.5Q205 626 214 617Q223 608 228 596Q233 584 233 570Q233 543 214 523.5Q195 504 167 504Q140 504 120.5 523.5Q101 543 101 570ZM265 570Q265 599 284 618Q303 637 330 637Q344 637 356 631.5Q368 626 377.5 617Q387 608 392 596Q397 584 397 570Q397 543 377.5 523.5Q358 504 330 504Q303 504 284 523.5Q265 543 265 570Z" glyph-name="dieresis" horiz-adv-x="500" unicode="&#168;" /><glyph d="M100 730Q100 760 119.5 779Q139 798 167 798Q195 798 214.5 779Q234 760 234 730Q234 703 214.5 683.5Q195 664 167 664Q139 664 119.5 683.5Q100 703 100 730ZM265 730Q265 760 284.5 779Q304 798 332 798Q360 798 380 779Q400 760 400 730Q400 703 380 683.5Q360 664 332 664Q304 664 284.5 683.5Q265 703 265 730Z" glyph-name="dieresis.cap" horiz-adv-x="500" /><glyph d="M64 347H496V252H64ZM210 472Q210 501 230.5 521.5Q251 542 280 542Q309 542 330 521.5Q351 501 351 472Q351 443 330 422.5Q309 402 280 402Q251 402 230.5 422.5Q210 443 210 472ZM210 126Q210 155 230.5 175.5Q251 196 280 196Q309 196 330 175.5Q351 155 351 126Q351 97 330 76.5Q309 56 280 56Q251 56 230.5 76.5Q210 97 210 126Z" glyph-name="divide" horiz-adv-x="560" unicode="&#247;" /><glyph d="M44 347H476V252H44ZM190 472Q190 501 210.5 521.5Q231 542 260 542Q289 542 310 521.5Q331 501 331 472Q331 443 310 422.5Q289 402 260 402Q231 402 210.5 422.5Q190 443 190 472ZM190 126Q190 155 210.5 175.5Q231 196 260 196Q289 196 310 175.5Q331 155 331 126Q331 97 310 76.5Q289 56 260 56Q231 56 210.5 76.5Q190 97 190 126Z" glyph-name="divide.lt" horiz-adv-x="520" /><glyph d="M349 442Q338 471 312.5 490Q287 509 243 509Q223 509 206.5 504Q190 499 178.5 490.5Q167 482 161 469.5Q155 457 155 442Q155 429 159 418.5Q163 408 171 400.5Q179 393 191.5 387Q204 381 219 377L323 352Q394 335 433.5 293.5Q473 252 473 184Q473 142 457 108Q441 74 413 51Q385 28 346 16Q329 10 310 7V-89H204V8Q145 18 101 49Q38 94 23 180H147Q159 142 188.5 124Q218 106 260 106Q281 106 298.5 110.5Q316 115 328.5 124.5Q341 134 347.5 147Q354 160 354 177Q354 205 337 220.5Q320 236 281 245L182 269Q152 276 125.5 288.5Q99 301 79 320.5Q59 340 47.5 367.5Q36 395 36 432Q36 471 51.5 504Q67 537 94 560Q121 583 158 596Q180 604 204 607V698H310V603Q319 601 329 598Q367 586 395.5 564Q424 542 442 511Q460 480 467 442Z" glyph-name="dollar" horiz-adv-x="501" unicode="$" /><glyph d="M361 442Q350 471 324.5 490Q299 509 255 509Q235 509 218.5 504Q202 499 190.5 490.5Q179 482 173 469.5Q167 457 167 442Q167 429 171 418.5Q175 408 183 400.5Q191 393 203.5 387Q216 381 231 377L335 352Q406 335 445.5 293.5Q485 252 485 184Q485 142 469 108Q453 74 425 51Q397 28 358 16Q341 10 322 7V-89H216V8Q157 18 113 49Q50 94 35 180H159Q171 142 200.5 124Q230 106 272 106Q293 106 310.5 110.5Q328 115 340.5 124.5Q353 134 359.5 147Q366 160 366 177Q366 205 349 220.5Q332 236 293 245L194 269Q164 276 137.5 288.5Q111 301 91 320.5Q71 340 59.5 367.5Q48 395 48 432Q48 471 63.5 504Q79 537 106 560Q133 583 170 596Q192 604 216 607V698H322V603Q331 601 341 598Q379 586 407.5 564Q436 542 454 511Q472 480 479 442Z" glyph-name="dollar.lt" horiz-adv-x="520" /><glyph d="M324 579Q324 547 302 527.5Q280 508 250 508Q221 508 199 527.5Q177 547 177 579Q177 610 199 629.5Q221 649 250 649Q280 649 302 629.5Q324 610 324 579Z" glyph-name="dotaccent" horiz-adv-x="500" unicode="&#729;" /><glyph d="M324 734Q324 703 302 683Q280 663 250 663Q221 663 199 683Q177 703 177 734Q177 766 199 785.5Q221 805 250 805Q280 805 302 785.5Q324 766 324 734Z" glyph-name="dotaccent.cap" horiz-adv-x="500" /><glyph d="M323 -109Q323 -140 301.5 -159.5Q280 -179 250 -179Q221 -179 199.5 -159.5Q178 -140 178 -109Q178 -78 199.5 -58.5Q221 -39 250 -39Q280 -39 301.5 -58.5Q323 -78 323 -109Z" glyph-name="dotbelow" horiz-adv-x="500" /><glyph d="M178 0H54V447H178Z" glyph-name="dotlessi" horiz-adv-x="232" unicode="&#305;" /><glyph d="M177 -19Q177 -93 138 -134Q99 -175 21 -175Q9 -175 -4 -174Q-17 -173 -26 -170V-71Q-21 -73 -13.5 -73.5Q-6 -74 1 -74Q14 -74 24 -71Q34 -68 40.5 -61Q47 -54 50 -43Q53 -32 53 -17V447H177Z" glyph-name="dotlessj" horiz-adv-x="229" unicode="&#567;" /><glyph d="M441 146Q430 75 379 32.5Q328 -10 244 -10Q195 -10 155 7Q115 24 86.5 55Q58 86 42 128.5Q26 171 26 223Q26 274 42 316.5Q58 359 86.5 390.5Q115 422 155 439.5Q195 457 241 457Q291 457 328.5 440.5Q366 424 391.5 395Q417 366 430.5 325Q444 284 444 235V197H146Q148 172 155.5 152Q163 132 175.5 118Q188 104 205.5 97Q223 90 244 90Q275 90 297 104Q319 118 326 146ZM242 357Q224 357 209 351Q194 345 182 334.5Q170 324 161.5 308.5Q153 293 149 272H323Q322 290 317 305.5Q312 321 301.5 332.5Q291 344 276.5 350.5Q262 357 242 357Z" glyph-name="e" horiz-adv-x="469" unicode="e" /><glyph d="M441 146Q430 75 379 32.5Q328 -10 244 -10Q195 -10 155 7Q115 24 86.5 55Q58 86 42 128.5Q26 171 26 223Q26 274 42 316.5Q58 359 86.5 390.5Q115 422 155 439.5Q195 457 241 457Q291 457 328.5 440.5Q366 424 391.5 395Q417 366 430.5 325Q444 284 444 235V197H146Q148 172 155.5 152Q163 132 175.5 118Q188 104 205.5 97Q223 90 244 90Q275 90 297 104Q319 118 326 146ZM242 357Q224 357 209 351Q194 345 182 334.5Q170 324 161.5 308.5Q153 293 149 272H323Q322 290 317 305.5Q312 321 301.5 332.5Q291 344 276.5 350.5Q262 357 242 357ZM185 508 264 650H387L297 508Z" glyph-name="eacute" horiz-adv-x="469" unicode="&#233;" /><glyph d="M441 146Q430 75 379 32.5Q328 -10 244 -10Q195 -10 155 7Q115 24 86.5 55Q58 86 42 128.5Q26 171 26 223Q26 274 42 316.5Q58 359 86.5 390.5Q115 422 155 439.5Q195 457 241 457Q291 457 328.5 440.5Q366 424 391.5 395Q417 366 430.5 325Q444 284 444 235V197H146Q148 172 155.5 152Q163 132 175.5 118Q188 104 205.5 97Q223 90 244 90Q275 90 297 104Q319 118 326 146ZM242 357Q224 357 209 351Q194 345 182 334.5Q170 324 161.5 308.5Q153 293 149 272H323Q322 290 317 305.5Q312 321 301.5 332.5Q291 344 276.5 350.5Q262 357 242 357ZM247 502Q217 502 193 511.5Q169 521 151 538.5Q133 556 123.5 582.5Q114 609 114 643H202Q202 617 213 601.5Q224 586 247 586Q270 586 281 601.5Q292 617 292 643H379Q379 609 369.5 582.5Q360 556 342.5 538.5Q325 521 300.5 511.5Q276 502 247 502Z" glyph-name="ebreve" horiz-adv-x="469" unicode="&#277;" /><glyph d="M441 146Q430 75 379 32.5Q328 -10 244 -10Q195 -10 155 7Q115 24 86.5 55Q58 86 42 128.5Q26 171 26 223Q26 274 42 316.5Q58 359 86.5 390.5Q115 422 155 439.5Q195 457 241 457Q291 457 328.5 440.5Q366 424 391.5 395Q417 366 430.5 325Q444 284 444 235V197H146Q148 172 155.5 152Q163 132 175.5 118Q188 104 205.5 97Q223 90 244 90Q275 90 297 104Q319 118 326 146ZM242 357Q224 357 209 351Q194 345 182 334.5Q170 324 161.5 308.5Q153 293 149 272H323Q322 290 317 305.5Q312 321 301.5 332.5Q291 344 276.5 350.5Q262 357 242 357ZM299 503H195L100 647H198L247 578L296 647H393Z" glyph-name="ecaron" horiz-adv-x="469" unicode="&#283;" /><glyph d="M441 146Q430 75 379 32.5Q328 -10 244 -10Q195 -10 155 7Q115 24 86.5 55Q58 86 42 128.5Q26 171 26 223Q26 274 42 316.5Q58 359 86.5 390.5Q115 422 155 439.5Q195 457 241 457Q291 457 328.5 440.5Q366 424 391.5 395Q417 366 430.5 325Q444 284 444 235V197H146Q148 172 155.5 152Q163 132 175.5 118Q188 104 205.5 97Q223 90 244 90Q275 90 297 104Q319 118 326 146ZM242 357Q224 357 209 351Q194 345 182 334.5Q170 324 161.5 308.5Q153 293 149 272H323Q322 290 317 305.5Q312 321 301.5 332.5Q291 344 276.5 350.5Q262 357 242 357ZM393 503H296L247 571L198 503H100L195 647H299Z" glyph-name="ecircumflex" horiz-adv-x="469" unicode="&#234;" /><glyph d="M441 146Q430 75 379 32.5Q328 -10 244 -10Q195 -10 155 7Q115 24 86.5 55Q58 86 42 128.5Q26 171 26 223Q26 274 42 316.5Q58 359 86.5 390.5Q115 422 155 439.5Q195 457 241 457Q291 457 328.5 440.5Q366 424 391.5 395Q417 366 430.5 325Q444 284 444 235V197H146Q148 172 155.5 152Q163 132 175.5 118Q188 104 205.5 97Q223 90 244 90Q275 90 297 104Q319 118 326 146ZM242 357Q224 357 209 351Q194 345 182 334.5Q170 324 161.5 308.5Q153 293 149 272H323Q322 290 317 305.5Q312 321 301.5 332.5Q291 344 276.5 350.5Q262 357 242 357ZM101 570Q101 599 120.5 618Q140 637 167 637Q181 637 193 631.5Q205 626 214 617Q223 608 228 596Q233 584 233 570Q233 543 214 523.5Q195 504 167 504Q140 504 120.5 523.5Q101 543 101 570ZM265 570Q265 599 284 618Q303 637 330 637Q344 637 356 631.5Q368 626 377.5 617Q387 608 392 596Q397 584 397 570Q397 543 377.5 523.5Q358 504 330 504Q303 504 284 523.5Q265 543 265 570Z" glyph-name="edieresis" horiz-adv-x="469" unicode="&#235;" /><glyph d="M441 146Q430 75 379 32.5Q328 -10 244 -10Q195 -10 155 7Q115 24 86.5 55Q58 86 42 128.5Q26 171 26 223Q26 274 42 316.5Q58 359 86.5 390.5Q115 422 155 439.5Q195 457 241 457Q291 457 328.5 440.5Q366 424 391.5 395Q417 366 430.5 325Q444 284 444 235V197H146Q148 172 155.5 152Q163 132 175.5 118Q188 104 205.5 97Q223 90 244 90Q275 90 297 104Q319 118 326 146ZM242 357Q224 357 209 351Q194 345 182 334.5Q170 324 161.5 308.5Q153 293 149 272H323Q322 290 317 305.5Q312 321 301.5 332.5Q291 344 276.5 350.5Q262 357 242 357ZM321 579Q321 547 299 527.5Q277 508 247 508Q218 508 196 527.5Q174 547 174 579Q174 610 196 629.5Q218 649 247 649Q277 649 299 629.5Q321 610 321 579Z" glyph-name="edotaccent" horiz-adv-x="469" unicode="&#279;" /><glyph d="M441 146Q430 75 379 32.5Q328 -10 244 -10Q195 -10 155 7Q115 24 86.5 55Q58 86 42 128.5Q26 171 26 223Q26 274 42 316.5Q58 359 86.5 390.5Q115 422 155 439.5Q195 457 241 457Q291 457 328.5 440.5Q366 424 391.5 395Q417 366 430.5 325Q444 284 444 235V197H146Q148 172 155.5 152Q163 132 175.5 118Q188 104 205.5 97Q223 90 244 90Q275 90 297 104Q319 118 326 146ZM242 357Q224 357 209 351Q194 345 182 334.5Q170 324 161.5 308.5Q153 293 149 272H323Q322 290 317 305.5Q312 321 301.5 332.5Q291 344 276.5 350.5Q262 357 242 357ZM195 508 106 650H228L308 508Z" glyph-name="egrave" horiz-adv-x="469" unicode="&#232;" /><glyph d="M249 91Q270 91 288 97Q306 103 319 114.5Q332 126 339.5 141.5Q347 157 347 178Q347 198 339.5 214.5Q332 231 319 242Q306 253 288 259Q270 265 249 265Q228 265 210.5 259Q193 253 180 242Q167 231 159.5 214.5Q152 198 152 178Q152 157 159.5 141.5Q167 126 180 114.5Q193 103 210.5 97Q228 91 249 91ZM249 369Q266 369 281.5 374.5Q297 380 308 389.5Q319 399 326 413.5Q333 428 333 446Q333 465 326 479.5Q319 494 308 504.5Q297 515 281.5 520.5Q266 526 249 526Q232 526 217 520.5Q202 515 190.5 504.5Q179 494 172.5 479.5Q166 465 166 446Q166 428 172.5 413.5Q179 399 190.5 389.5Q202 380 217 374.5Q232 369 249 369ZM249 -10Q204 -10 163.5 2Q123 14 93 37Q63 60 46 93Q29 126 29 168Q29 197 37.5 221.5Q46 246 61 265Q76 284 95 296.5Q114 309 136 315Q98 332 73 367Q48 402 48 451Q48 493 64.5 525Q81 557 108.5 579Q136 601 172.5 612.5Q209 624 249 624Q290 624 326.5 612.5Q363 601 390.5 579Q418 557 434 525Q450 493 450 451Q450 402 425.5 367Q401 332 362 315Q384 309 403.5 296.5Q423 284 438 265Q453 246 461.5 221.5Q470 197 470 168Q470 126 452.5 93Q435 60 405.5 37Q376 14 335.5 2Q295 -10 249 -10Z" glyph-name="eight" horiz-adv-x="499" unicode="8" /><glyph d="M262 91Q283 91 301.5 97Q320 103 333 114.5Q346 126 354 141.5Q362 157 362 178Q362 198 354 214.5Q346 231 333 242Q320 253 301.5 259Q283 265 262 265Q241 265 223 259Q205 253 191.5 242Q178 231 170 214.5Q162 198 162 178Q162 157 170 141.5Q178 126 191.5 114.5Q205 103 223 97Q241 91 262 91ZM262 369Q279 369 295 374.5Q311 380 322.5 389.5Q334 399 341 413.5Q348 428 348 446Q348 465 341 479.5Q334 494 322.5 504.5Q311 515 295 520.5Q279 526 262 526Q245 526 229.5 520.5Q214 515 202 504.5Q190 494 183 479.5Q176 465 176 446Q176 428 183 413.5Q190 399 202 389.5Q214 380 229.5 374.5Q245 369 262 369ZM262 -10Q215 -10 174.5 2Q134 14 104 37Q74 60 57 93Q40 126 40 168Q40 197 49 221.5Q58 246 72.5 265Q87 284 106.5 296.5Q126 309 148 315Q110 332 84.5 367Q59 402 59 451Q59 493 75.5 525Q92 557 120 579Q148 601 184.5 612.5Q221 624 262 624Q302 624 339 612.5Q376 601 404 579Q432 557 448.5 525Q465 493 465 451Q465 402 440 367Q415 332 376 315Q398 309 417.5 296.5Q437 284 452 265Q467 246 475.5 221.5Q484 197 484 168Q484 126 467 93Q450 60 419.5 37Q389 14 348.5 2Q308 -10 262 -10Z" glyph-name="eight.lt" horiz-adv-x="520" /><glyph d="M27 72Q27 106 49.5 129Q72 152 105 152Q121 152 135.5 145.5Q150 139 160.5 129Q171 119 177.5 104.5Q184 90 184 72Q184 55 177.5 41Q171 27 160.5 16.5Q150 6 135.5 -0.5Q121 -7 105 -7Q89 -7 74.5 -0.5Q60 6 50 16.5Q40 27 33.5 41Q27 55 27 72ZM257 72Q257 106 279.5 129Q302 152 335 152Q351 152 365.5 145.5Q380 139 390.5 129Q401 119 407 104.5Q413 90 413 72Q413 55 407 41Q401 27 390.5 16.5Q380 6 365.5 -0.5Q351 -7 335 -7Q319 -7 304.5 -0.5Q290 6 279.5 16.5Q269 27 263 41Q257 55 257 72ZM487 72Q487 106 509.5 129Q532 152 565 152Q581 152 595.5 145.5Q610 139 620.5 129Q631 119 637 104.5Q643 90 643 72Q643 55 637 41Q631 27 620.5 16.5Q610 6 595.5 -0.5Q581 -7 565 -7Q549 -7 534.5 -0.5Q520 6 509.5 16.5Q499 27 493 41Q487 55 487 72Z" glyph-name="ellipsis" horiz-adv-x="670" unicode="&#8230;" /><glyph d="M441 146Q430 75 379 32.5Q328 -10 244 -10Q195 -10 155 7Q115 24 86.5 55Q58 86 42 128.5Q26 171 26 223Q26 274 42 316.5Q58 359 86.5 390.5Q115 422 155 439.5Q195 457 241 457Q291 457 328.5 440.5Q366 424 391.5 395Q417 366 430.5 325Q444 284 444 235V197H146Q148 172 155.5 152Q163 132 175.5 118Q188 104 205.5 97Q223 90 244 90Q275 90 297 104Q319 118 326 146ZM242 357Q224 357 209 351Q194 345 182 334.5Q170 324 161.5 308.5Q153 293 149 272H323Q322 290 317 305.5Q312 321 301.5 332.5Q291 344 276.5 350.5Q262 357 242 357ZM129 607H366V516H129Z" glyph-name="emacron" horiz-adv-x="469" unicode="&#275;" /><glyph d="M38 307H804V217H38Z" glyph-name="emdash" horiz-adv-x="842" unicode="&#8212;" /><glyph d="M38 345H804V254H38Z" glyph-name="emdash.cap" horiz-adv-x="842" /><glyph d="M38 307H433V217H38Z" glyph-name="endash" horiz-adv-x="471" unicode="&#8211;" /><glyph d="M38 345H433V254H38Z" glyph-name="endash.cap" horiz-adv-x="471" /><glyph d="M332 266Q332 301 314 323Q296 345 259 345Q245 345 232 341Q219 337 208 329Q197 321 189 309.5Q181 298 178 283V0H54V447H178V406Q196 427 228 442Q260 457 298 457Q374 457 415 411.5Q456 366 456 292V-19Q456 -93 416.5 -134Q377 -175 300 -175Q288 -175 275 -174Q262 -173 253 -170V-71Q258 -73 265.5 -73.5Q273 -74 280 -74Q293 -74 303 -71Q313 -68 319.5 -61Q326 -54 329 -43Q332 -32 332 -17Z" glyph-name="eng" horiz-adv-x="505" unicode="&#331;" /><glyph d="M329 -9Q307 -9 286 -9.5Q265 -10 244 -10Q195 -10 155 7Q115 24 86.5 55Q58 86 42 128.5Q26 171 26 223Q26 274 42 316.5Q58 359 86.5 390.5Q115 422 155 439.5Q195 457 241 457Q291 457 328.5 440.5Q366 424 391.5 395Q417 366 430.5 325Q444 284 444 235V197H146Q148 172 155.5 152Q163 132 175.5 118Q188 104 205.5 97Q223 90 244 90Q274 90 296.5 104Q319 118 326 146H441Q436 111 420 82.5Q404 54 378 29Q341 -6 323 -35Q305 -64 305 -86Q305 -96 310.5 -102.5Q316 -109 327 -109Q336 -109 343.5 -105Q351 -101 363 -94V-167Q351 -176 336 -182Q321 -188 301 -188Q281 -188 266 -182Q251 -176 240 -166Q229 -156 223.5 -142Q218 -128 218 -111Q218 -84 231 -59.5Q244 -35 329 -9ZM242 357Q224 357 209 351Q194 345 182 334.5Q170 324 161.5 308.5Q153 293 149 272H323Q322 290 317 305.5Q312 321 301.5 332.5Q291 344 276.5 350.5Q262 357 242 357Z" glyph-name="eogonek" horiz-adv-x="469" unicode="&#281;" /><glyph d="M73 262H504V175H73ZM73 426H504V338H73Z" glyph-name="equal" horiz-adv-x="576" unicode="=" /><glyph d="M44 262H475V175H44ZM44 426H475V338H44Z" glyph-name="equal.lt" horiz-adv-x="520" /><glyph d="M113 545 176 565Q162 577 147 589Q109 619 71 646V650H227Q259 627 288 601L374 629L397 567L341 549Q375 510 400 467Q431 414 447.5 355.5Q464 297 464 234Q464 178 448 133Q432 88 403.5 56Q375 24 334.5 7Q294 -10 245 -10Q196 -10 155.5 7Q115 24 86.5 55Q58 86 42 128Q26 170 26 221Q26 273 41.5 315Q57 357 85 387.5Q113 418 151.5 434.5Q190 451 234 451Q258 451 275 444Q292 437 304 427H307Q297 448 273 474Q255 493 234 514L137 483ZM341 221Q341 248 335 271.5Q329 295 316.5 312Q304 329 286 338.5Q268 348 245 348Q222 348 204 338.5Q186 329 173.5 312Q161 295 155 271.5Q149 248 149 221Q149 193 155 169.5Q161 146 173.5 129.5Q186 113 204 103.5Q222 94 245 94Q268 94 286 103.5Q304 113 316.5 129.5Q329 146 335 169.5Q341 193 341 221Z" glyph-name="eth" horiz-adv-x="490" unicode="&#240;" /><glyph d="M30 70Q30 87 36.5 101Q43 115 53.5 125Q64 135 78 141.5Q92 148 109 148Q125 148 139.5 141.5Q154 135 164.5 125Q175 115 181 101Q187 87 187 70Q187 54 181 39.5Q175 25 164.5 15Q154 5 139.5 -1Q125 -7 109 -7Q92 -7 78 -1Q64 5 53.5 15Q43 25 36.5 39.5Q30 54 30 70ZM34 614H184L154 198H63Z" glyph-name="exclam" horiz-adv-x="217" unicode="!" /><glyph d="M63 320H154L184 -96H34ZM30 448Q30 464 36.5 478.5Q43 493 53.5 503Q64 513 78 519Q92 525 109 525Q125 525 139.5 519Q154 513 164.5 503Q175 493 181 478.5Q187 464 187 448Q187 431 181 417Q175 403 164.5 393Q154 383 139.5 376.5Q125 370 109 370Q92 370 78 376.5Q64 383 53.5 393Q43 403 36.5 417Q30 431 30 448Z" glyph-name="exclamdown" horiz-adv-x="224" unicode="&#161;" /><glyph d="M63 416H154L184 0H34ZM30 544Q30 560 36.5 574.5Q43 589 53.5 599Q64 609 78 615Q92 621 109 621Q125 621 139.5 615Q154 609 164.5 599Q175 589 181 574.5Q187 560 187 544Q187 527 181 513Q175 499 164.5 489Q154 479 139.5 472.5Q125 466 109 466Q92 466 78 472.5Q64 479 53.5 489Q43 499 36.5 513Q30 527 30 544Z" glyph-name="exclamdown.cap" horiz-adv-x="217" /><glyph d="M316 543Q306 549 294.5 552Q283 555 272 555Q244 555 227.5 539Q211 523 211 493V447H304V347H211V0H89V347H16V447H89V500Q89 538 100.5 567.5Q112 597 132.5 617.5Q153 638 182.5 648.5Q212 659 247 659Q269 659 285.5 656Q302 653 316 647Z" glyph-name="f" horiz-adv-x="326" unicode="f" /><glyph d="M607 543Q597 549 586 552Q575 555 563 555Q535 555 518.5 539Q502 523 502 493V447H595V347H502V0H380V347H211V0H89V347H16V447H89V494Q89 532 100.5 561.5Q112 591 132.5 611.5Q153 632 182.5 642.5Q212 653 247 653Q269 653 285.5 650Q302 647 316 641V537Q306 543 294.5 546Q283 549 272 549Q244 549 227.5 533.5Q211 518 211 488V447H380V500Q380 538 391.5 567.5Q403 597 423.5 617.5Q444 638 473.5 648.5Q503 659 538 659Q560 659 576.5 656Q593 653 607 647Z" glyph-name="f_f" horiz-adv-x="617" unicode="&#64256;" /><glyph d="M247 301Q218 301 196 289Q174 277 160 259H59V614H419V503H163V378Q177 388 203.5 397Q230 406 263 406Q307 406 343.5 391Q380 376 406 348.5Q432 321 446 283.5Q460 246 460 200Q460 153 444.5 114.5Q429 76 401 48.5Q373 21 334.5 5.5Q296 -10 249 -10Q200 -10 160.5 4Q121 18 92.5 44Q64 70 47 107.5Q30 145 26 190H150Q155 148 179.5 123.5Q204 99 250 99Q270 99 287 106.5Q304 114 316 127Q328 140 334.5 158.5Q341 177 341 200Q341 222 334.5 240Q328 258 316 272Q304 286 286.5 293.5Q269 301 247 301Z" glyph-name="five" horiz-adv-x="486" unicode="5" /><glyph d="M265 300Q235 300 210 288Q185 276 171 259H69V614H438V503H173V378Q187 387 215.5 396.5Q244 406 276 406Q322 406 359.5 391Q397 376 424 348.5Q451 321 465 283.5Q479 246 479 200Q479 153 463.5 114Q448 75 420 47.5Q392 20 352.5 5Q313 -10 264 -10Q214 -10 173.5 4Q133 18 103.5 44Q74 70 57 107.5Q40 145 36 190H162Q167 150 194 124.5Q221 99 266 99Q287 99 304.5 106.5Q322 114 334.5 127.5Q347 141 353.5 159Q360 177 360 200Q360 221 353.5 239.5Q347 258 335 271.5Q323 285 305 292.5Q287 300 265 300Z" glyph-name="five.lt" horiz-adv-x="520" /><glyph d="M60 353H143L163 465Q177 543 222.5 583.5Q268 624 342 624Q362 624 379 620.5Q396 617 410 612V507Q398 513 385 516Q372 519 356 519Q328 519 310 503.5Q292 488 286 457L267 353H353V253H250L203 -14Q196 -52 184.5 -81Q173 -110 153 -131Q133 -152 105 -162.5Q77 -173 38 -173Q16 -173 -0.5 -170Q-17 -167 -31 -161V-62Q-20 -68 -4.5 -71Q11 -74 23 -74Q51 -74 62.5 -58Q74 -42 79 -12L125 253H60Z" glyph-name="florin" horiz-adv-x="423" unicode="&#402;" /><glyph d="M130 353H213L233 465Q247 543 292.5 583.5Q338 624 412 624Q432 624 449 620.5Q466 617 480 612V507Q468 513 455 516Q442 519 426 519Q398 519 380 503.5Q362 488 356 457L337 353H423V253H320L273 -14Q266 -52 254.5 -81Q243 -110 223 -131Q203 -152 175 -162.5Q147 -173 108 -173Q86 -173 69.5 -170Q53 -167 39 -161V-62Q50 -68 65.5 -71Q81 -74 93 -74Q121 -74 132.5 -58Q144 -42 149 -12L195 253H130Z" glyph-name="florin.lt" horiz-adv-x="520" /><glyph d="M158 227H294V354H408V227H501V122H408V0H294V122H21V214L233 614H358Z" glyph-name="four" horiz-adv-x="520" unicode="4" /><glyph d="M156 227H291V354H406V227H499V122H406V0H293V122H20V214L232 614H356Z" glyph-name="four.lt" horiz-adv-x="520" /><glyph d="M-33 0H-120L249 614H336Z" glyph-name="fraction" horiz-adv-x="216" unicode="&#8260;" /><glyph d="M339 56Q331 47 320 38.5Q309 30 295 24Q281 18 264.5 14Q248 10 229 10Q181 10 143 28Q105 46 79 77Q53 108 39.5 148Q26 188 26 234Q26 279 39.5 319Q53 359 79 390Q105 421 143 439Q181 457 229 457Q248 457 264.5 453Q281 449 295 443Q309 437 320 428.5Q331 420 339 411V447H463V49Q463 -9 446.5 -51Q430 -93 400.5 -120.5Q371 -148 330.5 -161.5Q290 -175 243 -175Q200 -175 164 -164.5Q128 -154 101 -133.5Q74 -113 57 -83.5Q40 -54 36 -16H155Q163 -48 185 -64Q207 -80 243 -80Q291 -80 315 -52.5Q339 -25 339 30ZM339 307Q328 326 305.5 339.5Q283 353 255 353Q230 353 210.5 344Q191 335 177.5 319.5Q164 304 157 282Q150 260 150 234Q150 207 157 185Q164 163 177.5 147.5Q191 132 210.5 123Q230 114 255 114Q283 114 305.5 127.5Q328 141 339 160Z" glyph-name="g" horiz-adv-x="517" unicode="g" /><glyph d="M339 56Q331 47 320 38.5Q309 30 295 24Q281 18 264.5 14Q248 10 229 10Q181 10 143 28Q105 46 79 77Q53 108 39.5 148Q26 188 26 234Q26 279 39.5 319Q53 359 79 390Q105 421 143 439Q181 457 229 457Q248 457 264.5 453Q281 449 295 443Q309 437 320 428.5Q331 420 339 411V447H463V49Q463 -9 446.5 -51Q430 -93 400.5 -120.5Q371 -148 330.5 -161.5Q290 -175 243 -175Q200 -175 164 -164.5Q128 -154 101 -133.5Q74 -113 57 -83.5Q40 -54 36 -16H155Q163 -48 185 -64Q207 -80 243 -80Q291 -80 315 -52.5Q339 -25 339 30ZM339 307Q328 326 305.5 339.5Q283 353 255 353Q230 353 210.5 344Q191 335 177.5 319.5Q164 304 157 282Q150 260 150 234Q150 207 157 185Q164 163 177.5 147.5Q191 132 210.5 123Q230 114 255 114Q283 114 305.5 127.5Q328 141 339 160ZM273 502Q243 502 219 511.5Q195 521 177 538.5Q159 556 149.5 582.5Q140 609 140 643H228Q228 617 239 601.5Q250 586 273 586Q296 586 307 601.5Q318 617 318 643H405Q405 609 395.5 582.5Q386 556 368.5 538.5Q351 521 326.5 511.5Q302 502 273 502Z" glyph-name="gbreve" horiz-adv-x="516" unicode="&#287;" /><glyph d="M339 56Q331 47 320 38.5Q309 30 295 24Q281 18 264.5 14Q248 10 229 10Q181 10 143 28Q105 46 79 77Q53 108 39.5 148Q26 188 26 234Q26 279 39.5 319Q53 359 79 390Q105 421 143 439Q181 457 229 457Q248 457 264.5 453Q281 449 295 443Q309 437 320 428.5Q331 420 339 411V447H463V49Q463 -9 446.5 -51Q430 -93 400.5 -120.5Q371 -148 330.5 -161.5Q290 -175 243 -175Q200 -175 164 -164.5Q128 -154 101 -133.5Q74 -113 57 -83.5Q40 -54 36 -16H155Q163 -48 185 -64Q207 -80 243 -80Q291 -80 315 -52.5Q339 -25 339 30ZM339 307Q328 326 305.5 339.5Q283 353 255 353Q230 353 210.5 344Q191 335 177.5 319.5Q164 304 157 282Q150 260 150 234Q150 207 157 185Q164 163 177.5 147.5Q191 132 210.5 123Q230 114 255 114Q283 114 305.5 127.5Q328 141 339 160ZM419 503H322L273 571L224 503H126L221 647H325Z" glyph-name="gcircumflex" horiz-adv-x="516" unicode="&#285;" /><glyph d="M339 56Q331 47 320 38.5Q309 30 295 24Q281 18 264.5 14Q248 10 229 10Q181 10 143 28Q105 46 79 77Q53 108 39.5 148Q26 188 26 234Q26 279 39.5 319Q53 359 79 390Q105 421 143 439Q181 457 229 457Q248 457 264.5 453Q281 449 295 443Q309 437 320 428.5Q331 420 339 411V447H463V49Q463 -9 446.5 -51Q430 -93 400.5 -120.5Q371 -148 330.5 -161.5Q290 -175 243 -175Q200 -175 164 -164.5Q128 -154 101 -133.5Q74 -113 57 -83.5Q40 -54 36 -16H155Q163 -48 185 -64Q207 -80 243 -80Q291 -80 315 -52.5Q339 -25 339 30ZM339 307Q328 326 305.5 339.5Q283 353 255 353Q230 353 210.5 344Q191 335 177.5 319.5Q164 304 157 282Q150 260 150 234Q150 207 157 185Q164 163 177.5 147.5Q191 132 210.5 123Q230 114 255 114Q283 114 305.5 127.5Q328 141 339 160ZM292 632Q314 628 328.5 611.5Q343 595 343 570Q343 542 322 523.5Q301 505 271 505Q242 505 221 524Q200 543 200 575Q200 598 210 617.5Q220 637 233 655L263 696H339Z" glyph-name="gcommaaccent" horiz-adv-x="516" unicode="&#291;" /><glyph d="M339 56Q331 47 320 38.5Q309 30 295 24Q281 18 264.5 14Q248 10 229 10Q181 10 143 28Q105 46 79 77Q53 108 39.5 148Q26 188 26 234Q26 279 39.5 319Q53 359 79 390Q105 421 143 439Q181 457 229 457Q248 457 264.5 453Q281 449 295 443Q309 437 320 428.5Q331 420 339 411V447H463V49Q463 -9 446.5 -51Q430 -93 400.5 -120.5Q371 -148 330.5 -161.5Q290 -175 243 -175Q200 -175 164 -164.5Q128 -154 101 -133.5Q74 -113 57 -83.5Q40 -54 36 -16H155Q163 -48 185 -64Q207 -80 243 -80Q291 -80 315 -52.5Q339 -25 339 30ZM339 307Q328 326 305.5 339.5Q283 353 255 353Q230 353 210.5 344Q191 335 177.5 319.5Q164 304 157 282Q150 260 150 234Q150 207 157 185Q164 163 177.5 147.5Q191 132 210.5 123Q230 114 255 114Q283 114 305.5 127.5Q328 141 339 160ZM346 579Q346 547 324 527.5Q302 508 272 508Q243 508 221 527.5Q199 547 199 579Q199 610 221 629.5Q243 649 272 649Q302 649 324 629.5Q346 610 346 579Z" glyph-name="gdotaccent" horiz-adv-x="516" unicode="&#289;" /><glyph d="M389 361Q414 353 434.5 337Q455 321 470 299Q485 277 494 249Q503 221 503 189Q503 142 488 106Q473 70 447 45.5Q421 21 384.5 8Q348 -5 305 -5Q282 -5 264 -3Q246 -1 226 6V110Q236 106 252 103.5Q268 101 286 101Q333 101 359 127Q385 153 385 200Q385 224 377 243Q369 262 353.5 274.5Q338 287 316 294Q294 301 266 301H230V402H261Q280 402 294.5 407Q309 412 319.5 421.5Q330 431 336 445.5Q342 460 342 479Q342 512 321 533Q300 554 262 554Q217 554 196.5 524.5Q176 495 176 453V0H54V448Q54 496 68.5 535Q83 574 110.5 601.5Q138 629 176 644Q214 659 262 659Q309 659 346 646.5Q383 634 408 611Q433 588 445.5 557Q458 526 458 490Q458 465 452.5 444.5Q447 424 438 407.5Q429 391 416.5 379Q404 367 389 361Z" glyph-name="germandbls" horiz-adv-x="529" unicode="&#223;" /><glyph d="M238 508 149 650H271L351 508Z" glyph-name="grave" horiz-adv-x="500" unicode="`" /><glyph d="M235 669 143 791H278L357 669Z" glyph-name="grave.cap" horiz-adv-x="500" /><glyph d="M386 236 57 83V191L297 297L57 403V511L386 359Z" glyph-name="greater" horiz-adv-x="440" unicode="&gt;" /><glyph d="M424 236 95 83V191L335 297L95 403V511L424 359Z" glyph-name="greater.lt" horiz-adv-x="520" /><glyph d="M389 303 60 180V282L293 362L60 442V544L389 420ZM389 60H60V153H389Z" glyph-name="greaterequal" horiz-adv-x="449" unicode="&#8805;" /><glyph d="M424 303 95 180V282L328 362L95 442V544L424 420ZM424 60H95V153H424Z" glyph-name="greaterequal.lt" horiz-adv-x="520" /><glyph d="M289 61 197 222 289 383H395L303 222L395 61ZM117 61 25 222 117 383H223L131 222L223 61Z" glyph-name="guillemotleft" horiz-adv-x="420" unicode="&#171;" /><glyph d="M289 141 197 302 289 463H395L303 302L395 141ZM117 141 25 302 117 463H223L131 302L223 141Z" glyph-name="guillemotleft.cap" horiz-adv-x="420" /><glyph d="M25 61 117 222 25 383H131L223 222L131 61ZM197 61 289 222 197 383H303L395 222L303 61Z" glyph-name="guillemotright" horiz-adv-x="420" unicode="&#187;" /><glyph d="M25 141 117 302 25 463H131L223 302L131 141ZM197 141 289 302 197 463H303L395 302L303 141Z" glyph-name="guillemotright.cap" horiz-adv-x="420" /><glyph d="M117 61 25 222 117 383H229L137 222L229 61Z" glyph-name="guilsinglleft" horiz-adv-x="254" unicode="&#8249;" /><glyph d="M117 141 25 302 117 463H229L137 302L229 141Z" glyph-name="guilsinglleft.cap" horiz-adv-x="254" /><glyph d="M25 61 117 222 25 383H137L229 222L137 61Z" glyph-name="guilsinglright" horiz-adv-x="254" unicode="&#8250;" /><glyph d="M25 141 117 302 25 463H137L229 302L137 141Z" glyph-name="guilsinglright.cap" horiz-adv-x="254" /><glyph d="M54 650H178V406Q196 427 228 442Q260 457 298 457Q374 457 415 411.5Q456 366 456 292V0H332V266Q332 301 314 323Q296 345 259 345Q245 345 232 341Q219 337 208 329Q197 321 189 309.5Q181 298 178 283V0H54Z" glyph-name="h" horiz-adv-x="505" unicode="h" /><glyph d="M-1 581H54V650H178V581H271V497H178V406Q196 427 227.5 442Q259 457 298 457Q374 457 415 411.5Q456 366 456 292V0H332V266Q332 301 314 323Q296 345 259 345Q245 345 232 341Q219 337 208 329Q197 321 189 309.5Q181 298 178 283V0H54V497H-1Z" glyph-name="hbar" horiz-adv-x="505" unicode="&#295;" /><glyph d="M54 650H178V406Q196 427 228 442Q260 457 298 457Q374 457 415 411.5Q456 366 456 292V0H332V266Q332 301 314 323Q296 345 259 345Q245 345 232 341Q219 337 208 329Q197 321 189 309.5Q181 298 178 283V0H54ZM405 686H300L253 740L206 686H101L201 813H305Z" glyph-name="hcircumflex" horiz-adv-x="505" unicode="&#293;" /><glyph d="M97 508 164 650H263L195 508ZM238 508 304 650H404L335 508Z" glyph-name="hungarumlaut" horiz-adv-x="500" unicode="&#733;" /><glyph d="M91 669 158 791H262L193 669ZM238 669 305 791H409L341 669Z" glyph-name="hungarumlaut.cap" horiz-adv-x="500" /><glyph d="M38 316H279V208H38Z" glyph-name="hyphen" horiz-adv-x="317" unicode="-" /><glyph d="M38 354H279V246H38Z" glyph-name="hyphen.cap" horiz-adv-x="317" /><glyph d="M177 0H53V447H177ZM189 576Q189 544 167 524.5Q145 505 115 505Q86 505 64 524.5Q42 544 42 576Q42 607 64 626.5Q86 646 115 646Q145 646 167 626.5Q189 607 189 576Z" glyph-name="i" horiz-adv-x="231" unicode="i" /><glyph d="M56 508 135 650H258L168 508ZM178 0H54V447H178Z" glyph-name="iacute" horiz-adv-x="232" unicode="&#237;" /><glyph d="M115 492Q62 492 29.5 528Q-3 564 -3 633H79Q79 607 87 591.5Q95 576 116 576Q136 576 144 591.5Q152 607 152 633H234Q234 564 201 528Q168 492 115 492ZM178 0H54V447H178Z" glyph-name="ibreve" horiz-adv-x="231" unicode="&#301;" /><glyph d="M245 503H151L116 572L82 503H-13L64 647H168ZM178 0H54V447H178Z" glyph-name="icircumflex" horiz-adv-x="232" unicode="&#238;" /><glyph d="M-27 570Q-27 599 -7.5 618Q12 637 39 637Q53 637 65 631.5Q77 626 86 617Q95 608 100 596Q105 584 105 570Q105 543 86 523.5Q67 504 39 504Q12 504 -7.5 523.5Q-27 543 -27 570ZM126 570Q126 599 145.5 618Q165 637 192 637Q206 637 218 631.5Q230 626 239 617Q248 608 253.5 596Q259 584 259 570Q259 543 239 523.5Q219 504 192 504Q165 504 145.5 523.5Q126 543 126 570ZM177 0H53V447H177Z" glyph-name="idieresis" horiz-adv-x="231" unicode="&#239;" /><glyph d="M178 0H54V447H178ZM190 579Q190 547 168 527.5Q146 508 116 508Q87 508 65 527.5Q43 547 43 579Q43 610 65 629.5Q87 649 116 649Q146 649 168 629.5Q190 610 190 579Z" glyph-name="idotaccent" horiz-adv-x="232" /><glyph d="M65 508 -24 650H98L178 508ZM178 0H54V447H178Z" glyph-name="igrave" horiz-adv-x="232" unicode="&#236;" /><glyph d="M25 607H201V516H25ZM178 0H54V447H178Z" glyph-name="imacron" horiz-adv-x="232" unicode="&#299;" /><glyph d="M177 0Q163 -21 153 -34Q143 -47 137.5 -56.5Q132 -66 129.5 -73Q127 -80 127 -88Q127 -98 132.5 -103.5Q138 -109 148 -109Q156 -109 164 -105Q172 -101 184 -94V-167Q171 -176 156.5 -182Q142 -188 122 -188Q102 -188 87 -182.5Q72 -177 61.5 -167.5Q51 -158 45.5 -144Q40 -130 40 -113Q40 -97 44.5 -83.5Q49 -70 56.5 -56.5Q64 -43 73.5 -29Q83 -15 95 0H53V447H177ZM189 576Q189 544 167 524.5Q145 505 115 505Q85 505 63.5 524.5Q42 544 42 576Q42 607 63.5 626.5Q85 646 115 646Q145 646 167 626.5Q189 607 189 576Z" glyph-name="iogonek" horiz-adv-x="231" unicode="&#303;" /><glyph d="M240 653Q240 624 235.5 598Q231 572 222 554Q213 536 199 525Q185 514 165 514Q151 514 139.5 521Q128 528 118.5 536Q109 544 100.5 551Q92 558 83 558Q71 558 65 547.5Q59 537 58 518H-9Q-9 547 -4.5 572.5Q0 598 9 617Q18 636 32 646.5Q46 657 66 657Q80 657 91.5 650.5Q103 644 112.5 635.5Q122 627 130.5 620.5Q139 614 148 614Q160 614 166 624Q172 634 173 653ZM178 0H54V447H178Z" glyph-name="itilde" horiz-adv-x="232" unicode="&#297;" /><glyph d="M177 -19Q177 -93 138 -134Q99 -175 21 -175Q9 -175 -4 -174Q-17 -173 -26 -170V-71Q-21 -73 -13.5 -73.5Q-6 -74 1 -74Q14 -74 24 -71Q34 -68 40.5 -61Q47 -54 50 -43Q53 -32 53 -17V447H177ZM189 576Q189 544 167 524.5Q145 505 115 505Q86 505 64 524.5Q42 544 42 576Q42 607 64 626.5Q86 646 115 646Q145 646 167 626.5Q189 607 189 576Z" glyph-name="j" horiz-adv-x="230" unicode="j" /><glyph d="M245 503H150L115 572L81 503H-14L64 647H167ZM177 -19Q177 -93 138 -134Q99 -175 21 -175Q9 -175 -4 -174Q-17 -173 -26 -170V-71Q-21 -73 -13.5 -73.5Q-6 -74 1 -74Q14 -74 24 -71Q34 -68 40.5 -61Q47 -54 50 -43Q53 -32 53 -17V447H177Z" glyph-name="jcircumflex" horiz-adv-x="230" unicode="&#309;" /><glyph d="M214 180 178 141V0H54V650H178V280L332 447H485L304 257L492 0H345Z" glyph-name="k" horiz-adv-x="500" unicode="k" /><glyph d="M214 180 178 141V0H54V650H178V280L332 447H485L304 257L492 0H345ZM225 -163Q204 -159 189.5 -143.5Q175 -128 175 -103Q175 -75 195.5 -57Q216 -39 246 -39Q274 -39 294.5 -57.5Q315 -76 315 -108Q315 -131 305.5 -149.5Q296 -168 282 -186L255 -225H180Z" glyph-name="kcommaaccent" horiz-adv-x="500" unicode="&#311;" /><glyph d="M214 180 178 141V0H54V447H178V280L332 447H485L304 257L492 0H345Z" glyph-name="kgreenlandic" horiz-adv-x="500" unicode="&#312;" /><glyph d="M178 0H54V650H178Z" glyph-name="l" horiz-adv-x="232" unicode="l" /><glyph d="M178 0H54V650H178ZM55 704 134 826H269L176 704Z" glyph-name="lacute" horiz-adv-x="232" unicode="&#314;" /><glyph d="M178 0H54V650H178ZM219 483 257 650H353L315 483Z" glyph-name="lcaron" horiz-adv-x="232" unicode="&#318;" /><glyph d="M178 0H54V650H178ZM96 -163Q75 -159 60.5 -143.5Q46 -128 46 -103Q46 -75 66.5 -57Q87 -39 117 -39Q145 -39 165.5 -57.5Q186 -76 186 -108Q186 -131 176.5 -149.5Q167 -168 153 -186L126 -225H51Z" glyph-name="lcommaaccent" horiz-adv-x="232" unicode="&#316;" /><glyph d="M178 0H54V650H178ZM383 330Q383 298 361 278.5Q339 259 309 259Q280 259 258 278.5Q236 298 236 330Q236 361 258 380.5Q280 400 309 400Q339 400 361 380.5Q383 361 383 330Z" glyph-name="ldot" horiz-adv-x="390" unicode="&#320;" /><glyph d="M55 359 383 511V403L143 297L383 191V83L55 236Z" glyph-name="less" horiz-adv-x="440" unicode="&lt;" /><glyph d="M96 359 424 511V403L184 297L424 191V83L96 236Z" glyph-name="less.lt" horiz-adv-x="520" /><glyph d="M60 420 389 544V442L155 362L389 282V180L60 303ZM60 153H389V60H60Z" glyph-name="lessequal" horiz-adv-x="449" unicode="&#8804;" /><glyph d="M95 420 424 544V442L190 362L424 282V180L95 303ZM95 153H424V60H95Z" glyph-name="lessequal.lt" horiz-adv-x="520" /><glyph d="M199 0H75V267L25 238V336L75 365V650H199V425L253 456V358L199 326Z" glyph-name="lslash" horiz-adv-x="274" unicode="&#322;" /><glyph d="M411 400Q422 412 435.5 422.5Q449 433 465.5 440.5Q482 448 502 452.5Q522 457 546 457Q616 457 654.5 412.5Q693 368 693 292V0H569V266Q569 302 553.5 324Q538 346 506 346Q481 346 461.5 331.5Q442 317 436 288V0H312V266Q312 302 296 324Q280 346 248 346Q224 346 204 331.5Q184 317 178 288V0H54V447H178V410Q195 431 224 444Q253 457 291 457Q331 457 361.5 441Q392 425 411 400Z" glyph-name="m" horiz-adv-x="742" unicode="m" /><glyph d="M131 607H368V516H131Z" glyph-name="macron" horiz-adv-x="500" unicode="&#175;" /><glyph d="M128 760H370V669H128Z" glyph-name="macron.cap" horiz-adv-x="500" /><glyph d="M64 347H496V252H64Z" glyph-name="minus" horiz-adv-x="560" unicode="&#8722;" /><glyph d="M44 347H476V252H44Z" glyph-name="minus.lt" horiz-adv-x="520" /><glyph d="M60 418 126 484 247 363 368 484 434 418 313 298 434 177 368 110 247 231 126 110 60 177 182 298Z" glyph-name="multiply" horiz-adv-x="495" unicode="&#215;" /><glyph d="M72 418 138 484 259 363 380 484 446 418 325 298 446 177 380 110 259 231 138 110 72 177 194 298Z" glyph-name="multiply.lt" horiz-adv-x="520" /><glyph d="M54 447H178V406Q196 427 228 442Q260 457 298 457Q374 457 415 411.5Q456 366 456 292V0H332V266Q332 301 314 323Q296 345 259 345Q245 345 232 341Q219 337 208 329Q197 321 189 309.5Q181 298 178 283V0H54Z" glyph-name="n" horiz-adv-x="505" unicode="n" /><glyph d="M54 447H178V406Q196 427 228 442Q260 457 298 457Q374 457 415 411.5Q456 366 456 292V0H332V266Q332 301 314 323Q296 345 259 345Q245 345 232 341Q219 337 208 329Q197 321 189 309.5Q181 298 178 283V0H54ZM200 508 279 650H402L312 508Z" glyph-name="nacute" horiz-adv-x="505" unicode="&#324;" /><glyph d="M54 447H178V406Q196 427 228 442Q260 457 298 457Q374 457 415 411.5Q456 366 456 292V0H332V266Q332 301 314 323Q296 345 259 345Q245 345 232 341Q219 337 208 329Q197 321 189 309.5Q181 298 178 283V0H54ZM313 503H209L114 647H212L261 578L310 647H407Z" glyph-name="ncaron" horiz-adv-x="505" unicode="&#328;" /><glyph d="M54 447H178V406Q196 427 228 442Q260 457 298 457Q374 457 415 411.5Q456 366 456 292V0H332V266Q332 301 314 323Q296 345 259 345Q245 345 232 341Q219 337 208 329Q197 321 189 309.5Q181 298 178 283V0H54ZM239 -163Q218 -159 203.5 -143.5Q189 -128 189 -103Q189 -75 209.5 -57Q230 -39 260 -39Q288 -39 308.5 -57.5Q329 -76 329 -108Q329 -131 319.5 -149.5Q310 -168 296 -186L269 -225H194Z" glyph-name="ncommaaccent" horiz-adv-x="505" unicode="&#326;" /><glyph d="M160 155Q169 127 188.5 110.5Q208 94 241 94Q269 94 290.5 109.5Q312 125 324.5 151Q337 177 338 211Q338 227 335 245Q325 236 311 229Q294 221 274 216Q254 211 232 211Q185 211 148 227Q111 243 85 270.5Q59 298 45 335Q31 372 31 413Q31 456 46 494.5Q61 533 89 561.5Q117 590 157 607Q197 624 248 624Q307 624 355.5 597Q404 570 435 513Q458 472 468 425.5Q478 379 478 320Q478 248 461.5 187.5Q445 127 415 83Q385 39 341 14.5Q297 -10 242 -10Q154 -10 103.5 33.5Q53 77 36 155ZM350 416Q350 439 342.5 458Q335 477 321.5 491Q308 505 289 512Q270 519 247 519Q225 519 206.5 512Q188 505 174.5 491Q161 477 154 458Q147 439 147 416Q147 392 154 372.5Q161 353 174.5 339Q188 325 206.5 317Q225 309 247 309Q270 309 289 316.5Q308 324 321.5 338Q335 352 342.5 371.5Q350 391 350 416Z" glyph-name="nine" horiz-adv-x="511" unicode="9" /><glyph d="M162 155Q171 127 190.5 110.5Q210 94 243 94Q271 94 292 109.5Q313 125 323.5 148.5Q334 172 340 226Q339 238 337 250Q320 233 313 229Q296 221 276 216Q256 211 234 211Q187 211 150 227Q113 243 87 270.5Q61 298 47 335Q33 372 33 413Q33 456 48 494.5Q63 533 91 561.5Q119 590 159 607Q199 624 250 624Q309 624 357.5 597Q406 570 437 513Q460 472 470 425.5Q480 379 480 320Q480 248 463.5 187.5Q447 127 417 83Q387 39 343 14.5Q299 -10 244 -10Q156 -10 105.5 33.5Q55 77 38 155ZM352 416Q352 439 344.5 458Q337 477 323.5 491Q310 505 291 512Q272 519 249 519Q227 519 208.5 512Q190 505 176.5 491Q163 477 156 458Q149 439 149 416Q149 392 156 372.5Q163 353 176.5 339Q190 325 208.5 317Q227 309 249 309Q272 309 291 316.5Q310 324 323.5 338Q337 352 344.5 371.5Q352 391 352 416Z" glyph-name="nine.lt" horiz-adv-x="520" /><glyph glyph-name="nonmarkingreturn" horiz-adv-x="212" unicode="" /><glyph d="M73 261H221L272 338H73V424H330L393 519H476L412 424H504V338H355L303 261H504V175H246L183 81H101L163 175H73Z" glyph-name="notequal" horiz-adv-x="576" unicode="&#8800;" /><glyph d="M44 261H192L243 338H44V424H301L364 519H447L383 424H475V338H326L274 261H475V175H217L154 81H72L134 175H44Z" glyph-name="notequal.lt" horiz-adv-x="520" /><glyph d="M54 447H178V406Q196 427 228 442Q260 457 298 457Q374 457 415 411.5Q456 366 456 292V0H332V266Q332 301 314 323Q296 345 259 345Q245 345 232 341Q219 337 208 329Q197 321 189 309.5Q181 298 178 283V0H54ZM400 643Q400 614 395.5 588Q391 562 380.5 544Q370 526 354 515Q338 504 315 504Q298 504 284.5 511Q271 518 259.5 527Q248 536 237 543Q226 550 215 550Q201 550 193.5 538.5Q186 527 186 508H115Q115 537 119.5 562.5Q124 588 134.5 607Q145 626 161.5 636.5Q178 647 200 647Q217 647 230.5 640Q244 633 256 624Q268 615 278.5 608Q289 601 300 601Q314 601 321.5 612.5Q329 624 329 643Z" glyph-name="ntilde" horiz-adv-x="505" unicode="&#241;" /><glyph d="M534 159H430L392 0H293L331 159H213L175 0H78L116 159H20L39 245H136L166 369H64L82 455H186L224 614H322L283 455H401L440 614H538L500 455H595L576 369H480L450 245H552ZM233 245H351L381 369H263Z" glyph-name="numbersign" horiz-adv-x="615" unicode="#" /><glyph d="M464 223Q464 172 448 129Q432 86 403.5 55Q375 24 334.5 7Q294 -10 245 -10Q196 -10 155.5 7Q115 24 86.5 55Q58 86 42 129Q26 172 26 223Q26 275 42 317.5Q58 360 86.5 391.5Q115 423 155.5 440Q196 457 245 457Q294 457 334.5 440Q375 423 403.5 391.5Q432 360 448 317.5Q464 275 464 223ZM341 223Q341 251 335 275Q329 299 316.5 316Q304 333 286 342.5Q268 352 245 352Q222 352 204 342.5Q186 333 173.5 316Q161 299 155 275Q149 251 149 223Q149 195 155 171.5Q161 148 173.5 131Q186 114 204 104Q222 94 245 94Q268 94 286 104Q304 114 316.5 131Q329 148 335 171.5Q341 195 341 223Z" glyph-name="o" horiz-adv-x="490" unicode="o" /><glyph d="M464 223Q464 172 448 129Q432 86 403.5 55Q375 24 334.5 7Q294 -10 245 -10Q196 -10 155.5 7Q115 24 86.5 55Q58 86 42 129Q26 172 26 223Q26 275 42 317.5Q58 360 86.5 391.5Q115 423 155.5 440Q196 457 245 457Q294 457 334.5 440Q375 423 403.5 391.5Q432 360 448 317.5Q464 275 464 223ZM341 223Q341 251 335 275Q329 299 316.5 316Q304 333 286 342.5Q268 352 245 352Q222 352 204 342.5Q186 333 173.5 316Q161 299 155 275Q149 251 149 223Q149 195 155 171.5Q161 148 173.5 131Q186 114 204 104Q222 94 245 94Q268 94 286 104Q304 114 316.5 131Q329 148 335 171.5Q341 195 341 223ZM183 508 262 650H385L295 508Z" glyph-name="oacute" horiz-adv-x="490" unicode="&#243;" /><glyph d="M464 223Q464 172 448 129Q432 86 403.5 55Q375 24 334.5 7Q294 -10 245 -10Q196 -10 155.5 7Q115 24 86.5 55Q58 86 42 129Q26 172 26 223Q26 275 42 317.5Q58 360 86.5 391.5Q115 423 155.5 440Q196 457 245 457Q294 457 334.5 440Q375 423 403.5 391.5Q432 360 448 317.5Q464 275 464 223ZM341 223Q341 251 335 275Q329 299 316.5 316Q304 333 286 342.5Q268 352 245 352Q222 352 204 342.5Q186 333 173.5 316Q161 299 155 275Q149 251 149 223Q149 195 155 171.5Q161 148 173.5 131Q186 114 204 104Q222 94 245 94Q268 94 286 104Q304 114 316.5 131Q329 148 335 171.5Q341 195 341 223ZM246 502Q216 502 192 511.5Q168 521 150 538.5Q132 556 122.5 582.5Q113 609 113 643H201Q201 617 212 601.5Q223 586 246 586Q269 586 280 601.5Q291 617 291 643H378Q378 609 368.5 582.5Q359 556 341.5 538.5Q324 521 299.5 511.5Q275 502 246 502Z" glyph-name="obreve" horiz-adv-x="490" unicode="&#335;" /><glyph d="M464 223Q464 172 448 129Q432 86 403.5 55Q375 24 334.5 7Q294 -10 245 -10Q196 -10 155.5 7Q115 24 86.5 55Q58 86 42 129Q26 172 26 223Q26 275 42 317.5Q58 360 86.5 391.5Q115 423 155.5 440Q196 457 245 457Q294 457 334.5 440Q375 423 403.5 391.5Q432 360 448 317.5Q464 275 464 223ZM341 223Q341 251 335 275Q329 299 316.5 316Q304 333 286 342.5Q268 352 245 352Q222 352 204 342.5Q186 333 173.5 316Q161 299 155 275Q149 251 149 223Q149 195 155 171.5Q161 148 173.5 131Q186 114 204 104Q222 94 245 94Q268 94 286 104Q304 114 316.5 131Q329 148 335 171.5Q341 195 341 223ZM392 503H295L246 571L197 503H99L194 647H298Z" glyph-name="ocircumflex" horiz-adv-x="490" unicode="&#244;" /><glyph d="M464 223Q464 172 448 129Q432 86 403.5 55Q375 24 334.5 7Q294 -10 245 -10Q196 -10 155.5 7Q115 24 86.5 55Q58 86 42 129Q26 172 26 223Q26 275 42 317.5Q58 360 86.5 391.5Q115 423 155.5 440Q196 457 245 457Q294 457 334.5 440Q375 423 403.5 391.5Q432 360 448 317.5Q464 275 464 223ZM341 223Q341 251 335 275Q329 299 316.5 316Q304 333 286 342.5Q268 352 245 352Q222 352 204 342.5Q186 333 173.5 316Q161 299 155 275Q149 251 149 223Q149 195 155 171.5Q161 148 173.5 131Q186 114 204 104Q222 94 245 94Q268 94 286 104Q304 114 316.5 131Q329 148 335 171.5Q341 195 341 223ZM98 570Q98 599 117.5 618Q137 637 164 637Q178 637 190 631.5Q202 626 211 617Q220 608 225 596Q230 584 230 570Q230 543 211 523.5Q192 504 164 504Q137 504 117.5 523.5Q98 543 98 570ZM262 570Q262 599 281 618Q300 637 327 637Q341 637 353 631.5Q365 626 374.5 617Q384 608 389 596Q394 584 394 570Q394 543 374.5 523.5Q355 504 327 504Q300 504 281 523.5Q262 543 262 570Z" glyph-name="odieresis" horiz-adv-x="490" unicode="&#246;" /><glyph d="M554 -10Q505 -10 466 7Q427 24 398 54Q370 24 331.5 7Q293 -10 245 -10Q196 -10 155.5 7Q115 24 86.5 55Q58 86 42 129Q26 172 26 223Q26 275 42 317.5Q58 360 86.5 391.5Q115 423 155.5 440Q196 457 245 457Q293 457 331.5 439.5Q370 422 399 392Q427 422 465 439.5Q503 457 551 457Q600 457 638 440.5Q676 424 701.5 395Q727 366 740.5 325Q754 284 754 235V197H456Q458 172 465 152Q472 132 485 118Q498 104 515.5 97Q533 90 554 90Q585 90 607 104Q629 118 636 146H751Q739 75 688.5 32.5Q638 -10 554 -10ZM341 223Q341 251 335 275Q329 299 316.5 316Q304 333 286 342.5Q268 352 245 352Q222 352 204 342.5Q186 333 173.5 316Q161 299 155 275Q149 251 149 223Q149 195 155 171.5Q161 148 173.5 131Q186 114 204 104Q222 94 245 94Q268 94 286 104Q304 114 316.5 131Q329 148 335 171.5Q341 195 341 223ZM552 357Q516 357 491.5 335Q467 313 459 272H633Q632 290 627 305.5Q622 321 611.5 332.5Q601 344 586.5 350.5Q572 357 552 357Z" glyph-name="oe" horiz-adv-x="779" unicode="&#339;" /><glyph d="M314 6Q299 -16 288.5 -30Q278 -44 272 -54.5Q266 -65 263 -72.5Q260 -80 260 -88Q260 -98 265.5 -103.5Q271 -109 281 -109Q289 -109 297 -105Q305 -101 317 -94V-167Q304 -176 289.5 -182Q275 -188 255 -188Q235 -188 220 -182.5Q205 -177 194.5 -167.5Q184 -158 178.5 -144Q173 -130 173 -113Q173 -97 178 -82.5Q183 -68 191.5 -53.5Q200 -39 210.5 -24.5Q221 -10 233 6Z" glyph-name="ogonek" horiz-adv-x="500" unicode="&#731;" /><glyph d="M464 223Q464 172 448 129Q432 86 403.5 55Q375 24 334.5 7Q294 -10 245 -10Q196 -10 155.5 7Q115 24 86.5 55Q58 86 42 129Q26 172 26 223Q26 275 42 317.5Q58 360 86.5 391.5Q115 423 155.5 440Q196 457 245 457Q294 457 334.5 440Q375 423 403.5 391.5Q432 360 448 317.5Q464 275 464 223ZM341 223Q341 251 335 275Q329 299 316.5 316Q304 333 286 342.5Q268 352 245 352Q222 352 204 342.5Q186 333 173.5 316Q161 299 155 275Q149 251 149 223Q149 195 155 171.5Q161 148 173.5 131Q186 114 204 104Q222 94 245 94Q268 94 286 104Q304 114 316.5 131Q329 148 335 171.5Q341 195 341 223ZM194 508 105 650H227L307 508Z" glyph-name="ograve" horiz-adv-x="490" unicode="&#242;" /><glyph d="M464 223Q464 172 448 129Q432 86 403.5 55Q375 24 334.5 7Q294 -10 245 -10Q196 -10 155.5 7Q115 24 86.5 55Q58 86 42 129Q26 172 26 223Q26 275 42 317.5Q58 360 86.5 391.5Q115 423 155.5 440Q196 457 245 457Q294 457 334.5 440Q375 423 403.5 391.5Q432 360 448 317.5Q464 275 464 223ZM341 223Q341 251 335 275Q329 299 316.5 316Q304 333 286 342.5Q268 352 245 352Q222 352 204 342.5Q186 333 173.5 316Q161 299 155 275Q149 251 149 223Q149 195 155 171.5Q161 148 173.5 131Q186 114 204 104Q222 94 245 94Q268 94 286 104Q304 114 316.5 131Q329 148 335 171.5Q341 195 341 223ZM121 508 188 650H287L219 508ZM262 508 328 650H428L359 508Z" glyph-name="ohungarumlaut" horiz-adv-x="490" unicode="&#337;" /><glyph d="M464 223Q464 172 448 129Q432 86 403.5 55Q375 24 334.5 7Q294 -10 245 -10Q196 -10 155.5 7Q115 24 86.5 55Q58 86 42 129Q26 172 26 223Q26 275 42 317.5Q58 360 86.5 391.5Q115 423 155.5 440Q196 457 245 457Q294 457 334.5 440Q375 423 403.5 391.5Q432 360 448 317.5Q464 275 464 223ZM341 223Q341 251 335 275Q329 299 316.5 316Q304 333 286 342.5Q268 352 245 352Q222 352 204 342.5Q186 333 173.5 316Q161 299 155 275Q149 251 149 223Q149 195 155 171.5Q161 148 173.5 131Q186 114 204 104Q222 94 245 94Q268 94 286 104Q304 114 316.5 131Q329 148 335 171.5Q341 195 341 223ZM128 607H365V516H128Z" glyph-name="omacron" horiz-adv-x="490" unicode="&#333;" /><glyph d="M285 0H160V468L17 397V522L204 614H285Z" glyph-name="one" horiz-adv-x="346" unicode="1" /><glyph d="M72 111H229V468L74 391V516L272 614H353V111H491V0H72Z" glyph-name="one.lt" horiz-adv-x="520" /><glyph d="M168 0H79L510 614H599ZM210 273H119V510L31 467V559L146 614H210ZM574 236Q574 249 566 257.5Q558 266 544 266Q529 266 520 255.5Q511 245 510 232H415Q418 256 428 276.5Q438 297 454 313Q470 329 492.5 337.5Q515 346 542 346Q599 346 632 317Q665 288 665 240Q665 206 646 182Q627 158 602 132L544 78H666V0H417V61L536 176Q555 195 564.5 208.5Q574 222 574 236Z" glyph-name="onehalf" horiz-adv-x="716" unicode="&#189;" /><glyph d="M168 0H79L510 614H599ZM210 273H119V510L31 467V559L146 614H210ZM482 137H535V192H615V137H662V61H615V0H535V61H384V130L489 341H578Z" glyph-name="onequarter" horiz-adv-x="702" unicode="&#188;" /><glyph d="M197 273H106V510L18 467V559L133 614H197Z" glyph-name="onesuperior" horiz-adv-x="238" unicode="&#185;" /><glyph d="M192 317V332Q184 324 164 317.5Q144 311 120 311Q97 311 77 317.5Q57 324 41.5 336Q26 348 17.5 366.5Q9 385 9 409Q9 453 42.5 479Q76 505 125 505Q145 505 164 499.5Q183 494 192 488V508Q192 523 182.5 535Q173 547 152 547Q121 547 114 522H23Q29 566 64 595.5Q99 625 155 625Q218 625 253 593Q288 561 288 504V317ZM192 419Q187 429 174.5 435Q162 441 146 441Q130 441 116.5 433Q103 425 103 410Q103 394 116.5 387Q130 380 146 380Q162 380 174.5 385.5Q187 391 192 401Z" glyph-name="ordfeminine" horiz-adv-x="308" unicode="&#170;" /><glyph d="M314 468Q314 432 303 403.5Q292 375 271.5 354Q251 333 223 321.5Q195 310 161 310Q127 310 99 321.5Q71 333 51 354Q31 375 19.5 403.5Q8 432 8 468Q8 502 19.5 531Q31 560 51 580.5Q71 601 99 613Q127 625 161 625Q195 625 223 613Q251 601 271.5 580.5Q292 560 303 531Q314 502 314 468ZM214 468Q214 500 200.5 520.5Q187 541 161 541Q136 541 122.5 520.5Q109 500 109 468Q109 436 122.5 415.5Q136 395 161 395Q187 395 200.5 415.5Q214 436 214 468Z" glyph-name="ordmasculine" horiz-adv-x="323" unicode="&#186;" /><glyph d="M414 472 463 436 417 380Q439 353 453 317Q469 275 469 223Q469 172 453 129Q437 86 408.5 55Q380 24 339.5 7Q299 -10 250 -10Q201 -10 160 7Q142 14 126 25L83 -28L34 9L81 66Q60 93 47 129Q31 172 31 223Q31 275 47 317.5Q63 360 91.5 391.5Q120 423 160.5 440Q201 457 250 457Q299 457 339 440Q357 432 373 422ZM349 223Q349 251 342 275Q340 280 339 284L196 110Q202 106 208 103Q226 93 250 93Q273 93 291.5 103Q310 113 322.5 130.5Q335 148 342 171.5Q349 195 349 223ZM292 344Q274 354 250 354Q227 354 208.5 344Q190 334 177.5 316.5Q165 299 158.5 275Q152 251 152 223Q152 195 158 171Q159 167 160 162L303 337Q298 341 292 344Z" glyph-name="oslash" horiz-adv-x="500" unicode="&#248;" /><glyph d="M188 508 267 650H390L300 508ZM414 472 463 436 417 380Q439 353 453 317Q469 275 469 223Q469 172 453 129Q437 86 408.5 55Q380 24 339.5 7Q299 -10 250 -10Q201 -10 160 7Q142 14 126 25L83 -28L34 9L81 66Q60 93 47 129Q31 172 31 223Q31 275 47 317.5Q63 360 91.5 391.5Q120 423 160.5 440Q201 457 250 457Q299 457 339 440Q357 432 373 422ZM349 223Q349 251 342 275Q340 280 339 284L196 110Q202 106 208 103Q226 93 250 93Q273 93 291.5 103Q310 113 322.5 130.5Q335 148 342 171.5Q349 195 349 223ZM292 344Q274 354 250 354Q227 354 208.5 344Q190 334 177.5 316.5Q165 299 158.5 275Q152 251 152 223Q152 195 158 171Q159 167 160 162L303 337Q298 341 292 344Z" glyph-name="oslashacute" horiz-adv-x="500" unicode="&#511;" /><glyph d="M464 223Q464 172 448 129Q432 86 403.5 55Q375 24 334.5 7Q294 -10 245 -10Q196 -10 155.5 7Q115 24 86.5 55Q58 86 42 129Q26 172 26 223Q26 275 42 317.5Q58 360 86.5 391.5Q115 423 155.5 440Q196 457 245 457Q294 457 334.5 440Q375 423 403.5 391.5Q432 360 448 317.5Q464 275 464 223ZM341 223Q341 251 335 275Q329 299 316.5 316Q304 333 286 342.5Q268 352 245 352Q222 352 204 342.5Q186 333 173.5 316Q161 299 155 275Q149 251 149 223Q149 195 155 171.5Q161 148 173.5 131Q186 114 204 104Q222 94 245 94Q268 94 286 104Q304 114 316.5 131Q329 148 335 171.5Q341 195 341 223ZM388 643Q388 614 383.5 588Q379 562 368.5 544Q358 526 342 515Q326 504 303 504Q286 504 272.5 511Q259 518 247.5 527Q236 536 225 543Q214 550 203 550Q189 550 181.5 538.5Q174 527 174 508H103Q103 537 107.5 562.5Q112 588 122.5 607Q133 626 149.5 636.5Q166 647 188 647Q205 647 218.5 640Q232 633 244 624Q256 615 266.5 608Q277 601 288 601Q302 601 309.5 612.5Q317 624 317 643Z" glyph-name="otilde" horiz-adv-x="490" unicode="&#245;" /><glyph d="M178 -165H54V447H178V409Q185 418 197 427Q209 436 223.5 442.5Q238 449 255 453Q272 457 290 457Q339 457 376.5 438Q414 419 440.5 387Q467 355 480.5 312.5Q494 270 494 223Q494 176 480.5 133.5Q467 91 440.5 59.5Q414 28 376.5 9Q339 -10 290 -10Q272 -10 255 -6Q238 -2 223.5 4.5Q209 11 197 19.5Q185 28 178 37ZM178 150Q189 127 212 112.5Q235 98 263 98Q288 98 308 107.5Q328 117 341.5 133.5Q355 150 362.5 173Q370 196 370 223Q370 250 362.5 273Q355 296 341.5 312.5Q328 329 308 339Q288 349 263 349Q234 349 211.5 334.5Q189 320 178 297Z" glyph-name="p" horiz-adv-x="520" unicode="p" /><glyph d="M388 614H479V-90H388ZM233 259Q194 259 154.5 269Q115 279 83.5 300.5Q52 322 32.5 356Q13 390 13 437Q13 484 32.5 517Q52 550 83.5 571.5Q115 593 154.5 603.5Q194 614 233 614H324V-90H233Z" glyph-name="paragraph" horiz-adv-x="538" unicode="&#182;" /><glyph d="M30 283Q30 353 49.5 413Q69 473 104.5 520.5Q140 568 190.5 601.5Q241 635 305 650V525Q271 516 242 495.5Q213 475 192.5 444Q172 413 160 372.5Q148 332 148 283Q148 234 160 193.5Q172 153 192.5 122Q213 91 242 70.5Q271 50 305 41V-84Q241 -69 190.5 -35.5Q140 -2 104.5 45.5Q69 93 49.5 153Q30 213 30 283Z" glyph-name="parenleft" horiz-adv-x="325" unicode="(" /><glyph d="M30 303Q30 373 49.5 433Q69 493 104.5 540.5Q140 588 190.5 621.5Q241 655 305 670V545Q271 536 242 515.5Q213 495 192.5 464Q172 433 160 392.5Q148 352 148 303Q148 254 160 213.5Q172 173 192.5 142Q213 111 242 90.5Q271 70 305 61V-64Q241 -49 190.5 -15.5Q140 18 104.5 65.5Q69 113 49.5 173Q30 233 30 303Z" glyph-name="parenleft.cap" horiz-adv-x="325" /><glyph d="M295 283Q295 213 275.5 153Q256 93 220.5 45.5Q185 -2 134 -35.5Q83 -69 20 -84V41Q54 50 82.5 70.5Q111 91 132 122Q153 153 165 193.5Q177 234 177 283Q177 332 165 372.5Q153 413 132 444Q111 475 82.5 495.5Q54 516 20 525V650Q83 635 134 601.5Q185 568 220.5 520.5Q256 473 275.5 413Q295 353 295 283Z" glyph-name="parenright" horiz-adv-x="325" unicode=")" /><glyph d="M295 303Q295 233 275.5 173Q256 113 220.5 65.5Q185 18 134 -15.5Q83 -49 20 -64V61Q54 70 82.5 90.5Q111 111 132 142Q153 173 165 213.5Q177 254 177 303Q177 352 165 392.5Q153 433 132 464Q111 495 82.5 515.5Q54 536 20 545V670Q83 655 134 621.5Q185 588 220.5 540.5Q256 493 275.5 433Q295 373 295 303Z" glyph-name="parenright.cap" horiz-adv-x="325" /><glyph d="M483 614H566L186 0H103ZM110 481Q110 469 114.5 458.5Q119 448 127 440Q135 432 145.5 427.5Q156 423 168 423Q180 423 191 427.5Q202 432 210.5 440Q219 448 223.5 458.5Q228 469 228 481Q228 506 210.5 523.5Q193 541 168 541Q156 541 145.5 536.5Q135 532 127 523.5Q119 515 114.5 504Q110 493 110 481ZM642 133Q642 103 631 77Q620 51 601 32Q582 13 556 1.5Q530 -10 501 -10Q471 -10 445 1.5Q419 13 400 32Q381 51 369.5 77Q358 103 358 133Q358 162 369.5 188Q381 214 400 233Q419 252 445 263Q471 274 501 274Q530 274 556 263Q582 252 601 233Q620 214 631 188Q642 162 642 133ZM311 481Q311 452 299.5 426Q288 400 269 381Q250 362 224 351Q198 340 168 340Q139 340 113 351Q87 362 68 381Q49 400 38 426Q27 452 27 481Q27 511 38 537Q49 563 68 582Q87 601 113 612.5Q139 624 168 624Q198 624 224 612.5Q250 601 269 582Q288 563 299.5 537Q311 511 311 481ZM559 133Q559 145 554.5 155.5Q550 166 542 174Q534 182 523.5 186.5Q513 191 501 191Q489 191 478 186.5Q467 182 458.5 174Q450 166 445.5 155.5Q441 145 441 133Q441 108 458.5 90.5Q476 73 501 73Q513 73 523.5 77.5Q534 82 542 90.5Q550 99 554.5 110Q559 121 559 133Z" glyph-name="percent" horiz-adv-x="669" unicode="%" /><glyph d="M20 501Q20 526 29.5 548.5Q39 571 55.5 588Q72 605 94 614.5Q116 624 142 624Q167 624 189.5 614.5Q212 605 228.5 588Q245 571 254.5 548.5Q264 526 264 501Q264 476 254.5 454Q245 432 228.5 415.5Q212 399 189.5 389.5Q167 380 142 380Q116 380 94 389.5Q72 399 55.5 415.5Q39 432 29.5 454Q20 476 20 501ZM91 501Q91 490 95 481Q99 472 105.5 465Q112 458 121.5 454.5Q131 451 142 451Q152 451 161.5 454.5Q171 458 178 465Q185 472 189 481Q193 490 193 501Q193 523 178 538Q163 553 142 553Q131 553 121.5 549Q112 545 105.5 538Q99 531 95 521.5Q91 512 91 501ZM501 113Q501 87 491.5 65Q482 43 465 26Q448 9 426 -0.5Q404 -10 379 -10Q353 -10 331 -0.5Q309 9 292 26Q275 43 265.5 65Q256 87 256 113Q256 138 265.5 160Q275 182 292 198.5Q309 215 331 224.5Q353 234 379 234Q404 234 426 224.5Q448 215 465 198.5Q482 182 491.5 160Q501 138 501 113ZM429 113Q429 124 425.5 133Q422 142 415 149Q408 156 399 159.5Q390 163 379 163Q368 163 358.5 159.5Q349 156 342 149Q335 142 331 133Q327 124 327 113Q327 91 342.5 76Q358 61 379 61Q390 61 399 65Q408 69 415 76Q422 83 425.5 92.5Q429 102 429 113ZM406 614H489L114 0H32Z" glyph-name="percent.lt" horiz-adv-x="520" /><glyph d="M27 72Q27 106 49.5 129Q72 152 105 152Q121 152 135.5 145.5Q150 139 160.5 129Q171 119 177.5 104.5Q184 90 184 72Q184 55 177.5 41Q171 27 160.5 16.5Q150 6 135.5 -0.5Q121 -7 105 -7Q89 -7 74.5 -0.5Q60 6 50 16.5Q40 27 33.5 41Q27 55 27 72Z" glyph-name="period" horiz-adv-x="211" unicode="." /><glyph d="M52 72Q52 106 74.5 129Q97 152 130 152Q146 152 160.5 145.5Q175 139 185.5 129Q196 119 202.5 104.5Q209 90 209 72Q209 55 202.5 41Q196 27 185.5 16.5Q175 6 160.5 -0.5Q146 -7 130 -7Q114 -7 99.5 -0.5Q85 6 75 16.5Q65 27 58.5 41Q52 55 52 72Z" glyph-name="period.tab" horiz-adv-x="260" /><glyph d="M29 262Q29 296 51.5 319Q74 342 107 342Q123 342 137.5 335.5Q152 329 162.5 318.5Q173 308 179.5 293.5Q186 279 186 262Q186 245 179.5 230.5Q173 216 162.5 205.5Q152 195 137.5 189Q123 183 107 183Q91 183 76.5 189Q62 195 52 205.5Q42 216 35.5 230.5Q29 245 29 262Z" glyph-name="periodcentered" horiz-adv-x="215" unicode="&#183;" /><glyph d="M29 300Q29 333 51.5 356Q74 379 107 379Q123 379 137.5 373Q152 367 162.5 356.5Q173 346 179.5 331.5Q186 317 186 300Q186 282 179.5 268Q173 254 162.5 243.5Q152 233 137.5 226.5Q123 220 107 220Q91 220 76.5 226.5Q62 233 52 243.5Q42 254 35.5 268Q29 282 29 300Z" glyph-name="periodcentered.cap" horiz-adv-x="215" /><glyph d="M957 133Q957 103 946 77Q935 51 915.5 32Q896 13 870.5 1.5Q845 -10 815 -10Q786 -10 759.5 1.5Q733 13 714 32Q695 51 684 77Q673 103 673 133Q673 162 684 188Q695 214 714 233Q733 252 759.5 263Q786 274 815 274Q845 274 870.5 263Q896 252 915.5 233Q935 214 946 188Q957 162 957 133ZM27 481Q27 511 38 537Q49 563 68 582Q87 601 113 612.5Q139 624 168 624Q198 624 224 612.5Q250 601 269 582Q288 563 299.5 537Q311 511 311 481Q311 452 299.5 426Q288 400 269 381Q250 362 224 351Q198 340 168 340Q139 340 113 351Q87 362 68 381Q49 400 38 426Q27 452 27 481ZM642 133Q642 103 631 77Q620 51 601 32Q582 13 556 1.5Q530 -10 501 -10Q471 -10 445 1.5Q419 13 400 32Q381 51 369.5 77Q358 103 358 133Q358 162 369.5 188Q381 214 400 233Q419 252 445 263Q471 274 501 274Q530 274 556 263Q582 252 601 233Q620 214 631 188Q642 162 642 133ZM483 614H566L186 0H103ZM874 133Q874 145 869.5 155.5Q865 166 857 174Q849 182 838 186.5Q827 191 815 191Q803 191 792.5 186.5Q782 182 773.5 174Q765 166 760 155.5Q755 145 755 133Q755 108 773 90.5Q791 73 815 73Q827 73 838 77.5Q849 82 857 90.5Q865 99 869.5 110Q874 121 874 133ZM559 133Q559 145 554.5 155.5Q550 166 542 174Q534 182 523.5 186.5Q513 191 501 191Q489 191 478 186.5Q467 182 458.5 174Q450 166 445.5 155.5Q441 145 441 133Q441 108 458.5 90.5Q476 73 501 73Q513 73 523.5 77.5Q534 82 542 90.5Q550 99 554.5 110Q559 121 559 133ZM110 481Q110 469 114.5 458.5Q119 448 127 440Q135 432 145.5 427.5Q156 423 168 423Q180 423 191 427.5Q202 432 210.5 440Q219 448 223.5 458.5Q228 469 228 481Q228 506 210.5 523.5Q193 541 168 541Q156 541 145.5 536.5Q135 532 127 523.5Q119 515 114.5 504Q110 493 110 481Z" glyph-name="perthousand" horiz-adv-x="984" unicode="&#8240;" /><glyph d="M420 614H503L118 0H35ZM100 501Q100 490 104 481Q108 472 114.5 465Q121 458 130.5 454.5Q140 451 151 451Q161 451 170.5 454.5Q180 458 187 465Q194 472 198 481Q202 490 202 501Q202 523 187 538Q172 553 151 553Q140 553 130.5 549Q121 545 114.5 538Q108 531 104 521.5Q100 512 100 501ZM510 113Q510 87 500.5 65Q491 43 474 26Q457 9 435 -0.5Q413 -10 388 -10Q362 -10 340 -0.5Q318 9 301 26Q284 43 274.5 65Q265 87 265 113Q265 138 274.5 160Q284 182 301 198.5Q318 215 340 224.5Q362 234 388 234Q413 234 435 224.5Q457 215 474 198.5Q491 182 500.5 160Q510 138 510 113ZM438 113Q438 124 434.5 133Q431 142 424 149Q417 156 408 159.5Q399 163 388 163Q377 163 367.5 159.5Q358 156 351 149Q344 142 340 133Q336 124 336 113Q336 91 351.5 76Q367 61 388 61Q399 61 408 65Q417 69 424 76Q431 83 434.5 92.5Q438 102 438 113ZM29 501Q29 526 38.5 548.5Q48 571 64.5 588Q81 605 103 614.5Q125 624 151 624Q176 624 198.5 614.5Q221 605 237.5 588Q254 571 263.5 548.5Q273 526 273 501Q273 476 263.5 454Q254 432 237.5 415.5Q221 399 198.5 389.5Q176 380 151 380Q125 380 103 389.5Q81 399 64.5 415.5Q48 432 38.5 454Q29 476 29 501ZM776 113Q776 87 766.5 65Q757 43 740 26Q723 9 701 -0.5Q679 -10 654 -10Q628 -10 606 -0.5Q584 9 567.5 26Q551 43 541 65Q531 87 531 113Q531 138 541 160Q551 182 567.5 198.5Q584 215 606 224.5Q628 234 654 234Q679 234 701 224.5Q723 215 740 198.5Q757 182 766.5 160Q776 138 776 113ZM705 113Q705 124 701 133Q697 142 690 149Q683 156 674 159.5Q665 163 654 163Q643 163 634 159.5Q625 156 618 149Q611 142 606.5 133Q602 124 602 113Q602 91 617.5 76Q633 61 654 61Q665 61 674 65Q683 69 690 76Q697 83 701 92.5Q705 102 705 113Z" glyph-name="perthousand.lt" horiz-adv-x="800" /><glyph d="M64 347H232V515H327V347H496V252H327V84H232V252H64Z" glyph-name="plus" horiz-adv-x="560" unicode="+" /><glyph d="M44 347H212V515H307V347H476V252H307V84H212V252H44Z" glyph-name="plus.lt" horiz-adv-x="520" /><glyph d="M75 418H239V548H329V418H494V328H329V198H239V328H75ZM75 153H494V63H75Z" glyph-name="plusminus" horiz-adv-x="569" unicode="&#177;" /><glyph d="M50 418H214V548H304V418H469V328H304V198H214V328H50ZM50 153H469V63H50Z" glyph-name="plusminus.lt" horiz-adv-x="520" /><glyph d="M669 307Q669 238 644 180Q619 122 576 79.5Q533 37 475 13.5Q417 -10 352 -10Q287 -10 229 13.5Q171 37 128 79.5Q85 122 60 180Q35 238 35 307Q35 376 60 434Q85 492 128 534.5Q171 577 229 600.5Q287 624 352 624Q417 624 475 600.5Q533 577 576 534.5Q619 492 644 434Q669 376 669 307ZM622 307Q622 366 600.5 415.5Q579 465 542.5 501Q506 537 456.5 557.5Q407 578 352 578Q296 578 247 557.5Q198 537 161.5 501Q125 465 103.5 415.5Q82 366 82 307Q82 248 103.5 198.5Q125 149 161.5 113Q198 77 247 56.5Q296 36 352 36Q407 36 456.5 56.5Q506 77 542.5 113Q579 149 600.5 198.5Q622 248 622 307ZM321 235V124H225V493H390Q450 493 487.5 460Q525 427 525 364Q525 301 487.5 268Q450 235 390 235ZM430 364Q430 384 418 396.5Q406 409 381 409H321V319H381Q406 319 418 331.5Q430 344 430 364Z" glyph-name="published" horiz-adv-x="704" /><glyph d="M342 37Q334 28 322.5 19.5Q311 11 296.5 4.5Q282 -2 264.5 -6Q247 -10 230 -10Q181 -10 143 9Q105 28 79 59.5Q53 91 39.5 133.5Q26 176 26 223Q26 270 39.5 312.5Q53 355 79 387Q105 419 143 438Q181 457 230 457Q247 457 264.5 453Q282 449 296.5 442.5Q311 436 322.5 427Q334 418 342 409V447H466V-165H342ZM342 297Q331 320 308 334.5Q285 349 257 349Q232 349 212 339Q192 329 178.5 312.5Q165 296 157.5 273Q150 250 150 223Q150 196 157.5 173Q165 150 178.5 133.5Q192 117 212 107.5Q232 98 257 98Q285 98 308 112.5Q331 127 342 150Z" glyph-name="q" horiz-adv-x="520" unicode="q" /><glyph d="M155 70Q155 87 161 101Q167 115 177.5 125Q188 135 202.5 141.5Q217 148 234 148Q267 148 290 126Q313 104 313 70Q313 38 290 15.5Q267 -7 234 -7Q217 -7 202.5 -1Q188 5 177.5 15Q167 25 161 39.5Q155 54 155 70ZM435 443Q435 415 425.5 391.5Q416 368 401.5 347Q387 326 369.5 306.5Q352 287 335 269Q312 244 305.5 228Q299 212 298 198H176Q177 216 180 230.5Q183 245 189.5 258.5Q196 272 206 286Q216 300 232 318Q245 333 258.5 346.5Q272 360 283 374Q294 388 300.5 403Q307 418 307 436Q307 469 286.5 489.5Q266 510 230 510Q191 510 170.5 485.5Q150 461 148 425H17Q21 468 38 504.5Q55 541 83 567.5Q111 594 148.5 609Q186 624 233 624Q279 624 317 611.5Q355 599 381 575.5Q407 552 421 518.5Q435 485 435 443Z" glyph-name="question" horiz-adv-x="455" unicode="?" /><glyph d="M301 448Q301 431 295 417Q289 403 278.5 393Q268 383 253.5 376.5Q239 370 222 370Q189 370 166 392Q143 414 143 448Q143 480 166 502.5Q189 525 222 525Q239 525 253.5 519Q268 513 278.5 503Q289 493 295 478.5Q301 464 301 448ZM21 75Q21 103 30.5 126.5Q40 150 54.5 171Q69 192 86.5 211.5Q104 231 121 249Q144 274 150.5 290Q157 306 158 320H280Q279 302 276 287.5Q273 273 266.5 259.5Q260 246 250 232Q240 218 224 200Q211 185 197.5 171.5Q184 158 173 144Q162 130 155.5 115Q149 100 149 82Q149 49 169.5 28.5Q190 8 226 8Q265 8 285.5 32.5Q306 57 308 93H439Q435 50 418 13.5Q401 -23 373 -49.5Q345 -76 307.5 -91Q270 -106 223 -106Q177 -106 139 -93.5Q101 -81 75 -57.5Q49 -34 35 -0.5Q21 33 21 75Z" glyph-name="questiondown" horiz-adv-x="455" unicode="&#191;" /><glyph d="M300 543Q300 526 294 512Q288 498 277.5 488Q267 478 252.5 472Q238 466 222 466Q188 466 165 488Q142 510 142 543Q142 576 165 598Q188 620 222 620Q238 620 252.5 614Q267 608 277.5 598Q288 588 294 574Q300 560 300 543ZM20 170Q20 198 29.5 222Q39 246 53.5 267Q68 288 85.5 307Q103 326 120 344Q143 369 150 385Q157 401 157 415H279Q278 397 275 383Q272 369 265.5 355Q259 341 248.5 327Q238 313 223 296Q210 280 196.5 266.5Q183 253 172.5 239Q162 225 155 210Q148 195 148 177Q148 145 168.5 124Q189 103 225 103Q264 103 284.5 127.5Q305 152 307 188H438Q433 145 416.5 108.5Q400 72 372 46Q344 20 306.5 4.5Q269 -11 222 -11Q176 -11 138 2Q100 15 74 38Q48 61 34 94.5Q20 128 20 170Z" glyph-name="questiondown.cap" horiz-adv-x="455" /><glyph d="M38 614H138V366H38ZM188 614H288V366H188Z" glyph-name="quotedbl" horiz-adv-x="326" unicode="&quot;" /><glyph d="M88 0Q63 5 45 23.5Q27 42 27 72Q27 105 49.5 126.5Q72 148 105 148Q138 148 161 126Q184 104 184 63Q184 40 174 16.5Q164 -7 151 -27L96 -110H17ZM282 0Q257 5 239 23.5Q221 42 221 72Q221 105 243.5 126.5Q266 148 300 148Q332 148 355 126Q378 104 378 63Q378 40 368.5 16.5Q359 -7 345 -27L291 -110H211Z" glyph-name="quotedblbase" horiz-adv-x="400" unicode="&#8222;" /><glyph d="M118 504Q143 499 161 480.5Q179 462 179 432Q179 399 156.5 377.5Q134 356 100 356Q68 356 45 377.5Q22 399 22 441Q22 464 31.5 487Q41 510 55 531L109 614H189ZM312 504Q337 499 355 480.5Q373 462 373 432Q373 399 350.5 377.5Q328 356 294 356Q262 356 239 377.5Q216 399 216 441Q216 464 225.5 487Q235 510 249 531L304 614H383Z" glyph-name="quotedblleft" horiz-adv-x="400" unicode="&#8220;" /><glyph d="M282 477Q257 481 239 499.5Q221 518 221 548Q221 581 243.5 602.5Q266 624 300 624Q332 624 355 602.5Q378 581 378 539Q378 516 368.5 493Q359 470 345 450L291 366H211ZM88 477Q63 481 45 499.5Q27 518 27 548Q27 581 49.5 602.5Q72 624 105 624Q138 624 161 602.5Q184 581 184 539Q184 516 174 493Q164 470 151 450L96 366H17Z" glyph-name="quotedblright" horiz-adv-x="400" unicode="&#8221;" /><glyph d="M118 504Q143 499 161 480.5Q179 462 179 432Q179 399 156.5 377.5Q134 356 100 356Q68 356 45 377.5Q22 399 22 441Q22 464 31.5 487Q41 510 55 531L109 614H189Z" glyph-name="quoteleft" horiz-adv-x="206" unicode="&#8216;" /><glyph d="M88 477Q63 481 45 499.5Q27 518 27 548Q27 581 49.5 602.5Q72 624 105 624Q138 624 161 602.5Q184 581 184 539Q184 516 174 493Q164 470 151 450L96 366H17Z" glyph-name="quoteright" horiz-adv-x="206" unicode="&#8217;" /><glyph d="M88 0Q63 5 45 23.5Q27 42 27 72Q27 105 49.5 126.5Q72 148 105 148Q138 148 161 126Q184 104 184 63Q184 40 174 16.5Q164 -7 151 -27L96 -110H17Z" glyph-name="quotesinglbase" horiz-adv-x="206" unicode="&#8218;" /><glyph d="M38 614H144V366H38Z" glyph-name="quotesingle" horiz-adv-x="182" unicode="&apos;" /><glyph d="M325 325Q312 333 296 336.5Q280 340 263 340Q232 340 208.5 324Q185 308 178 277V0H54V447H178V403Q192 427 219 442Q246 457 278 457Q295 457 307.5 454.5Q320 452 325 449Z" glyph-name="r" horiz-adv-x="351" unicode="r" /><glyph d="M325 325Q312 333 296 336.5Q280 340 263 340Q232 340 208.5 324Q185 308 178 277V0H54V447H178V403Q192 427 219 442Q246 457 278 457Q295 457 307.5 454.5Q320 452 325 449ZM130 508 209 650H332L242 508Z" glyph-name="racute" horiz-adv-x="351" unicode="&#341;" /><glyph d="M325 325Q312 333 296 336.5Q280 340 263 340Q232 340 208.5 324Q185 308 178 277V0H54V447H178V403Q192 427 219 442Q246 457 278 457Q295 457 307.5 454.5Q320 452 325 449ZM244 503H140L45 647H143L192 578L241 647H338Z" glyph-name="rcaron" horiz-adv-x="351" unicode="&#345;" /><glyph d="M325 325Q312 333 296 336.5Q280 340 263 340Q232 340 208.5 324Q185 308 178 277V0H54V447H178V403Q192 427 219 442Q246 457 278 457Q295 457 307.5 454.5Q320 452 325 449ZM94 -163Q73 -159 58.5 -143.5Q44 -128 44 -103Q44 -75 64.5 -57Q85 -39 115 -39Q143 -39 163.5 -57.5Q184 -76 184 -108Q184 -131 174.5 -149.5Q165 -168 151 -186L124 -225H49Z" glyph-name="rcommaaccent" horiz-adv-x="351" unicode="&#343;" /><glyph d="M384 441Q384 401 369.5 367.5Q355 334 330.5 309.5Q306 285 273 271.5Q240 258 203 258Q166 258 133 271.5Q100 285 75.5 309.5Q51 334 36.5 367.5Q22 401 22 441Q22 481 36.5 514.5Q51 548 75.5 572.5Q100 597 133 610.5Q166 624 203 624Q240 624 273 610.5Q306 597 330.5 572.5Q355 548 369.5 514.5Q384 481 384 441ZM351 441Q351 474 339.5 502Q328 530 308 550.5Q288 571 261 582Q234 593 203 593Q172 593 145 582Q118 571 98 550.5Q78 530 66.5 502Q55 474 55 441Q55 408 66.5 380Q78 352 98 331.5Q118 311 145 300Q172 289 203 289Q234 289 261 300Q288 311 308 331.5Q328 352 339.5 380Q351 408 351 441ZM182 407V346H128V538H218Q250 538 269.5 520.5Q289 503 289 471Q289 448 279.5 433.5Q270 419 252 413L296 346H237L199 407ZM237 471Q237 481 231 487Q225 493 212 493H182V450H212Q225 450 231 455.5Q237 461 237 471Z" glyph-name="registered" horiz-adv-x="407" unicode="&#174;" /><glyph d="M350 584Q350 563 342.5 545.5Q335 528 321 515Q307 502 289 494.5Q271 487 250 487Q229 487 211 494.5Q193 502 179.5 515Q166 528 158.5 545.5Q151 563 151 584Q151 604 158.5 622Q166 640 179.5 653Q193 666 211 673.5Q229 681 250 681Q271 681 289 673.5Q307 666 321 653Q335 640 342.5 622Q350 604 350 584ZM290 584Q290 601 278.5 612.5Q267 624 250 624Q234 624 222.5 612.5Q211 601 211 584Q211 567 222.5 556Q234 545 250 545Q267 545 278.5 556Q290 567 290 584Z" glyph-name="ring" horiz-adv-x="500" unicode="&#730;" /><glyph d="M350 743Q350 722 342.5 704.5Q335 687 321 674Q307 661 289 653.5Q271 646 250 646Q229 646 211 653.5Q193 661 179.5 674Q166 687 158.5 704.5Q151 722 151 743Q151 763 158.5 781Q166 799 179.5 812Q193 825 211 832.5Q229 840 250 840Q271 840 289 832.5Q307 825 321 812Q335 799 342.5 781Q350 763 350 743ZM290 743Q290 760 278.5 771.5Q267 783 250 783Q234 783 222.5 771.5Q211 760 211 743Q211 726 222.5 715Q234 704 250 704Q267 704 278.5 715Q290 726 290 743Z" glyph-name="ring.cap" horiz-adv-x="500" /><glyph d="M148 133Q155 108 175 96Q195 84 223 84Q237 84 249 87Q261 90 269 95Q277 100 281.5 108.5Q286 117 286 128Q286 143 275.5 151.5Q265 160 242 166L152 186Q101 198 68.5 226.5Q36 255 36 312Q36 345 49.5 371.5Q63 398 87 417Q111 436 143.5 446.5Q176 457 214 457Q298 457 345 420Q392 383 402 319H285Q279 338 262.5 350.5Q246 363 215 363Q193 363 174.5 352.5Q156 342 156 321Q156 308 165.5 299.5Q175 291 196 286L288 265Q347 250 377 218Q407 186 407 135Q407 101 393 74Q379 47 354.5 28.5Q330 10 296 0Q262 -10 224 -10Q183 -10 149 -0.5Q115 9 89 27.5Q63 46 46.5 72.5Q30 99 25 133Z" glyph-name="s" horiz-adv-x="437" unicode="s" /><glyph d="M148 133Q155 108 175 96Q195 84 223 84Q237 84 249 87Q261 90 269 95Q277 100 281.5 108.5Q286 117 286 128Q286 143 275.5 151.5Q265 160 242 166L152 186Q101 198 68.5 226.5Q36 255 36 312Q36 345 49.5 371.5Q63 398 87 417Q111 436 143.5 446.5Q176 457 214 457Q298 457 345 420Q392 383 402 319H285Q279 338 262.5 350.5Q246 363 215 363Q193 363 174.5 352.5Q156 342 156 321Q156 308 165.5 299.5Q175 291 196 286L288 265Q347 250 377 218Q407 186 407 135Q407 101 393 74Q379 47 354.5 28.5Q330 10 296 0Q262 -10 224 -10Q183 -10 149 -0.5Q115 9 89 27.5Q63 46 46.5 72.5Q30 99 25 133ZM158 508 237 650H360L270 508Z" glyph-name="sacute" horiz-adv-x="437" unicode="&#347;" /><glyph d="M148 133Q155 108 175 96Q195 84 223 84Q237 84 249 87Q261 90 269 95Q277 100 281.5 108.5Q286 117 286 128Q286 143 275.5 151.5Q265 160 242 166L152 186Q101 198 68.5 226.5Q36 255 36 312Q36 345 49.5 371.5Q63 398 87 417Q111 436 143.5 446.5Q176 457 214 457Q298 457 345 420Q392 383 402 319H285Q279 338 262.5 350.5Q246 363 215 363Q193 363 174.5 352.5Q156 342 156 321Q156 308 165.5 299.5Q175 291 196 286L288 265Q347 250 377 218Q407 186 407 135Q407 101 393 74Q379 47 354.5 28.5Q330 10 296 0Q262 -10 224 -10Q183 -10 149 -0.5Q115 9 89 27.5Q63 46 46.5 72.5Q30 99 25 133ZM273 503H169L74 647H172L221 578L270 647H367Z" glyph-name="scaron" horiz-adv-x="437" unicode="&#353;" /><glyph d="M148 133Q155 108 175 96Q195 84 223 84Q237 84 249 87Q261 90 269 95Q277 100 281.5 108.5Q286 117 286 128Q286 143 275.5 151.5Q265 160 242 166L152 186Q101 198 68.5 226.5Q36 255 36 312Q36 345 49.5 371.5Q63 398 87 417Q111 436 143.5 446.5Q176 457 214 457Q298 457 345 420Q392 383 402 319H285Q279 338 262.5 350.5Q246 363 215 363Q193 363 174.5 352.5Q156 342 156 321Q156 308 165.5 299.5Q175 291 196 286L288 265Q347 250 377 218Q407 186 407 135Q407 101 393 74Q379 47 354.5 28.5Q330 10 296 0Q262 -10 224 -10Q183 -10 149 -0.5Q115 9 89 27.5Q63 46 46.5 72.5Q30 99 25 133ZM96 -186 166 -47H280L206 -186Z" glyph-name="scedilla" horiz-adv-x="437" unicode="&#351;" /><glyph d="M148 133Q155 108 175 96Q195 84 223 84Q237 84 249 87Q261 90 269 95Q277 100 281.5 108.5Q286 117 286 128Q286 143 275.5 151.5Q265 160 242 166L152 186Q101 198 68.5 226.5Q36 255 36 312Q36 345 49.5 371.5Q63 398 87 417Q111 436 143.5 446.5Q176 457 214 457Q298 457 345 420Q392 383 402 319H285Q279 338 262.5 350.5Q246 363 215 363Q193 363 174.5 352.5Q156 342 156 321Q156 308 165.5 299.5Q175 291 196 286L288 265Q347 250 377 218Q407 186 407 135Q407 101 393 74Q379 47 354.5 28.5Q330 10 296 0Q262 -10 224 -10Q183 -10 149 -0.5Q115 9 89 27.5Q63 46 46.5 72.5Q30 99 25 133ZM367 503H270L221 571L172 503H74L169 647H273Z" glyph-name="scircumflex" horiz-adv-x="437" unicode="&#349;" /><glyph d="M148 133Q155 108 175 96Q195 84 223 84Q237 84 249 87Q261 90 269 95Q277 100 281.5 108.5Q286 117 286 128Q286 143 275.5 151.5Q265 160 242 166L152 186Q101 198 68.5 226.5Q36 255 36 312Q36 345 49.5 371.5Q63 398 87 417Q111 436 143.5 446.5Q176 457 214 457Q298 457 345 420Q392 383 402 319H285Q279 338 262.5 350.5Q246 363 215 363Q193 363 174.5 352.5Q156 342 156 321Q156 308 165.5 299.5Q175 291 196 286L288 265Q347 250 377 218Q407 186 407 135Q407 101 393 74Q379 47 354.5 28.5Q330 10 296 0Q262 -10 224 -10Q183 -10 149 -0.5Q115 9 89 27.5Q63 46 46.5 72.5Q30 99 25 133ZM200 -163Q179 -159 164.5 -143.5Q150 -128 150 -103Q150 -75 170.5 -57Q191 -39 221 -39Q249 -39 269.5 -57.5Q290 -76 290 -108Q290 -131 280.5 -149.5Q271 -168 257 -186L230 -225H155Z" glyph-name="scommaaccent" horiz-adv-x="437" unicode="&#537;" /><glyph d="M382 103Q391 90 397 74Q403 58 403 38Q403 6 390 -19Q377 -44 354.5 -62Q332 -80 300.5 -90Q269 -100 231 -100Q146 -100 99 -60Q52 -20 44 46H157Q161 23 178 7Q195 -9 228 -9Q251 -9 268 2Q285 13 285 35Q285 54 272 65.5Q259 77 238 90L128 157Q105 171 85 186Q65 201 50.5 218.5Q36 236 28 257Q20 278 20 304Q20 340 37.5 370.5Q55 401 89 421Q79 433 73.5 449.5Q68 466 68 486Q68 518 80.5 543Q93 568 116 586Q139 604 170.5 614Q202 624 239 624Q325 624 372 583.5Q419 543 427 478H314Q310 501 293 517Q276 533 243 533Q220 533 202.5 522Q185 511 185 489Q185 479 188.5 472Q192 465 198.5 458.5Q205 452 213.5 446Q222 440 232 434L343 367Q366 353 385.5 338Q405 323 419.5 305.5Q434 288 442.5 267Q451 246 451 220Q451 184 433 153Q415 122 382 103ZM305 169Q324 173 331.5 186.5Q339 200 339 214Q339 235 323 249.5Q307 264 287 277L166 355Q147 351 139.5 337.5Q132 324 132 310Q132 289 147.5 274.5Q163 260 183 247Z" glyph-name="section" horiz-adv-x="471" unicode="&#167;" /><glyph d="M87 3Q62 8 44 26Q26 44 26 75Q26 108 48.5 129Q71 150 105 150Q137 150 160 128.5Q183 107 183 66Q183 43 173.5 19.5Q164 -4 150 -24L93 -110H14ZM26 358Q26 392 48.5 414.5Q71 437 104 437Q121 437 135.5 431Q150 425 160 414.5Q170 404 176.5 389.5Q183 375 183 358Q183 341 176.5 326.5Q170 312 160 301.5Q150 291 135.5 284.5Q121 278 104 278Q88 278 74 284.5Q60 291 49.5 301.5Q39 312 32.5 326.5Q26 341 26 358Z" glyph-name="semicolon" horiz-adv-x="210" unicode=";" /><glyph d="M112 3Q87 8 69 26Q51 44 51 75Q51 108 73.5 129Q96 150 130 150Q162 150 185 128.5Q208 107 208 66Q208 43 198.5 19.5Q189 -4 175 -24L118 -110H39ZM51 358Q51 392 73.5 414.5Q96 437 129 437Q146 437 160.5 431Q175 425 185 414.5Q195 404 201.5 389.5Q208 375 208 358Q208 341 201.5 326.5Q195 312 185 301.5Q175 291 160.5 284.5Q146 278 129 278Q113 278 99 284.5Q85 291 74.5 301.5Q64 312 57.5 326.5Q51 341 51 358Z" glyph-name="semicolon.tab" horiz-adv-x="260" /><glyph d="M230 0H102L298 503H16V614H431V523Z" glyph-name="seven" horiz-adv-x="457" unicode="7" /><glyph d="M269 0H140L344 503H42V614H477V523Z" glyph-name="seven.lt" horiz-adv-x="520" /><glyph d="M351 459Q341 487 321.5 503.5Q302 520 269 520Q242 520 220.5 505.5Q199 491 184 467.5Q169 444 160 414Q151 384 150 349V338Q157 352 170 364Q183 376 199.5 384.5Q216 393 236.5 398Q257 403 279 403Q325 403 362.5 387Q400 371 426 343.5Q452 316 466 279Q480 242 480 201Q480 158 465 119Q450 80 422 51.5Q394 23 353.5 6.5Q313 -10 262 -10Q204 -10 155.5 17Q107 44 76 101Q53 142 43 188.5Q33 235 33 294Q33 366 49.5 426.5Q66 487 96 531Q126 575 170 599.5Q214 624 269 624Q357 624 407 580.5Q457 537 475 459ZM161 198Q161 175 168.5 156Q176 137 189 123Q202 109 221 102Q240 95 263 95Q285 95 303.5 102Q322 109 335.5 123Q349 137 356.5 156Q364 175 364 198Q364 222 356.5 241.5Q349 261 335.5 275Q322 289 303.5 297Q285 305 263 305Q240 305 221 297.5Q202 290 189 276Q176 262 168.5 242.5Q161 223 161 198Z" glyph-name="six" horiz-adv-x="511" unicode="6" /><glyph d="M358 459Q348 487 328.5 503.5Q309 520 276 520Q249 520 227.5 504.5Q206 489 196 460.5Q186 432 182 393Q181 381 182 366Q199 380 206 384Q223 393 243.5 398Q264 403 286 403Q332 403 369.5 387Q407 371 433 343.5Q459 316 473 279Q487 242 487 201Q487 158 472 119Q457 80 429 51.5Q401 23 360.5 6.5Q320 -10 269 -10Q211 -10 162.5 17Q114 44 83 101Q60 142 50 188.5Q40 235 40 294Q40 366 56.5 426.5Q73 487 103 531Q133 575 177 599.5Q221 624 276 624Q364 624 414 580.5Q464 537 482 459ZM168 198Q168 175 175.5 156Q183 137 196 123Q209 109 228 102Q247 95 270 95Q292 95 310.5 102Q329 109 342.5 123Q356 137 363.5 156Q371 175 371 198Q371 222 363.5 241.5Q356 261 342.5 275Q329 289 310.5 297Q292 305 270 305Q247 305 228 297.5Q209 290 196 276Q183 262 175.5 242.5Q168 223 168 198Z" glyph-name="six.lt" horiz-adv-x="520" /><glyph d="M253 650H367L119 -84H5Z" glyph-name="slash" horiz-adv-x="372" unicode="/" /><glyph d="M253 670H367L119 -64H5Z" glyph-name="slash.cap" horiz-adv-x="372" /><glyph glyph-name="space" horiz-adv-x="212" unicode=" " /><glyph glyph-name="space.tab" horiz-adv-x="260" /><glyph d="M217 194Q217 168 212 143Q207 118 196 103H472V0H27V103H79Q89 120 94 140.5Q99 161 99 194V254H27V351H99V422Q99 465 112 501.5Q125 538 150 565.5Q175 593 210.5 608.5Q246 624 290 624Q331 624 363 612Q395 600 419 578Q443 556 456.5 525Q470 494 473 458H359Q355 486 338.5 502.5Q322 519 292 519Q254 519 235.5 492.5Q217 466 217 424V351H346V254H217Z" glyph-name="sterling" horiz-adv-x="496" unicode="&#163;" /><glyph d="M227 194Q227 168 222 143Q217 118 206 103H482V0H37V103H89Q99 120 104 140.5Q109 161 109 194V254H37V351H109V422Q109 465 122 501.5Q135 538 160 565.5Q185 593 220.5 608.5Q256 624 300 624Q341 624 373 612Q405 600 429 578Q453 556 466.5 525Q480 494 483 458H369Q365 486 348.5 502.5Q332 519 302 519Q264 519 245.5 492.5Q227 466 227 424V351H356V254H227Z" glyph-name="sterling.lt" horiz-adv-x="520" /><glyph d="M81 347H13V447H81V568H204V447H302V347H204V151Q204 124 217.5 112Q231 100 255 100Q269 100 283.5 104Q298 108 309 114V5Q296 -2 275 -5.5Q254 -9 229 -9Q161 -9 121 25.5Q81 60 81 135Z" glyph-name="t" horiz-adv-x="345" unicode="t" /><glyph d="M29 285H85V355H17V447H85V568H208V447H306V355H208V285H286V199H208V152Q208 126 221.5 113.5Q235 101 259 101Q273 101 287.5 105Q302 109 313 116V5Q300 -2 279 -5.5Q258 -9 233 -9Q165 -9 125 25.5Q85 60 85 135V199H29Z" glyph-name="tbar" horiz-adv-x="349" unicode="&#359;" /><glyph d="M81 347H13V447H81V568H204V447H302V347H204V152Q204 126 217.5 113.5Q231 101 255 101Q269 101 283.5 105Q298 109 309 116V5Q296 -2 275 -5.5Q254 -9 229 -9Q161 -9 121 25.5Q81 60 81 135ZM246 490 284 657H381L342 490Z" glyph-name="tcaron" horiz-adv-x="345" unicode="&#357;" /><glyph d="M81 347H13V447H81V568H204V447H302V347H204V152Q204 126 217.5 113.5Q231 101 255 101Q269 101 283.5 105Q298 109 309 116V5Q296 -2 275 -5.5Q254 -9 229 -9Q161 -9 121 25.5Q81 60 81 135ZM179 -163Q158 -159 143.5 -143.5Q129 -128 129 -103Q129 -75 149.5 -57Q170 -39 200 -39Q229 -39 249 -57.5Q269 -76 269 -108Q269 -131 259.5 -149.5Q250 -168 237 -186L209 -225H134Z" glyph-name="tcommaaccent" horiz-adv-x="345" unicode="&#355;" /><glyph d="M178 -165H54V650H178V409Q185 418 197 427Q209 436 223.5 442.5Q238 449 255 453Q272 457 290 457Q339 457 376.5 438Q414 419 440.5 387Q467 355 480.5 312.5Q494 270 494 223Q494 176 480.5 133.5Q467 91 440.5 59.5Q414 28 376.5 9Q339 -10 290 -10Q272 -10 255 -6Q238 -2 223.5 4.5Q209 11 197 19.5Q185 28 178 37ZM178 150Q189 127 212 112.5Q235 98 263 98Q288 98 308 107.5Q328 117 341.5 133.5Q355 150 362.5 173Q370 196 370 223Q370 250 362.5 273Q355 296 341.5 312.5Q328 329 308 339Q288 349 263 349Q234 349 211.5 334.5Q189 320 178 297Z" glyph-name="thorn" horiz-adv-x="520" unicode="&#254;" /><glyph d="M189 362H224Q244 362 261 366.5Q278 371 290 381Q302 391 309 405.5Q316 420 316 439Q316 472 295 493.5Q274 515 236 515Q194 515 171 491Q148 467 145 431H22Q27 472 44 507Q61 542 88.5 568Q116 594 153.5 609Q191 624 237 624Q284 624 321 610.5Q358 597 383.5 573.5Q409 550 422.5 517Q436 484 436 445Q436 423 431 402.5Q426 382 416 364.5Q406 347 392 333.5Q378 320 362 312Q384 303 399.5 288.5Q415 274 425.5 256.5Q436 239 441.5 219Q447 199 447 178Q447 138 432.5 103.5Q418 69 391 44Q364 19 325 4.5Q286 -10 237 -10Q188 -10 147 4.5Q106 19 77 45Q48 71 30.5 108Q13 145 10 190H136Q140 149 165 123.5Q190 98 236 98Q275 98 300.5 120.5Q326 143 326 180Q326 199 319 215Q312 231 298.5 241.5Q285 252 267 257.5Q249 263 228 263H189Z" glyph-name="three" horiz-adv-x="475" unicode="3" /><glyph d="M217 362H255Q275 362 292 366.5Q309 371 321 381Q333 391 340 405.5Q347 420 347 439Q347 472 324.5 494Q302 516 263 516Q221 516 198 491.5Q175 467 172 431H49Q54 472 71 507Q88 542 116 568Q144 594 182 609Q220 624 266 624Q314 624 351.5 610.5Q389 597 415 573.5Q441 550 454.5 517Q468 484 468 445Q468 423 462 402.5Q456 382 446.5 364.5Q437 347 423 333.5Q409 320 393 312Q414 303 430.5 288.5Q447 274 457.5 256Q468 238 473 217.5Q478 197 478 176Q478 136 463.5 102Q449 68 422 43Q395 18 355 4Q315 -10 266 -10Q215 -10 174 4Q133 18 104 44Q75 70 58 107.5Q41 145 37 190H164Q168 150 192.5 124Q217 98 264 98Q304 98 330 121Q356 144 356 180Q356 199 348.5 215Q341 231 328 241.5Q315 252 297 257.5Q279 263 258 263H217Z" glyph-name="three.lt" horiz-adv-x="520" /><glyph d="M202 0H112L543 614H633ZM140 478H164Q181 478 192.5 486Q204 494 204 511Q204 525 195 534.5Q186 544 170 544Q153 544 143 532.5Q133 521 131 506H42Q45 529 54.5 549.5Q64 570 79.5 585.5Q95 601 117 610Q139 619 167 619Q225 619 257 590Q289 561 289 513Q289 492 278.5 472.5Q268 453 252 444Q272 435 282 416Q292 397 292 376Q292 327 259.5 297Q227 267 168 267Q109 267 75.5 298.5Q42 330 38 383H131Q133 365 142.5 354Q152 343 171 343Q187 343 197.5 352.5Q208 362 208 379Q208 396 196.5 404Q185 412 167 412H140ZM515 137H569V192H648V137H696V61H648V0H569V61H417V130L523 341H612Z" glyph-name="threequarters" horiz-adv-x="736" unicode="&#190;" /><glyph d="M119 478H143Q160 478 171.5 486Q183 494 183 511Q183 525 174 534.5Q165 544 149 544Q132 544 122 532.5Q112 521 110 506H21Q24 529 33.5 549.5Q43 570 58.5 585.5Q74 601 96 610Q118 619 146 619Q204 619 236 590Q268 561 268 513Q268 492 257.5 472.5Q247 453 231 444Q251 435 261 416Q271 397 271 376Q271 327 238.5 297Q206 267 147 267Q88 267 54.5 298.5Q21 330 17 383H110Q112 365 121.5 354Q131 343 150 343Q166 343 176.5 352.5Q187 362 187 379Q187 396 175.5 404Q164 412 146 412H119Z" glyph-name="threesuperior" horiz-adv-x="295" unicode="&#179;" /><glyph d="M392 643Q392 614 387.5 588Q383 562 372.5 544Q362 526 346 515Q330 504 307 504Q290 504 276.5 511Q263 518 251.5 527Q240 536 229 543Q218 550 207 550Q193 550 185.5 538.5Q178 527 178 508H107Q107 537 111.5 562.5Q116 588 126.5 607Q137 626 153.5 636.5Q170 647 192 647Q209 647 222.5 640Q236 633 248 624Q260 615 270.5 608Q281 601 292 601Q306 601 313.5 612.5Q321 624 321 643Z" glyph-name="tilde" horiz-adv-x="500" unicode="&#732;" /><glyph d="M399 802Q399 773 394 747Q389 721 379 702.5Q369 684 352.5 673.5Q336 663 314 663Q296 663 281 669.5Q266 676 252.5 684Q239 692 226.5 698.5Q214 705 201 705Q187 705 179.5 695.5Q172 686 172 666H101Q101 696 105.5 721.5Q110 747 120.5 765.5Q131 784 147.5 794.5Q164 805 186 805Q204 805 219 798.5Q234 792 247 784Q260 776 272.5 769.5Q285 763 299 763Q312 763 319.5 773Q327 783 328 802Z" glyph-name="tilde.cap" horiz-adv-x="500" /><glyph d="M20 614H248V550H171V360H97V550H20ZM401 360 350 506V360H283V614H371L424 461L478 614H565V360H498V506L447 360Z" glyph-name="trademark" horiz-adv-x="602" unicode="&#8482;" /><glyph d="M317 436Q317 468 296 489Q275 510 238 510Q199 510 178.5 485.5Q158 461 156 425H24Q28 468 45.5 504.5Q63 541 90.5 567.5Q118 594 155 609Q192 624 238 624Q286 624 324 611Q362 598 388.5 574Q415 550 429 516Q443 482 443 441Q443 412 433 386Q423 360 406 335.5Q389 311 367 287Q345 263 322 238L203 111H450V0H26V83L220 288Q241 310 258.5 329.5Q276 349 289 366.5Q302 384 309.5 401Q317 418 317 436Z" glyph-name="two" horiz-adv-x="479" unicode="2" /><glyph d="M334 436Q334 468 313 489Q292 510 255 510Q216 510 195.5 485.5Q175 461 173 425H41Q45 468 62.5 504.5Q80 541 107.5 567.5Q135 594 172 609Q209 624 255 624Q303 624 341 611Q379 598 405.5 574Q432 550 446 516Q460 482 460 441Q460 412 450 385.5Q440 359 423.5 334.5Q407 310 384.5 286Q362 262 339 238L220 111H467V0H43V83L237 288Q257 311 274.5 330Q292 349 305.5 366.5Q319 384 326.5 401Q334 418 334 436Z" glyph-name="two.lt" horiz-adv-x="520" /><glyph d="M180 509Q180 522 172 530Q164 538 150 538Q135 538 126 527.5Q117 517 116 504H21Q24 529 34 549.5Q44 570 60 585.5Q76 601 98.5 610Q121 619 148 619Q205 619 238 590Q271 561 271 512Q271 479 252 454.5Q233 430 208 405L150 350H272V273H23V333L142 449Q161 468 170.5 481Q180 494 180 509Z" glyph-name="twosuperior" horiz-adv-x="297" unicode="&#178;" /><glyph d="M449 0H326V41Q307 20 276 5Q245 -10 206 -10Q131 -10 90 35Q49 80 49 155V447H173V180Q173 145 190.5 122.5Q208 100 245 100Q273 100 295.5 117Q318 134 325 162V447H449Z" glyph-name="u" horiz-adv-x="503" unicode="u" /><glyph d="M449 0H326V41Q307 20 276 5Q245 -10 206 -10Q131 -10 90 35Q49 80 49 155V447H173V180Q173 145 190.5 122.5Q208 100 245 100Q273 100 295.5 117Q318 134 325 162V447H449ZM191 508 270 650H393L303 508Z" glyph-name="uacute" horiz-adv-x="503" unicode="&#250;" /><glyph d="M449 0H326V41Q307 20 276 5Q245 -10 206 -10Q131 -10 90 35Q49 80 49 155V447H173V180Q173 145 190.5 122.5Q208 100 245 100Q273 100 295.5 117Q318 134 325 162V447H449ZM250 502Q220 502 196 511.5Q172 521 154 538.5Q136 556 126.5 582.5Q117 609 117 643H205Q205 617 216 601.5Q227 586 250 586Q273 586 284 601.5Q295 617 295 643H382Q382 609 372.5 582.5Q363 556 345.5 538.5Q328 521 303.5 511.5Q279 502 250 502Z" glyph-name="ubreve" horiz-adv-x="503" unicode="&#365;" /><glyph d="M449 0H326V41Q307 20 276 5Q245 -10 206 -10Q131 -10 90 35Q49 80 49 155V447H173V180Q173 145 190.5 122.5Q208 100 245 100Q273 100 295.5 117Q318 134 325 162V447H449ZM396 503H299L250 571L201 503H103L198 647H302Z" glyph-name="ucircumflex" horiz-adv-x="503" unicode="&#251;" /><glyph d="M449 0H326V41Q307 20 276 5Q245 -10 206 -10Q131 -10 90 35Q49 80 49 155V447H173V180Q173 145 190.5 122.5Q208 100 245 100Q273 100 295.5 117Q318 134 325 162V447H449ZM104 570Q104 599 123.5 618Q143 637 170 637Q184 637 196 631.5Q208 626 217 617Q226 608 231 596Q236 584 236 570Q236 543 217 523.5Q198 504 170 504Q143 504 123.5 523.5Q104 543 104 570ZM268 570Q268 599 287 618Q306 637 333 637Q347 637 359 631.5Q371 626 380.5 617Q390 608 395 596Q400 584 400 570Q400 543 380.5 523.5Q361 504 333 504Q306 504 287 523.5Q268 543 268 570Z" glyph-name="udieresis" horiz-adv-x="503" unicode="&#252;" /><glyph d="M449 0H326V41Q307 20 276 5Q245 -10 206 -10Q131 -10 90 35Q49 80 49 155V447H173V180Q173 145 190.5 122.5Q208 100 245 100Q273 100 295.5 117Q318 134 325 162V447H449ZM201 508 112 650H234L314 508Z" glyph-name="ugrave" horiz-adv-x="503" unicode="&#249;" /><glyph d="M449 0H326V41Q307 20 276 5Q245 -10 206 -10Q131 -10 90 35Q49 80 49 155V447H173V180Q173 145 190.5 122.5Q208 100 245 100Q273 100 295.5 117Q318 134 325 162V447H449ZM128 508 195 650H294L226 508ZM269 508 335 650H435L366 508Z" glyph-name="uhungarumlaut" horiz-adv-x="503" unicode="&#369;" /><glyph d="M449 0H326V41Q307 20 276 5Q245 -10 206 -10Q131 -10 90 35Q49 80 49 155V447H173V180Q173 145 190.5 122.5Q208 100 245 100Q273 100 295.5 117Q318 134 325 162V447H449ZM134 607H371V516H134Z" glyph-name="umacron" horiz-adv-x="503" unicode="&#363;" /><glyph d="M20 -42H361V-142H20Z" glyph-name="underscore" horiz-adv-x="381" unicode="_" /><glyph glyph-name="uni00A0" horiz-adv-x="212" unicode="&#160;" /><glyph d="M38 316H279V208H38Z" glyph-name="uni00AD" horiz-adv-x="321" unicode="&#173;" /><glyph d="M168 0H79L510 614H599ZM520 206H543Q560 206 571.5 214Q583 222 583 239Q583 253 574 261.5Q565 270 549 270Q533 270 523 259.5Q513 249 511 233H422Q425 256 434 276.5Q443 297 459 312.5Q475 328 497 337Q519 346 546 346Q604 346 636 317Q668 288 668 241Q668 219 657.5 200Q647 181 632 172Q651 162 661.5 143Q672 124 672 104Q672 55 639.5 25Q607 -5 547 -5Q488 -5 454.5 26Q421 57 418 110H511Q513 93 522.5 82.5Q532 72 550 72Q566 72 576 81Q586 90 586 106Q586 123 575 131Q564 139 547 139H520ZM210 273H119V510L31 467V559L146 614H210Z" glyph-name="uni2153" horiz-adv-x="717" unicode="&#8531;" /><glyph d="M235 0H146L577 614H666ZM202 512Q202 525 194 533.5Q186 542 172 542Q157 542 148 531.5Q139 521 138 508H43Q46 532 56 553Q66 574 82 589.5Q98 605 120.5 614Q143 623 170 623Q227 623 260 593.5Q293 564 293 516Q293 483 274 458.5Q255 434 230 409L172 354H294V276H45V337L164 453Q183 472 192.5 485Q202 498 202 512ZM587 205H610Q628 205 639.5 213Q651 221 651 239Q651 253 641.5 262Q632 271 616 271Q600 271 590 260Q580 249 578 233H489Q492 256 501 276.5Q510 297 526 312.5Q542 328 564 337Q586 346 613 346Q671 346 703 317Q735 288 735 241Q735 219 725 200Q715 181 699 172Q719 162 729 143Q739 124 739 104Q739 55 706.5 25Q674 -5 614 -5Q556 -5 522 26Q488 57 485 110H578Q579 93 589 82Q599 71 617 71Q634 71 644 80Q654 89 654 106Q654 123 643 131.5Q632 140 614 140H587Z" glyph-name="uni2154" horiz-adv-x="784" unicode="&#8532;" /><glyph d="M168 0H79L510 614H599ZM551 66Q569 66 580.5 76Q592 86 592 103Q592 119 580.5 128.5Q569 138 551 138Q532 138 520.5 128.5Q509 119 509 103Q509 86 520.5 76Q532 66 551 66ZM551 211Q567 211 577 220Q587 229 587 245Q587 260 577 269.5Q567 279 551 279Q535 279 524 269.5Q513 260 513 245Q513 229 524 220Q535 211 551 211ZM551 -5Q524 -5 500.5 2Q477 9 459 21.5Q441 34 430.5 52.5Q420 71 420 95Q420 125 435.5 145Q451 165 474 173Q454 184 442.5 203Q431 222 431 247Q431 271 441 290Q451 309 467.5 321.5Q484 334 505.5 340.5Q527 347 551 347Q574 347 595.5 340.5Q617 334 633.5 321.5Q650 309 660 290Q670 271 670 247Q670 222 658.5 203Q647 184 626 173Q649 165 664.5 145Q680 125 680 95Q680 71 670 52.5Q660 34 642.5 21.5Q625 9 601.5 2Q578 -5 551 -5ZM210 273H119V510L31 467V559L146 614H210Z" glyph-name="uni215B" horiz-adv-x="728" unicode="&#8539;" /><glyph d="M585 66Q603 66 614.5 76Q626 86 626 103Q626 119 614.5 128.5Q603 138 585 138Q566 138 554.5 128.5Q543 119 543 103Q543 86 554.5 76Q566 66 585 66ZM585 211Q601 211 611 220Q621 229 621 245Q621 260 611 269.5Q601 279 585 279Q568 279 557.5 269.5Q547 260 547 245Q547 229 557.5 220Q568 211 585 211ZM585 -5Q557 -5 533.5 2Q510 9 492.5 21.5Q475 34 464.5 52.5Q454 71 454 95Q454 125 469.5 145Q485 165 508 173Q488 184 476.5 203Q465 222 465 247Q465 271 474.5 290Q484 309 501 321.5Q518 334 539 340.5Q560 347 585 347Q608 347 629.5 340.5Q651 334 667.5 321.5Q684 309 694 290Q704 271 704 247Q704 222 692 203Q680 184 660 173Q683 165 698.5 145Q714 125 714 95Q714 71 704 52.5Q694 34 676.5 21.5Q659 9 635.5 2Q612 -5 585 -5ZM202 0H112L543 614H633ZM140 478H164Q181 478 192.5 486Q204 494 204 511Q204 525 195 534.5Q186 544 170 544Q153 544 143 532.5Q133 521 131 506H42Q45 529 54.5 549.5Q64 570 79.5 585.5Q95 601 117 610Q139 619 167 619Q225 619 257 590Q289 561 289 513Q289 492 278.5 472.5Q268 453 252 444Q272 435 282 416Q292 397 292 376Q292 327 259.5 297Q227 267 168 267Q109 267 75.5 298.5Q42 330 38 383H131Q133 365 142.5 354Q152 343 171 343Q187 343 197.5 352.5Q208 362 208 379Q208 396 196.5 404Q185 412 167 412H140Z" glyph-name="uni215C" horiz-adv-x="762" unicode="&#8540;" /><glyph d="M591 66Q610 66 621.5 76Q633 86 633 103Q633 119 621.5 128.5Q610 138 591 138Q573 138 561.5 128.5Q550 119 550 103Q550 86 561.5 76Q573 66 591 66ZM591 211Q608 211 618 220Q628 229 628 245Q628 260 618 269.5Q608 279 591 279Q575 279 564.5 269.5Q554 260 554 245Q554 229 564.5 220Q575 211 591 211ZM591 -5Q564 -5 540.5 2Q517 9 499.5 21.5Q482 34 471.5 52.5Q461 71 461 95Q461 125 476.5 145Q492 165 515 173Q495 184 483.5 203Q472 222 472 247Q472 271 481.5 290Q491 309 507.5 321.5Q524 334 545.5 340.5Q567 347 591 347Q614 347 636 340.5Q658 334 674.5 321.5Q691 309 700.5 290Q710 271 710 247Q710 222 698.5 203Q687 184 667 173Q690 165 705.5 145Q721 125 721 95Q721 71 711 52.5Q701 34 683.5 21.5Q666 9 642 2Q618 -5 591 -5ZM209 0H119L550 614H640ZM174 426Q161 426 152 421.5Q143 417 136 409H59V614H273V538H133V486Q141 491 155.5 495Q170 499 184 499Q237 499 268 467.5Q299 436 299 385Q299 331 265 299Q231 267 175 267Q115 267 80.5 297.5Q46 328 42 380H134Q136 365 146.5 354.5Q157 344 175 344Q191 344 202 355Q213 366 213 385Q213 402 202.5 414Q192 426 174 426Z" glyph-name="uni215D" horiz-adv-x="769" unicode="&#8541;" /><glyph d="M531 66Q549 66 560.5 76Q572 86 572 103Q572 119 560.5 128.5Q549 138 531 138Q513 138 501 128.5Q489 119 489 103Q489 86 501 76Q513 66 531 66ZM531 211Q547 211 557.5 220Q568 229 568 245Q568 260 557.5 269.5Q547 279 531 279Q515 279 504 269.5Q493 260 493 245Q493 229 504 220Q515 211 531 211ZM531 -5Q504 -5 480.5 2Q457 9 439 21.5Q421 34 410.5 52.5Q400 71 400 95Q400 125 415.5 145Q431 165 454 173Q434 184 423 203Q412 222 412 247Q412 271 421.5 290Q431 309 447.5 321.5Q464 334 485.5 340.5Q507 347 531 347Q554 347 576 340.5Q598 334 614 321.5Q630 309 640 290Q650 271 650 247Q650 222 638.5 203Q627 184 607 173Q630 165 645.5 145Q661 125 661 95Q661 71 651 52.5Q641 34 623 21.5Q605 9 581.5 2Q558 -5 531 -5ZM148 0H59L490 614H579ZM173 273H79L182 534H39V614H281V551Z" glyph-name="uni215E" horiz-adv-x="709" unicode="&#8542;" /><glyph d="M449 0Q435 -21 425 -34Q415 -47 409.5 -56.5Q404 -66 401.5 -73Q399 -80 399 -88Q399 -98 404.5 -103.5Q410 -109 420 -109Q428 -109 436 -105Q444 -101 456 -94V-167Q443 -176 428.5 -182Q414 -188 394 -188Q374 -188 359 -182.5Q344 -177 333.5 -167.5Q323 -158 317.5 -144Q312 -130 312 -113Q312 -97 316.5 -83.5Q321 -70 328.5 -56.5Q336 -43 345.5 -29Q355 -15 367 0H326V41Q307 20 276 5Q245 -10 206 -10Q131 -10 90 35Q49 80 49 155V447H173V180Q173 145 190.5 122.5Q208 100 245 100Q273 100 295.5 117Q318 134 325 162V447H449Z" glyph-name="uogonek" horiz-adv-x="503" unicode="&#371;" /><glyph d="M449 0H326V41Q307 20 276 5Q245 -10 206 -10Q131 -10 90 35Q49 80 49 155V447H173V180Q173 145 190.5 122.5Q208 100 245 100Q273 100 295.5 117Q318 134 325 162V447H449ZM350 584Q350 563 342.5 545.5Q335 528 321 515Q307 502 289 494.5Q271 487 250 487Q229 487 211 494.5Q193 502 179.5 515Q166 528 158.5 545.5Q151 563 151 584Q151 604 158.5 622Q166 640 179.5 653Q193 666 211 673.5Q229 681 250 681Q271 681 289 673.5Q307 666 321 653Q335 640 342.5 622Q350 604 350 584ZM290 584Q290 601 278.5 612.5Q267 624 250 624Q234 624 222.5 612.5Q211 601 211 584Q211 567 222.5 556Q234 545 250 545Q267 545 278.5 556Q290 567 290 584Z" glyph-name="uring" horiz-adv-x="503" unicode="&#367;" /><glyph d="M449 0H326V41Q307 20 276 5Q245 -10 206 -10Q131 -10 90 35Q49 80 49 155V447H173V180Q173 145 190.5 122.5Q208 100 245 100Q273 100 295.5 117Q318 134 325 162V447H449ZM392 643Q392 614 387.5 588Q383 562 372.5 544Q362 526 346 515Q330 504 307 504Q290 504 276.5 511Q263 518 251.5 527Q240 536 229 543Q218 550 207 550Q193 550 185.5 538.5Q178 527 178 508H107Q107 537 111.5 562.5Q116 588 126.5 607Q137 626 153.5 636.5Q170 647 192 647Q209 647 222.5 640Q236 633 248 624Q260 615 270.5 608Q281 601 292 601Q306 601 313.5 612.5Q321 624 321 643Z" glyph-name="utilde" horiz-adv-x="503" unicode="&#361;" /><glyph d="M182 0 13 447H143L245 150L347 447H472L302 0Z" glyph-name="v" horiz-adv-x="485" unicode="v" /><glyph d="M459 162 538 447H658L522 0H408L335 275L263 0H149L13 447H137L217 162L290 447H385Z" glyph-name="w" horiz-adv-x="671" unicode="w" /><glyph d="M459 162 538 447H658L522 0H408L335 275L263 0H149L13 447H137L217 162L290 447H385ZM274 508 353 650H476L386 508Z" glyph-name="wacute" horiz-adv-x="671" unicode="&#7811;" /><glyph d="M459 162 538 447H658L522 0H408L335 275L263 0H149L13 447H137L217 162L290 447H385ZM482 503H385L336 571L287 503H189L284 647H388Z" glyph-name="wcircumflex" horiz-adv-x="671" unicode="&#373;" /><glyph d="M459 162 538 447H658L522 0H408L335 275L263 0H149L13 447H137L217 162L290 447H385ZM188 570Q188 599 207.5 618Q227 637 254 637Q268 637 280 631.5Q292 626 301 617Q310 608 315 596Q320 584 320 570Q320 543 301 523.5Q282 504 254 504Q227 504 207.5 523.5Q188 543 188 570ZM352 570Q352 599 371 618Q390 637 417 637Q431 637 443 631.5Q455 626 464.5 617Q474 608 479 596Q484 584 484 570Q484 543 464.5 523.5Q445 504 417 504Q390 504 371 523.5Q352 543 352 570Z" glyph-name="wdieresis" horiz-adv-x="671" unicode="&#7813;" /><glyph d="M459 162 538 447H658L522 0H408L335 275L263 0H149L13 447H137L217 162L290 447H385ZM284 508 195 650H317L397 508Z" glyph-name="wgrave" horiz-adv-x="671" unicode="&#7809;" /><glyph d="M306 231 469 0H332L236 140L139 0H9L171 228L19 447H155L241 320L329 447H459Z" glyph-name="x" horiz-adv-x="478" unicode="x" /><glyph d="M119 -165 184 -2 13 447H144L247 150L348 447H474L241 -165Z" glyph-name="y" horiz-adv-x="487" unicode="y" /><glyph d="M119 -165 184 -2 13 447H144L247 150L348 447H474L241 -165ZM185 508 264 650H387L297 508Z" glyph-name="yacute" horiz-adv-x="487" unicode="&#253;" /><glyph d="M119 -165 184 -2 13 447H144L247 150L348 447H474L241 -165ZM393 503H296L247 571L198 503H100L195 647H299Z" glyph-name="ycircumflex" horiz-adv-x="487" unicode="&#375;" /><glyph d="M119 -165 184 -2 13 447H144L247 150L348 447H474L241 -165ZM99 570Q99 599 118.5 618Q138 637 165 637Q179 637 191 631.5Q203 626 212 617Q221 608 226 596Q231 584 231 570Q231 543 212 523.5Q193 504 165 504Q138 504 118.5 523.5Q99 543 99 570ZM263 570Q263 599 282 618Q301 637 328 637Q342 637 354 631.5Q366 626 375.5 617Q385 608 390 596Q395 584 395 570Q395 543 375.5 523.5Q356 504 328 504Q301 504 282 523.5Q263 543 263 570Z" glyph-name="ydieresis" horiz-adv-x="487" unicode="&#255;" /><glyph d="M65 200H217V256H65V340H170L19 614H156L283 372L410 614H542L389 340H495V256H343V200H495V116H343V0H217V116H65Z" glyph-name="yen" horiz-adv-x="561" unicode="&#165;" /><glyph d="M48 200H197V256H48V340H154L14 614H149L263 376L377 614H507L366 340H472V256H323V200H472V116H323V0H197V116H48Z" glyph-name="yen.lt" horiz-adv-x="520" /><glyph d="M119 -165 184 -2 13 447H144L247 150L348 447H474L241 -165ZM195 508 106 650H228L308 508Z" glyph-name="ygrave" horiz-adv-x="487" unicode="&#7923;" /><glyph d="M412 0H38V80L253 347H46V447H408V367L197 100H412Z" glyph-name="z" horiz-adv-x="453" unicode="z" /><glyph d="M412 0H38V80L253 347H46V447H408V367L197 100H412ZM175 508 254 650H377L287 508Z" glyph-name="zacute" horiz-adv-x="453" unicode="&#378;" /><glyph d="M412 0H38V80L253 347H46V447H408V367L197 100H412ZM289 503H185L90 647H188L237 578L286 647H383Z" glyph-name="zcaron" horiz-adv-x="453" unicode="&#382;" /><glyph d="M412 0H38V80L253 347H46V447H408V367L197 100H412ZM311 579Q311 547 289 527.5Q267 508 237 508Q208 508 186 527.5Q164 547 164 579Q164 610 186 629.5Q208 649 237 649Q267 649 289 629.5Q311 610 311 579Z" glyph-name="zdotaccent" horiz-adv-x="453" unicode="&#380;" /><glyph d="M274 -10Q220 -10 175 13Q130 36 98.5 78Q67 120 49.5 178.5Q32 237 32 307Q32 377 49.5 435.5Q67 494 98.5 536Q130 578 175 601Q220 624 274 624Q327 624 372 601Q417 578 449 536Q481 494 498 435.5Q515 377 515 307Q515 237 498 178.5Q481 120 449 78Q417 36 372 13Q327 -10 274 -10ZM274 510Q243 510 220.5 494.5Q198 479 183.5 451.5Q169 424 162.5 387Q156 350 156 307Q156 264 162.5 227Q169 190 183.5 162.5Q198 135 220.5 119.5Q243 104 274 104Q304 104 326.5 119.5Q349 135 363 162.5Q377 190 383.5 227Q390 264 390 307Q390 350 383.5 387Q377 424 363 451.5Q349 479 326.5 494.5Q304 510 274 510Z" glyph-name="zero" horiz-adv-x="547" unicode="0" /><glyph d="M260 -10Q206 -10 162.5 13Q119 36 88.5 78Q58 120 41.5 178.5Q25 237 25 307Q25 377 41.5 435.5Q58 494 88.5 536Q119 578 162.5 601Q206 624 260 624Q314 624 357.5 601Q401 578 432 536Q463 494 479 435.5Q495 377 495 307Q495 237 479 178.5Q463 120 432 78Q401 36 357.5 13Q314 -10 260 -10ZM260 510Q230 510 209 494.5Q188 479 174.5 451.5Q161 424 155 387Q149 350 149 307Q149 264 155 227Q161 190 174.5 162.5Q188 135 209 119.5Q230 104 260 104Q290 104 311 119.5Q332 135 345.5 162.5Q359 190 365 227Q371 264 371 307Q371 350 365 387Q359 424 345.5 451.5Q332 479 311 494.5Q290 510 260 510Z" glyph-name="zero.lt" horiz-adv-x="520" /></font>
</defs>
</svg>
